<svg width="192" height="192" viewBox="0 0 192 192" fill="none" xmlns="http://www.w3.org/2000/svg">
    <path d="M192 96c0 53.019-42.981 96-96 96-53.02 0-96-42.981-96-96C0 42.98 42.98 0 96 0c53.019 0 96 42.98 96 96z" fill="#FCFCFC"/>
    <path fill-rule="evenodd" clip-rule="evenodd" d="M96 189c51.362 0 93-41.638 93-93S147.362 3 96 3 3 44.638 3 96s41.638 93 93 93zm0 3c53.019 0 96-42.981 96-96 0-53.02-42.981-96-96-96C42.98 0 0 42.98 0 96c0 53.019 42.98 96 96 96z" fill="#FAFAFA"/>
    <path d="M135 144c0 3.314-22.833 6-51 6-28.166 0-51-2.686-51-6s22.834-6 51-6c28.167 0 51 2.686 51 6z" fill="#A2A2A2"/>
    <path d="M45 54c0-6.627 5.373-12 12-12h60c6.627 0 12 5.373 12 12v87a3 3 0 0 1-3 3H48a3 3 0 0 1-3-3V54z" fill="#F0F2FF"/>
    <path d="M45 54c0-6.627 5.373-12 12-12h60c6.627 0 12 5.373 12 12v6H45v-6z" fill="#4081FF"/>
    <path d="M45 66h84v24H45V66z" fill="#D6D6D6"/>
    <path d="M57 75a3 3 0 0 1 3-3h54a3 3 0 0 1 3 3v6a3 3 0 0 1-3 3H60a3 3 0 0 1-3-3v-6z" fill="#B3B3B3"/>
    <path d="M57 75a3 3 0 0 1 3-3h54v6a3 3 0 0 1-3 3H57v-6z" fill="#E1EDFF"/>
    <path d="M63.667 72H67l-6.667 9H57l6.667-9zM107.003 72h3.333l-6.667 9h-3.333l6.667-9zM73.674 72h13.334l-6.667 9H67.008l6.666-9z" fill="#fff"/>
    <path d="M87 96h18c6.627 0 12 5.373 12 12v36H87V96z" fill="#ECECEC"/>
    <path d="M57 108c0-6.627 5.373-12 12-12h18v48H57v-36z" fill="#fff"/>
    <path d="M159 120c0 16.569-13.431 30-30 30-16.569 0-30-13.431-30-30 0-16.569 13.431-30 30-30 16.569 0 30 13.431 30 30z" fill="#4185EB"/>
    <path d="M126 111a3 3 0 1 1 6 0v18a3 3 0 1 1-6 0v-18z" fill="#fff"/>
    <path d="M138 117a3 3 0 1 1 0 6h-18a3 3 0 1 1 0-6h18z" fill="#fff"/>
</svg>
