<svg width="933" height="288" viewBox="0 0 933 288" fill="none" xmlns="http://www.w3.org/2000/svg">
    <path d="M30.028 100.138C23.62 98.986 18.4 93.982 18.4 88.798V86.35h-3.924v2.448c0 5.148-5.22 10.152-11.628 11.34l1.584 3.06c5.292-1.08 9.864-4.464 11.988-8.928 2.124 4.464 6.696 7.848 11.988 8.928l1.62-3.06zM1.84 109.534v3.06h29.448v-3.06H1.84zM39.745 90.382h7.884v15.336h-7.884V90.382zm-3.672 18.288h15.228V87.43H36.073v21.24zm29.124-11.7h-5.076V84.262h-3.708v32.544h3.708V100.03h5.076v-3.06zM94.246 101.434H75.49V96.97h17.784v-2.916H75.49v-4.176h18.504V86.89H71.71v17.532h22.536v-2.988zm-26.172 8.316v3.024h29.484v-3.024H68.074zM110.659 106.726c-2.628 0-4.536-1.8-4.536-4.536 0-2.736 1.908-4.536 4.536-4.536 2.628 0 4.536 1.8 4.536 4.536 0 2.736-1.908 4.536-4.536 4.536zm0-12.132c-4.68 0-8.064 3.168-8.064 7.596 0 4.464 3.384 7.596 8.064 7.596 4.644 0 8.064-3.132 8.064-7.596 0-4.428-3.42-7.596-8.064-7.596zm1.8-9.828h-3.708v4.5h-7.74v3.024h19.044v-3.024h-7.596v-4.5zm18.972 12.564h-5.004V84.262h-3.744v32.544h3.744v-16.38h5.004V97.33zM151.733 97.186h-4.788c.936-2.772 1.368-5.76 1.368-8.928h-12.636v2.988h8.964c-.54 6.66-3.744 11.988-10.512 16.02l2.124 2.628c4.5-2.7 7.596-5.976 9.504-9.72h5.976v15.048h3.492V85.054h-3.492v12.132zm6.804-12.924v32.508h3.564V84.262h-3.564zM194.736 87.43h-7.74v-3.348h-3.708v3.348h-7.74v2.952h19.188V87.43zm-13.932 10.296c0-1.944 1.728-3.096 4.32-3.096 2.592 0 4.356 1.152 4.356 3.096 0 1.908-1.764 3.06-4.356 3.06-2.592 0-4.32-1.152-4.32-3.06zm12.204 0c0-3.564-3.204-5.94-7.884-5.94s-7.884 2.376-7.884 5.94c0 3.528 3.204 5.904 7.884 5.904s7.884-2.376 7.884-5.904zm-13.5 11.448h17.676v7.596h3.708v-10.584h-21.384v2.988zm25.992-16.2h-4.608v-8.712h-3.708v20.34h3.708v-8.568h4.608v-3.06zM225.477 103.342v2.592h6.372v3.024h3.708V84.226h-3.708v19.116h-6.372zm-6.48-15.12c2.664 0 4.5 1.152 4.5 2.988s-1.836 2.988-4.5 2.988c-2.7 0-4.536-1.152-4.536-2.988s1.836-2.988 4.536-2.988zm0 8.712c4.752 0 8.028-2.268 8.028-5.724 0-3.456-3.276-5.724-8.028-5.724-4.788 0-8.064 2.268-8.064 5.724 0 3.456 3.276 5.724 8.064 5.724zm-1.476 10.98h3.708v-6.264c2.772-.18 5.616-.468 8.352-.936l-.288-2.664c-6.876.864-14.868.936-20.844.972l.468 3.024c2.592 0 5.508-.036 8.604-.18v6.048zm-.972 5.22v-6.588h-3.708v9.612h23.472v-3.024h-19.764zM264.52 87.97c4.572 0 7.56 1.332 7.56 3.636 0 2.304-2.988 3.636-7.56 3.636-4.608 0-7.596-1.332-7.596-3.636 0-2.304 2.988-3.636 7.596-3.636zm0 10.26c6.948 0 11.52-2.556 11.52-6.624s-4.572-6.624-11.52-6.624c-6.984 0-11.52 2.556-11.52 6.624s4.536 6.624 11.52 6.624zm-7.344 8.316h-3.744v9.612h22.608v-3.024h-18.864v-6.588zm-7.38-6.12v3.024H262.9v6.156h3.78v-6.156h12.6v-3.024h-29.484zM286.909 93.946c0-2.844 2.088-4.716 4.968-4.716 2.808 0 4.896 1.872 4.896 4.716 0 2.808-2.088 4.68-4.896 4.68-2.88 0-4.968-1.872-4.968-4.68zm19.26-2.196v4.392h-6.192a7.197 7.197 0 0 0 .324-2.196c0-.792-.108-1.512-.288-2.196h6.156zm0 7.38v4.284h3.708V84.226h-3.708v4.5h-7.848c-1.512-1.62-3.78-2.628-6.444-2.628-4.86 0-8.496 3.24-8.496 7.848 0 4.572 3.636 7.812 8.496 7.812 2.628 0 4.932-.972 6.444-2.628h7.848zm-7.128 14.724c-4.608 0-7.308-1.188-7.308-3.42 0-2.16 2.7-3.384 7.308-3.384 4.644 0 7.308 1.224 7.308 3.384 0 2.232-2.664 3.42-7.308 3.42zm0-9.72c-6.768 0-10.944 2.34-10.944 6.3 0 3.996 4.176 6.336 10.944 6.336 6.768 0 10.98-2.34 10.98-6.336 0-3.96-4.212-6.3-10.98-6.3zM325.534 106.726c-2.628 0-4.536-1.8-4.536-4.536 0-2.736 1.908-4.536 4.536-4.536 2.628 0 4.536 1.8 4.536 4.536 0 2.736-1.908 4.536-4.536 4.536zm0-12.132c-4.68 0-8.064 3.168-8.064 7.596 0 4.464 3.384 7.596 8.064 7.596 4.644 0 8.064-3.132 8.064-7.596 0-4.428-3.42-7.596-8.064-7.596zm1.8-9.828h-3.708v4.5h-7.74v3.024h19.044v-3.024h-7.596v-4.5zm18.972 12.564h-5.004V84.262h-3.744v32.544h3.744v-16.38h5.004V97.33zM375.284 93.586h-18.612v-8.172h-3.708V96.61h22.32v-3.024zm-18.828 12.888h-3.708v9.576h22.716v-2.988h-19.008v-6.588zm-7.308-5.976v2.988h29.52v-2.988h-29.52zM403.167 98.482h-7.956V93.73h7.956v4.752zm3.672-12.168h-3.672v4.5h-7.956v-4.5h-3.708v15.12h15.336v-15.12zm-1.548 27.576c-4.536 0-7.164-1.152-7.164-3.276 0-2.088 2.628-3.24 7.164-3.24s7.164 1.152 7.164 3.24c0 2.124-2.628 3.276-7.164 3.276zm0-9.468c-6.696 0-10.836 2.34-10.836 6.192 0 3.888 4.14 6.192 10.836 6.192 6.696 0 10.836-2.304 10.836-6.192 0-3.852-4.14-6.192-10.836-6.192zm10.476-12.24v-7.92h-3.708v19.404h3.708v-8.424h4.608v-3.06h-4.608zM446.724 113.35h-13.752v-3.42h13.752v3.42zm0-6.336h-13.752v-3.456H429.3v12.78h21.132v-12.78h-3.708v3.456zm-10.404-9.072h-7.668V93.37h7.668v4.572zm10.404-13.716v7.776h-6.768v-6.084h-3.636v4.572h-7.668v-4.608h-3.672v15.084h14.976v-5.94h6.768v7.056h3.708v-17.82l-3.708-.036zM459.573 105.538h2.772l.576-14.4.144-4.284h-4.176l.108 4.284.576 14.4zm1.368 8.928c1.584 0 2.808-1.188 2.808-2.88 0-1.728-1.224-2.952-2.808-2.952-1.548 0-2.736 1.224-2.736 2.952 0 1.692 1.188 2.88 2.736 2.88z" fill="#4757ED"/>
    <path d="M26.416 154.361h3.108v8.064h5.25v-20.496h-5.25v8.064h-3.108v-7.35H21.25v19.404h5.166v-7.686zm-6.972 1.974c-3.696.504-6.888.672-10.752.714v-2.604h9.282v-10.626H3.316v4.284h9.324v2.352H3.358v10.878h2.688c5.292 0 9.156-.084 13.86-.756l-.462-4.242zm-5.418 19.824v-2.268h20.748v-10.08H8.482v4.116h20.832v2.1H8.566v10.29h27.258v-4.158H14.026zM48.17 160.157h12.557v-14.952h-18.27v4.41h12.6v6.174H42.5v15.918h3.486c7.014 0 12.684-.252 18.984-1.344l-.588-4.494c-5.46.924-10.332 1.218-16.212 1.26v-6.972zm18.9-18.27v38.808h5.543v-38.808H67.07zM82.606 165.911c6.72-1.218 11.55-4.62 13.986-9.198 2.436 4.494 7.35 7.812 14.154 8.988l2.1-4.368c-8.736-1.302-13.314-6.426-13.356-11.76h11.634v-4.368H81.976v4.368H93.61c-.042 5.334-4.62 10.584-13.146 11.928l2.142 4.41zm-3.528 5.586v4.494h35.028v-4.494H79.078zM141.468 144.911h-5.586v5.628c0 7.182-2.94 14.574-9.45 17.64l3.318 4.494c4.368-2.142 7.266-6.216 8.946-11.13 1.596 4.62 4.326 8.358 8.358 10.416l3.36-4.368c-6.216-3.066-8.946-10.08-8.946-17.052v-5.628zm21.672 11.886h-5.628v-14.868h-5.544v38.682h5.544v-19.194h5.628v-4.62zM183.255 176.453c-5.166 0-7.812-.882-7.812-2.856 0-1.974 2.646-2.814 7.812-2.814s7.812.84 7.812 2.814c0 1.974-2.646 2.856-7.812 2.856zm0-9.87c-8.358 0-13.398 2.52-13.398 7.014s5.04 7.056 13.398 7.056 13.44-2.562 13.44-7.056-5.082-7.014-13.44-7.014zm-3.99-9.534c1.26.168 2.604.252 4.074.252a38.85 38.85 0 0 0 3.99-.21v3.192h-8.064v-3.234zm4.074-10.332c5.292 0 8.316 1.05 8.316 3.234 0 2.1-3.024 3.192-8.316 3.192-5.25 0-8.274-1.092-8.274-3.192 0-2.184 3.024-3.234 8.274-3.234zm9.534 13.566v-4.62c2.856-1.26 4.494-3.192 4.494-5.712 0-4.62-5.46-7.434-14.028-7.434-8.526 0-13.986 2.814-13.986 7.434 0 2.478 1.596 4.41 4.368 5.67v4.662h-7.854v4.368h34.944v-4.368h-7.938zM244.553 166.877c1.302-7.812 1.302-13.146 1.302-17.892v-3.738h-28.434v4.41h22.89c0 4.452-.042 9.66-1.302 16.674l5.544.546zm-8.19 4.62v-12.222h-5.418v12.222h-4.116v-12.222h-5.46v12.222h-7.35v4.452h35.028v-4.452h-12.684zM270.128 146.969c5.292 0 8.316 1.134 8.316 3.318 0 2.268-3.024 3.36-8.316 3.36-5.25 0-8.274-1.092-8.274-3.36 0-2.184 3.024-3.318 8.274-3.318zm0 10.962c8.526 0 14.028-2.898 14.028-7.644 0-4.662-5.502-7.56-14.028-7.56-8.484 0-13.986 2.898-13.986 7.56 0 4.746 5.502 7.644 13.986 7.644zm3.654 9.996h-7.35v-3.57h7.35v3.57zm13.818-3.57v-4.41h-34.944v4.41h8.232v3.57h-4.368v4.326h21.336v8.4h5.544v-12.726h-4.116v-3.57h8.316zM308.765 146.549c5.628 0 8.274.798 8.274 2.52 0 1.806-2.646 2.562-8.274 2.562-5.586 0-8.232-.756-8.232-2.562 0-1.722 2.646-2.52 8.232-2.52zm0 9.114c8.862 0 14.028-2.31 14.028-6.594 0-4.242-5.166-6.594-14.028-6.594-8.82 0-13.986 2.352-13.986 6.594 0 4.284 5.166 6.594 13.986 6.594zm-7.938 18.312h21.168v-9.954h-26.712v4.074h21.252v2.058h-21.21v10.164h27.678v-4.158h-22.176v-2.184zm-9.534-16.464v4.326h34.944v-4.326h-34.944zM371.575 141.971h-5.586v28.182h5.586v-28.182zm-8.442 17.934c-6.3-2.016-8.988-6.972-8.988-12.096v-3.738h-5.628v3.738c0 5.166-2.772 10.584-9.198 12.768l2.814 4.41c4.494-1.554 7.518-4.704 9.282-8.61 1.68 3.612 4.62 6.468 8.904 7.938l2.814-4.41zm-11.76 15.624v-8.064h-5.544v12.474h26.712v-4.41h-21.168zM398.872 152.261v4.452h6.006v8.568h5.544v-23.352h-5.544v10.332h-6.006zm2.436 7.56c-6.174-1.638-8.946-5.544-9.03-9.534h7.644v-4.368h-7.644v-4.116h-5.544v4.116h-7.56v4.368h7.56c-.084 4.326-2.772 8.694-8.904 10.458l2.604 4.284c4.494-1.302 7.518-4.032 9.24-7.56 1.764 3.066 4.788 5.46 9.114 6.594l2.52-4.242zm-3.948 16.548c-5.124 0-7.728-.966-7.728-3.066 0-2.1 2.604-3.108 7.728-3.108 5.04 0 7.686 1.008 7.686 3.108s-2.646 3.066-7.686 3.066zm0-10.416c-8.232 0-13.272 2.688-13.272 7.35 0 4.62 5.04 7.308 13.272 7.308 8.19 0 13.23-2.688 13.23-7.308 0-4.662-5.04-7.35-13.23-7.35zM426 167.675c-2.1 0-3.612-1.68-3.612-4.578 0-2.898 1.512-4.62 3.612-4.62s3.612 1.722 3.612 4.62-1.512 4.578-3.612 4.578zm0-13.818c-4.956 0-8.484 3.822-8.484 9.24 0 5.376 3.528 9.198 8.484 9.198 4.956 0 8.484-3.822 8.484-9.198 0-5.418-3.528-9.24-8.484-9.24zm2.73-10.878h-5.46v4.788h-6.594v4.41h18.48v-4.41h-6.426v-4.788zm15.918-1.092v15.792h-2.94v-15.036h-5.166v36.33h5.166v-16.842h2.94v18.438h5.25v-38.682h-5.25zM474.069 154.697h16.548v5.418h-16.548v-5.418zm11.046 16.926v-7.098h10.962v-20.202h-5.46v6.006h-16.548v-6.006h-5.502v20.202h11.004v7.098h-14.7v4.494h35.028v-4.494h-14.784zM515.856 145.289h-5.334v6.51c0 6.594-2.058 13.524-7.728 16.968l3.318 4.158c3.486-2.1 5.754-5.796 7.098-10.08 1.218 3.906 3.276 7.182 6.552 9.198l3.024-4.284c-5.25-3.486-6.93-9.912-6.93-16.17v-6.3zm7.728 9.702h-4.872v4.494h4.872v19.404h5.166v-36.33h-5.166v12.432zm7.854-13.062v38.682h5.25v-38.682h-5.25zM555.374 164.231a22.77 22.77 0 0 0 4.242.378c1.512 0 2.94-.126 4.284-.378v7.392h-8.526v-7.392zm4.242-16.044c5.376 0 8.988 2.184 8.988 6.048 0 3.822-3.612 6.048-8.988 6.048-5.376 0-8.946-2.226-8.946-6.048 0-3.864 3.57-6.048 8.946-6.048zm9.786 23.436v-9.45c2.898-1.806 4.662-4.578 4.662-7.938 0-6.342-6.09-10.416-14.448-10.416-8.316 0-14.406 4.074-14.406 10.416-.042 3.36 1.722 6.132 4.662 7.938v9.45h-7.728v4.494h35.028v-4.494h-7.77zM585.779 177.587c2.226 0 3.864-1.764 3.864-4.032 0-2.31-1.638-4.032-3.864-4.032-2.184 0-3.822 1.722-3.822 4.032 0 2.268 1.638 4.032 3.822 4.032z" fill="#271E16"/>
    <g clip-path="url(#sp1ou69cca)">
        <path d="M794.17 57.504s-8.088 11.055 4.98 26.135l9.547-4.025-.412-11.887-14.115-10.223z" fill="#171B2C"/>
        <path d="M801.262 82.694c-1.741-.757-4.345-.832-5.965.958-2.073 2.289-2.856 10.362 4.573 13.406l1.392-14.364z" fill="#FBD5CF"/>
        <path fill-rule="evenodd" clip-rule="evenodd" d="M795.794 86.9a.86.86 0 0 1 1.086-.537l2.12.7c.45.148.693.629.543 1.073a.86.86 0 0 1-1.086.537l-2.12-.7a.847.847 0 0 1-.543-1.074z" fill="#E39E99"/>
        <path d="M800.81 66.113s-1.717 9.34-.206 16.166c-1.459 7.081-6.267 16.778 4.242 30.092a16.155 16.155 0 0 0 10.612 5.264l.189 32.911 33.57 1.087v-66.23l-14.252-16.455-20.52-8.321-13.635 5.486z" fill="#FFE0DB"/>
        <path d="M865.693 46.924c-7.693-8.847-26.856-15.946-41.71-11.378-3.52 1.07-10.413 1.758-13.053 1.758-7.188 0-12.789 1.435-15.813 2.87-5.9 2.799-8.625 7.98-8.625 14.347 0 5.095 4.316 13.427 14.31 14.14 34.343.85 39.495 6.623 42.929 12.737 1.431 2.547.859 6.793 1.717 9.34 1.718.63.859-2.547 3.761-2.547 0 0-.017 24.589 0 24.606a21.665 21.665 0 0 1 2.919-2.123 48.995 48.995 0 0 0 7.779-7.03c6.868-7.693 12.69-18.562 13.342-29.21.653-10.647-.927-19.902-7.556-27.51z" fill="#252A42"/>
        <path d="M806.448 75.865a.25.25 0 0 0 .354.354l-.354-.354zm4.313.354a.25.25 0 1 0 .353-.354l-.353.354zm15.812-.355a.25.25 0 0 0 .354.354l-.354-.354zm4.313.354a.25.25 0 1 0 .353-.354l-.353.354zm-24.084 0c.691-.69 1.35-1.003 1.979-1.003s1.288.313 1.98 1.004l.353-.354c-.746-.745-1.524-1.15-2.333-1.15-.808 0-1.587.405-2.333 1.15l.354.354zm20.125 0c.691-.69 1.35-1.003 1.979-1.003s1.288.313 1.98 1.003l.353-.354c-.746-.745-1.524-1.15-2.333-1.15-.808 0-1.587.405-2.333 1.15l.354.354z" fill="#464E54"/>
        <path d="M815.414 117.64s11.144 1.698 19.85-3.142l-19.85 16.438V117.64z" fill="#E7B4AB"/>
        <g filter="url(#8pjtg6ja2b)">
            <path d="M831.73 98.672c-.103 1.698 1.992 3.397 4.654 3.498 2.661.102 4.928-1.086 5.031-2.836.103-1.749-1.975-3.396-4.654-3.498-2.678-.102-4.928 1.087-5.031 2.836z" fill="#E58396" fill-opacity=".7"/>
        </g>
        <g filter="url(#wwlo6o1dvc)">
            <path d="M800.816 97.189c-.092 1.812 1.752 3.625 4.129 3.734 2.378.109 4.359-1.16 4.45-3.046.092-1.885-1.752-3.625-4.13-3.734-2.377-.109-4.358 1.178-4.449 3.046z" fill="#E58396" fill-opacity=".7"/>
        </g>
        <path d="M851.493 87.936c6.742 1.111 6.092 15.294-5.132 14.132l1.214-12.574c.048-1.628 2.256-1.918 3.918-1.558z" fill="#FFE0DB"/>
        <path fill-rule="evenodd" clip-rule="evenodd" d="M853.054 93.848a.847.847 0 0 1-.516 1.087l-5.083 1.817a.86.86 0 0 1-1.099-.51.847.847 0 0 1 .516-1.087l5.082-1.817a.862.862 0 0 1 1.1.51z" fill="#E39E99"/>
        <path fill-rule="evenodd" clip-rule="evenodd" d="M815.973 100.571a.866.866 0 0 1 1.206-.141c1.532 1.195 3.312 1.311 4.785 1.093a9.641 9.641 0 0 0 2.338-.665 3.96 3.96 0 0 0 .13-.06l.029-.014.004-.001a.863.863 0 0 1 1.155.369.845.845 0 0 1-.373 1.143l-.391-.756.391.756-.004.001-.005.003-.015.007-.05.024a9.763 9.763 0 0 1-.804.329c-.53.191-1.278.414-2.151.543-1.738.257-4.062.152-6.102-1.438a.844.844 0 0 1-.143-1.193z" fill="#D63535"/>
        <path fill-rule="evenodd" clip-rule="evenodd" d="m864.754 46.984.002-.003.023-.03.108-.129a8.387 8.387 0 0 1 2.2-1.778c1.493-.826 3.641-1.378 6.356-.228a.862.862 0 0 0 1.127-.446.845.845 0 0 0-.451-1.115c-3.295-1.396-6.006-.725-7.871.308a10.09 10.09 0 0 0-2.669 2.159 6.44 6.44 0 0 0-.149.179l-.041.053-.012.016-.004.005-.002.002-.001.001.692.504-.692-.503a.843.843 0 0 0 .183 1.187.865.865 0 0 0 1.2-.18h-.001.001l.001-.002z" fill="#131B28"/>
        <path fill-rule="evenodd" clip-rule="evenodd" d="m830.824 58.209.001.004.006.017.026.077c.024.068.06.17.109.303.098.265.246.65.445 1.12.4.941 1 2.22 1.804 3.57 1.629 2.733 4.001 5.598 7.094 6.7a.846.846 0 0 1 .516 1.087.86.86 0 0 1-1.098.511c-3.673-1.31-6.306-4.608-7.992-7.436a31.44 31.44 0 0 1-2.382-4.97 16.956 16.956 0 0 1-.12-.334l-.031-.09-.008-.026-.003-.007-.001-.002.817-.263-.817.263a.848.848 0 0 1 .553-1.07.86.86 0 0 1 1.081.546zM842.835 62.421l.004.01.019.05a14.618 14.618 0 0 0 .44.965c.321.648.81 1.54 1.48 2.508 1.347 1.947 3.379 4.139 6.176 5.324a.845.845 0 0 1 .451 1.115.862.862 0 0 1-1.127.446c-3.213-1.362-5.474-3.84-6.917-5.926a21.879 21.879 0 0 1-1.605-2.72 17.113 17.113 0 0 1-.493-1.083l-.026-.066-.007-.018-.002-.006-.001-.002s-.001-.001.803-.3l-.803.3a.847.847 0 0 1 .502-1.095.861.861 0 0 1 1.105.497M818.988 52.541a.85.85 0 0 1 .705.977l-.847-.14.847.14.001-.002v-.003.003l-.004.026a5.178 5.178 0 0 0-.026.679c.012.48.084 1.175.328 1.996.484 1.628 1.661 3.802 4.505 5.81a.843.843 0 0 1 .2 1.185.865.865 0 0 1-1.198.197c-3.167-2.236-4.566-4.732-5.155-6.713a9.412 9.412 0 0 1-.396-2.434 6.832 6.832 0 0 1 .038-.93l.008-.061.003-.02.002-.007v-.004l.847.139-.847-.14a.858.858 0 0 1 .989-.698z" fill="#2A4470"/>
        <path d="M896.755 237.512c-3.314-10.851-3.331-25.201-6.096-34.405 3.253-22.512-.691-45.467-11.281-65.652 0 0-36.336-1.511-56.358-.917-8.38.238-8.105-3.991-11.849-1.698 0 0-11.831 2.887-17.532 1.868l-11.436 96.796" fill="#fff"/>
        <path d="m829.589 136.23-10.079 10.563 6.576 9.969-11.539 82.565 30.05 2.548-10.303-85.113 7.728-9.969-12.433-10.563z" fill="#2DCC83"/>
        <path d="m849.742 126.398-19.867 9.697 11.281 20.871 13.549-20.073-4.963-10.495z" fill="#D7DCE2"/>
        <path d="m829.883 136.099-11.042 19.173-11.161-20.378 6.851-8.05 15.352 9.255z" fill="#D7DCE2"/>
        <path fill-rule="evenodd" clip-rule="evenodd" d="M799.714 144.328a.849.849 0 0 1 .709.974l-8.568 51.965a.858.858 0 0 1-.986.701.85.85 0 0 1-.709-.975l8.568-51.964a.858.858 0 0 1 .986-.701z" fill="#35051F"/>
        <path d="M774 142.497c-4.961 2.896-13.066 12.056-16.5 18-4.416 7.642-7.681 14.698-9 19.5-4.133 15.047-3.754 24.275-3.839 39.936 0 1.93.227 23.517-.52 23.636l52.024-7.463 11.511-72.583s.844-23.659-3.676-28.526c-3-1.5-12.284.597-16.072 1.587-5.094 1.297-9.332 3.264-13.928 5.913z" fill="#3E4FF3"/>
        <path fill-rule="evenodd" clip-rule="evenodd" d="M774.891 174.751a.855.855 0 0 1 .896.811l-.858.037-.858.037a.853.853 0 0 1 .82-.885zm.038.848-.858.037.023.52.068 1.484a2354.936 2354.936 0 0 0 1.178 22.989c.762 13.513 1.78 29.119 2.806 37.38a.857.857 0 0 0 .957.739.851.851 0 0 0 .748-.946c-1.018-8.194-2.034-23.742-2.796-37.268a2347.708 2347.708 0 0 1-1.245-24.454l-.023-.516s0-.002-.858.035z" fill="#35051F"/>
        <path d="m805.959 137.438 22.564 67.605S851.326 134.304 859.5 135c0 0 43.702-2.079 51.824 21.475l-14.115 135.549L762 294l6.817-107.008 9.272-42.727c3.996-5.504 10.192-7.937 16.911-9.264 6-1.5 9-1.5 10.959 2.437z" fill="#3E4FF3"/>
        <path fill-rule="evenodd" clip-rule="evenodd" d="M796.77 136.848c.473.033.829.44.795.907l-1.422 19.714 11.836 7.252a.845.845 0 0 1 .329 1.076l-7.723 16.669 18.021 33.627a.845.845 0 0 1-.357 1.148.863.863 0 0 1-1.161-.353l-18.219-33.997a.843.843 0 0 1-.022-.752l7.584-16.369-11.634-7.128a.845.845 0 0 1-.404-.782l1.459-20.226a.856.856 0 0 1 .918-.786z" fill="#1427DE"/>
        <path d="M908.688 149.16c21.567 18.391 25.259 51.913 24.04 79.237-.172 3.6-4.688 41.13-4.293 41.249l-53.472-16.456 7.092-64.751-22.478-34.1s-4.289-15.941.004-19.338c2.576-.848 19.812 1.065 29.153 4.461 6.055 2.176 15.063 5.551 19.954 9.698z" fill="#3E4FF3"/>
        <path d="M791.798 273.343c.75 2.023-.751 4.555-1.851 5.821-2.818 3.289-3.735 2.812-4.419 2.812l-77.572-3.716a7.974 7.974 0 0 1-4.135-1.491 7.808 7.808 0 0 1-2.685-3.442L657.064 165.89c-.25-.691.217-1.645 1.668-3.601 1.067-1.431 3.035-3.289 5.102-3.289h80.673a7.981 7.981 0 0 1 4.136 1.491 7.815 7.815 0 0 1 2.685 3.442l40.47 109.41z" fill="#376B37"/>
        <path d="M788.679 277.039c1.002 2.745-.418 4.961-3.192 4.961h-80.826a8.007 8.007 0 0 1-4.151-1.5 7.89 7.89 0 0 1-2.7-3.461l-40.489-110.078c-1.002-2.745.418-4.961 3.192-4.961h80.843a7.944 7.944 0 0 1 4.136 1.502 7.83 7.83 0 0 1 2.682 3.459l40.505 110.078z" fill="#315231"/>
        <path fill-rule="evenodd" clip-rule="evenodd" d="M702 162.837c0-.462.375-.837.837-.837h37.47l.058.002a8.768 8.768 0 0 1 7.556 5.55l.007.018h-.001l38.022 104.307a.837.837 0 1 1-1.574.572l-38.018-104.297a7.085 7.085 0 0 0-6.08-4.479h-37.44a.836.836 0 0 1-.837-.836z" fill="#fff" fill-opacity=".4"/>
        <path d="M677.176 244.357s-9.685-5.094-2.559-11.768c0 0 8.208-7.218 14.39-3.549 4.173 2.479-.927 4.822-2.988 6.13-.944.594-10.165 8.593-8.843 9.187z" fill="#FFE0DB"/>
        <path d="M680.067 254.411s-10.441-5.435-2.765-12.703c0 0 10.166-9.646 16.828-5.689 4.516 2.683-.996 7.251-3.228 8.678-1.013.628-12.243 8.966-10.835 9.714z" fill="#FFE0DB"/>
        <path d="M684.964 261.578s-9.685-5.094-2.576-11.768c0 0 8.586-9.187 14.716-5.536 4.19 2.496-1.236 6.793-3.297 8.134-.944.577-10.165 8.491-8.843 9.17z" fill="#FFE0DB"/>
        <path d="M694.706 267.489s-15.455 2.547-7.298-10.545c0 0 8.225-7.234 14.39-3.566 4.172 2.496-6.748 8.558-8.809 9.866l1.717 4.245z" fill="#FFE0DB"/>
        <path fill-rule="evenodd" clip-rule="evenodd" d="m676.72 243.662.001-.001.004-.005.018-.022.075-.092c.067-.081.167-.201.297-.353.262-.304.644-.736 1.123-1.242.961-1.016 2.302-2.32 3.835-3.493 1.541-1.179 3.229-2.191 4.885-2.671 1.639-.474 3.185-.416 4.565.446a.864.864 0 0 0 1.184-.265.843.843 0 0 0-.267-1.171c-1.909-1.193-3.998-1.209-5.964-.639-1.948.564-3.833 1.716-5.454 2.957-1.629 1.246-3.039 2.619-4.038 3.675a36.564 36.564 0 0 0-1.496 1.682l-.085.103-.022.028-.006.007-.002.003h-.001l.674.527-.674-.526a.842.842 0 0 0 .142 1.192.865.865 0 0 0 1.206-.14zM680.169 253.096l.005-.005.017-.022.071-.089.282-.342c.248-.296.611-.719 1.068-1.221a39.456 39.456 0 0 1 3.677-3.565c1.485-1.25 3.138-2.406 4.791-3.124 1.657-.72 3.224-.962 4.607-.529a.86.86 0 0 0 1.077-.554.848.848 0 0 0-.56-1.066c-1.931-.603-3.953-.215-5.815.594-1.866.81-3.663 2.081-5.213 3.386a41.325 41.325 0 0 0-3.841 3.722 40.755 40.755 0 0 0-1.414 1.639l-.079.099-.021.026-.006.008-.002.002s-.001.001.678.521l-.678-.521a.844.844 0 0 0 .152 1.192.864.864 0 0 0 1.204-.151zM685.725 261.948l.002-.004.01-.02.043-.084a20.978 20.978 0 0 1 .897-1.524c.633-.979 1.558-2.245 2.733-3.414 2.367-2.355 5.569-4.162 9.407-2.828a.862.862 0 0 0 1.095-.52.846.846 0 0 0-.525-1.082c-4.765-1.656-8.638.689-11.195 3.233-1.287 1.281-2.286 2.652-2.962 3.697-.339.523-.598.969-.775 1.286-.088.159-.155.285-.201.374l-.053.103-.015.028-.004.009-.001.002v.001c-.001.001-.001.001.772.372l-.773-.371a.846.846 0 0 0 .397 1.135.864.864 0 0 0 1.148-.393z" fill="#E39E99"/>
        <path fill-rule="evenodd" clip-rule="evenodd" d="M870.011 137.135a.856.856 0 0 1 .918.786l1.459 20.226a.848.848 0 0 1-.532.847l-12.547 5.052 7.478 19.296a.843.843 0 0 1-.15.857l-31.853 36.715a.865.865 0 0 1-1.211.091.843.843 0 0 1-.093-1.197l31.521-36.331-7.596-19.6a.846.846 0 0 1 .478-1.09l12.748-5.134-1.415-19.611a.852.852 0 0 1 .795-.907zM904.473 148.181a.843.843 0 0 1-.218 1.181 34.125 34.125 0 0 0-10.092 10.748 33.712 33.712 0 0 0-4.567 13.954.856.856 0 0 1-.936.765.852.852 0 0 1-.773-.926 35.376 35.376 0 0 1 4.796-14.652 35.826 35.826 0 0 1 10.595-11.286.866.866 0 0 1 1.195.216z" fill="#1427DE"/>
        <path d="M796.71 229.176c-3.348 1.698-13.17 3.176-14.853-.136-1.717-3.311 5.409-10.189 8.757-11.887l62.402-30.992a6.935 6.935 0 0 1 5.165-.336 6.842 6.842 0 0 1 3.936 3.325 6.623 6.623 0 0 1 .387 5.117 6.67 6.67 0 0 1-1.305 2.276 6.763 6.763 0 0 1-2.087 1.607l-62.402 31.026z" fill="#fff"/>
        <path fill-rule="evenodd" clip-rule="evenodd" d="M792.035 218.569a.865.865 0 0 1 1.183-.273l-.453.721.453-.721.003.002.004.002.014.009.046.03a9.83 9.83 0 0 1 .692.505c.433.346 1.007.858 1.569 1.526 1.119 1.329 2.24 3.337 2.006 5.89a.855.855 0 0 1-.932.769.852.852 0 0 1-.778-.922c.179-1.947-.666-3.522-1.616-4.651a9.525 9.525 0 0 0-1.768-1.62 3.022 3.022 0 0 0-.116-.078l-.027-.017-.003-.003a.843.843 0 0 1-.277-1.169z" fill="#9CA3C7"/>
        <path d="m863.267 223.993-4.001-3.261s-23.869-36.715-46.192-18.85c0 0-7.881 7.438-6.25 11.989.549 1.512 1.717 2.752 5.666.374 0 0-7.95 9.34-1.081 10.58a9.222 9.222 0 0 0 .6 4.415c.109.459.322.887.621 1.254.3.367.678.662 1.109.864a3.209 3.209 0 0 0 2.752-.012c-.491 1.154-.238 5.15 2.509 7.154 2.249 1.698 9 3 10.5-1.5.824-.747 5.519 4.824 6.636 5.69 3.623 3.022 7.504 6.419 12.518 6.657 4.55.186 10.646-2.293 15.162-2.7" fill="#FFE0DB"/>
        <path fill-rule="evenodd" clip-rule="evenodd" d="m826.634 206.8-.122.838.123-.838a.85.85 0 0 1 .726.962.857.857 0 0 1-.97.719l-.002-.001.123-.84-.123.841-.008-.001a6.341 6.341 0 0 0-.272-.025 9.87 9.87 0 0 0-.883-.018c-.766.016-1.86.112-3.144.437-2.559.649-5.894 2.21-8.915 5.906a.865.865 0 0 1-1.208.126.842.842 0 0 1-.127-1.194c3.28-4.013 6.952-5.755 9.824-6.483a15.84 15.84 0 0 1 3.534-.49 11.705 11.705 0 0 1 1.326.046l.081.01.025.003.007.001h.003l.002.001zM827.696 219.409l-.405.741.406-.741a.845.845 0 0 1 .346 1.151.863.863 0 0 1-1.161.344l-.003-.002.409-.746a47.27 47.27 0 0 0-.408.747l.002.001-.007-.003-.043-.021a5.056 5.056 0 0 0-.201-.09 7.455 7.455 0 0 0-.833-.284 10.294 10.294 0 0 0-3.148-.357c-2.649.096-6.415 1.166-10.625 5.281a.867.867 0 0 1-1.215-.007.842.842 0 0 1 .008-1.201c4.495-4.393 8.662-5.658 11.77-5.77 1.542-.056 2.8.173 3.679.42a9.025 9.025 0 0 1 1.311.478l.08.039.025.013.008.004.003.002.002.001zM828.669 227.958l-.259.809.259-.809a.847.847 0 0 1 .559 1.066.86.86 0 0 1-1.076.553l-.013-.004-.055-.016a11.886 11.886 0 0 0-1.106-.248 13.929 13.929 0 0 0-2.928-.211c-2.293.087-4.924.827-6.698 3.347a.864.864 0 0 1-1.195.212.843.843 0 0 1-.214-1.182c2.193-3.118 5.443-3.975 8.04-4.074a15.612 15.612 0 0 1 4.297.45c.119.03.213.056.279.074l.077.023.023.007.007.002.003.001zM829.59 235.666l-.764.388.764-.389-.001-.001.001.002.012.022.061.105c.057.096.149.242.279.429.26.374.672.911 1.267 1.535 1.189 1.249 3.112 2.85 6.019 4.202a.845.845 0 0 1 .412 1.129.864.864 0 0 1-1.143.408c-3.12-1.451-5.215-3.186-6.538-4.574a14.67 14.67 0 0 1-1.537-1.892" fill="#E39E99"/>
        <path d="m861.002 220.5 25.079 6.875 3.658 2.004 42.517-4.823a301.647 301.647 0 0 1-1.46 30.958c-.841 10.817-2.249 19.631-8.672 28.869a30.656 30.656 0 0 1-10.999 10.002 31.056 31.056 0 0 1-14.466 3.702c-11.728.425-29.798-10.794-38.659-17.587-8.431-6.47-7.586-11.066-11.999-21-2.233-5.095-4.721-4.971-1.183-8.656l16.184-30.344z" fill="#3E4FF3"/>
        <path fill-rule="evenodd" clip-rule="evenodd" d="M863.105 221.234a.86.86 0 0 1 1.021-.65l-.181.83-.182.83a.85.85 0 0 1-.658-1.01zm.84.18-.182.83.025.005.075.016.298.066a219.563 219.563 0 0 1 5.314 1.263 232.55 232.55 0 0 1 13.311 3.755c5.063 1.602 10.41 3.524 15.089 5.688 4.701 2.174 8.64 4.553 10.961 7.039a.866.866 0 0 0 1.213.047.843.843 0 0 0 .049-1.2c-2.556-2.736-6.746-5.228-11.495-7.425-4.771-2.206-10.194-4.153-15.293-5.767a234.067 234.067 0 0 0-13.413-3.783c-1.759-.441-3.2-.782-4.202-1.013-.501-.115-.892-.202-1.159-.261l-.304-.067-.079-.017-.025-.006s-.002 0-.183.83z" fill="#1427DE"/>
        <path fill-rule="evenodd" clip-rule="evenodd" d="M885.307 186.423a.85.85 0 0 1 .741.951l-.852-.109.852.109-.046.353-.129 1.005a970.103 970.103 0 0 0-1.824 15.198c-.486 4.367-.96 8.954-1.286 12.899-.327 3.966-.5 7.226-.401 8.971a.853.853 0 0 1-.809.896.854.854 0 0 1-.905-.8c-.107-1.881.078-5.256.404-9.205.328-3.968.803-8.574 1.291-12.947a964.368 964.368 0 0 1 1.826-15.225l.13-1.008.046-.353c0-.001 0-.002.837.105l-.837-.105a.859.859 0 0 1 .962-.735zM846.311 256.133a.866.866 0 0 1 1.209.112l-.661.542-.662.541a.843.843 0 0 1 .114-1.195zm.548.654-.662.541.196.233.561.668a1409.352 1409.352 0 0 0 8.942 10.513c5.397 6.28 11.915 13.734 16.354 18.38a.866.866 0 0 0 1.214.034.842.842 0 0 0 .034-1.2c-4.404-4.61-10.895-12.032-16.294-18.314a1380.94 1380.94 0 0 1-8.93-10.5l-.56-.665-.194-.232-.661.542z" fill="#1427DE"/>
        <path d="M828.669 88.847c-1.403-.039-2.513-1.418-2.48-3.08.032-1.662 1.196-2.978 2.599-2.939 1.403.039 2.514 1.418 2.481 3.08-.033 1.662-1.197 2.978-2.6 2.939zM810.224 88.337c-1.403-.039-2.513-1.418-2.481-3.08.033-1.662 1.197-2.978 2.6-2.939 1.403.04 2.513 1.418 2.48 3.08-.032 1.662-1.196 2.978-2.599 2.94z" fill="#1D2C38"/>
        <path fill-rule="evenodd" clip-rule="evenodd" d="M817.667 86.049a.85.85 0 0 0-.649 1.014c.1.44.122 1.105-.024 1.618-.071.25-.165.403-.25.485-.064.062-.147.11-.313.11-.869 0-1.574.355-2.046.916-.457.54-.662 1.23-.662 1.884 0 .654.205 1.343.661 1.884.473.56 1.177.915 2.046.915.474 0 .859-.38.859-.85a.854.854 0 0 0-.859-.849c-.363 0-.583-.133-.727-.303-.16-.19-.263-.477-.263-.797 0-.32.103-.607.263-.797.144-.17.364-.304.728-.304.613 0 1.128-.221 1.516-.597.368-.357.579-.812.7-1.237.239-.84.195-1.798.046-2.45a.858.858 0 0 0-1.026-.642z" fill="#E39E99"/>
    </g>
    <defs>
        <filter id="8pjtg6ja2b" x="827.727" y="91.83" width="17.691" height="14.346" filterUnits="userSpaceOnUse" color-interpolation-filters="sRGB">
            <feFlood flood-opacity="0" result="BackgroundImageFix"/>
            <feBlend in="SourceGraphic" in2="BackgroundImageFix" result="shape"/>
            <feGaussianBlur stdDeviation="2" result="effect1_foregroundBlur_3692_55662"/>
        </filter>
        <filter id="wwlo6o1dvc" x="796.812" y="90.137" width="16.586" height="14.793" filterUnits="userSpaceOnUse" color-interpolation-filters="sRGB">
            <feFlood flood-opacity="0" result="BackgroundImageFix"/>
            <feBlend in="SourceGraphic" in2="BackgroundImageFix" result="shape"/>
            <feGaussianBlur stdDeviation="2" result="effect1_foregroundBlur_3692_55662"/>
        </filter>
        <clipPath id="sp1ou69cca">
            <path fill="#fff" transform="translate(657 24)" d="M0 0h276v264H0z"/>
        </clipPath>
    </defs>
</svg>
