<svg width="935" height="258" viewBox="0 0 935 258" fill="none" xmlns="http://www.w3.org/2000/svg">
    <path d="M891.803 186.535c5.515 7.846-.075 12.831-8.018 18.283-7.956 5.44-18.862 3.5-24.389-4.334l-42.143-60.414c-5.515-7.834-22.584-34.235-14.629-39.674l3.001-2.05c13.134-2.273 25.348 1.141 36.652 14.55l49.526 73.651v-.012z" fill="#3ECEA8"/>
    <path d="M900.194 116.925c.456 2.196 2.838 3.636 5.285 3.23 2.447-.419 4.087-2.533 3.619-4.729l-3.58-16.952c-.468-2.196-2.824-3.636-5.285-3.23-2.46.419-4.074 2.533-3.605 4.718l3.579 16.951-.013.012z" fill="#FAD1CF"/>
    <path d="M904.586 106.538c-1.116 2.134-.17 4.7 2.103 5.748 2.273 1.024 5.019.136 6.11-1.986l8.54-16.467c1.104-2.134.158-4.7-2.115-5.736-2.26-1.036-5.006-.148-6.11 1.974l-8.541 16.479.013-.012zM912.178 111.561c-1.117 2.121-.158 4.685 2.101 5.733 2.271 1.036 5.016.148 6.119-1.973l8.522-16.473c1.129-2.12.17-4.686-2.114-5.734-2.259-1.035-4.99-.16-6.106 1.986l-8.522 16.461z" fill="#FAD1CF"/>
    <path d="M917.211 116.55c-1.103 2.134-.158 4.7 2.102 5.736 2.285 1.037 5.018.148 6.121-1.974l8.538-16.469c1.104-2.134.158-4.7-2.102-5.736-2.272-1.037-5.017-.16-6.121 1.986l-8.538 16.469v-.012z" fill="#FAD1CF"/>
    <path d="M899.055 120.251c.202-.466 5.578-11.624 5.578-11.624 3.281-5.674 10.551-7.624 16.255-4.353 5.692 3.283 7.648 10.542 4.354 16.191 0 0-5.035 9.171-5.578 9.775l-20.609-9.989zM691.836 117.429c.477 2.405-1.124 4.746-3.552 5.219-2.427.461-4.804-1.113-5.268-3.518l-3.642-18.651c-.478-2.418 1.11-4.746 3.551-5.22 2.441-.473 4.791 1.113 5.269 3.518l3.655 18.652h-.013z" fill="#FAD1CF"/>
    <path d="M694.444 122.759c-.202-.466-5.578-11.625-5.578-11.625-3.281-5.673-10.551-7.623-16.255-4.352-5.692 3.283-7.648 10.542-4.355 16.191 0 0 5.036 9.171 5.579 9.775l20.609-9.989z" fill="#FAD1CF"/>
    <path d="m926.86 129.046-32.802 71.19c-3.839 8.62-13.981 12.524-22.649 8.706-8.68-3.817-12.593-13.903-8.755-22.523l32.803-71.19c.099-.221 31.478 13.682 31.403 13.817z" fill="#3ECEA8"/>
    <path fill-rule="evenodd" clip-rule="evenodd" d="M872.06 161.095a1.871 1.871 0 0 1 .941 2.487l-12.631 27.552a1.9 1.9 0 0 1-2.509.933 1.872 1.872 0 0 1-.941-2.487l12.631-27.553a1.9 1.9 0 0 1 2.509-.932z" fill="#1FA884"/>
    <path d="M823.294 25.066c1.194 13.872 2.918 27.72 6.424 40.888 6.719 25.168-17.376 39.09-33.976 36.439l-12.867-2.048 14.67-53.604 25.749-21.675z" fill="#580A31"/>
    <path d="M823.294 25.066c1.194 13.872 2.918 27.72 6.424 40.888 6.719 25.168-17.376 39.09-33.976 36.439l-12.867-2.048 14.67-53.604 25.749-21.675zM752.016 17.531c-3.832 13.182-7.894 26.277-13.898 38.36-11.457 23.076 9.67 40.928 26.581 41.41l13.105.382-4.227-54.443-21.561-25.709z" fill="#580A31"/>
    <path d="m749.489 60.114 27.758-9.091v.17l5.534.424 5.534.581v-.17l20.244 1.565 8.732 4.024S835.932 18.786 809.6 5.99c0 0-.356-.23-.546-.34-4.442-2.448-10.865-3.466-15.726-3.915L782.248.73l-6.816-.618c-38.559-3.103-25.943 60.003-25.943 60.003z" fill="#580A31"/>
    <path d="M787.881 22.176c-.421 4.26-6.86 33.45-11.196 33.057l-14.066 4.873c-4.845-.454-6.171-17.676-6.656-20.867-1.709-11.207-2.397-27.975 12.089-26.65l12.726 1.167c4.336.393 7.524 4.173 7.103 8.433v-.013z" fill="#35051F"/>
    <path d="M724.514 201.196c-5.139 8.751-16.619 11.812-25.632 6.809-9.012-4.99-12.164-16.138-7.025-24.889l43.252-76.204c5.151-8.751 16.619-11.812 25.631-6.821 9.013 4.99 12.164 16.138 7.013 24.889l-43.251 76.204.012.012z" fill="#3ECEA8"/>
    <path d="M832.885 129.449c4.839-33.553-26.971-34.273-43.327-34.273l-7.565.323c-4.389.174-23.632-.038-30.772 6.358-6.19 5.55-.025 16.95-7.315 26.996-5.74 7.897-14.642 42.394-4.264 54.24l4.964 74.892h82.99s6.802-124.823 5.302-128.524l-.013-.012z" fill="#fff"/>
    <path d="M758.091 97.695c-12.43.508-17.209 9.807-26.753 26.028-9.415 15.998-10.588 36.107-5.294 48.378 1.314 3.046 5.242 60.403-1.263 85.898h27.788c5.397-13.311 7.698-40.64 7.454-54.645-.516-28.219.025-56.538.128-84.757.026-6.612-2.073-14.29-2.06-20.902z" fill="#80E0B4"/>
    <path d="M760.16 97.695v97.686l-16.303-29.467 9.651-22.813-11.031-21.854L757.28 98.04l2.88-.345z" fill="#3ECEA8"/>
    <path d="M808.168 257.985v-10.017l-7.621-152.792c1.279.05 6.048.124 7.263.21 17.748 1.288 23.221 7.057 28.655 24.044 1.982 6.19 8.58 17.543 9.526 35.434.524 9.781-6.739 23.511-6.086 35.198 1.086 19.575 2.276 41.08 3.337 62.016.013.384.25 4.654.25 5.907" fill="#80E0B4"/>
    <path d="m800.547 95.176 4.97 97.685 16.38-29.782-9.69-23.044 11.075-22.1-20.346-22.448-2.389-.311z" fill="#3ECEA8"/>
    <path d="M770.44 100.046c.037 5.723 3.797 9.221 9.295 9.991 6.88.942 15.818-2.348 15.769-10.162l-.185-25.498c-.037-5.406-4.278-6.8-9.481-6.763l-6.263.049c-5.19.037-9.37 1.48-9.333 6.885l.185 25.498h.013z" fill="#E7B4AB"/>
    <path d="M812.757 63.475c-1.362 4.705-5.682 7.563-9.632 6.401-3.95-1.162-6.064-5.914-4.69-10.619 1.363-4.693 5.671-7.551 9.633-6.401 3.95 1.162 6.052 5.913 4.689 10.607v.012zM747.576 58.417c.456 5.51 4.216 9.625 8.373 9.178 4.157-.448 7.144-5.286 6.675-10.796-.468-5.51-4.227-9.612-8.385-9.178-4.157.447-7.143 5.273-6.675 10.796h.012z" fill="#EEB8B5"/>
    <path d="M755.896 38.767c.92-9.812 9.621-17.02 19.434-16.1l16.076 1.507c9.812.92 17.021 9.622 16.1 19.434l-2.023 21.574c-1.337 14.252-13.974 24.722-28.226 23.385-14.252-1.337-24.721-13.974-23.385-28.226l2.024-21.574z" fill="#FAD1CF"/>
    <path d="m699.007 120.23 19.985 74.827c2.766 9.518-2.804 19.439-12.442 22.158-9.627 2.732-19.674-2.768-22.441-12.273l-19.984-74.827c-.074-.245 34.845-10.032 34.882-9.872v-.013z" fill="#3ECEA8"/>
    <path fill-rule="evenodd" clip-rule="evenodd" d="M709.126 158.494a1.896 1.896 0 0 1 2.319 1.331l10.104 37.571a1.876 1.876 0 0 1-1.342 2.299 1.897 1.897 0 0 1-2.319-1.331l-10.105-37.571a1.877 1.877 0 0 1 1.343-2.299z" fill="#1FA884"/>
    <path d="M785.406 15.64s2.702 22.289 22.228 36.955l3.034-20.858-8.98-16.714-16.282.617z" fill="#580A31"/>
    <path d="M780.365 59.892c-.135 1.658-1.362 2.875-2.758 2.714-1.395-.16-2.408-1.631-2.284-3.29 0 0 1.688-6.86 3.084-6.712 1.395.16 1.958 7.274 1.958 7.274v.014z" fill="#F2ADB1"/>
    <g filter="url(#s9cldllp6a)">
        <path d="M765.172 60.524c-.097 1.271-1.06 2.2-2.145 2.071l-3.645-.4c-1.085-.114-1.878-1.243-1.78-2.514.097-1.257 1.06-2.2 2.145-2.072l3.645.4c1.085.115 1.878 1.258 1.768 2.515h.012z" fill="#F2ADB1"/>
    </g>
    <g filter="url(#k7vgfr8rrb)">
        <path d="M800.531 63.02c-.109 1.271-1.059 2.2-2.142 2.071l-3.653-.4c-1.083-.114-1.874-1.243-1.765-2.514.11-1.257 1.059-2.2 2.143-2.072l3.652.4c1.084.115 1.863 1.258 1.765 2.515z" fill="#F2ADB1"/>
    </g>
    <path d="M770.218 51.576c-.181 2.065-1.449 3.63-2.834 3.492-1.385-.138-2.356-1.926-2.175-4.005.181-2.065 1.45-3.63 2.835-3.492 1.385.139 2.355 1.926 2.174 3.991v.014zM792.952 54.072c-.181 2.065-1.45 3.63-2.836 3.492-1.372-.138-2.344-1.94-2.175-4.005.181-2.078 1.463-3.63 2.836-3.492 1.386.139 2.357 1.926 2.175 4.005zM765.194 43.542c-.075.59.489 1.122 1.253 1.18l4.797.348c.764.058 1.44-.387 1.515-.977.075-.59-.488-1.111-1.252-1.17l-4.797-.348c-.764-.058-1.453.378-1.516.967zM787.929 46.038c-.076.59.488 1.122 1.252 1.18l4.797.348c.764.058 1.441-.387 1.516-.977.075-.59-.489-1.111-1.253-1.17l-4.797-.347c-.764-.058-1.453.377-1.515.966z" fill="#35051F"/>
    <path d="m785.384 68.845-.052.462c-.4 3.538-4.09 6.143-8.245 5.802-4.167-.34-7.225-3.484-6.825-7.022l.051-.462 15.071 1.22z" fill="#FC7070"/>
    <path d="m797.147 92.68-14.311 17.668s9.182 7.431 15.932-4.026c0 0 4.864-8.673-1.621-13.63v-.012z" fill="#E8E8EA"/>
    <path d="m768.536 92.68 14.311 17.668s-9.182 7.431-15.932-4.026c0 0-4.863-8.673 1.621-13.63v-.012z" fill="#E8E8EA"/>
    <path d="M689.272 130.838c.526 1.872-.642 3.793-2.595 4.297-1.952.505-3.956-.615-4.483-2.487L646.575 4.418c-.514-1.871.642-3.792 2.595-4.297 1.952-.505 3.956.616 4.483 2.487l35.619 128.23z" fill="#580A31"/>
    <path d="M674.136 97.106c2.136.858 3.157 3.3 2.326 5.463-.842 2.152-3.264 3.215-5.365 2.345l-6.896-1.595c-2.113-.859-3.158-3.3-2.315-5.464.843-2.163 3.24-3.215 5.353-2.357l6.897 1.596v.012z" fill="#FAD1CF"/>
    <path d="M671.641 104.608c2.113.847 3.146 3.304 2.315 5.458-.843 2.166-3.253 3.231-5.365 2.36l-6.897-1.598c-2.125-.847-3.157-3.292-2.314-5.47.842-2.154 3.228-3.207 5.365-2.348l6.896 1.598zM671.642 114.607c2.123.859 3.143 3.315 2.313 5.468-.854 2.165-3.25 3.217-5.373 2.37l-6.891-1.596c-2.112-.859-3.155-3.302-2.313-5.467.842-2.166 3.238-3.23 5.373-2.359l6.891 1.597v-.013z" fill="#FAD1CF"/>
    <path d="M6.019 73.13h8.387v-3.023H2.383v20.915h2.16c4.572 0 7.92-.144 11.843-.9l-.324-3.06c-3.348.684-6.3.864-10.043.9V73.13zm19.475-6.911V79.07h-3.852V66.903H18.15v30.239h3.492V82.094h3.852v16.632h3.528V66.219h-3.528zM53.642 69.963h-7.74v-3.708h-3.708v3.708h-7.74v2.952h19.188v-2.952zm-13.931 10.62c0-2.053 1.764-3.277 4.32-3.277 2.591 0 4.355 1.224 4.355 3.276 0 2.052-1.764 3.276-4.356 3.276-2.556 0-4.32-1.224-4.32-3.276zm12.203 0c0-3.673-3.204-6.157-7.884-6.157-4.643 0-7.883 2.484-7.883 6.156 0 3.708 3.24 6.156 7.883 6.156 4.68 0 7.884-2.448 7.884-6.156zm-8.964 8.17h-3.743v9.397h21.887v-3.024H42.95v-6.372zm16.848-12.13V66.254H56.09v24.37h3.708V79.683h4.608v-3.06h-4.608zM94.318 66.29H90.61v23.22h3.708V66.29zm-13.32 15.084h-8.171v-9.431h8.171v9.431zm3.6-12.42H69.191v15.408h15.407V68.955zm-7.776 25.92v-7.488H73.08v10.476h22.175v-2.988H76.822zM130.098 82.166v-2.988h-4.392c.72-3.708.72-6.516.72-8.963V67.73h-22.103v2.988h18.467c0 2.34-.072 4.967-.792 8.46h-21.347v2.987h12.815v5.328h-9.827v2.988h19.223v8.28h3.708V87.493h-9.36v-5.328h12.888zM164.459 72.698c0 3.96 0 8.352-1.152 14.292l3.708.432c1.152-6.3 1.152-10.656 1.152-14.724v-3.42h-23.399v3.024h19.691v.396zm-4.139 18.756V80.942h-3.672v10.512h-4.356V80.942h-3.672v10.512h-6.768v3.06h29.375v-3.06H160.32zM189.656 69.855c4.824 0 7.739 1.224 7.739 3.42 0 2.16-2.915 3.383-7.739 3.383-4.86 0-7.776-1.224-7.776-3.383 0-2.196 2.916-3.42 7.776-3.42zm0 9.72c7.055 0 11.591-2.377 11.591-6.3 0-3.924-4.536-6.3-11.591-6.3-7.092 0-11.592 2.376-11.592 6.3 0 3.923 4.5 6.3 11.592 6.3zm3.564 8.675h-7.2v-3.564h7.2v3.564zm11.123-3.564v-2.988h-29.447v2.988h7.416v3.564h-4.104v2.952h18.827v7.56h3.708V88.25h-3.816v-3.564h7.416zM218.56 68.523c-5.076 0-8.82 3.204-8.82 7.811 0 4.608 3.744 7.812 8.82 7.812 5.076 0 8.855-3.204 8.855-7.812 0-4.608-3.779-7.811-8.855-7.811zm0 3.168c3.024 0 5.22 1.8 5.22 4.643 0 2.808-2.196 4.644-5.22 4.644-2.988 0-5.184-1.836-5.184-4.644 0-2.844 2.196-4.644 5.184-4.644zm12.527-5.472v32.579h3.744v-32.58h-3.744zm-22.391 25.703c5.76 0 13.536-.072 20.699-1.44l-.252-2.7c-6.983 1.044-15.083 1.08-20.915 1.08l.468 3.06zM256.342 95.99h4.175V72.987h7.812v-3.528h-19.763v3.528h7.776V95.99zM281.974 96.458c6.803 0 11.555-5.292 11.555-13.824 0-8.531-4.752-13.643-11.555-13.643-6.804 0-11.52 5.112-11.52 13.643 0 8.532 4.716 13.824 11.52 13.824zm0-3.636c-4.392 0-7.236-3.996-7.236-10.188 0-6.228 2.844-10.008 7.236-10.008 4.392 0 7.271 3.78 7.271 10.008 0 6.192-2.879 10.188-7.271 10.188zM299.034 95.99h4.176V85.946h3.995c5.76 0 9.972-2.664 9.972-8.46 0-5.975-4.212-8.027-10.116-8.027h-8.027v26.53zm4.176-13.392v-9.755h3.455c4.212 0 6.408 1.151 6.408 4.643s-2.016 5.112-6.264 5.112h-3.599zM323.637 87.53h2.772l.576-14.4.144-4.283h-4.176l.108 4.284.576 14.399zm1.368 8.928c1.584 0 2.808-1.188 2.808-2.88 0-1.728-1.224-2.952-2.808-2.952-1.548 0-2.736 1.224-2.736 2.952 0 1.692 1.188 2.88 2.736 2.88zM345.826 73.13h8.388v-3.023H342.19v20.915h2.16c4.572 0 7.92-.144 11.844-.9l-.324-3.06c-3.348.684-6.3.864-10.044.9V73.13zm19.476-6.911V79.07h-3.852V66.903h-3.492v30.239h3.492V82.094h3.852v16.632h3.527V66.219h-3.527zM386.502 74.714h7.056v-2.987h-7.056v-4.824h-3.708v4.823h-7.2v2.988h7.2v1.872c0 5.364-3.096 10.872-8.208 13.176l2.052 2.844c3.78-1.728 6.624-5.256 8.064-9.576 1.476 4.068 4.32 7.416 8.028 9.036l1.98-2.88c-5.04-2.196-8.208-7.488-8.208-12.6v-1.872zm10.764-8.495v32.507h3.743V66.219h-3.743zM421.958 95.918c-4.752 0-7.416-1.044-7.416-3.06 0-1.98 2.664-3.06 7.416-3.06 4.752 0 7.452 1.08 7.452 3.06 0 2.016-2.7 3.06-7.452 3.06zm0-8.964c-6.948 0-11.196 2.16-11.196 5.904 0 3.78 4.248 5.94 11.196 5.94 6.984 0 11.195-2.16 11.195-5.94 0-3.744-4.211-5.904-11.195-5.904zm1.944-5.004v-3.24h9.467v-2.988h-18.683v-5.075h18.467v-2.952h-22.139V78.71h9.18v3.24h-12.816v3.024h29.375V81.95h-12.851zM443.41 87.53h2.772l.576-14.4.144-4.283h-4.176l.108 4.284.576 14.399zm1.368 8.928c1.584 0 2.808-1.188 2.808-2.88 0-1.728-1.224-2.952-2.808-2.952-1.548 0-2.736 1.224-2.736 2.952 0 1.692 1.188 2.88 2.736 2.88z" fill="#7A7A7A"/>
    <path d="M3.654 143.362c6.762-.924 11.508-3.822 13.818-7.77 2.31 3.948 7.056 6.846 13.818 7.77l1.974-4.326c-7.854-.966-11.928-4.746-12.474-8.442h10.962v-4.41H3.066v4.41h11.13c-.546 3.696-4.662 7.476-12.558 8.442l2.016 4.326zm31.29 2.226H0v4.41h14.574v12.978h5.544v-12.978h14.826v-4.41zM42.459 154.618h21.336v8.316h5.544v-12.726h-26.88v4.41zm5.88-24.57h15.33v4.998h-15.33v-4.998zm10.458 12.978v-3.612h10.332v-13.692h-26.25v13.692h10.374v3.612H38.595v4.41h34.944v-4.41H58.797zM81.18 148.696h4.031l.882-15.498.21-5.838h-6.216l.21 5.838.882 15.498zm2.015 11.172c2.184 0 3.864-1.764 3.864-4.032 0-2.31-1.68-4.032-3.864-4.032s-3.822 1.722-3.822 4.032c0 2.268 1.638 4.032 3.822 4.032zM108.844 133.156h8.862v-4.494h-14.322v25.536h2.688c4.956 0 9.072-.168 13.776-1.05l-.42-4.494c-3.696.672-6.972.882-10.584.966v-16.464zm21.378-8.988v14.91h-3.486v-14.154h-5.166v36.162h5.166V143.53h3.486v19.362h5.25v-38.724h-5.25zM156.007 134.92h7.896v-4.41h-7.896v-5.376h-5.544v5.376h-8.064v4.41h8.064v1.344c0 5.88-3.024 12.432-9.366 15.288l2.982 4.242c4.41-1.974 7.518-5.922 9.24-10.584 1.722 4.41 4.788 8.106 9.156 9.912l2.94-4.242c-6.342-2.73-9.408-9.03-9.408-14.616v-1.344zm11.466-10.71v38.682h5.544V124.21h-5.544zM196.953 158.734c-5.166 0-7.812-.882-7.812-2.898s2.646-2.94 7.812-2.94 7.812.924 7.812 2.94-2.646 2.898-7.812 2.898zm0-10.038c-8.358 0-13.398 2.562-13.398 7.14 0 4.536 5.04 7.098 13.398 7.098s13.44-2.562 13.44-7.098c0-4.578-5.082-7.14-13.44-7.14zm2.898-6.3v-3.192h10.752v-4.41h-21.252v-4.536h21.042v-4.41h-26.544v13.356h10.458v3.192h-14.7v4.41h34.986v-4.41h-14.742zM226.896 149.83c-2.1 0-3.36-2.898-3.36-8.862 0-5.922 1.26-8.82 3.36-8.82 2.142 0 3.36 2.898 3.36 8.82 0 5.964-1.218 8.862-3.36 8.862zm11.382-11.382h-3.066c-.63-7.224-3.738-11.508-8.316-11.508-5.124 0-8.358 5.292-8.358 14.028 0 8.778 3.234 14.07 8.358 14.07 4.704 0 7.854-4.536 8.358-12.096h3.024v18.228h5.166v-36.33h-5.166v13.608zm7.854-14.28v38.682h5.25v-38.682h-5.25zM271.371 127.192h-5.586v5.586c0 7.35-2.94 14.868-9.492 17.892l3.444 4.452c4.326-2.184 7.224-6.216 8.904-11.172 1.596 4.662 4.41 8.442 8.652 10.5l3.276-4.41c-6.384-2.856-9.198-9.954-9.198-17.262v-5.586zm12.39-3.024v12.138h-7.434v4.452h7.434v22.218h5.544v-38.808h-5.544zM306.755 128.158v4.494h12.642c-1.008 8.568-5.796 14.7-14.784 19.32l3.108 4.242c12.852-6.51 17.262-16.464 17.262-28.056h-18.228zm33.936 10.794h-5.418v-14.784h-5.544v38.64h5.544V143.53h5.418v-4.578zM366.686 141.766c-6.09-1.806-8.736-6.132-8.82-10.542h7.56v-4.452H344.51v4.452h7.686c-.084 4.83-2.856 9.744-9.114 11.844l2.772 4.326c4.536-1.47 7.602-4.536 9.324-8.358 1.68 3.192 4.62 5.754 8.862 7.014l2.646-4.284zm-5.25 16.884c-4.956 0-7.602-1.05-7.602-3.234 0-2.226 2.646-3.276 7.602-3.276 4.914 0 7.56 1.05 7.56 3.276 0 2.184-2.646 3.234-7.56 3.234zm0-10.794c-8.064 0-13.104 2.814-13.104 7.56 0 4.704 5.04 7.476 13.104 7.476 8.022 0 13.062-2.772 13.062-7.476 0-4.746-5.04-7.56-13.062-7.56zm12.642-14.742v-8.904h-5.544v22.974h5.544v-9.534h5.124v-4.536h-5.124zM414.544 127.864h-8.61V124h-5.586v3.864h-8.568v4.368h22.764v-4.368zm-11.382 9.786c2.478 0 4.2 1.008 4.2 2.982 0 1.932-1.722 2.982-4.2 2.982-2.52 0-4.2-1.05-4.2-2.982 0-1.974 1.68-2.982 4.2-2.982zm0 10.122c5.586 0 9.492-2.898 9.492-7.14 0-4.284-3.906-7.14-9.492-7.14-5.544 0-9.492 2.856-9.492 7.14 0 4.242 3.948 7.14 9.492 7.14zm9.492 1.512h-5.502v.504c0 3.906-3.822 7.728-12.054 8.778l1.974 4.242c6.132-.882 10.5-3.276 12.81-6.678 2.31 3.402 6.72 5.796 12.894 6.678l1.974-4.242c-8.232-1.05-12.096-4.872-12.096-8.778v-.504zm9.576-14.742v-10.374h-5.544v27.174h5.544v-12.264h5.124v-4.536h-5.124zM453.223 128.284h-8.652v-4.116h-5.586v4.116h-8.568v4.326h22.764l.042-4.326zm-15.624 13.146c0-2.1 1.722-3.234 4.2-3.234 2.436 0 4.2 1.134 4.2 3.234 0 2.142-1.764 3.276-4.2 3.276-2.478 0-4.2-1.134-4.2-3.276zm13.692 0c0-4.368-3.948-7.434-9.492-7.434-5.544 0-9.492 3.066-9.492 7.434 0 4.452 3.948 7.476 9.492 7.476 5.544 0 9.492-3.024 9.492-7.476zm-9.828 9.576h-5.544v11.214h26.334v-4.41h-20.79v-6.804zm19.404-14.994V124.21h-5.544v28.938h5.544V140.59h5.124v-4.578h-5.124zM505.365 143.866h5.544V124.21h-5.544v5.67h-7.056v4.41h7.056v9.576zm-3.696-4.704c-6.048-1.848-8.694-6.342-8.694-10.92v-2.772h-5.586v2.772c0 4.914-2.688 9.66-9.114 11.592l2.856 4.326c4.41-1.386 7.434-4.242 9.156-7.854 1.638 3.234 4.494 5.796 8.568 7.098l2.814-4.242zm-10.752 18.984v-2.268h19.992v-10.374h-25.494v4.242h20.034v2.142h-19.992v10.542h26.544v-4.284h-21.084zM531.612 140.422h-7.35v-9.03h7.35v9.03zm12.39-6.216v3.318h-6.972v-3.318h6.972zm-6.972 7.728h6.972v4.956h5.544v-22.68h-5.544v5.586h-6.972v-2.814h-18.228v17.808h18.228v-2.856zm-.588 16.716c-5.04 0-7.686-1.05-7.686-3.276s2.646-3.276 7.686-3.276c5.082 0 7.728 1.05 7.728 3.276s-2.646 3.276-7.728 3.276zm0-10.794c-8.19 0-13.23 2.772-13.23 7.518s5.04 7.518 13.23 7.518c8.232 0 13.272-2.772 13.272-7.518s-5.04-7.518-13.272-7.518zM580.035 128.494h-8.82v-4.158h-5.544v4.158h-8.862v4.326h23.226v-4.326zm-15.918 13.104c0-1.974 1.764-3.066 4.326-3.066 2.604 0 4.326 1.092 4.326 3.066 0 2.016-1.722 3.108-4.326 3.108-2.562 0-4.326-1.092-4.326-3.108zm7.098 7.014c4.116-.798 6.804-3.402 6.804-7.014 0-4.326-3.948-7.266-9.576-7.266-5.67 0-9.618 2.94-9.618 7.266 0 3.612 2.688 6.216 6.846 7.014v3.276c-3.444.084-6.72.084-9.618.084l.672 4.494c6.846 0 15.792-.042 24.234-1.596l-.42-4.032c-3.024.42-6.174.63-9.324.84v-3.066zm11.34-24.402v38.682h5.544V124.21h-5.544zM625.643 134.668h-21.294v-9.072h-5.544v13.482h26.838v-4.41zm-21.63 15.876h-5.586v11.508h27.426v-4.41h-21.84v-7.098zm-9.534-7.518v4.452h35.028v-4.452h-35.028zM638.744 148.696h5.376c-.63-5.922 6.678-7.938 6.678-13.902 0-5.376-3.696-7.98-8.736-7.98-3.654 0-6.636 1.722-8.82 4.2l3.402 3.108c1.344-1.386 2.814-2.352 4.662-2.352 2.184 0 3.57 1.344 3.57 3.444 0 3.99-7.14 6.72-6.132 13.482zm2.688 11.172c2.226 0 3.864-1.764 3.864-4.032 0-2.31-1.638-4.032-3.864-4.032-2.184 0-3.822 1.722-3.822 4.032 0 2.268 1.638 4.032 3.822 4.032z" fill="#271E16"/>
    <defs>
        <filter id="s9cldllp6a" x="756.594" y="56.598" width="9.578" height="7.008" filterUnits="userSpaceOnUse" color-interpolation-filters="sRGB">
            <feFlood flood-opacity="0" result="BackgroundImageFix"/>
            <feBlend in="SourceGraphic" in2="BackgroundImageFix" result="shape"/>
            <feGaussianBlur stdDeviation=".5" result="effect1_foregroundBlur_4239_64657"/>
        </filter>
        <filter id="k7vgfr8rrb" x="791.961" y="59.094" width="9.578" height="7.008" filterUnits="userSpaceOnUse" color-interpolation-filters="sRGB">
            <feFlood flood-opacity="0" result="BackgroundImageFix"/>
            <feBlend in="SourceGraphic" in2="BackgroundImageFix" result="shape"/>
            <feGaussianBlur stdDeviation=".5" result="effect1_foregroundBlur_4239_64657"/>
        </filter>
    </defs>
</svg>
