<svg width="24" height="24" viewBox="0 0 24 24" fill="none" xmlns="http://www.w3.org/2000/svg">
    <path d="M10.323 4.115c.734-1.487 2.854-1.487 3.587 0l1.268 2.569a2 2 0 0 0 1.506 1.094l2.835.412c1.64.238 2.296 2.254 1.109 3.411l-2.052 2a2 2 0 0 0-.575 1.77l.484 2.824c.28 1.634-1.434 2.88-2.902 2.108l-2.535-1.333a2 2 0 0 0-1.862 0L8.65 20.303c-1.467.772-3.182-.474-2.901-2.108l.484-2.824a2 2 0 0 0-.575-1.77l-2.052-2C2.42 10.444 3.074 8.428 4.715 8.19l2.835-.412a2 2 0 0 0 1.506-1.094l1.268-2.57z" fill="#3C3"/>
</svg>
