<svg width="24" height="24" viewBox="0 0 24 24" fill="none" xmlns="http://www.w3.org/2000/svg">
    <path d="M10.206 3.634c.734-1.487 2.854-1.487 3.587 0l1.268 2.569a2 2 0 0 0 1.506 1.094l2.835.412c1.64.238 2.296 2.254 1.108 3.411l-2.051 2a2 2 0 0 0-.575 1.77l.484 2.824c.28 1.634-1.434 2.88-2.902 2.108L12.93 18.49a2 2 0 0 0-1.86 0l-2.537 1.333c-1.467.772-3.182-.474-2.902-2.108l.485-2.824a2 2 0 0 0-.576-1.77l-2.051-2C2.302 9.963 2.957 7.947 4.597 7.71l2.836-.412a2 2 0 0 0 1.505-1.094l1.268-2.57z" fill="#fff"/>
    <path fill-rule="evenodd" clip-rule="evenodd" d="m14.164 6.646-1.268-2.57a1 1 0 0 0-1.793 0l-1.268 2.57a3 3 0 0 1-2.259 1.64L4.741 8.7a1 1 0 0 0-.554 1.705l2.051 2a3 3 0 0 1 .863 2.655l-.484 2.824a1 1 0 0 0 1.45 1.054l2.537-1.333a3 3 0 0 1 2.792 0l2.536 1.333a1 1 0 0 0 1.45-1.054l-.484-2.824a3 3 0 0 1 .863-2.655l2.052-2a1 1 0 0 0-.555-1.705l-2.835-.412a3 3 0 0 1-2.259-1.641zm-.37-3.012c-.734-1.487-2.854-1.487-3.588 0L8.938 6.203a2 2 0 0 1-1.505 1.094l-2.836.412c-1.64.238-2.295 2.254-1.108 3.411l2.051 2a2 2 0 0 1 .576 1.77l-.485 2.824c-.28 1.634 1.435 2.88 2.902 2.108l2.536-1.333a2 2 0 0 1 1.861 0l2.536 1.333c1.467.772 3.182-.474 2.902-2.108l-.484-2.824a2 2 0 0 1 .575-1.77l2.052-2c1.187-1.157.532-3.173-1.109-3.411l-2.835-.412a2 2 0 0 1-1.506-1.094l-1.268-2.57z" fill="#CFD3D5"/>
</svg>
