<svg width="90" height="90" viewBox="0 0 90 90" fill="none" xmlns="http://www.w3.org/2000/svg">
    <path fill-rule="evenodd" clip-rule="evenodd" d="M35.89 18.017c3.75-.14 7.483.58 10.916 2.104a24.82 24.82 0 0 1 8.904 6.688 25.018 25.018 0 0 1 4.43 7.7h1.258a16.548 16.548 0 0 1 10.2 3.53 16.728 16.728 0 0 1 5.89 9.071 16.82 16.82 0 0 1-.87 10.794 16.679 16.679 0 0 1-7.27 8 2.955 2.955 0 1 1-2.846-5.18 10.768 10.768 0 0 0 4.692-5.167 10.91 10.91 0 0 0 .564-7 10.818 10.818 0 0 0-3.808-5.867 10.632 10.632 0 0 0-6.554-2.27h-3.439a2.955 2.955 0 0 1-2.862-2.22 19.13 19.13 0 0 0-3.903-7.58 18.909 18.909 0 0 0-6.783-5.097 18.745 18.745 0 0 0-16.461.612 18.944 18.944 0 0 0-6.394 5.587 19.157 19.157 0 0 0-3.34 7.85c-.51 2.84-.376 5.758.394 8.537a19.12 19.12 0 0 0 4.046 7.503 2.955 2.955 0 0 1-4.444 3.896 25.03 25.03 0 0 1-5.298-9.821 25.147 25.147 0 0 1-.515-11.161 25.068 25.068 0 0 1 4.371-10.273 24.855 24.855 0 0 1 8.39-7.329 24.671 24.671 0 0 1 10.732-2.907zm8.05 26.422a1.5 1.5 0 0 1 2.12 0l12 12a1.5 1.5 0 0 1-2.12 2.122l-9.44-9.44V70.5a1.5 1.5 0 0 1-3 0V49.121l-9.44 9.44a1.5 1.5 0 0 1-2.12-2.122l12-12z" fill="url(#in8w95d1na)"/>
    <defs>
        <linearGradient id="in8w95d1na" x1="12" y1="35.427" x2="77.999" y2="35.794" gradientUnits="userSpaceOnUse">
            <stop stop-color="#3C3"/>
            <stop offset=".5" stop-color="#33A26D"/>
            <stop offset=".81" stop-color="#3473AE"/>
            <stop offset="1" stop-color="#3438FF"/>
        </linearGradient>
    </defs>
</svg>
