<svg width="396" height="216" viewBox="0 0 396 216" fill="none" xmlns="http://www.w3.org/2000/svg">
    <path fill-rule="evenodd" clip-rule="evenodd" d="M197.999 194.399c47.717 0 86.4-38.683 86.4-86.4 0-47.717-38.683-86.4-86.4-86.4-47.717 0-86.399 38.683-86.399 86.4 0 47.717 38.682 86.4 86.399 86.4zm0 21.6c59.647 0 108-48.353 108-108C305.999 48.353 257.646 0 197.999 0 138.353 0 90 48.353 90 107.999c0 59.647 48.353 108 107.999 108z" fill="#E0E3E6"/>
    <path fill-rule="evenodd" clip-rule="evenodd" d="M117.058 68.388c27.207 0 52.094-9.928 71.238-26.358 20.086 28.337 53.447 46.876 91.205 46.876 8.353 0 16.491-.908 24.317-2.628C293.764 37.043 250.21 0 198.003 0c-45.042 0-83.644 27.574-99.847 66.762a110.133 110.133 0 0 0 18.902 1.626zM147.602 100.8a7.2 7.2 0 1 1 14.399 0v7.2a7.199 7.199 0 0 1-7.199 7.199 7.2 7.2 0 0 1-7.2-7.199v-7.2zm64.799 0a7.2 7.2 0 1 1 14.4 0v7.2a7.2 7.2 0 0 1-7.2 7.199 7.2 7.2 0 0 1-7.2-7.199v-7.2zm-31.774 0c1.643 0 2.974 1.487 2.974 3.323v8.861c0 1.835-1.331 3.323-2.974 3.323-.677 0-1.892.165-3.041.662-1.162.503-1.894 1.179-2.231 1.932-.341.762-.277 1.462.434 2.256.815.911 2.474 1.796 4.838 1.796 1.643 0 2.974 1.488 2.974 3.323 0 1.836-1.331 3.323-2.974 3.323-3.585 0-6.884-1.329-9.044-3.742-2.263-2.528-3.191-6.26-1.549-9.928 1.249-2.791 3.492-4.331 5.404-5.158a13.594 13.594 0 0 1 2.214-.734v-5.914c0-1.836 1.332-3.323 2.975-3.323zm6.575 45.599c-7.292 0-14.646 1.154-24.644 3.535a2.4 2.4 0 0 1-1.112-4.67c10.162-2.419 17.928-3.665 25.756-3.665 7.828 0 15.594 1.246 25.756 3.665a2.4 2.4 0 0 1-1.112 4.67c-9.999-2.381-17.352-3.535-24.644-3.535z" fill="#E0E3E6"/>
    <path fill-rule="evenodd" clip-rule="evenodd" d="M82.797 41.4c0-22.865-18.535-41.4-41.4-41.4-22.864 0-41.4 18.535-41.4 41.4 0 22.864 18.536 41.4 41.4 41.4 7.424 0 14.4-1.958 20.432-5.386l15.519 5.173a4.14 4.14 0 0 0 5.236-5.237l-5.173-15.519A41.229 41.229 0 0 0 82.797 41.4z" fill="#ADEBAD"/>
    <path fill-rule="evenodd" clip-rule="evenodd" d="M28.8 41.4a5.4 5.4 0 1 1-10.8 0 5.4 5.4 0 0 1 10.8 0zm18 0a5.4 5.4 0 1 1-10.8 0 5.4 5.4 0 0 1 10.8 0zm12.6 5.4a5.4 5.4 0 1 0 0-10.8 5.4 5.4 0 0 0 0 10.8z" fill="#fff"/>
</svg>
