<svg width="99" height="90" viewBox="0 0 99 90" fill="none" xmlns="http://www.w3.org/2000/svg">
    <path d="M11.131 56.385a7 7 0 0 1 6.645-4.8h54.9a7 7 0 0 1 6.66 4.845l7.902 24.415C88.7 85.366 85.33 90 80.578 90H9.692c-4.772 0-8.145-4.67-6.645-9.2l8.084-24.415z" fill="#E0E3E6"/>
    <path d="m6.602 70.244 3.85-12.073L39.602 90H23.015L6.602 70.244z" fill="#F7F9FA"/>
    <path d="M10.452 58.17h69.447l3.88 12.074H6.602l3.85-12.073z" fill="#F7F9FA"/>
    <rect x="24.203" y="46.098" width="3.3" height="9.878" rx="1.65" fill="#B6BCBF"/>
    <rect x="15.398" y="79.024" width="3.3" height="9.878" rx="1.65" fill="#B6BCBF"/>
    <rect x="67.102" y="69.146" width="3.3" height="9.878" rx="1.65" fill="#B6BCBF"/>
    <ellipse cx="25.852" cy="40.061" rx="8.25" ry="8.232" fill="#85E085"/>
    <path fill-rule="evenodd" clip-rule="evenodd" d="M27.616 35.728a1.101 1.101 0 0 1 1.476-.49c.786.392 1.476 1.114 1.964 1.926.494.822.844 1.838.844 2.897 0 .606-.492 1.097-1.1 1.097-.607 0-1.1-.491-1.1-1.097 0-.588-.2-1.218-.53-1.768-.338-.56-.748-.935-1.062-1.092a1.096 1.096 0 0 1-.492-1.473z" fill="#fff"/>
    <ellipse cx="17.047" cy="72.988" rx="8.25" ry="8.232" fill="#85E085"/>
    <path fill-rule="evenodd" clip-rule="evenodd" d="M18.82 68.656a1.101 1.101 0 0 1 1.475-.491c.786.392 1.476 1.115 1.964 1.926.494.822.844 1.838.844 2.897 0 .606-.492 1.098-1.1 1.098-.607 0-1.1-.492-1.1-1.098 0-.588-.2-1.218-.53-1.767-.337-.561-.748-.936-1.062-1.093a1.096 1.096 0 0 1-.491-1.472z" fill="#fff"/>
    <ellipse cx="68.75" cy="63.11" rx="8.25" ry="8.232" fill="#85E085"/>
    <path fill-rule="evenodd" clip-rule="evenodd" d="M70.515 58.778a1.101 1.101 0 0 1 1.476-.491c.786.392 1.475 1.114 1.963 1.926.495.822.845 1.838.845 2.897 0 .606-.493 1.097-1.1 1.097-.608 0-1.1-.49-1.1-1.097 0-.588-.2-1.218-.531-1.768-.337-.56-.747-.935-1.061-1.092a1.096 1.096 0 0 1-.492-1.472z" fill="#fff"/>
    <path fill-rule="evenodd" clip-rule="evenodd" d="M83.815 50.124c6.788-10.105 5.708-23.91-3.24-32.838-10.175-10.153-26.674-10.153-36.85 0-10.175 10.153-10.175 26.615 0 36.768 9.116 9.096 23.305 10.043 33.478 2.843L88.951 68.62a4.745 4.745 0 0 0 6.7 0 4.72 4.72 0 0 0 0-6.685l-11.836-11.81z" fill="#B6BCBF"/>
    <circle r="17.239" transform="rotate(-44.936 74.2 -57.304)" fill="#fff"/>
    <path fill-rule="evenodd" clip-rule="evenodd" d="M69.471 27.335c.408-.887 1.399-1.247 2.214-.803 1.18.641 2.214 1.823 2.946 3.151.741 1.346 1.266 3.008 1.266 4.74 0 .992-.739 1.797-1.65 1.797-.911 0-1.65-.804-1.65-1.796 0-.962-.3-1.993-.796-2.893-.505-.917-1.12-1.53-1.592-1.787-.815-.443-1.145-1.522-.738-2.41z" fill="#E0E3E6"/>
    <ellipse cx="74.252" cy="40.061" rx="1.65" ry="1.646" fill="#E0E3E6"/>
</svg>
