<svg width="150" height="150" viewBox="0 0 150 150" fill="none" xmlns="http://www.w3.org/2000/svg">
    <path fill-rule="evenodd" clip-rule="evenodd" d="M78.998 73.485c8.683-5.451 14.45-15.077 14.45-26.042 0-16.997-13.858-30.776-30.953-30.776-17.094 0-30.952 13.779-30.952 30.776 0 10.965 5.767 20.591 14.45 26.042H39.5c-14.912 0-27 12.089-27 27v10.349c0 5.523 4.477 10 10 10h80c5.523 0 10-4.477 10-10v-10.349c0-14.911-12.088-27-27-27h-6.502z" fill="#3EC57C"/>
    <path fill-rule="evenodd" clip-rule="evenodd" d="M112.285 93.202a23.413 23.413 0 0 0 10.869-19.812c0-12.918-10.394-23.39-23.215-23.39-12.82 0-23.214 10.472-23.214 23.39 0 8.35 4.343 15.678 10.876 19.816-13.965.606-25.101 12.12-25.101 26.234 0 5.372 4.354 9.726 9.726 9.726h55.548a9.725 9.725 0 0 0 9.726-9.726c0-14.152-11.196-25.69-25.215-26.238z" fill="#3D5AE9"/>
    <path fill-rule="evenodd" clip-rule="evenodd" d="M47.92 86.759a8.828 8.828 0 0 0-.876-.945c-1.473-1.376-3.65-2.48-6.416-2.48-2.809 0-4.705 1.145-5.85 2.66-1.092 1.444-1.442 3.135-1.442 4.284 0 5.45 3.655 9.962 7.02 12.989a38.902 38.902 0 0 0 6.683 4.798l.122.067.035.018.01.006s.005.002.713-1.212l-.708 1.214c.44.234.976.234 1.416 0l-.708-1.214.709 1.214.005-.002.01-.006.034-.018.123-.067a35.78 35.78 0 0 0 1.995-1.212 38.894 38.894 0 0 0 4.688-3.586c3.365-3.027 7.02-7.54 7.02-12.99 0-1.148-.35-2.839-1.442-4.283-1.145-1.515-3.041-2.66-5.85-2.66-2.766 0-4.943 1.104-6.417 2.48a8.828 8.828 0 0 0-.875.945z" fill="#fff"/>
</svg>
