<svg width="90" height="90" viewBox="0 0 90 90" fill="none" xmlns="http://www.w3.org/2000/svg">
    <circle cx="45" cy="45" r="45" fill="#3C3"/>
    <path fill-rule="evenodd" clip-rule="evenodd" d="M52.344 16.396a18.972 18.972 0 0 1 6.182 3.97c7.252 7.026 6.854 18.381-.506 25.323l-7.327 8.722c-2.602 2.452-8.764 2.452-11.366 0l-7.32-8.722c-7.36-6.942-7.785-18.297-.513-25.322a18.972 18.972 0 0 1 6.182-3.97A19.89 19.89 0 0 1 45.01 15c2.52 0 5.013.475 7.334 1.396zM37.245 40.47l7.772 7.322 7.772-7.322-2.54-2.394-5.232 4.93-5.231-4.93-2.54 2.394zm15.596 27.7c.714 4.41-2.274 8.567-6.676 9.283-4.4.716-8.548-2.28-9.262-6.69-.715-4.412 2.274-8.569 6.675-9.285 4.401-.716 8.548 2.28 9.263 6.691z" fill="#fff"/>
</svg>
