<svg width="150" height="150" viewBox="0 0 150 150" fill="none" xmlns="http://www.w3.org/2000/svg">
    <path d="M89.063 34.99c0-10.563-9.385-18.312-19.069-15.746l-53.693 14.23c-6.826 1.81-11.613 8.3-11.613 15.747v86.717h84.374V34.991z" fill="#B6BCBF"/>
    <path fill-rule="evenodd" clip-rule="evenodd" d="M24.023 52.27a1 1 0 0 1 1-1h19.68a1 1 0 0 1 1 1v14.26a1 1 0 0 1-1 1h-19.68a1 1 0 0 1-1-1V52.27zm0 27.1a1 1 0 0 1 1-1h19.68a1 1 0 0 1 1 1v14.259a1 1 0 0 1-1 1h-19.68a1 1 0 0 1-1-1v-14.26zm1 26.099a1 1 0 0 0-1 1v14.26a1 1 0 0 0 1 1h19.68a1 1 0 0 0 1-1v-14.26a1 1 0 0 0-1-1h-19.68z" fill="#fff"/>
    <path d="M101.77 105.55c-3.661-3.662-3.608-9.65.053-13.312 3.661-3.661 9.649-3.714 13.311-.053l23.493 23.495c3.661 3.661 3.608 9.65-.053 13.311-3.661 3.662-9.65 3.715-13.311.054L101.77 105.55z" fill="#305082"/>
    <mask id="99zvevanba" style="mask-type:alpha" maskUnits="userSpaceOnUse" x="98" y="88" width="43" height="44">
        <path d="M100.916 104.683a9.307 9.307 0 0 1 0-13.161 9.305 9.305 0 0 1 13.16 0l24.176 24.178c3.634 3.634 3.634 9.526 0 13.161a9.306 9.306 0 0 1-13.16 0l-24.176-24.178z" fill="#B4FFBB"/>
    </mask>
    <g mask="url(#99zvevanba)">
        <path d="M93.04 103.425a9.306 9.306 0 0 1 0-13.16 9.305 9.305 0 0 1 13.161 0l23.291 23.292a9.307 9.307 0 0 1 0 13.161 9.306 9.306 0 0 1-13.16 0l-23.291-23.293z" fill="#4476C6"/>
    </g>
    <path d="M114.553 44.437c16.774 16.775 16.774 43.973 0 60.748-16.773 16.775-43.97 16.775-60.743 0-16.775-16.775-16.775-43.973 0-60.748 16.773-16.775 43.97-16.775 60.743 0z" fill="#F7F9FF"/>
    <path fill-rule="evenodd" clip-rule="evenodd" d="M104.61 95.241c11.283-11.283 11.283-29.577 0-40.86-11.282-11.283-29.575-11.283-40.857 0-11.283 11.283-11.283 29.577 0 40.86 11.282 11.284 29.575 11.284 40.857 0zm9.943 9.944c16.774-16.775 16.774-43.973 0-60.748-16.773-16.775-43.97-16.775-60.743 0-16.775 16.775-16.775 43.973 0 60.748 16.773 16.775 43.97 16.775 60.743 0z" fill="#26C66C"/>
    <path d="M79.441 86.673c-.842.776-1.316 1.824-1.321 2.917.001.56.125 1.112.364 1.626.412.883 1.143 1.61 2.072 2.056a4.932 4.932 0 0 0 3.026.395 4.648 4.648 0 0 0 2.618-1.444 3.956 3.956 0 0 0 1.031-2.633c-.005-1.093-.48-2.14-1.32-2.917-.424-.39-.928-.7-1.483-.912a4.925 4.925 0 0 0-1.752-.32c-.602 0-1.197.108-1.752.32a4.603 4.603 0 0 0-1.483.912zm3.235-30.423a14.66 14.66 0 0 0-6.838 1.673c-2.08 1.097-3.806 2.676-5.007 4.578a3.85 3.85 0 0 0-.338 3.093c.327 1.033 1.078 1.91 2.095 2.447a4.927 4.927 0 0 0 3.364.44c1.141-.256 2.13-.905 2.76-1.812.4-.633.974-1.159 1.666-1.525a4.887 4.887 0 0 1 2.275-.559c.8 0 1.584.19 2.277.555.692.365 1.268.89 1.669 1.522.4.632.613 1.35.614 2.08.003.731-.206 1.45-.603 2.084a4.378 4.378 0 0 1-1.66 1.529 4.883 4.883 0 0 1-2.274.565c-1.208 0-2.367.44-3.222 1.22-.854.782-1.334 1.843-1.334 2.948s.48 2.165 1.334 2.947c.855.781 2.014 1.22 3.222 1.22 3.624 0 7.1-1.317 9.664-3.662 2.563-2.344 4.003-5.524 4.003-8.84s-1.44-6.496-4.003-8.841c-2.563-2.345-6.039-3.662-9.664-3.662z" fill="#3B4452"/>
</svg>
