<svg width="120" height="120" viewBox="0 0 120 120" fill="none" xmlns="http://www.w3.org/2000/svg">
    <path d="M120 60c0 33.137-26.863 60-60 60S0 93.137 0 60 26.863 0 60 0s60 26.863 60 60z" fill="#F9F9F9"/>
    <path fill-rule="evenodd" clip-rule="evenodd" d="M60 117c31.48 0 57-25.52 57-57S91.48 3 60 3 3 28.52 3 60s25.52 57 57 57zm0 3c33.137 0 60-26.863 60-60S93.137 0 60 0 0 26.863 0 60s26.863 60 60 60z" fill="#F5F5F5"/>
    <path d="M30 54c0-6.627 5.373-12 12-12h36c6.627 0 12 5.373 12 12v24a6 6 0 0 1-6 6H36a6 6 0 0 1-6-6V54z" fill="#B4C9FF"/>
    <path d="M30 48a6 6 0 0 1 6-6h48a6 6 0 0 1 6 6v3.62a6 6 0 0 1-3.538 5.472l-21.538 9.692a12 12 0 0 1-9.848 0l-21.538-9.692A6 6 0 0 1 30 51.621V48z" fill="#E2EAFF"/>
    <path d="M96 42a6 6 0 1 1-12 0 6 6 0 0 1 12 0z" fill="#FF3434"/>
</svg>
