<svg width="312" height="96" viewBox="0 0 312 96" fill="none" xmlns="http://www.w3.org/2000/svg">
    <path d="M289.077 0H22.936c-.882 0-1.754 0-2.633.005-.737.005-1.467.019-2.21.03a31.86 31.86 0 0 0-4.821.424 16.06 16.06 0 0 0-4.573 1.505 15.485 15.485 0 0 0-3.894 2.829 15.022 15.022 0 0 0-2.834 3.89 15.818 15.818 0 0 0-1.503 4.569 31.112 31.112 0 0 0-.432 4.804c-.022.736-.024 1.474-.036 2.21v55.475c.012.745.014 1.467.036 2.212.02 1.61.164 3.217.432 4.805a15.785 15.785 0 0 0 1.503 4.57 14.9 14.9 0 0 0 2.834 3.874 15.092 15.092 0 0 0 3.894 2.83c1.44.73 2.981 1.24 4.573 1.513 1.594.261 3.205.403 4.82.424.744.017 1.474.026 2.21.026.88.005 1.752.005 2.634.005h266.141c.864 0 1.743 0 2.608-.005.732 0 1.484-.01 2.217-.026a32.004 32.004 0 0 0 4.811-.424 16.387 16.387 0 0 0 4.59-1.514 15.092 15.092 0 0 0 3.891-2.829 15.36 15.36 0 0 0 2.842-3.874 15.814 15.814 0 0 0 1.489-4.57c.269-1.588.418-3.194.447-4.805.009-.745.009-1.467.009-2.212.019-.872.019-1.74.019-2.626V22.887c0-.88 0-1.751-.019-2.62 0-.736 0-1.475-.009-2.21a32.25 32.25 0 0 0-.447-4.805 15.833 15.833 0 0 0-1.489-4.569 15.534 15.534 0 0 0-6.733-6.719 16.294 16.294 0 0 0-4.59-1.505 31.446 31.446 0 0 0-4.811-.424c-.733-.012-1.485-.026-2.217-.03C290.82 0 289.941 0 289.077 0z" fill="#A6A6A6"/>
    <path d="M20.316 93.902c-.733 0-1.448-.01-2.175-.026a30.58 30.58 0 0 1-4.497-.392A14.175 14.175 0 0 1 9.66 92.17a13.003 13.003 0 0 1-3.36-2.44 12.77 12.77 0 0 1-2.455-3.352 13.71 13.71 0 0 1-1.307-3.977 29.727 29.727 0 0 1-.4-4.5c-.015-.506-.035-2.192-.035-2.192V20.268s.02-1.66.035-2.147c.018-1.505.151-3.007.398-4.493.23-1.388.67-2.733 1.307-3.989a12.898 12.898 0 0 1 2.442-3.355A13.386 13.386 0 0 1 9.658 3.83a14.03 14.03 0 0 1 3.977-1.305c1.492-.244 3-.375 4.511-.394l2.171-.03h271.357l2.197.031a29.85 29.85 0 0 1 4.47.39 14.31 14.31 0 0 1 4.02 1.315 13.445 13.445 0 0 1 5.809 5.808 13.777 13.777 0 0 1 1.287 3.957c.25 1.498.39 3.012.418 4.53.007.68.007 1.41.007 2.136.019.9.019 1.757.019 2.62v50.23c0 .871 0 1.722-.019 2.58 0 .78 0 1.495-.009 2.23a30.428 30.428 0 0 1-.411 4.45 13.779 13.779 0 0 1-1.299 4.007 13.166 13.166 0 0 1-2.443 3.326 13.021 13.021 0 0 1-3.366 2.454 14.135 14.135 0 0 1-4.013 1.32c-1.487.242-2.99.373-4.496.39-.705.017-1.443.027-2.159.027l-2.608.004-268.762-.004z" fill="#000"/>
    <path d="M91.233 60.681h-6.047v8.374a40.76 40.76 0 0 0 7.463-.548l.222 1.805c-2.84.442-5.71.65-8.584.62h-1.31V58.856h8.256v1.826zm5.021 3.364h2.611v1.837h-2.611v9.227h-2.23V57.168h2.23v6.877zM116.798 66.01v1.772h-6.872v3.384h-2.251v-3.384h-7.136V66.01h16.259zm-14.367-4.737c0-2.079 2.421-3.586 6.248-3.586 3.827 0 6.269 1.508 6.269 3.586 0 2.11-2.442 3.617-6.248 3.617-3.848 0-6.269-1.507-6.269-3.617zm2.337 11.59h10.158v1.763h-12.368V69.52h2.21v3.342zm-.064-11.569c0 1.149 1.681 1.89 3.964 1.89 2.358 0 3.986-.741 3.986-1.89 0-1.171-1.618-1.919-3.975-1.919-2.294 0-3.975.748-3.975 1.92zM135.079 71.07v1.772H118.82V71.07h7.009v-2.922h-4.926v-5.885h9.863v-2.185h-9.895v-1.781h12.146v5.758h-9.894v2.32h10.349v1.773h-5.423v2.922h7.03zM153.36 72.727h-16.258v-1.772h16.258v1.772zm-2.093-12.244h-9.863v4.936h10v1.79h-12.199v-8.522h12.062v1.796zM171.213 63.255h-10.486v-1.76h10.486v1.76zm-5.149 8.449a3.85 3.85 0 0 1-3.199-2.677 3.837 3.837 0 0 1 3.103-4.927 3.854 3.854 0 0 1 3.805 1.713 3.83 3.83 0 0 1 .616 2.082 3.926 3.926 0 0 1-1.329 2.847 3.936 3.936 0 0 1-2.996.962zm2.718-11.571h-5.455V58.33h5.455v1.803zm-2.718 9.818a2.078 2.078 0 0 0 1.546-.556 2.065 2.065 0 0 0-1.546-3.567 2.074 2.074 0 0 0-1.512.576 2.054 2.054 0 0 0-.633 1.486 2.055 2.055 0 0 0 .633 1.485 2.063 2.063 0 0 0 1.512.576zm8.795-5.367h2.579v1.823h-2.579v8.703h-2.217V57.18h2.217v7.404zM180.405 71.85l-1.257-1.74a11.838 11.838 0 0 0 4.743-3.685 11.8 11.8 0 0 0 2.319-5.533h-6.058v-1.835h8.426a14.296 14.296 0 0 1-2.249 7.564 14.347 14.347 0 0 1-5.924 5.228zm13.574 3.271h-2.23V57.168h2.23v17.953zM99.016 39.729h-9.73l-2.335 6.883h-4.123l9.218-25.471h4.28l9.218 25.471h-4.193l-2.335-6.883zm-8.722-3.178h7.714l-3.805-11.173h-.106l-3.803 11.173zM125.485 37.328c0 5.77-3.096 9.478-7.766 9.478a6.32 6.32 0 0 1-3.397-.784 6.3 6.3 0 0 1-2.46-2.465h-.087v9.197h-3.822V28.042h3.698v3.089h.07a6.61 6.61 0 0 1 5.927-3.284c4.724 0 7.837 3.724 7.837 9.48zm-3.928 0c0-3.762-1.945-6.232-4.917-6.232-2.92 0-4.884 2.524-4.884 6.232 0 3.74 1.964 6.248 4.884 6.248 2.972 0 4.917-2.454 4.917-6.248zM146.008 37.328c0 5.77-3.096 9.478-7.766 9.478a6.313 6.313 0 0 1-5.856-3.249h-.087v9.197h-3.822V28.042h3.697v3.089h.071a6.583 6.583 0 0 1 2.508-2.46 6.613 6.613 0 0 1 3.419-.824c4.724 0 7.836 3.724 7.836 9.48zm-3.927 0c0-3.762-1.946-6.232-4.917-6.232-2.92 0-4.884 2.524-4.884 6.232 0 3.74 1.964 6.248 4.884 6.248 2.971 0 4.917-2.454 4.917-6.248zM159.619 39.516c.284 2.524 2.741 4.183 6.103 4.183 3.221 0 5.539-1.66 5.539-3.935 0-1.978-1.397-3.16-4.707-3.973l-3.308-.794c-4.689-1.13-6.864-3.317-6.864-6.865 0-4.395 3.838-7.413 9.288-7.413 5.396 0 9.094 3.018 9.218 7.413h-3.857c-.23-2.543-2.335-4.078-5.415-4.078-3.077 0-5.182 1.554-5.182 3.813 0 1.8 1.344 2.86 4.635 3.67l2.812.69c5.236 1.235 7.414 3.335 7.414 7.061 0 4.765-3.804 7.749-9.855 7.749-5.662 0-9.482-2.913-9.729-7.521h3.908zM183.547 23.648v4.395h3.538v3.019h-3.538v10.237c0 1.59.707 2.33 2.265 2.33.419-.006.838-.035 1.254-.087v3c-.699.13-1.41.189-2.121.176-3.771 0-5.239-1.411-5.239-5.013V31.062H177v-3.019h2.706v-4.395h3.841zM189.172 37.328c0-5.843 3.448-9.516 8.828-9.516 5.396 0 8.828 3.673 8.828 9.516 0 5.86-3.413 9.513-8.828 9.513-5.415 0-8.828-3.654-8.828-9.513zm13.764 0c0-4.008-1.84-6.373-4.936-6.373s-4.936 2.382-4.936 6.373c0 4.024 1.84 6.37 4.936 6.37s4.936-2.346 4.936-6.37zM209.984 28.041h3.644v3.16h.089a4.425 4.425 0 0 1 1.641-2.47 4.443 4.443 0 0 1 2.834-.884c.441-.003.881.045 1.311.143v3.565a5.362 5.362 0 0 0-1.717-.23 3.851 3.851 0 0 0-3.812 2.636 3.836 3.836 0 0 0-.168 1.635V46.61h-3.822v-18.57zM237.117 41.158a7.446 7.446 0 0 1-2.937 4.344 7.481 7.481 0 0 1-5.078 1.34c-5.412 0-8.774-3.62-8.774-9.427 0-5.824 3.378-9.602 8.617-9.602 5.147 0 8.384 3.53 8.384 9.161v1.306h-13.144v.23a4.829 4.829 0 0 0 1.313 3.757 4.85 4.85 0 0 0 3.693 1.502 4.222 4.222 0 0 0 2.584-.594 4.204 4.204 0 0 0 1.715-2.017h3.627zm-12.915-5.543h9.307a4.456 4.456 0 0 0-1.251-3.35 4.474 4.474 0 0 0-3.313-1.363 4.718 4.718 0 0 0-4.385 2.903 4.683 4.683 0 0 0-.358 1.81zM252.792 21.57h2.979v23.828h-2.979V33.37h-2.182c-.273 4.25-2.002 7.943-5.495 7.943-3.836 0-5.537-4.443-5.537-9.187 0-4.746 1.701-9.099 5.537-9.099 3.418 0 5.147 3.453 5.478 7.566h2.199V21.57zm-5.072 10.556c0-3.5-.843-6.171-2.605-6.171-1.715 0-2.497 2.672-2.497 6.17 0 3.514.782 6.156 2.497 6.156 1.762 0 2.605-2.642 2.605-6.155zm13.257-11.067v25.54h-2.979v-25.54h2.979zM274.443 27.05a11.851 11.851 0 0 0 1.552 6.44 11.901 11.901 0 0 0 4.769 4.61l-1.851 2.388a14.059 14.059 0 0 1-6.065-6.876 14.07 14.07 0 0 1-6.141 7.537l-1.957-2.313a12.83 12.83 0 0 0 4.847-4.944 12.788 12.788 0 0 0 1.566-6.737v-3.95h3.28v3.844zm11.994 19.549h-3.19v-14.04h-5.133v-2.686h5.133V21.06h3.19v25.54zM59.58 48.722c.026-2.004.56-3.968 1.55-5.71a11.889 11.889 0 0 1 4.119-4.255 12.176 12.176 0 0 0-4.187-3.722 12.206 12.206 0 0 0-5.414-1.457c-4.04-.423-7.956 2.412-10.014 2.412-2.099 0-5.268-2.37-8.68-2.3a12.807 12.807 0 0 0-6.245 1.86 12.77 12.77 0 0 0-4.515 4.687c-4.653 8.036-1.182 19.847 3.274 26.343 2.23 3.18 4.836 6.734 8.245 6.608 3.337-.138 4.583-2.123 8.61-2.123 3.99 0 5.16 2.123 8.639 2.043 3.58-.058 5.836-3.195 7.988-6.406a26.285 26.285 0 0 0 3.652-7.422 11.497 11.497 0 0 1-5.104-4.225 11.457 11.457 0 0 1-1.918-6.333zM53.005 29.307a11.676 11.676 0 0 0 2.681-8.377 11.934 11.934 0 0 0-7.716 3.983 11.118 11.118 0 0 0-2.751 8.067 9.88 9.88 0 0 0 7.786-3.673z" fill="#fff"/>
</svg>
