<svg width="288" height="427" viewBox="0 0 288 427" fill="none" xmlns="http://www.w3.org/2000/svg">
    <path d="M29.366 229.059v37.117s-21.94-2.583-22.824-11.939c-.884-9.356-1.785-14.055 22.824-25.178zM93.188 345.304s-8.673 15.568-18.288 15.243c-9.616-.326-14.45-9.085-13.46-15.243.988-6.159 31.748 0 31.748 0zM172.26 154.151l-50.764-49.101a9.328 9.328 0 0 0-5.308-2.541l-99.034-12.27a9.22 9.22 0 0 0-3.757.306 9.275 9.275 0 0 0-3.33 1.785 9.38 9.38 0 0 0-2.354 2.973 9.47 9.47 0 0 0-.994 3.672c-.304 5.319 1.06 12.045 7.497 18.274 11.594 11.229 61.579 20.933 74.284 23.25a9.279 9.279 0 0 1 5.057 2.742l56.399 59.26a9.285 9.285 0 0 0 4.183 2.532 9.226 9.226 0 0 0 4.877.05 9.281 9.281 0 0 0 4.232-2.447 9.422 9.422 0 0 0 2.428-4.272l9.147-35.04a9.517 9.517 0 0 0-.048-4.938 9.45 9.45 0 0 0-2.515-4.235z" fill="#FFBFAE"/>
    <path d="m161.247 195.44-52.818-38.468a10.143 10.143 0 0 0-6.168-1.951l-92.181 1.584a10.175 10.175 0 0 0-4.39 1.083 10.265 10.265 0 0 0-3.502 2.881A10.402 10.402 0 0 0 .25 164.69a10.463 10.463 0 0 0 .003 4.563c.966 4.308 3.436 9.054 8.925 13.049 12.168 8.865 59.22 11.395 72.113 11.927 2.151.089 4.22.86 5.911 2.204l58.097 46.099a10.175 10.175 0 0 0 10.263 1.421 10.275 10.275 0 0 0 4.248-3.312 10.424 10.424 0 0 0 2.01-5.024l3.605-30.579a10.435 10.435 0 0 0-.795-5.373 10.33 10.33 0 0 0-3.383-4.225z" fill="#FFBFAE"/>
    <path d="M288 426.003s-11.49-15.283-15.07-32.967c-4.33-29.905-14.508-59.491-24.199-94.289-9.692-34.799-17.768-77.198-27.454-86.441-9.685-9.243-47.375-61.435-47.375-61.435L96.914 291.14s22.614 41.318 30.684 67.966c8.071 26.649 18.803 47.528 29.543 56.178 7.555 6.084 15.11 10.648 15.11 10.648l115.749.071z" fill="#FFBFAE"/>
    <path d="M37.889 348.332h146.07c9.722 0 17.603-7.959 17.603-17.777l.001-312.779C201.563 7.958 193.681 0 183.959 0H37.889c-9.723 0-17.604 7.96-17.604 17.777v312.779c0 9.818 7.881 17.777 17.604 17.777z" fill="#273341"/>
    <path d="M25.195 17.774v312.778a12.879 12.879 0 0 0 3.71 9.06 12.624 12.624 0 0 0 8.967 3.759h146.075a12.579 12.579 0 0 0 4.855-.978 12.68 12.68 0 0 0 4.115-2.779 12.824 12.824 0 0 0 2.749-4.158 12.94 12.94 0 0 0 .963-4.904V17.774a12.876 12.876 0 0 0-3.718-9.05 12.626 12.626 0 0 0-8.964-3.751H37.872a12.632 12.632 0 0 0-8.959 3.754 12.884 12.884 0 0 0-3.718 9.047z" fill="url(#0v7usru6wa)"/>
    <path d="M25.195 205.434v123.857c0 7.748 5.689 14.042 12.677 14.042h146.075c6.994 0 12.676-6.294 12.676-14.042V205.434H25.195z" fill="#F7F9FA"/>
    <path d="M62.718 279.449h96.447c8.504 0 15.397-6.962 15.397-15.55 0-8.588-6.893-15.55-15.397-15.55H62.718c-8.504 0-15.398 6.962-15.398 15.55 0 8.588 6.894 15.55 15.398 15.55z" fill="#3C3"/>
    <path d="M76.486 16.218h68.847l12.056-14.081h-92.96l12.057 14.08z" fill="#273341"/>
    <path d="M98.826 262.501c1.469 7.092 9.639 15.472 21.537 15.785 13.964.361 21.32-2.24 21.32-2.24a31.917 31.917 0 0 0 6.619 12.636c5.144 5.94 9.557 19.675 10.669 30.809 1.112 11.135-2.926 41.371 30.152 75.891 0 0 27.096 8.712 50.377-17.683 23.281-26.394-5.519-71.547-5.519-71.547s-25.376-13.753-37.871-31.565c-12.495-17.813-31.263-42.328-47.076-41.962-15.216.361-19.898 12.47-32.101 15.957-.439.136-.889.243-1.357.355-13.244 2.955-15.802 2.594-16.908 10.047a9.807 9.807 0 0 0 .158 3.517z" fill="#FFBFAE"/>
    <path d="M105.773 266.435c4.641-.697 10.599-2.087 13.601-4.847a14.678 14.678 0 0 0 4.507-9.068M233.985 306.168s-16.386-6.491-29.985-21.703M184.924 390.759s-17.669-6.702-23.088-36.544M141.68 276.035a14.333 14.333 0 0 0 7.508-7.531" stroke="#F9A493" stroke-linecap="round" stroke-linejoin="round"/>
    <g clip-path="url(#pdemckib9b)" fill="#fff">
        <path d="M102.857 97.363h-3.482v23.587h3.482V97.363zM109.045 97.363h-3.483v23.587h3.483V97.363zM121.739 108.027l-3.426 7.344-3.823-7.344h-4.052l5.879 10.987-4.539 8.778h3.94l9.959-19.765h-3.938zM126.546 108.027v3.106h5.936l-7.021 9.824h12.642v-3.106h-6.535l7.021-9.824h-12.043zM82.804 105.642c0-1.557-.42-3.083-1.212-4.402a8.046 8.046 0 0 0-3.263-3.054 7.607 7.607 0 0 0-4.317-.77 7.73 7.73 0 0 0-4.047 1.748v-1.8h-3.473v23.584h3.482v-8.825l.127.103 8.068 8.724h4.722l-6.617-7.146c1.832-.341 3.49-1.346 4.684-2.838a8.516 8.516 0 0 0 1.846-5.324zm-7.915-4.176c.79 0 1.561.245 2.218.704a4.141 4.141 0 0 1 1.47 1.874c.302.763.381 1.603.227 2.413a4.241 4.241 0 0 1-1.093 2.139 3.947 3.947 0 0 1-2.043 1.143 3.83 3.83 0 0 1-2.307-.238 4.034 4.034 0 0 1-1.791-1.538 4.346 4.346 0 0 1-.369-3.922c.201-.507.496-.969.868-1.357a3.98 3.98 0 0 1 1.298-.905 3.817 3.817 0 0 1 1.531-.315l-.01.002z"/>
        <path d="M93.36 110.002a6.105 6.105 0 0 0-3.16-1.833 5.929 5.929 0 0 0-3.6.329 6.248 6.248 0 0 0-2.81 2.38 6.685 6.685 0 0 0-1.056 3.617c0 1.288.368 2.548 1.057 3.616a6.248 6.248 0 0 0 2.808 2.38 5.922 5.922 0 0 0 3.6.33 6.111 6.111 0 0 0 3.16-1.833v1.965h3.48v-12.922h-3.48v1.971zm-4.438 7.757c-.617 0-1.22-.191-1.733-.55a3.233 3.233 0 0 1-1.148-1.464 3.407 3.407 0 0 1-.177-1.886c.12-.633.417-1.214.853-1.671a3.081 3.081 0 0 1 1.597-.893 2.997 2.997 0 0 1 1.801.186c.57.247 1.057.665 1.4 1.202a3.395 3.395 0 0 1 .287 3.063 3.28 3.28 0 0 1-.678 1.059c-.29.303-.635.543-1.014.707a2.989 2.989 0 0 1-1.195.247h.007zM148.148 120.893c1.622-.275 2.723-1.874 2.46-3.571-.264-1.698-1.792-2.85-3.414-2.575-1.621.276-2.723 1.875-2.459 3.572.263 1.697 1.791 2.85 3.413 2.574zM152.327 99.418a6.507 6.507 0 0 0-2.129-1.52 6.255 6.255 0 0 0-2.526-.535c-.868 0-1.727.182-2.527.535a6.507 6.507 0 0 0-2.129 1.52c-2.505 2.686-2.362 7.033.174 9.686l2.524 3.337c.897.939 3.018.939 3.915 0l2.521-3.337c2.539-2.653 2.682-7 .177-9.686zm-4.652 10.492-2.679-2.801.876-.916 1.803 1.884 1.801-1.884.876.916-2.677 2.801z"/>
    </g>
    <defs>
        <linearGradient id="0v7usru6wa" x1="15.586" y1="77.897" x2="147.326" y2="208.352" gradientUnits="userSpaceOnUse">
            <stop stop-color="#3C3"/>
            <stop offset=".5" stop-color="#33A26D"/>
            <stop offset=".8" stop-color="#3473AE"/>
            <stop offset="1" stop-color="#3438FF"/>
        </linearGradient>
        <clipPath id="pdemckib9b">
            <path fill="#fff" transform="translate(66.492 97.363)" d="M0 0h87.638v30.424H0z"/>
        </clipPath>
    </defs>
</svg>
