<svg width="324" height="96" viewBox="0 0 324 96" fill="none" xmlns="http://www.w3.org/2000/svg">
    <path d="M312 0H12C5.373 0 0 5.373 0 12v72c0 6.627 5.373 12 12 12h300c6.627 0 12-5.373 12-12V12c0-6.627-5.373-12-12-12z" fill="#000"/>
    <path d="M312 1.92c5.568 0 10.08 4.512 10.08 10.08v72c0 5.568-4.512 10.08-10.08 10.08H12C6.432 94.08 1.92 89.568 1.92 84V12C1.92 6.432 6.432 1.92 12 1.92h300zM312 0H12C5.4 0 0 5.4 0 12v72c0 6.6 5.4 12 12 12h300c6.6 0 12-5.4 12-12V12c0-6.6-5.4-12-12-12z" fill="#A6A6A6"/>
    <path d="M163.539 52.199c-5.64 0-10.248 4.296-10.248 10.2 0 5.903 4.608 10.2 10.248 10.2s10.248-4.32 10.248-10.2c0-5.88-4.608-10.2-10.248-10.2zm0 16.392c-3.096 0-5.76-2.544-5.76-6.192s2.664-6.193 5.76-6.193c3.096 0 5.76 2.52 5.76 6.192s-2.664 6.193-5.76 6.193zm-22.344-16.392c-5.64 0-10.248 4.296-10.248 10.2 0 5.903 4.608 10.2 10.248 10.2s10.248-4.32 10.248-10.2c0-5.88-4.608-10.2-10.248-10.2zm0 16.392c-3.096 0-5.76-2.544-5.76-6.192s2.664-6.193 5.76-6.193c3.096 0 5.76 2.52 5.76 6.192s-2.664 6.193-5.76 6.193zm-26.592-13.272v4.32h10.368c-.312 2.447-1.128 4.223-2.352 5.447-1.512 1.513-3.864 3.168-7.992 3.168-6.384 0-11.376-5.136-11.376-11.52 0-6.384 4.992-11.52 11.376-11.52 3.432 0 5.952 1.345 7.8 3.096l3.048-3.047c-2.592-2.472-6.024-4.368-10.872-4.368-8.736 0-16.08 7.103-16.08 15.863s7.344 15.864 16.08 15.864c4.728 0 8.28-1.535 11.064-4.44 2.856-2.856 3.744-6.888 3.744-10.128 0-1.008-.072-1.944-.24-2.712h-14.568v-.023zm108.744 3.36c-.84-2.28-3.432-6.505-8.736-6.505s-9.624 4.129-9.624 10.2c0 5.712 4.32 10.2 10.128 10.2 4.68 0 7.392-2.855 8.496-4.511l-3.48-2.329c-1.152 1.705-2.736 2.833-5.016 2.833s-3.912-1.056-4.944-3.096l13.656-5.64-.456-1.153h-.024zm-13.92 3.407c-.12-3.935 3.048-5.951 5.328-5.951 1.776 0 3.288.888 3.792 2.16l-9.12 3.791zm-11.088 9.889h4.488v-30h-4.488v30zm-7.344-17.52h-.144c-1.008-1.2-2.928-2.28-5.376-2.28-5.112 0-9.792 4.488-9.792 10.248 0 5.76 4.68 10.175 9.792 10.175 2.448 0 4.368-1.08 5.376-2.328h.144v1.465c0 3.912-2.088 6-5.448 6-2.736 0-4.44-1.969-5.136-3.624l-3.912 1.632c1.128 2.712 4.104 6.023 9.048 6.023 5.256 0 9.696-3.096 9.696-10.632V52.799h-4.248v1.657zm-5.136 14.112c-3.096 0-5.688-2.592-5.688-6.144 0-3.553 2.592-6.217 5.688-6.217 3.096 0 5.448 2.64 5.448 6.216 0 3.577-2.4 6.145-5.448 6.145zm58.512-26.592h-10.728v30h4.488V60.599h6.264c4.968 0 9.84-3.6 9.84-9.313 0-5.712-4.872-9.312-9.84-9.312h-.024zm.12 14.471h-6.36V46.151h6.36c3.36 0 5.256 2.783 5.256 5.135s-1.896 5.136-5.256 5.136v.025zm27.672-4.32c-3.24 0-6.6 1.44-7.992 4.585l3.984 1.656c.84-1.656 2.424-2.209 4.08-2.209 2.304 0 4.68 1.392 4.704 3.864v.313c-.816-.456-2.544-1.153-4.68-1.153-4.296 0-8.64 2.352-8.64 6.745 0 4.007 3.504 6.6 7.44 6.6 3 0 4.68-1.344 5.712-2.928h.144v2.328h4.32V60.43c0-5.328-3.984-8.303-9.12-8.303h.048zm-.552 16.44c-1.464 0-3.504-.743-3.504-2.544 0-2.304 2.544-3.192 4.752-3.192 1.968 0 2.904.433 4.08 1.009-.336 2.784-2.736 4.752-5.328 4.752v-.024zm25.392-15.791-5.136 13.008h-.144l-5.328-13.008h-4.824l7.992 18.191-4.56 10.105h4.68l12.312-28.296h-4.992zm-40.344 19.2h4.488v-30h-4.488v30z" fill="#fff"/>
    <path d="M25.057 18.098c-.696.744-1.104 1.896-1.104 3.36v53.088c0 1.488.408 2.64 1.104 3.36l.168.168 29.736-29.736v-.696L25.225 17.93l-.168.168z" fill="url(#g2tantmm5a)"/>
    <path d="m64.873 58.274-9.912-9.912v-.696l9.912-9.912.216.12 11.736 6.672c3.36 1.896 3.36 5.016 0 6.936l-11.736 6.672-.216.12z" fill="url(#17hycudhlb)"/>
    <path d="M65.087 58.155 54.959 48.027 25.055 77.931c1.104 1.176 2.928 1.32 4.992.144l35.064-19.92" fill="url(#pnekxdp8nc)"/>
    <path d="m65.087 37.874-35.064-19.92c-2.064-1.176-3.888-1.032-4.992.144l29.904 29.904 10.128-10.128h.024z" fill="url(#aonq23pcyd)"/>
    <path opacity=".2" d="m64.87 57.914-34.847 19.8c-1.944 1.104-3.696 1.032-4.8.024l-.168.168.168.168c1.128 1.008 2.856 1.08 4.8-.024l35.064-19.92-.216-.216z" fill="#000"/>
    <path opacity=".12" d="M25.057 77.57c-.696-.743-1.104-1.895-1.104-3.36v.36c0 1.489.408 2.64 1.104 3.36l.168-.167-.168-.168v-.024zM76.828 51.12l-11.976 6.792.216.216 11.736-6.672c1.68-.96 2.52-2.208 2.52-3.456-.144 1.128-.984 2.256-2.52 3.12h.024z" fill="#000"/>
    <path opacity=".25" d="m30.026 18.29 46.8 26.592c1.512.864 2.376 1.968 2.52 3.12 0-1.248-.84-2.52-2.52-3.456l-46.8-26.592c-3.36-1.896-6.096-.312-6.096 3.528v.36c0-3.84 2.736-5.424 6.096-3.528v-.024z" fill="#fff"/>
    <path d="M100.921 27.36c3.816 0 6.576-.169 9.696-.72l.216 1.631c-3.288.624-6.12.768-10.176.768h-1.704V14.927h10.008v1.632h-8.04v10.824-.024zm17.232-4.393h-3.552v11.448h-1.968V12.863h1.968v8.496h3.552v1.632-.024zM140.043 23.782v1.608h-8.592v4.344h-1.992V25.39h-8.928v-1.608h19.512zm-17.304-6.048c0-2.664 2.976-4.32 7.536-4.32s7.536 1.656 7.536 4.32c0 2.664-2.976 4.32-7.536 4.32s-7.536-1.656-7.536-4.32zm2.256 14.544h12.912v1.632h-14.88v-6.288h1.968v4.656zm-.192-14.544c0 1.68 2.184 2.712 5.472 2.712 3.288 0 5.472-1.032 5.472-2.712 0-1.68-2.16-2.736-5.472-2.736-3.312 0-5.472 1.032-5.472 2.736zM161.326 30.094v1.608h-19.56v-1.608h8.76v-4.056h-6.312V19.39h12.768v-3.36h-12.816v-1.608h14.736v6.552h-12.744v3.48h13.248v1.584h-6.888v4.056h8.808zM183.77 29.832v1.632h-19.536v-1.632h19.536zm-2.256-5.064H166.73v-9.936h14.568v1.632h-12.624v6.72h12.84v1.608-.024zM192.814 16.319h5.304v1.584h-12.696v-1.584h5.424v-3.192h1.968v3.192zm4.296 8.328c0 2.928-2.184 4.944-5.256 4.944s-5.208-2.016-5.208-4.944 2.184-4.968 5.208-4.968 5.256 2.064 5.256 4.968zm-1.872 0c0-1.944-1.416-3.336-3.384-3.336s-3.36 1.392-3.36 3.336 1.416 3.312 3.36 3.312 3.384-1.392 3.384-3.312zm10.416-1.272h-3.528V34.39h-1.968V12.887h1.968v8.832h3.528v1.656zM217.752 15.191c0 6.216-2.857 11.688-10.009 15.192l-1.055-1.608c5.784-2.76 8.663-6.888 9.071-12h-8.088v-1.584h10.081zm6.311-2.328v21.504h-1.968V12.863h1.968z" fill="#fff" stroke="#fff" stroke-width=".2" stroke-miterlimit="10"/>
    <defs>
        <linearGradient id="g2tantmm5a" x1="52.321" y1="20.906" x2="12.049" y2="61.202" gradientUnits="userSpaceOnUse">
            <stop stop-color="#00A1FF"/>
            <stop offset=".26" stop-color="#00BEFF"/>
            <stop offset=".51" stop-color="#00D2FF"/>
            <stop offset=".76" stop-color="#00DFFF"/>
            <stop offset="1" stop-color="#00E3FF"/>
        </linearGradient>
        <linearGradient id="17hycudhlb" x1="81.193" y1="48.002" x2="23.137" y2="48.002" gradientUnits="userSpaceOnUse">
            <stop stop-color="#FFE000"/>
            <stop offset=".41" stop-color="#FFBD00"/>
            <stop offset=".78" stop-color="orange"/>
            <stop offset="1" stop-color="#FF9C00"/>
        </linearGradient>
        <linearGradient id="pnekxdp8nc" x1="59.591" y1="53.523" x2="4.967" y2="108.147" gradientUnits="userSpaceOnUse">
            <stop stop-color="#FF3A44"/>
            <stop offset="1" stop-color="#C31162"/>
        </linearGradient>
        <linearGradient id="aonq23pcyd" x1="17.519" y1=".434" x2="41.903" y2="24.818" gradientUnits="userSpaceOnUse">
            <stop stop-color="#32A071"/>
            <stop offset=".07" stop-color="#2DA771"/>
            <stop offset=".48" stop-color="#15CF74"/>
            <stop offset=".8" stop-color="#06E775"/>
            <stop offset="1" stop-color="#00F076"/>
        </linearGradient>
    </defs>
</svg>
