<svg width="288" height="96" viewBox="0 0 288 96" fill="none" xmlns="http://www.w3.org/2000/svg">
    <path d="M119.537 0h-11.443v74.426h11.443V0zM139.811 0h-11.444v74.426h11.444V0zM181.561 33.633l-11.258 23.17-12.563-23.17h-13.318l19.322 34.666-14.916 27.698h12.948l32.725-62.364h-12.94zM197.346 33.633v9.798h19.507l-23.072 30.993h41.545v-9.799h-21.474l23.072-30.992h-39.578zM53.63 26.124C53.63 11.698 41.992 0 27.624 0a25.817 25.817 0 0 0-16.181 5.682V0H0v74.426h11.444V46.574c.138.108.277.224.416.325l26.514 27.527h15.51L32.139 51.853c12.207-2.148 21.49-12.845 21.49-25.729zM27.624 12.938c7.253 0 13.125 5.907 13.125 13.186 0 7.28-5.88 13.186-13.125 13.186-7.246 0-13.126-5.907-13.126-13.186s5.88-13.186 13.126-13.186z" fill="#73757A"/>
    <path d="M88.3 39.858c-3.688-3.83-8.858-6.225-14.584-6.225-11.212 0-20.302 9.132-20.302 20.395 0 11.264 9.09 20.396 20.302 20.396 5.726 0 10.888-2.388 14.584-6.225v6.225h11.444V33.64H88.3v6.224-.007zM73.716 64.33c-5.664 0-10.247-4.613-10.247-10.295 0-5.682 4.59-10.295 10.247-10.295 5.656 0 10.247 4.613 10.247 10.295 0 5.682-4.59 10.294-10.247 10.294zM268.322 74.3c5.33-.869 8.949-5.914 8.084-11.268-.865-5.354-5.887-8.99-11.217-8.121-5.329.869-8.949 5.914-8.083 11.268.865 5.355 5.887 8.99 11.216 8.121zM282.059 6.477c-8.387-8.636-22.208-8.636-30.595 0-8.234 8.48-7.763 22.186.578 30.566l8.288 10.527c2.948 2.961 9.915 2.961 12.871 0l8.287-10.527c8.334-8.372 8.812-22.086.579-30.558l-.008-.008zm-15.286 33.1-8.797-8.837 2.879-2.891 5.918 5.946 5.919-5.946 2.878 2.891-8.797 8.838z" fill="#73757A"/>
</svg>
