<svg width="1116" height="1511" viewBox="0 0 1116 1511" fill="none" xmlns="http://www.w3.org/2000/svg">
    <g clip-path="url(#mr403iqnwa)">
        <path d="m109.33 1150.73-47.408 359.59 305.741.69-7.902-41.87-14.503-318.41H109.33z" fill="#333232"/>
        <path d="m225.142 1191.85-6.189 213.3h164.981l-35.753-213.3H225.142z" fill="#80E0B4"/>
        <path d="M380.982 946.902c-13.08-23.069-27.645-45.168-43.386-66.463-14.833-20.056-29.48-40.629-47.697-57.797-4.889-4.622-10.047-9.037-16.277-11.761-7.035-3.054-14.833-3.446-22.405-3.694a6.41 6.41 0 0 0-3.362.826c-1.692.371-3.301 1.341-4.518 2.992-2.538 3.446-2.332 8.707-2.517 12.793-.413 9.038.124 18.117 1.114 27.093 1.939 17.642 5.653 35.078 7.014 52.803.784 10.358.33 20.779 1.403 31.116.248 2.27 2.517 4.396 4.786 4.54a1020.835 1020.835 0 0 1 120.275 15.208c3.878.722 7.55-4.148 5.57-7.635v-.021z" fill="#333232"/>
        <path d="m88.7 1189.66-29.356 215.48h47.14l22.755-220.58-40.538 5.1z" fill="#80E0B4"/>
        <path d="m255.041 796.291.227 60.706 77.157 29.156-143.896 153.207-70.638-164.061 47.491-17.25 2.867-63.615 86.792 1.857z" fill="#F9DDD4"/>
        <path d="m288.68 869.645-45.469 69.888-45.469 236.817 134.675 6.38 5.591-295.526-49.328-17.559z" fill="#80E0B4"/>
        <path d="M106.485 879.055s-40.25 0-50.4 57.054L10.78 1099.49s-50.73 125.42 68.141 109.47l202.219-26.23-174.656-303.675z" fill="#3ECEA8"/>
        <path d="M151.969 916.895s26.634 53.092 104.926 0l-44.789 222.625h-64.614l4.477-222.625z" fill="#333232"/>
        <path d="m106.477 879.054 51.431-18.55-10.418 150.546-9.594 139.68h-28.552l-2.867-271.676z" fill="#80E0B4"/>
        <path d="m255.198 842.773-57.456 299.157 14.359-2.41 57.105-147.168-19.331-35.512 26.097-4.849 12.708-82.352-33.482-26.866zM165.379 858.048l-19.867 275.202h-13.719V965.058l16.793-18.86-19.352-12.855L151.763 863l14.008-13.453-.392 8.501z" fill="#3ECEA8"/>
        <path d="M61.076 1110.8s-14.833 3.24-32.74 10.75c0 0 4.766-9.99 50.998-22.94l.928 8.74-19.206 3.45h.02z" fill="#141414"/>
        <path d="M104.167 912.336s-16.422 66.546-22.714 196.544h-8.21s10.624-130.184 30.924-196.544z" fill="#141414"/>
        <path d="m174.334 1177.69-61.375-10.75c-14.503-.47-22.714-17.18-22.714-17.18-17.886-42.33-30.925-44.95-30.925-44.95l39.136-13.78c20.3-6.27 26.097 2.46 26.097 2.46l15.721 20.07 34.06 64.13z" fill="#F9DDD4"/>
        <path d="m338.005 887.198-32.741 235.682-164.671-8.56-7.984 113.24 186.931 3.59s94.219 10.5 97.458-94.34l-8.789-149.927c-3.961-107.815-70.184-99.685-70.184-99.685h-.02z" fill="#3ECEA8"/>
        <path d="M303.07 1098.89s5.199-146.441 24.344-186.554c0 0-14.854 66.381-16.442 186.554h-7.902z" fill="#141414"/>
        <path d="m267.328 1120.93 35.422-31.18s9.243-10.05 25.85-10.77l28.387 4.64s12.77 4.56 5.075 16.55c0 0 12.997 1.63 6.994 13.43 0 0 12.069 3.14 3.734 14.24l-105.462-6.93v.02z" fill="#F9DDD4"/>
        <path d="M149.21 1218.96a4.6 4.6 0 1 0 0-9.2 4.6 4.6 0 0 0 0 9.2zM182.639 1214.36c0 2.54-2.063 4.6-4.601 4.6-2.537 0-4.6-2.06-4.6-4.6 0-2.54 2.063-4.6 4.6-4.6a4.603 4.603 0 0 1 4.601 4.6zM211.443 1214.36c0 2.54-2.063 4.6-4.6 4.6a4.603 4.603 0 0 1-4.601-4.6c0-2.54 2.063-4.6 4.601-4.6 2.537 0 4.6 2.06 4.6 4.6z" fill="#F7EBCB"/>
        <path d="M126.084 739.071c-7.221 50.657 21.414 103.687 62.881 104.843 47.264 1.32 87.266-25.938 94.487-76.595 7.22-50.657-24.798-97.621-71.525-104.863-46.728-7.264-78.622 25.958-85.864 76.615h.021z" fill="#F9DDD4"/>
        <path d="M255.127 774.276c4.848-56.91-55.598-65.968-55.598-65.968-36.475-7.243-32.307-25.009-32.307-25.009-45.738 11.844-42.396 80.845-42.396 80.845-20.733-37.513 5.674-73.829 5.674-73.829 21.538-32.623 37.753-21.873 37.753-21.873 4.518-15.95 39.961-20.675 39.961-20.675 36.124-4.705 59.415 13.783 59.415 13.783 75.713 52.494 35.443 123.682 35.443 123.682s-10.975 21.955-44.273 29.507l-3.651-40.463h-.021z" fill="#333232"/>
        <path d="M246.709 777.724c-6.478 10.255-5.055 22.636 3.197 27.691 8.253 5.035 20.198.826 26.675-9.43 6.478-10.255 5.055-22.635-3.197-27.691-8.252-5.035-20.197-.825-26.675 9.43z" fill="#F9DDD4"/>
        <path d="M259.838 816.536c2.051 0 3.714-3.243 3.714-7.243s-1.663-7.242-3.714-7.242c-2.05 0-3.713 3.242-3.713 7.242s1.663 7.243 3.713 7.243z" fill="#F7EBCB"/>
        <path d="M154.523 763.889s0-.082.021-.123c-.042-.331-.145-.64-.145-.97 0-.681.062-1.424.289-2.084.144-.434.33-1.032.578-1.486.247-.475.598-.908.907-1.321.062-.082.165-.165.227-.247.145-.186.227-.372.392-.578.434-.536 1.011-.99 1.589-1.341.454-.289 1.011-.495 1.506-.702.165-.062.33-.103.495-.144 1.176-.227 2.084-.31 3.28-.041.33.082.64.268.97.392.454.123.908.288 1.341.495.062.02.103.082.144.103.433.227.846.495 1.362.908.062.041.082.124.144.165.062.062.165.103.227.165.413.433.702.805.97 1.197.062.103.165.165.227.268.227.33.33.722.495 1.073.062.144.144.248.206.413v.062c.371.949.619 1.96.681 2.95.103 1.651-.31 3.137-.928 4.643-.619 1.506-1.775 2.703-3.074 3.652-1.176.867-2.868 1.342-4.312 1.362-1.919 0-3.796-.639-5.24-1.898a6.418 6.418 0 0 1-1.444-1.795c-.64-1.218-.867-2.043-1.032-3.384-.082-.599-.02-1.156.041-1.754l.083.02zM206.578 763.538s0-.083.02-.124c-.041-.33-.144-.64-.144-.97 0-.681.062-1.424.289-2.084.144-.433.33-1.032.577-1.486.248-.474.599-.907.908-1.32.062-.083.165-.165.227-.248.144-.185.227-.371.392-.578.433-.536 1.011-.99 1.588-1.341.454-.289 1.011-.495 1.507-.701.165-.062.33-.104.495-.145 1.176-.227 2.083-.309 3.28-.041.33.082.639.268.969.392.454.124.908.289 1.341.495.062.021.104.083.145.103.433.227.846.496 1.361.908.062.042.083.124.145.165.062.062.165.104.227.165.412.434.701.805.969 1.197.062.103.165.165.227.269.227.33.33.722.495 1.072.062.145.145.248.207.413v.062c.371.97.619 1.96.681 2.951.103 1.651-.31 3.136-.929 4.643-.619 1.506-1.774 2.703-3.074 3.652-1.176.866-2.867 1.341-4.311 1.362-1.919 0-3.796-.64-5.241-1.899a6.454 6.454 0 0 1-1.444-1.795c-.639-1.217-.866-2.043-1.031-3.384-.083-.598-.021-1.155.041-1.754l.083.021zM222.391 740.591c-2.744-.763-5.632-1.588-8.479-.907-1.486.35-2.888 1.031-4.291 1.609-1.609.66-3.219 1.3-4.807 1.96-1.217.496-2.661.103-3.26-1.135-.536-1.134-.103-2.765 1.135-3.26 1.774-.722 3.569-1.444 5.343-2.166 1.754-.702 3.507-1.486 5.364-1.878 3.59-.743 7.2.227 10.645 1.176 1.259.351 1.898 1.94 1.465 3.116-.474 1.32-1.857 1.816-3.115 1.465v.02zM153.622 741.053c2.434-.825 4.993-1.692 7.489-1.073 1.3.33 2.517.97 3.755 1.506 1.402.62 2.805 1.239 4.208 1.837 1.073.475 2.352.062 2.909-1.197.516-1.135.144-2.744-.928-3.219-1.568-.681-3.115-1.362-4.683-2.043-1.527-.66-3.054-1.403-4.683-1.754-3.157-.66-6.375.372-9.429 1.404-1.134.371-1.712 1.981-1.361 3.136.392 1.3 1.588 1.775 2.723 1.403zM183.731 771.112c-.784 4.725-1.568 9.43-2.352 14.155-.206 1.258-1.712 2.166-2.929 1.836-1.341-.371-2.043-1.568-1.836-2.93.784-4.725 1.568-9.43 2.352-14.155.206-1.259 1.712-2.167 2.929-1.836 1.341.371 2.042 1.568 1.836 2.93zM211.957 795.131c-13.265 8.873-31.048 9.327-44.788 1.239-2.723-1.589-4.931 2.744-2.228 4.333 15.184 8.934 35.072 8.295 49.698-1.486 2.6-1.754-.061-5.839-2.661-4.086h-.021z" fill="#333232"/>
        <path fill-rule="evenodd" clip-rule="evenodd" d="M247.503 822.882a1.5 1.5 0 0 1-.245 2.107c-21.118 16.718-40.886 20.69-55.424 20.437-7.256-.127-13.19-1.305-17.321-2.457a51.729 51.729 0 0 1-4.792-1.575 33.17 33.17 0 0 1-1.612-.674l-.091-.043-.026-.012-.009-.004-.002-.001c-.001-.001-.002-.001.652-1.351l-.654 1.35a1.5 1.5 0 1 1 1.307-2.7h.002l.013.007.065.03.283.127c.256.112.644.275 1.156.474 1.026.397 2.55.935 4.513 1.483 3.928 1.095 9.607 2.225 16.568 2.346 13.897.242 32.976-3.534 53.51-19.79a1.5 1.5 0 0 1 2.107.246z" fill="#333232"/>
    </g>
    <g clip-path="url(#bxv46ay3tb)">
        <path d="M894.524 737.085s-1.206 5.3-12.914 4.531l-55.274 2.542 6.111-30.97 22.426-54.059 16.553-4.57 12.221 9.889 10.877 72.617v.02z" fill="url(#ko7kb9gu0c)"/>
        <path d="M419.036 674.955s-27.509 8.845-31.939 39.776L277.992 1150.41l393.883 116.65s39.928 11.49 54.997-83.08l101.591-487.374s12.854-65.407 51.003-44.189c0 0-4.43-7.506-26.619-4.866l-433.811 27.404z" fill="url(#2aihdpce6d)"/>
        <path d="m667.658 1282.21-449.81-44.86s-41.094-7.04-33.303-84.13c.969-9.57 9.77-16.66 19.697-16.11l428.234 23.86c10.225.57 18.076 8.94 17.601 18.83-1.127 23.78-.039 65.03 18.946 83.35 0 0 29.783 19.06 50.548-48.22l108.571-522.704s16.652-62.944 51.339-39.815c0 0 25.432 20.252 15.05 84.654 0 0-8.662 4.61-10.383-5.753 0 0 10.976-66.706-17.324-71.297 0 0-20.785 1.143-31.167 60.954L730.032 1221.25s-15.01 64.97-62.334 60.96h-.04z" fill="#fff"/>
        <path d="M618.578 1168.44c9.927.57 17.541 8.95 17.086 18.84-1.602 34.57 1.385 106.14 55.69 90.32 0 0-3.461 8.63-32.908 4.02l-442.156-36.8s-39.869-7.03-32.314-84.12c.949-9.57 9.473-16.67 19.123-16.12l415.498 23.86h-.019z" fill="url(#8w2sm3h9ye)"/>
        <path fill-rule="evenodd" clip-rule="evenodd" d="M439.5 872.729a3 3 0 0 1 3.045-2.955l233.715 3.487a3 3 0 1 1-.09 5.999l-233.715-3.487a3.001 3.001 0 0 1-2.955-3.044z" fill="url(#vnlggkvmof)"/>
        <path fill-rule="evenodd" clip-rule="evenodd" d="M420.236 949.384a3 3 0 0 1 3.099-2.898l228.138 7.644a3 3 0 0 1-.201 5.997l-228.138-7.644a3 3 0 0 1-2.898-3.099z" fill="url(#1np2kd2eyg)"/>
        <path fill-rule="evenodd" clip-rule="evenodd" d="M399.378 1033.5a3 3 0 0 1 3.138-2.86l231.441 10.91a3.007 3.007 0 0 1 2.856 3.14 3 3 0 0 1-3.138 2.86l-231.441-10.92a2.992 2.992 0 0 1-2.856-3.13z" fill="url(#cp6zmqnbhh)"/>
        <path d="M635.03 762.288c1.305-2.423 3.303-4.177 6.012-5.26a20.012 20.012 0 0 1 8.464-1.419c2.71.118 5.281.847 7.713 2.207 2.413 1.339 4.034 3.231 4.806 5.693l22.149 65.17-23.573-1.063-3.184-11.112-27.529-1.221-5.062 10.737-23.138-1.044 33.342-62.688zm1.998 38.475 16.394.237-6.823-22.085-9.571 21.848z" fill="#fff"/>
    </g>
    <path d="M563.933 613.147c6.564 0 11.886-5.357 11.886-11.966 0-6.609-5.322-11.966-11.886-11.966-6.565 0-11.886 5.357-11.886 11.966 0 6.609 5.321 11.966 11.886 11.966z" fill="url(#zdfrjwzq9i)"/>
    <path d="m507.914 693.412 1.149-48.378c3.856-28.106 24.82-45.741 55.444-45.741 30.624 0 50.977 20.154 55.444 45.741l-.393 47.162-111.629 1.216h-.015z" fill="url(#o4rs46swhj)"/>
    <path opacity=".5" d="M552.179 634.836h11.304l.567 16.228h-12.73l.859-16.228z" fill="url(#auxjnpzork)"/>
    <path d="M564.183 748.991c43.179 0 78.182-16.656 78.182-37.203 0-20.546-35.003-37.202-78.182-37.202S486 691.242 486 711.788c0 20.547 35.004 37.203 78.183 37.203z" fill="url(#n3s4ag9f1l)"/>
    <path d="M564.159 743.154c30.235 0 54.746-8.046 54.746-17.972 0-9.925-24.511-17.971-54.746-17.971-30.235 0-54.745 8.046-54.745 17.971 0 9.926 24.51 17.972 54.745 17.972z" fill="url(#w2ectt2pym)"/>
    <path d="M538.338 709.42a27.943 27.943 0 0 0-2.182 10.883c0 15.452 12.439 27.975 27.787 27.975 15.349 0 27.788-12.523 27.788-27.975 0-3.94-.815-7.69-2.27-11.103 0 0-10.809-2.021-25.808-2.094 0 0-13.399-.088-24.267 1.948l-1.033.366h-.015z" fill="url(#w4ampugkhn)"/>
    <path opacity=".5" d="M568.304 674.691s-23.19.279-25.445 1.714l2.27 10.253 22.899-1.421.276-10.531v-.015z" fill="url(#zodptbmjco)"/>
    <path opacity=".25" d="M512.883 696.359s49.289-20.036 105.315 0c0 0-48.446-22.57-105.315 0z" fill="url(#0i5p5vahcp)"/>
    <path d="M632.527 634.406c18.223 0 32.995-14.873 32.995-33.219 0-18.346-14.772-33.218-32.995-33.218s-32.996 14.872-32.996 33.218c0 18.346 14.773 33.219 32.996 33.219z" fill="url(#kfh4jwf57q)"/>
    <path d="M629.651 586.273c.742-1.831 2.095-2.753 4.059-2.753 1.382 0 2.502.395 3.375 1.201.873.805 1.309 1.991 1.309 3.573v28.722c0 2.607-2.095 4.731-4.699 4.731-2.59 0-4.699-2.109-4.699-4.731v-18.85h-4.408c-1.309 0-2.444-.337-3.404-.996-.961-.659-1.426-1.655-1.426-2.973 0-1.099.334-1.977.989-2.651.655-.674 1.455-1.055 2.401-1.186 1.498-.191 2.836-.572 4.015-1.158 1.178-.585 1.993-1.713 2.488-2.944v.015z" fill="#fff"/>
    <g clip-path="url(#u7dfap08ir)">
        <path d="M748.565 1323.61 737.227 1496H942.42l13.887-221.37-207.742 48.98z" fill="#333232"/>
        <path d="m1037.51 1318.93 15.07 177.07H931.359l13.156-223.99 92.995 46.92z" fill="#333232"/>
        <path d="m764.206 1350.27-.987 9.26 153.065-2.55s32.237.58 36.899-32.03l-186.014 3.56-2.943 21.76h-.02zM958.994 1310.54s-.81 46.11 33.738 49.01l48.018-2.25-2.74-32.33-79.016-14.41v-.02z" fill="#0F0F0F"/>
        <path d="M985.717 748.954c7.408 51.895-14.716 98.538-51.456 102.27-46.993 4.779-88.434-29.621-95.861-81.516-7.408-51.895 8.632-95.674 55.308-102.921s84.582 30.272 91.989 82.167h.02z" fill="#F9DDD4"/>
        <path d="m851.765 803.533-.415 69.588-78.873 39.395 147.436 139.964 69.51-154.281-45.807-31.417-2.923-65.165-88.928 1.916z" fill="#F9DDD4"/>
        <path d="M965.284 764.628s0-.079-.02-.138c.06-.336.158-.672.139-.988-.02-.691-.06-1.461-.297-2.132-.158-.435-.336-1.047-.592-1.521-.257-.474-.613-.928-.929-1.343-.059-.098-.158-.158-.237-.237-.138-.197-.237-.394-.415-.592-.434-.553-1.027-1.007-1.639-1.382-.474-.296-1.027-.514-1.541-.711-.178-.059-.336-.119-.513-.138-1.205-.237-2.134-.336-3.358-.04-.356.079-.652.277-.988.415a9.005 9.005 0 0 0-1.383.513c-.059.02-.098.079-.158.119a10 10 0 0 0-1.402.928c-.059.039-.079.118-.138.158-.079.059-.178.099-.238.158-.434.434-.711.829-.987 1.224-.079.099-.178.178-.237.277-.217.335-.336.73-.514 1.105-.079.158-.138.257-.217.435v.079c-.375.987-.632 2.014-.691 3.041-.099 1.678.316 3.219.948 4.759.632 1.54 1.817 2.764 3.14 3.752 1.205.888 2.924 1.382 4.405 1.402 1.976.02 3.872-.652 5.373-1.955a6.257 6.257 0 0 0 1.462-1.837c.652-1.244.889-2.093 1.067-3.475.079-.612.019-1.185-.04-1.797v-.079zM914.518 767.136s0-.079-.019-.138c.059-.336.158-.672.138-.988-.02-.691-.059-1.461-.296-2.132-.158-.435-.336-1.047-.593-1.521-.257-.474-.612-.928-.928-1.343-.06-.099-.158-.158-.237-.237-.139-.197-.237-.395-.415-.592-.435-.553-1.027-1.007-1.64-1.382-.474-.297-1.027-.514-1.54-.711-.178-.06-.336-.119-.514-.139-1.205-.237-2.133-.335-3.358-.039-.356.079-.652.276-.988.415a8.955 8.955 0 0 0-1.382.513c-.06.02-.099.079-.158.119-.435.237-.87.513-1.403.928-.059.039-.079.118-.138.158-.079.059-.178.098-.237.158a7.429 7.429 0 0 0-.988 1.224c-.079.099-.178.178-.237.276-.217.336-.336.731-.513 1.106-.079.158-.139.257-.218.435v.079c-.375.987-.632 2.014-.691 3.041-.099 1.678.316 3.218.948 4.759.632 1.54 1.817 2.764 3.141 3.752 1.185.888 2.923 1.382 4.405 1.402 1.975.019 3.871-.652 5.373-1.955a6.266 6.266 0 0 0 1.461-1.837c.652-1.244.889-2.093 1.067-3.475.079-.612.02-1.185-.04-1.797v-.079zM896.11 744.197c2.765-.948 5.649-1.955 8.612-1.442 1.541.276 3.022.889 4.484 1.382a497.04 497.04 0 0 0 5.037 1.699c1.284.434 2.726-.04 3.259-1.363.494-1.185-.059-2.824-1.363-3.258-1.877-.632-3.733-1.264-5.61-1.896-1.837-.612-3.674-1.303-5.59-1.58-3.713-.533-7.368.672-10.825 1.856-1.283.435-1.817 2.113-1.303 3.278.573 1.324 1.995 1.758 3.279 1.304l.02.02zM965.256 739.57c-2.548-.592-5.215-1.224-7.704-.395-1.303.435-2.508 1.165-3.713 1.797a423.544 423.544 0 0 1-4.148 2.172c-1.047.553-2.391.257-3.042-.908-.593-1.066-.336-2.686.711-3.239l4.622-2.428c1.501-.79 3.022-1.659 4.662-2.133 3.16-.928 6.518-.198 9.698.553 1.166.276 1.877 1.797 1.6 2.962-.296 1.303-1.501 1.876-2.666 1.599l-.02.02zM941.03 771.114c.81 4.838 1.6 9.656 2.41 14.494.217 1.283 1.758 2.212 3.002 1.876 1.363-.375 2.094-1.619 1.877-3.002-.81-4.838-1.6-9.656-2.41-14.494-.217-1.283-1.758-2.212-3.002-1.876-1.363.375-2.094 1.619-1.877 3.002z" fill="#333232"/>
        <path d="M857.708 793.365s-14.281-15.344 6.223-34.222c23.644-21.781 2.39-49.545 29.254-56.634 0 0 10.014 10.17 40.079 6.339 0 0 9.896-4.7 22.301 6.832 0 0 6.696 8.906 25.659 10.861 0 0 17.284-16.824-19.536-53.08 0 0-58.39-53.79-74.607-7.918 0 0-25.778-6.596-46.182 3.89-20.405 10.486-30.361 33.945-32.692 51.006-5.629 41.173 12.484 83.609 43.477 101.124l6.044-28.178-.02-.02z" fill="#333232"/>
        <path d="M868.67 768.705c6.934 10.94 5.413 24.19-3.417 29.581-8.81 5.391-21.59.869-28.523-10.071-6.934-10.94-5.413-24.19 3.417-29.581 8.81-5.391 21.59-.869 28.523 10.071z" fill="#F9DDD4"/>
        <path d="M959.469 1313.8 942.422 1496h9.975l14.578-196.7-7.506 14.5z" fill="#0F0F0F"/>
        <path d="m910.172 798.993 50.488-2.567s-2.37 23.894-25.066 23.894c0 0-22.341.77-25.422-21.327z" fill="#F4BFB3"/>
        <path fill-rule="evenodd" clip-rule="evenodd" d="m962.153 796.574-1.493-.148 1.493.148-.001.01-.002.018-.007.063-.027.224c-.025.191-.065.465-.122.811a33.91 33.91 0 0 1-.606 2.833c-.6 2.329-1.649 5.451-3.449 8.587-3.627 6.318-10.329 12.692-22.324 12.7l-.058.001-.212.002c-.182 0-.442-.003-.771-.014a30.367 30.367 0 0 1-2.709-.226c-2.238-.286-5.271-.908-8.42-2.263-6.358-2.736-13.132-8.458-14.759-20.12a1.502 1.502 0 0 1 1.41-1.705l50.488-2.567a1.5 1.5 0 0 1 1.569 1.646zm-26.61 22.246h.051c10.688 0 16.514-5.569 19.743-11.194 1.63-2.838 2.592-5.69 3.146-7.841.172-.667.303-1.263.403-1.767l-46.959 2.388c1.817 9.334 7.419 13.884 12.704 16.159 2.823 1.214 5.567 1.781 7.614 2.042 1.02.13 1.859.183 2.437.203a17.126 17.126 0 0 0 .82.011h.036l.005-.001z" fill="#0C0C0C"/>
        <path d="m879.586 953.607 38.716-42.555 12.8-4.798 24.217 35.525-2.667 133.291-73.066-121.463z" fill="#F2F3F4"/>
        <path d="m907.406 920.451 18.41 22.295-13.076 73.264s40.533 61.63 39.901 59.08l2.666-101.124-14.815-33.353 2.47-17.674-11.872-16.627-21.768 9.282-1.896 4.897-.02-.04z" fill="#DF7E7E"/>
        <path d="m950.297 1251.09 9.165 62.7s6.163 36.93 27.496 36.59l57.242-3.1-24.91-444.721-62.791-28.297-6.202 376.828z" fill="#333232"/>
        <path d="m840.87 872.254-92.305 46.149-11.338 431.987h155.278s63.288 4.99 65.421-50.46l-3.911-219.4-113.164-208.296.019.02z" fill="#333232"/>
        <path d="M925.272 909.258s-3.299-.059-33.007 41.863l-45.492-83.589 4.86-27.29 73.204 67.021 18.173-53.968 7.289 15.936s12.503 37.183 3.753 75.354c0 0-21.748-33.688-28.78-35.288v-.039z" fill="#FDFEFF"/>
        <path d="m849.345 853.004 100.957 211.766-5.214-206.987 11.417 16.488 17.837 65.086-13.65 11.75 17.067 20.24-23.704 109.203-95.762-98.539 15.862-25.178-26.548 7.307-6.716-91.883 8.454-19.253z" fill="#474747"/>
        <path d="M748.58 918.406s-50.548 19.194-42.765 110.684l12.8 145.87s6.064 72.29 82.389 65.89l196.246-3.83-6.104-95.97-152.848-18.56-89.718-204.084z" fill="#333232"/>
        <path d="m833.525 1100.74-20.326-101.732s-7.684-30.983-26.449-47.906c0 0 23.901 6.95 34.785 53.888l21.531 104.07-9.541-8.32z" fill="#0F0F0F"/>
        <path d="M1019.32 902.562s23.15.001 55.94 105.188l32.71 97.46s40.65 117.98-60.8 121.58h-88.178l60.308-324.228h.02z" fill="#333232"/>
        <path d="m977.753 1085.19-51.891-13.23s-23.902-8.97-56.968 7.99c-36.108 18.53-35.338 20.8-35.338 20.8l4.76 21.76 139.456 16.92s8.376-23.97 0-54.24h-.019z" fill="#F9DDD4"/>
        <path d="M940.787 1075.07s10.055 33.41-2.982 59.52l23.901 2.9s11.852-24.05 0-56.95c0 0-.237-2.39-10.173-4.6 0 0-10.291-3.04-10.746-.87z" fill="#0F0F0F"/>
        <path d="M977.013 1081.87s5.471 33.55-2.529 57.56l20.484 3.22s3.635-28.16-4.899-57.9l-13.056-2.88z" fill="#FDFEFF"/>
        <path d="M1019.3 941.012s16.21 76.638 10.66 146.228l10.24 3.04s-1.49-110.09-20.9-149.268z" fill="#0F0F0F"/>
        <path d="M970.472 1095.77c5.057 9.34 2.805 20.81-5.017 25.63-7.822 4.82-18.252 1.16-23.309-8.18-5.057-9.34-2.805-20.81 5.017-25.63 7.823-4.82 18.252-1.16 23.309 8.18z" fill="#EADA9B"/>
        <path d="M957.957 1125.29c-1.877 0-3.813-.34-5.709-.99-4.78-1.68-8.889-5.29-11.516-10.19-5.491-10.15-2.963-22.73 5.63-28.04 8.592-5.29 20.069-1.34 25.56 8.81s2.963 22.73-5.63 28.04a15.665 15.665 0 0 1-8.316 2.37h-.019zm-3.279-38.05c-2.311 0-4.603.61-6.677 1.89-7.032 4.33-9.007 14.75-4.425 23.23 2.233 4.14 5.689 7.18 9.699 8.61 3.951 1.38 7.98 1 11.358-1.07 7.032-4.33 9.007-14.75 4.425-23.22-3.22-5.97-8.869-9.42-14.38-9.42v-.02z" fill="#0F0F0F"/>
        <path d="M957.479 1120.06c-4.978 0-10.034-3.02-12.899-8.31-4.108-7.58-2.172-17 4.287-20.99 6.459-3.99 15.071-1.07 19.18 6.53 4.109 7.59 2.173 17.01-4.287 20.99a11.838 11.838 0 0 1-6.281 1.78zm-2.311-29.78c-1.956 0-3.911.52-5.669 1.6-5.887 3.62-7.605 12.25-3.832 19.2 3.773 6.95 11.595 9.67 17.481 6.06 5.887-3.61 7.605-12.24 3.832-19.2-2.627-4.85-7.269-7.66-11.812-7.66z" fill="#0F0F0F"/>
        <path fill-rule="evenodd" clip-rule="evenodd" d="M952.368 1092.14a.75.75 0 0 1 .981.4l4.563 10.96c.101.24.068.52-.087.73a.765.765 0 0 1-.67.31l-9.126-.79a.753.753 0 0 1 .129-1.5l7.894.68-4.088-9.81a.747.747 0 0 1 .404-.98z" fill="#0F0F0F"/>
        <path d="M1018.43 1077.68s8.75-8.97 15.78 3.73c0 0 9.6-11.53 13.43 1.86 0 0 8.32-10.65 14.94 3.51 0 0 8.1-11.65 14.08 4.13 0 0 1.92 7.36-2.35 12.42l-66.57-16.55 10.67-9.1h.02z" fill="#F9DDD4"/>
        <path d="M755.695 1233.12s14.42 8.34 59.239 7.47l181.668-13.8-177.401 22.17s-49.738 10.23-63.506-7.7v-8.14z" fill="#0F0F0F"/>
        <path d="M950.196 1216.18c-.099 2.51-2.213 4.48-4.721 4.38-2.509-.09-4.484-2.21-4.386-4.72.099-2.5 2.213-4.48 4.721-4.38 2.509.1 4.484 2.21 4.386 4.72zM980.852 1215.37c-.099 2.51-2.212 4.48-4.721 4.39-2.509-.1-4.484-2.22-4.385-4.72.099-2.51 2.212-4.49 4.721-4.39 2.508.1 4.484 2.21 4.385 4.72z" fill="#474747"/>
        <path fill-rule="evenodd" clip-rule="evenodd" d="M868.54 819.194a1.5 1.5 0 0 1 2.117.135c17.59 19.983 35.145 27.238 48.221 29.544 6.551 1.156 12.003 1.073 15.803.706 1.9-.184 3.385-.438 4.386-.644a24.007 24.007 0 0 0 1.405-.331l.062-.017.011-.004h.002a1.5 1.5 0 0 1 .863 2.873l-.432-1.436c.432 1.436.431 1.436.43 1.437l-.003.001-.009.002-.027.008-.093.026a27.482 27.482 0 0 1-1.604.379 44.959 44.959 0 0 1-4.702.692c-4.029.389-9.757.472-16.613-.737-13.739-2.424-31.907-10.018-49.952-30.517a1.5 1.5 0 0 1 .135-2.117z" fill="#333232"/>
    </g>
    <path d="M100.673 182.068v101.96h-18.86V238.66h-8.475v43.578H54.716v-99.692h18.622v37.011h8.475v-37.489h18.86zm-74.486 79.515c4.138 0 8.356-.279 12.653-.836 4.377-.637 8.077-1.512 11.101-2.626v17.431c-2.865 1.194-6.684 2.109-11.46 2.746-4.774.636-9.47.955-14.085.955H1v-94.797h44.525v17.67H20.457v59.457h5.73z" fill="url(#2wejh3oqhs)"/>
    <path d="M161.899 212.871c-.398 6.686-1.114 12.894-2.149 18.625l29.126 34.624-15.04 13.133-21.129-26.505c-4.217 8.437-9.509 14.924-15.876 19.461-6.366 4.616-13.409 6.964-21.128 7.044v-19.819c4.854-.478 9.152-2.706 12.892-6.686 3.74-4.059 6.724-9.512 8.953-16.357 2.307-6.845 3.66-14.685 4.058-23.52h-23.635v-18.625h23.516V181.71h20.651v12.536h22.322v18.625h-22.561zm50.732-30.803v101.96h-20.174v-101.96h20.174z" fill="url(#o4pgp334wt)"/>
    <path d="M311.1 204.275h-31.633v78.082h-21.725v-78.082h-31.633v-19.222H311.1v19.222z" fill="url(#wgsl4o2tku)"/>
    <path d="M366.554 284.745c-9.948 0-18.94-2.229-26.978-6.686-7.957-4.378-14.204-10.427-18.74-18.148-4.536-7.8-6.804-16.555-6.804-26.266 0-9.71 2.268-18.426 6.804-26.146 4.536-7.801 10.783-13.89 18.74-18.267 8.038-4.458 17.03-6.686 26.978-6.686 9.947 0 18.9 2.228 26.858 6.686 8.037 4.377 14.324 10.466 18.86 18.267 4.536 7.72 6.804 16.436 6.804 26.146 0 9.711-2.268 18.466-6.804 26.266-4.536 7.721-10.823 13.77-18.86 18.148-7.958 4.457-16.911 6.686-26.858 6.686zm0-19.58c5.809 0 11.061-1.353 15.756-4.06 4.696-2.706 8.356-6.447 10.982-11.222 2.706-4.856 4.059-10.268 4.059-16.238 0-6.049-1.353-11.461-4.059-16.237-2.626-4.776-6.286-8.517-10.982-11.223-4.695-2.706-9.947-4.059-15.756-4.059-5.81 0-11.062 1.353-15.757 4.059-4.695 2.706-8.396 6.447-11.101 11.223-2.626 4.776-3.939 10.188-3.939 16.237 0 5.97 1.313 11.382 3.939 16.238 2.705 4.775 6.406 8.516 11.101 11.222 4.695 2.707 9.947 4.06 15.757 4.06z" fill="url(#a5dx3lyiuv)"/>
    <path d="M431.986 185.053h37.362c8.356 0 15.518 1.472 21.486 4.417 6.048 2.945 10.664 7.084 13.847 12.417s4.775 11.581 4.775 18.745c0 7.243-1.592 13.57-4.775 18.983-3.183 5.333-7.799 9.472-13.847 12.417-5.968 2.945-13.13 4.417-21.486 4.417h-15.637v25.908h-21.725v-97.304zm36.407 52.174c6.128 0 10.863-1.433 14.205-4.298 3.422-2.865 5.133-6.965 5.133-12.297 0-5.333-1.711-9.392-5.133-12.178-3.342-2.786-8.077-4.179-14.205-4.179h-14.682v32.952h14.682z" fill="url(#q6pv0ipv0w)"/>
    <path d="M587.173 204.156h-69.711v-15.402h24.59v-8.477h20.531v8.477h24.59v15.402zm38.915 18.625h-11.937v23.997h-20.174v-64.71h20.174v21.133h11.937v19.58zm-73.77 23.997c-8.913 0-16.354-1.751-22.322-5.253-5.969-3.502-8.953-8.437-8.953-14.804 0-4.219 1.393-7.84 4.178-10.865 2.785-3.025 6.565-5.293 11.34-6.805 4.775-1.592 10.027-2.388 15.757-2.388 5.729 0 10.942.796 15.637 2.388 4.775 1.512 8.555 3.78 11.34 6.805 2.865 3.025 4.297 6.646 4.297 10.865 0 6.367-2.984 11.302-8.952 14.804-5.969 3.502-13.409 5.253-22.322 5.253zm0-25.788c-3.661 0-6.605.517-8.834 1.552-2.148 1.035-3.223 2.428-3.223 4.179 0 1.751 1.075 3.144 3.223 4.178 2.229 1.035 5.173 1.552 8.834 1.552 3.66 0 6.565-.517 8.714-1.552 2.228-1.034 3.342-2.427 3.342-4.178s-1.114-3.144-3.342-4.179c-2.149-1.035-5.054-1.552-8.714-1.552zm-28.649 29.37h90.482v34.862h-20.532v-18.028h-69.95V250.36z" fill="url(#bfien8ddzx)"/>
    <path d="M669.527 222.542c-9.469 0-17.069-1.751-22.799-5.253-5.65-3.582-8.475-8.756-8.475-15.521 0-6.766 2.825-11.9 8.475-15.402 5.73-3.581 13.33-5.372 22.799-5.372 9.47 0 17.03 1.791 22.681 5.372 5.729 3.502 8.594 8.636 8.594 15.402 0 6.765-2.865 11.939-8.594 15.521-5.651 3.502-13.211 5.253-22.681 5.253zm42.854 21.849v-62.323h20.173v79.157h-20.173v-2.866H686.12v-13.968h26.261zm-42.854-48.593c-3.66 0-6.565.518-8.713 1.552-2.069.955-3.104 2.428-3.104 4.418 0 1.99 1.035 3.502 3.104 4.537 2.148.955 5.053 1.432 8.713 1.432 3.661 0 6.526-.477 8.595-1.432 2.149-1.035 3.223-2.547 3.223-4.537 0-1.99-1.074-3.463-3.223-4.418-2.069-1.034-4.934-1.552-8.595-1.552zm64.46 71.396v16.834h-92.631v-32.355h16.235v-10.148h-24.352v-15.521h46.912c5.253 0 10.226-.278 14.921-.835 4.696-.637 8.515-1.592 11.46-2.866v15.521c-5.65 2.467-14.563 3.701-26.739 3.701h-2.148v15.402H661.53v10.267h72.457z" fill="url(#x6m6szdcuy)"/>
    <path d="M860.421 208.096h-18.383v-17.67h18.383v-8.358h20.173v50.622h-20.173v-24.594zm-43.809 7.999c-4.297 5.094-9.47 9.153-15.518 12.178-6.048 3.024-12.653 4.736-19.815 5.134v-17.67c5.252-.637 9.868-2.468 13.847-5.492 4.058-3.025 7.242-6.925 9.549-11.701 2.308-4.855 3.502-10.188 3.581-15.998l20.293 1.194a49.941 49.941 0 0 1-3.342 18.028l26.858 16.595-10.266 13.73-25.187-15.998zm65.056 54.084v13.849h-92.152v-29.967h71.143v-3.94h-71.382v-13.849h91.317v29.967H809.45v3.94h72.218z" fill="url(#mor239p7xz)"/>
    <path d="M975.601 228.87h-10.862v-17.193h10.862v-6.924h-10.862V187.56h10.862v-5.492h19.815v56.114h-19.815v-9.312zm-15.637 5.253h-60.759v-50.861h60.759v50.861zm-19.815-34.265H919.02v17.669h21.129v-17.669zm9.668 39.757c14.166 0 25.466 1.831 33.901 5.492 8.436 3.582 12.653 9.352 12.653 17.312 0 7.959-4.217 13.73-12.653 17.311-8.435 3.662-19.735 5.492-33.901 5.492-14.165 0-25.465-1.83-33.9-5.492-8.436-3.581-12.653-9.352-12.653-17.311 0-7.96 4.217-13.73 12.653-17.312 8.435-3.661 19.735-5.492 33.9-5.492zm0 29.49c7.481 0 13.489-.518 18.025-1.553 4.536-1.114 6.804-2.825 6.804-5.133 0-2.229-2.308-3.9-6.923-5.015-4.536-1.114-10.505-1.671-17.906-1.671-7.4 0-13.409.557-18.024 1.671-4.536 1.115-6.804 2.786-6.804 5.015 0 2.308 2.268 4.019 6.804 5.133 4.536 1.035 10.544 1.553 18.024 1.553z" fill="url(#77y4o2nvnA)"/>
    <path d="M1081.23 208.096h-69.71v-17.193h24.35v-9.551h20.77v9.551h24.59v17.193zm28.77-26.028v101.96h-20.17v-101.96H1110zm-52.4 79.396c5.09 0 9.98-.319 14.68-.956 4.77-.716 8.67-1.751 11.7-3.104v17.79c-3.03 1.353-6.89 2.348-11.58 2.984-4.7.717-9.75 1.075-15.16 1.075h-46.08v-17.789h25.07v-8.597c-6.45-1.194-11.54-3.542-15.28-7.044s-5.61-7.959-5.61-13.372c0-6.765 2.87-11.979 8.6-15.64 5.72-3.741 13.25-5.611 22.56-5.611 9.31 0 16.83 1.87 22.56 5.611 5.73 3.661 8.59 8.875 8.59 15.64 0 5.492-1.91 9.989-5.73 13.492-3.74 3.422-8.91 5.73-15.52 6.924v8.597h1.2zm-23.4-29.013c0 1.751 1.11 3.105 3.34 4.06 2.23.875 5.22 1.313 8.96 1.313 3.74 0 6.72-.438 8.95-1.313 2.23-.955 3.34-2.309 3.34-4.06 0-1.751-1.11-3.064-3.34-3.94-2.23-.955-5.21-1.432-8.95-1.432-3.74 0-6.73.477-8.96 1.432-2.23.876-3.34 2.189-3.34 3.94z" fill="url(#2kc4vdzepB)"/>
    <path d="M349.856 365.635v35.686h-1.754v-18.679h-8.189v18.052h-1.755v-34.809h1.755v15.169h8.189v-15.419h1.754zm-23.354 31.549c3.175 0 5.946-.502 8.314-1.505v1.63c-1.059.474-2.34.836-3.844 1.087a26.416 26.416 0 0 1-4.804.417h-8.189v-31.507h15.291v1.63h-13.536v28.248h6.768zM370.784 373.825c-.111 3.287-.501 6.421-1.17 9.402l12.534 14.375-1.212 1.17-11.823-13.581c-1.059 3.816-2.577 6.895-4.554 9.235-1.978 2.34-4.303 3.802-6.977 4.387v-1.671c2.2-.529 4.122-1.866 5.765-4.012 1.671-2.145 2.981-4.889 3.928-8.232.974-3.343 1.559-7.034 1.754-11.073h-10.946v-1.63h10.988v-6.602h1.755v6.602h10.445v1.63h-10.487zm18.257-8.19v35.686h-1.754v-35.686h1.754zM432.112 383.018v1.63H396.85v-1.63h16.754v-5.098h-13.829v-11.491h29.538v1.629H401.53v8.232h28.201v1.63h-14.372v5.098h16.753zm-17.631 5.892c4.345 0 7.952.474 10.821 1.421 2.897.947 4.345 2.507 4.345 4.68 0 2.173-1.448 3.733-4.345 4.68-2.869.947-6.476 1.421-10.821 1.421s-7.966-.474-10.862-1.421c-2.869-.947-4.304-2.507-4.304-4.68 0-2.173 1.435-3.733 4.304-4.68 2.896-.947 6.517-1.421 10.862-1.421zm0 10.572c3.677 0 6.824-.362 9.442-1.086 2.646-.697 3.969-1.825 3.969-3.385 0-1.56-1.323-2.688-3.969-3.385-2.618-.724-5.765-1.086-9.442-1.086-3.676 0-6.838.362-9.484 1.086-2.618.697-3.927 1.825-3.927 3.385 0 1.56 1.309 2.688 3.927 3.385 2.646.724 5.808 1.086 9.484 1.086zM460.697 379.633a14.348 14.348 0 0 1-4.345 5.391c-1.866 1.421-4.136 2.382-6.81 2.883v-1.671c3.453-.669 6.113-2.257 7.98-4.764 1.894-2.535 2.91-5.53 3.049-8.984h-10.319v-1.63h10.319v-5.683h1.755v5.683h10.236v1.63h-10.236c-.083 1.978-.418 3.844-1.003 5.599l12.116 8.316-.961 1.462-11.781-8.232zm20.513-13.998v35.686h-1.754v-35.686h1.754zm-19.176 31.549c6.601 0 11.155-.543 13.661-1.63v1.672c-2.729 1.058-7.241 1.587-13.536 1.587h-13.411v-1.629h11.28v-9.569h1.755v9.569h.251zM519.727 368.894h-28.326v-1.63h30.081v23.568h-1.755v-21.938zm4.47 28.708v1.629h-35.261v-1.629H503.6v-17.593h1.755v17.593h18.842zM561.628 401.321h-1.755v-35.686h1.755v35.686zm-20.347-34.516c2.061 0 3.9.473 5.515 1.42a9.735 9.735 0 0 1 3.844 3.887c.919 1.671 1.379 3.551 1.379 5.641 0 2.089-.46 3.97-1.379 5.641a10.013 10.013 0 0 1-3.844 3.928c-1.615.919-3.454 1.379-5.515 1.379-2.061 0-3.913-.46-5.556-1.379-1.616-.947-2.883-2.256-3.802-3.928-.919-1.671-1.379-3.552-1.379-5.641 0-2.09.46-3.97 1.379-5.641.919-1.672 2.186-2.967 3.802-3.887 1.643-.947 3.495-1.42 5.556-1.42zm0 1.629c-1.754 0-3.314.404-4.679 1.212a8.338 8.338 0 0 0-3.175 3.343c-.724 1.421-1.086 3.009-1.086 4.764 0 1.755.362 3.343 1.086 4.764a8.345 8.345 0 0 0 3.175 3.343c1.365.807 2.925 1.211 4.679 1.211 1.755 0 3.315-.404 4.68-1.211a8.068 8.068 0 0 0 3.133-3.343c.752-1.421 1.128-3.009 1.128-4.764 0-1.755-.376-3.343-1.128-4.764a8.062 8.062 0 0 0-3.133-3.343c-1.365-.808-2.925-1.212-4.68-1.212zm14.79 28.499c-1.253.585-3.091 1.045-5.515 1.379-2.423.334-5.222.501-8.397.501h-13.035v-1.629h13.285c3.12 0 5.849-.167 8.189-.502 2.368-.334 4.192-.808 5.473-1.42v1.671zM605.211 371.276h-24.106v-1.63h11.155v-4.638h1.754v4.638h11.197v1.63zm12.826 6.477h-5.64v10.781h-1.755v-22.899h1.755v10.488h5.64v1.63zm-24.9 9.903c-1.977 0-3.746-.278-5.306-.835-1.532-.585-2.743-1.393-3.635-2.424a5.375 5.375 0 0 1-1.295-3.552c0-1.337.432-2.521 1.295-3.552.892-1.031 2.103-1.825 3.635-2.382 1.56-.585 3.329-.877 5.306-.877 1.978 0 3.732.292 5.264.877 1.56.557 2.772 1.351 3.635 2.382.891 1.031 1.337 2.215 1.337 3.552 0 1.337-.446 2.521-1.337 3.552-.863 1.031-2.075 1.839-3.635 2.424-1.532.557-3.286.835-5.264.835zm0-12.034c-1.699 0-3.189.237-4.47.71-1.282.446-2.27 1.073-2.967 1.881-.696.78-1.044 1.657-1.044 2.632 0 .975.348 1.867 1.044 2.674.697.78 1.685 1.407 2.967 1.881 1.281.446 2.771.668 4.47.668 1.699 0 3.189-.222 4.47-.668 1.282-.474 2.27-1.101 2.967-1.881.696-.807 1.044-1.699 1.044-2.674 0-.975-.348-1.852-1.044-2.632-.697-.808-1.685-1.435-2.967-1.881-1.281-.473-2.771-.71-4.47-.71zm-9.693 15.336h28.953v10.028h-1.755v-8.399h-27.198v-1.629zM652.126 388.659v-23.024h1.754v28.122h-1.754v-3.51h-12.158v-1.588h12.158zm-18.174-9.193c-3.064 0-5.543-.585-7.437-1.755-1.866-1.198-2.799-2.841-2.799-4.931 0-2.089.933-3.719 2.799-4.889 1.894-1.198 4.373-1.797 7.437-1.797 3.063 0 5.528.599 7.395 1.797 1.893 1.17 2.84 2.8 2.84 4.889 0 2.09-.947 3.733-2.84 4.931-1.867 1.17-4.332 1.755-7.395 1.755zm0-11.784c-2.507 0-4.554.446-6.142 1.337-1.56.864-2.34 2.118-2.34 3.761 0 1.644.78 2.911 2.34 3.803 1.588.863 3.635 1.295 6.142 1.295 2.506 0 4.54-.432 6.099-1.295 1.588-.892 2.382-2.159 2.382-3.803 0-1.643-.794-2.897-2.382-3.761-1.559-.891-3.593-1.337-6.099-1.337zm-1.755 17.007h-10.946v-1.629h13.411c6.768 0 11.322-.502 13.662-1.505v1.63c-2.201 1.003-6.81 1.504-13.829 1.504h-.543v7.355h-1.755v-7.355zm22.978 14.166v1.63h-30.289v-10.447h1.754v8.817h28.535zM704.065 373.95h-10.362v-1.588h10.362v-6.727h1.754v17.884h-1.754v-9.569zm-19.428.961c-1.114 2.006-2.632 3.692-4.553 5.057-1.894 1.337-4.123 2.27-6.685 2.799v-1.671c2.451-.529 4.554-1.532 6.308-3.009 1.755-1.476 3.078-3.245 3.97-5.307.919-2.089 1.378-4.304 1.378-6.644l1.755.084c0 2.59-.46 4.972-1.379 7.145l11.907 7.605-.961 1.379-11.74-7.438zm22.436 23.986v1.588h-30.165v-8.023h27.157v-4.847h-27.24v-1.588h28.994v7.981h-27.156v4.889h28.41zM744.253 379.842h-7.521v-1.629h7.521v-6.812h-7.521v-1.629h7.521v-4.137h1.754v19.807h-1.754v-5.6zm-9.944 3.009h-19.093v-15.963h19.093v15.963zm-1.755-14.333h-15.583v12.661h15.583v-12.661zm-.961 18.595c4.401 0 7.952.571 10.654 1.713 2.73 1.143 4.094 2.884 4.094 5.224 0 2.34-1.364 4.081-4.094 5.223-2.702 1.142-6.253 1.713-10.654 1.713-4.4 0-7.951-.571-10.653-1.713-2.702-1.142-4.053-2.883-4.053-5.223s1.351-4.081 4.053-5.224c2.702-1.142 6.253-1.713 10.653-1.713zm0 12.244c3.816 0 6.922-.46 9.317-1.379 2.396-.892 3.593-2.201 3.593-3.928 0-1.727-1.197-3.037-3.593-3.928-2.395-.92-5.501-1.379-9.317-1.379-3.815 0-6.921.459-9.316 1.379-2.396.891-3.593 2.201-3.593 3.928 0 1.727 1.197 3.036 3.593 3.928 2.395.919 5.501 1.379 9.316 1.379zM778.382 372.279h-24.649v-1.63h11.447v-5.474h1.755v5.474h11.447v1.63zm7.562-6.644v35.686h-1.754v-35.686h1.754zm-18.967 31.591c3.231 0 5.946-.126 8.147-.376 2.228-.279 3.997-.725 5.306-1.338v1.714c-1.114.501-2.855.891-5.223 1.17-2.367.278-5.139.417-8.314.417h-13.411v-1.587h11.74v-7.188c-2.924-.139-5.194-.863-6.81-2.173-1.588-1.337-2.381-3.05-2.381-5.14 0-2.2.877-3.969 2.632-5.306 1.782-1.338 4.261-2.006 7.436-2.006 3.176 0 5.641.668 7.395 2.006 1.783 1.337 2.674 3.106 2.674 5.306 0 2.09-.808 3.803-2.423 5.14-1.588 1.31-3.844 2.034-6.768 2.173v7.188zm-9.192-14.501c0 1.644.697 3.009 2.089 4.096 1.421 1.086 3.496 1.629 6.225 1.629 2.73 0 4.791-.543 6.184-1.629 1.42-1.087 2.13-2.452 2.13-4.096 0-1.643-.71-3.008-2.13-4.095-1.393-1.086-3.454-1.629-6.184-1.629-2.729 0-4.804.543-6.225 1.629-1.392 1.087-2.089 2.452-2.089 4.095zM795.383 405.249h-1.546l1.17-8.107h1.922l-1.546 8.107zM213.148 446.785h-1.755v-18.219h1.755v7.939h8.188v-8.19h1.755v18.846h-1.755v-9.068h-8.188v8.692zm-4.805-2.674c-2.395.919-6.155 1.379-11.28 1.379h-5.891v-8.776h12.784v-5.599h-12.784v-1.546h14.539v8.691h-12.784v5.683h4.386c2.451 0 4.568-.097 6.351-.292 1.81-.223 3.37-.599 4.679-1.128v1.588zm16.001 17.508v1.546h-31.125v-7.605h28.117v-4.387h-28.201v-1.547h29.956v7.439h-28.075v4.554h29.328zM262.276 464.001h-1.754v-35.686h1.754v35.686zm-10.319-17.843h-17.84v13.706h12.701c1.699 0 3.384-.153 5.055-.459 1.699-.307 3.092-.725 4.178-1.254v1.63c-1.058.529-2.423.947-4.094 1.253-1.671.307-3.384.46-5.139.46h-14.497v-16.966h17.881v-12.912h-17.965v-1.629h19.72v16.171zM287.089 440.433c-1.559 3.009-3.718 5.321-6.475 6.937-2.73 1.616-5.919 2.619-9.568 3.009v-1.672c4.763-.557 8.579-2.187 11.448-4.889 2.896-2.73 4.693-6.769 5.389-12.118h-15.792v-1.63h31.25v1.63h-13.703c-.334 2.646-.947 5.042-1.838 7.187l16.293 10.28-.96 1.379-16.044-10.113zm18.258 19.849v1.63h-35.262v-1.63h35.262zM343.655 428.315v35.686H341.9v-35.686h1.755zm-10.111.251h1.755v34.808h-1.755v-17.508h-6.517c-.028 10.753-2.674 16.129-7.938 16.129-5.292 0-7.938-5.418-7.938-16.255 0-10.836 2.646-16.255 7.938-16.255 5.041 0 7.687 4.917 7.938 14.751h6.517v-15.67zm-14.455 31.8c4.122 0 6.183-4.875 6.183-14.626 0-9.75-2.061-14.625-6.183-14.625-4.123 0-6.184 4.875-6.184 14.625 0 9.751 2.061 14.626 6.184 14.626zM383.174 428.315v35.686h-1.755v-20.016h-10.528v-1.629h10.528v-14.041h1.755zm-18.884 1.087c-.056 5.209-.418 9.778-1.086 13.706l11.865 17.508-1.379 1.045-10.904-16.38c-1.031 4.791-2.535 8.594-4.512 11.407-1.978 2.786-4.387 4.388-7.228 4.806v-1.63c2.562-.501 4.693-2.187 6.392-5.056 1.699-2.869 2.966-6.519 3.802-10.948.836-4.43 1.267-9.263 1.295-14.5l1.755.042zM426.549 434.124h-24.107v-1.63h11.155v-4.806h1.755v4.806h11.197v1.63zm12.826 5.181v1.63h-5.64v14.249h-1.755v-26.869h1.755v10.99h5.64zm-24.901 12.202c-1.977 0-3.746-.293-5.306-.878-1.531-.585-2.743-1.42-3.634-2.507-.864-1.114-1.295-2.41-1.295-3.886 0-1.477.431-2.758 1.295-3.844.891-1.115 2.103-1.964 3.634-2.549 1.56-.585 3.329-.878 5.306-.878 1.978 0 3.733.293 5.265.878 1.559.585 2.771 1.434 3.634 2.549.892 1.086 1.337 2.367 1.337 3.844 0 1.476-.445 2.772-1.337 3.886-.863 1.087-2.075 1.922-3.634 2.507-1.532.585-3.287.878-5.265.878zm0-12.954c-2.59 0-4.651.529-6.183 1.588-1.532 1.031-2.298 2.396-2.298 4.095 0 1.699.766 3.078 2.298 4.137 1.532 1.031 3.593 1.546 6.183 1.546 2.591 0 4.652-.515 6.184-1.546 1.532-1.059 2.298-2.438 2.298-4.137 0-1.699-.766-3.064-2.298-4.095-1.532-1.059-3.593-1.588-6.184-1.588zm-7.52 22.983h28.118v1.629h-29.873v-8.775h1.755v7.146zM476.232 448.582h-20.096v-19.431h1.755v7.438h16.586v-7.438h1.755v8.9h8.982v-9.736h1.755v26.577h-1.755v-15.211h-8.982v8.901zm-1.755-1.63v-8.733h-16.586v8.733h16.586zm13.495 14.584v1.629h-30.081V452.51h1.754v9.026h28.327zM527.825 428.315v35.686h-1.754v-35.686h1.754zm-10.11.251h1.754v34.808h-1.754v-17.508h-6.518c-.028 10.753-2.674 16.129-7.938 16.129-5.292 0-7.938-5.418-7.938-16.255 0-10.836 2.646-16.255 7.938-16.255 5.042 0 7.688 4.917 7.938 14.751h6.518v-15.67zm-14.456 31.8c4.122 0 6.183-4.875 6.183-14.626 0-9.75-2.061-14.625-6.183-14.625s-6.183 4.875-6.183 14.625c0 9.751 2.061 14.626 6.183 14.626zM570.531 433.664h-23.856v-1.588h10.821v-4.68h1.755v4.68h11.28v1.588zm12.826 7.187h-5.556v11.868h-1.755v-24.404h1.755v10.907h5.556v1.629zm-11.071 9.152c-1.114.473-2.897.835-5.348 1.086-2.451.251-5.306.376-8.564.376h-12.033v-1.588h11.197v-3.51c-2.813-.111-5.027-.641-6.643-1.588-1.615-.975-2.423-2.187-2.423-3.635 0-1.003.39-1.895 1.17-2.675.807-.808 1.963-1.434 3.467-1.88 1.504-.446 3.287-.669 5.348-.669s3.844.223 5.348.669c1.504.446 2.646 1.072 3.426 1.88.807.78 1.211 1.672 1.211 2.675 0 1.476-.821 2.688-2.465 3.635-1.615.947-3.843 1.477-6.684 1.588v3.51c6.462-.056 10.793-.557 12.993-1.504v1.63zm-22.101-8.859c0 .696.334 1.323 1.003 1.88.696.557 1.671 1.003 2.924 1.337 1.253.307 2.702.46 4.345.46 1.643 0 3.092-.153 4.345-.46 1.254-.334 2.214-.78 2.883-1.337.696-.557 1.044-1.184 1.044-1.88 0-.697-.348-1.324-1.044-1.881-.669-.557-1.629-.989-2.883-1.295-1.253-.334-2.702-.502-4.345-.502-1.643 0-3.092.168-4.345.502-1.253.306-2.228.738-2.924 1.295-.669.557-1.003 1.184-1.003 1.881zm-1.17 14.082h28.786v8.441h-1.755v-6.853h-27.031v-1.588zM618.908 454.892h-1.755v-26.577h1.755v26.577zm-20.681-25.95c2.256 0 4.206.446 5.849 1.337 1.671.892 2.939 2.103 3.802 3.636.864 1.532 1.295 3.245 1.295 5.139 0 1.895-.431 3.608-1.295 5.14-.863 1.532-2.131 2.744-3.802 3.636-1.643.891-3.593 1.337-5.849 1.337-2.256 0-4.219-.446-5.891-1.337-1.643-.892-2.896-2.104-3.76-3.636-.863-1.532-1.295-3.245-1.295-5.14 0-1.894.432-3.607 1.295-5.139.864-1.533 2.117-2.744 3.76-3.636 1.672-.891 3.635-1.337 5.891-1.337zm0 1.546c-1.81 0-3.412.362-4.804 1.086-1.393.697-2.465 1.7-3.217 3.009-.752 1.282-1.128 2.772-1.128 4.471 0 1.7.376 3.204 1.128 4.513.752 1.282 1.824 2.285 3.217 3.009 1.392.696 2.994 1.045 4.804 1.045 1.811 0 3.412-.349 4.805-1.045 1.392-.724 2.465-1.727 3.217-3.009.752-1.309 1.128-2.813 1.128-4.513 0-1.699-.376-3.189-1.128-4.471-.752-1.309-1.825-2.312-3.217-3.009-1.393-.724-2.994-1.086-4.805-1.086zm-6.1 31.048h28.118v1.629h-29.872v-10.99h1.754v9.361zM640.003 434.876h10.695v1.629h-23.104v-1.629h10.654v-6.644h1.755v6.644zm23.73 10.697h-5.64v18.428h-1.755v-35.686h1.755v15.628h5.64v1.63zm-24.608-5.14c1.755 0 3.357.446 4.805 1.338 1.476.863 2.632 2.117 3.468 3.76.863 1.616 1.295 3.497 1.295 5.642 0 2.145-.432 4.039-1.295 5.683-.836 1.615-1.992 2.855-3.468 3.719-1.448.891-3.05 1.337-4.805 1.337a9.205 9.205 0 0 1-4.846-1.337c-1.448-.864-2.604-2.104-3.468-3.719-.835-1.644-1.253-3.538-1.253-5.683s.418-4.026 1.253-5.642c.864-1.643 2.02-2.897 3.468-3.76a9.197 9.197 0 0 1 4.846-1.338zm0 19.849a6.967 6.967 0 0 0 3.844-1.128c1.198-.752 2.145-1.811 2.841-3.176.724-1.393 1.086-2.995 1.086-4.805 0-1.811-.362-3.399-1.086-4.764-.696-1.393-1.643-2.466-2.841-3.218a6.967 6.967 0 0 0-3.844-1.128 7.173 7.173 0 0 0-3.885 1.128c-1.17.752-2.117 1.825-2.841 3.218-.696 1.365-1.045 2.953-1.045 4.764 0 1.81.349 3.412 1.045 4.805.724 1.365 1.671 2.424 2.841 3.176a7.173 7.173 0 0 0 3.885 1.128zM697.696 431.574H669.37v-1.629h30.081v23.568h-1.755v-21.939zm4.47 28.708v1.63h-35.261v-1.63h14.664V442.69h1.755v17.592h18.842zM752.184 428.315v35.686h-1.755v-35.686h1.755zm-9.86.251h1.713v34.808h-1.713v-10.948h-7.353c-.947 6.38-3.426 9.569-7.437 9.569-5.236 0-7.854-5.418-7.854-16.255 0-10.836 2.618-16.255 7.854-16.255 3.704 0 6.1 2.702 7.186 8.107h7.604v-9.026zm-14.79 31.8c2.061 0 3.593-1.198 4.596-3.594 1.002-2.424 1.504-6.101 1.504-11.032s-.502-8.594-1.504-10.99c-1.003-2.423-2.535-3.635-4.596-3.635s-3.593 1.212-4.596 3.635c-1.002 2.396-1.504 6.059-1.504 10.99s.502 8.608 1.504 11.032c1.003 2.396 2.535 3.594 4.596 3.594zm14.79-9.486v-11.742h-7.353c.278 1.839.418 4.039.418 6.602 0 1.867-.084 3.58-.251 5.14h7.186zM790.366 435.085v7.312h5.64v1.63h-5.64v5.683h-1.755v-21.395h1.755v5.14h5.64v1.63h-5.64zm-20.221 13.163c-2.172 0-4.066-.418-5.682-1.254-1.615-.864-2.855-2.02-3.718-3.468-.864-1.477-1.295-3.121-1.295-4.931 0-1.811.431-3.441 1.295-4.889.863-1.477 2.103-2.633 3.718-3.469 1.616-.863 3.51-1.295 5.682-1.295 2.173 0 4.067.432 5.682 1.295 1.616.836 2.855 1.992 3.718 3.469.864 1.448 1.296 3.078 1.296 4.889 0 1.81-.432 3.454-1.296 4.931-.863 1.448-2.102 2.604-3.718 3.468-1.615.836-3.509 1.254-5.682 1.254zm0-17.718c-2.646 0-4.791.738-6.434 2.215-1.643 1.448-2.465 3.398-2.465 5.85 0 2.451.822 4.415 2.465 5.892 1.643 1.448 3.788 2.173 6.434 2.173 2.646 0 4.791-.725 6.434-2.173 1.643-1.477 2.465-3.441 2.465-5.892 0-2.452-.822-4.402-2.465-5.85-1.643-1.477-3.788-2.215-6.434-2.215zm-8.314 21.687h28.535v11.45h-1.755v-9.82h-26.78v-1.63zM812.464 434.876h10.695v1.629h-23.104v-1.629h10.654v-6.644h1.755v6.644zm23.73 10.697h-5.64v18.428h-1.755v-35.686h1.755v15.628h5.64v1.63zm-24.608-5.14c1.755 0 3.357.446 4.805 1.338 1.476.863 2.632 2.117 3.468 3.76.863 1.616 1.295 3.497 1.295 5.642 0 2.145-.432 4.039-1.295 5.683-.836 1.615-1.992 2.855-3.468 3.719-1.448.891-3.05 1.337-4.805 1.337a9.205 9.205 0 0 1-4.846-1.337c-1.448-.864-2.604-2.104-3.468-3.719-.835-1.644-1.253-3.538-1.253-5.683s.418-4.026 1.253-5.642c.864-1.643 2.02-2.897 3.468-3.76a9.197 9.197 0 0 1 4.846-1.338zm0 19.849a6.967 6.967 0 0 0 3.844-1.128c1.198-.752 2.145-1.811 2.841-3.176.724-1.393 1.086-2.995 1.086-4.805 0-1.811-.362-3.399-1.086-4.764-.696-1.393-1.643-2.466-2.841-3.218a6.967 6.967 0 0 0-3.844-1.128 7.173 7.173 0 0 0-3.885 1.128c-1.17.752-2.117 1.825-2.841 3.218-.696 1.365-1.045 2.953-1.045 4.764 0 1.81.349 3.412 1.045 4.805.724 1.365 1.671 2.424 2.841 3.176a7.173 7.173 0 0 0 3.885 1.128zM872.747 428.315v35.686h-1.754v-35.686h1.754zm-10.444.251h1.754v34.808h-1.754v-20.183h-7.061v-1.629h7.061v-12.996zm-11.949.836c-.056 6.24-.321 11.24-.794 15.001l9.024 15.545-1.462.961-7.98-13.873c-.724 4.067-1.824 7.285-3.3 9.652-1.477 2.341-3.44 3.942-5.891 4.806v-1.755c2.256-.892 4.011-2.661 5.264-5.307 1.253-2.674 2.117-6.045 2.59-10.112.502-4.096.766-9.082.794-14.96l1.755.042zM914.815 460.282v1.63h-35.261v-1.63h9.191v-11.366c-2.284-.836-4.052-2.034-5.306-3.594-1.225-1.56-1.838-3.384-1.838-5.474 0-2.117.641-3.956 1.922-5.516 1.281-1.587 3.091-2.799 5.431-3.635 2.34-.836 5.083-1.254 8.23-1.254 3.148 0 5.891.418 8.231 1.254 2.34.836 4.15 2.048 5.431 3.635 1.281 1.56 1.922 3.399 1.922 5.516 0 2.09-.627 3.914-1.88 5.474-1.225 1.56-2.966 2.758-5.222 3.594v11.366h9.149zm-31.418-20.434c0 1.755.557 3.301 1.672 4.639 1.142 1.309 2.757 2.326 4.846 3.05 2.089.724 4.512 1.087 7.269 1.087 2.758 0 5.181-.363 7.27-1.087 2.089-.724 3.691-1.741 4.805-3.05 1.142-1.338 1.713-2.884 1.713-4.639 0-1.755-.571-3.287-1.713-4.596-1.114-1.337-2.716-2.368-4.805-3.092-2.089-.725-4.512-1.087-7.27-1.087-2.757 0-5.18.362-7.269 1.087-2.089.724-3.704 1.755-4.846 3.092-1.115 1.309-1.672 2.841-1.672 4.596zm7.103 20.434h13.411v-10.823c-2.061.53-4.303.794-6.727.794-2.534 0-4.762-.264-6.684-.794v10.823zM922.541 455.226h-1.546l-.376-25.365h2.298l-.376 25.365zm-.794 4.429c.557 0 1.017.195 1.379.585.39.39.585.85.585 1.379 0 .558-.195 1.017-.585 1.379-.362.39-.822.585-1.379.585-.529 0-.989-.195-1.379-.585-.39-.362-.585-.821-.585-1.379 0-.529.195-.989.585-1.379.39-.39.85-.585 1.379-.585z" fill="#272A2F"/>
    <path d="M219.531 59.696C219.531 26.726 246.253 0 279.216 0H834.28c32.963 0 59.685 26.727 59.685 59.696 0 32.969-26.722 59.695-59.685 59.695H279.216c-32.963 0-59.685-26.726-59.685-59.695z" fill="#3B3C4A"/>
    <path d="M317.173 58.096h-6.732V27.222h6.732V38.97h9.955V26.864h6.733V58.74h-6.733V45.202h-9.955v12.894zm-10.886-3.223c-3.677 1.385-9.454 2.077-17.333 2.077h-12.032V40.044h19.338V33.67h-19.338v-5.301h25.927v16.69h-19.41v6.591h6.088c7.497 0 13.083-.692 16.76-2.077v5.3zm29.078 27.078v5.3h-54.934V72.066h46.483v-4.728h-46.626v-5.3h53.573V77.15h-46.482v4.8h47.986zM393.945 26.864h7.09V88.04h-7.09V26.864zM347.463 53.01h27.359V35.603h-27.503v-6.519h34.593V59.53h-27.359v18.339h17.905a47.96 47.96 0 0 0 8.667-.788c2.912-.526 5.3-1.242 7.162-2.15v6.52c-1.815.907-4.178 1.623-7.091 2.148a50.338 50.338 0 0 1-8.952.788h-24.781V53.01zM442.928 50.431c-3.056 4.49-7.043 8-11.961 10.53-4.918 2.484-10.361 3.917-16.33 4.299v-6.59c6.924-.574 12.701-2.77 17.333-6.59 4.679-3.87 7.687-9.337 9.024-16.405h-24.853v-6.52h54.432v6.52h-22.059c-.477 3.2-1.313 6.208-2.507 9.026l26.429 15.258-3.438 5.659-26.07-15.186zm31.012 28.01v6.662h-61.093V78.44h61.093zM545.698 57.882h-8.451V88.04h-7.091V26.864h7.091v24.212h8.451v6.806zm-40.394 19.842c9.215 0 15.804-.86 19.767-2.579v6.663c-4.202 1.719-10.863 2.578-19.982 2.578H481.74v-6.662h16.545V65.761c-4.489-.764-8.117-2.817-10.887-6.16-2.769-3.391-4.154-7.546-4.154-12.465 0-3.677.788-6.948 2.364-9.814 1.575-2.913 3.772-5.157 6.589-6.733 2.817-1.624 6.016-2.436 9.597-2.436 3.533 0 6.709.812 9.526 2.436 2.865 1.576 5.109 3.82 6.732 6.733 1.624 2.866 2.435 6.137 2.435 9.814 0 3.248-.644 6.209-1.933 8.883-1.29 2.627-3.08 4.8-5.372 6.519-2.292 1.671-4.918 2.746-7.878 3.223v11.963zm-15.113-30.588c0 3.63 1.051 6.638 3.152 9.026 2.101 2.34 4.918 3.51 8.451 3.51 2.292 0 4.321-.549 6.088-1.647a10.833 10.833 0 0 0 4.154-4.513c1.003-1.91 1.504-4.036 1.504-6.376 0-2.388-.501-4.537-1.504-6.447-.955-1.91-2.316-3.414-4.082-4.513-1.767-1.098-3.82-1.648-6.16-1.648-3.533 0-6.35 1.194-8.451 3.582-2.101 2.34-3.152 5.349-3.152 9.026zM612.033 37.537h-41.541v-5.516h17.189V25.79h7.163v6.232h17.189v5.516zm22.632 10.889h-8.595v14.9h-7.09V26.864h7.09v14.828h8.595v6.734zm-43.402 14.398c-3.391 0-6.47-.43-9.24-1.29-2.721-.859-4.87-2.1-6.446-3.724-1.527-1.672-2.291-3.63-2.291-5.874 0-2.292.764-4.274 2.291-5.946 1.576-1.72 3.725-3.009 6.446-3.868 2.722-.908 5.802-1.361 9.24-1.361 3.39 0 6.445.453 9.167 1.36 2.722.86 4.846 2.15 6.374 3.87 1.576 1.67 2.364 3.653 2.364 5.945 0 2.244-.788 4.202-2.364 5.874-1.528 1.624-3.652 2.865-6.374 3.725-2.722.86-5.777 1.29-9.167 1.29zm0-16.834c-3.391 0-6.112.55-8.165 1.648-2.006 1.098-3.008 2.53-3.008 4.298 0 1.671 1.002 3.032 3.008 4.083 2.053 1.05 4.774 1.576 8.165 1.576 3.39 0 6.087-.525 8.093-1.576 2.053-1.05 3.079-2.412 3.079-4.083 0-1.72-1.026-3.128-3.079-4.227-2.053-1.146-4.751-1.719-8.093-1.719zm-16.33 20.703h51.137v20.559h-51.137v-20.56zm7.019 14.9h37.1v-9.241h-37.1v9.24zM698.76 26.864V88.04h-6.446V26.864h6.446zm-19.553.358h6.446v59.743h-6.446V57.308h-7.878c-.621 8.501-2.149 14.972-4.584 19.413-2.435 4.442-6.112 6.949-11.03 7.522v-6.16c3.486-.621 5.945-3.63 7.377-9.026 1.433-5.445 2.149-13.348 2.149-23.712V35.102h-7.305v-6.018h13.823V44.63c0 2.77-.024 4.823-.072 6.16h7.52V27.223zm-24.208 16.547c.048 7.976-.334 14.662-1.146 20.058-.811 5.397-2.315 9.67-4.512 12.823-2.148 3.152-5.18 4.966-9.096 5.444v-6.16c3.199-.621 5.396-3.606 6.589-8.955 1.194-5.396 1.743-12.918 1.648-22.565l-.072-9.312h-8.165v-6.018h14.683l.071 14.685zM733.275 36.534h16.258v6.304h-39.678v-6.304h16.186V26.72h7.234v9.814zm39.177 21.92h-8.595V88.04h-7.09V26.864h7.09v24.785h8.595v6.806zM729.694 47.71c3.295 0 6.231.788 8.81 2.364 2.578 1.529 4.583 3.725 6.016 6.59 1.432 2.818 2.148 6.066 2.148 9.743 0 3.677-.716 6.949-2.148 9.814-1.433 2.818-3.438 4.99-6.016 6.519-2.579 1.576-5.515 2.364-8.81 2.364-3.295 0-6.231-.788-8.809-2.364-2.579-1.528-4.608-3.701-6.088-6.519-1.433-2.865-2.149-6.137-2.149-9.814 0-3.677.716-6.925 2.149-9.742 1.48-2.866 3.509-5.063 6.088-6.59 2.578-1.577 5.514-2.365 8.809-2.365zm0 31.233c1.91 0 3.629-.501 5.157-1.504 1.528-1.003 2.721-2.46 3.581-4.37.907-1.91 1.361-4.13 1.361-6.662 0-2.531-.454-4.752-1.361-6.662-.86-1.91-2.053-3.367-3.581-4.37-1.528-1.003-3.247-1.504-5.157-1.504-2.96 0-5.395 1.146-7.305 3.438-1.91 2.245-2.865 5.278-2.865 9.098 0 3.82.955 6.877 2.865 9.17 1.91 2.244 4.345 3.366 7.305 3.366zM781.757 26.864h7.162V44.27h45.766v6.304h-52.928V26.864zm-4.369 30.444h61.093v6.304h-61.093v-6.304zm4.225 11.748h7.234V81.02h46.482v6.304h-53.716V69.057z" fill="#fff"/>
    <defs>
        <linearGradient id="ko7kb9gu0c" x1="858.69" y1="765.769" x2="864.578" y2="680.107" gradientUnits="userSpaceOnUse">
            <stop offset=".49" stop-color="#5D85E2"/>
            <stop offset=".73" stop-color="#6690E0"/>
            <stop offset="1" stop-color="#6D97DF"/>
        </linearGradient>
        <linearGradient id="2aihdpce6d" x1="563.877" y1="663.548" x2="598.733" y2="1226.14" gradientUnits="userSpaceOnUse">
            <stop offset=".04" stop-color="#B6D3FF"/>
            <stop offset=".05" stop-color="#B4D1FE"/>
            <stop offset=".14" stop-color="#A2C2F8"/>
            <stop offset=".24" stop-color="#94B8F4"/>
            <stop offset=".37" stop-color="#8DB1F2"/>
            <stop offset=".63" stop-color="#8BB0F2"/>
            <stop offset=".66" stop-color="#87ACEF"/>
            <stop offset=".86" stop-color="#739CE3"/>
            <stop offset="1" stop-color="#6D97DF"/>
        </linearGradient>
        <linearGradient id="8w2sm3h9ye" x1="432.681" y1="1293.7" x2="439.806" y2="1184.67" gradientUnits="userSpaceOnUse">
            <stop offset=".49" stop-color="#5D85E2"/>
            <stop offset=".73" stop-color="#6690E0"/>
            <stop offset="1" stop-color="#6D97DF"/>
        </linearGradient>
        <linearGradient id="vnlggkvmof" x1="558.369" y1="885.244" x2="560.312" y2="863.789" gradientUnits="userSpaceOnUse">
            <stop offset=".38" stop-color="#D0D3E1"/>
            <stop offset=".4" stop-color="#D4D7E3"/>
            <stop offset=".52" stop-color="#F3F4F7"/>
            <stop offset=".59" stop-color="#fff"/>
        </linearGradient>
        <linearGradient id="1np2kd2eyg" x1="536.532" y1="961.719" x2="538.063" y2="944.893" gradientUnits="userSpaceOnUse">
            <stop offset=".38" stop-color="#D0D3E1"/>
            <stop offset=".4" stop-color="#D4D7E3"/>
            <stop offset=".52" stop-color="#F3F4F7"/>
            <stop offset=".59" stop-color="#fff"/>
        </linearGradient>
        <linearGradient id="cp6zmqnbhh" x1="517.453" y1="1046.03" x2="518.709" y2="1032.16" gradientUnits="userSpaceOnUse">
            <stop offset=".38" stop-color="#D0D3E1"/>
            <stop offset=".4" stop-color="#D4D7E3"/>
            <stop offset=".52" stop-color="#F3F4F7"/>
            <stop offset=".59" stop-color="#fff"/>
        </linearGradient>
        <linearGradient id="auxjnpzork" x1="557.692" y1="657.948" x2="557.692" y2="627.644" gradientUnits="userSpaceOnUse">
            <stop offset=".23" stop-color="#FFDE72"/>
            <stop offset=".61" stop-color="#fff"/>
        </linearGradient>
        <linearGradient id="zodptbmjco" x1="555.866" y1="686.936" x2="554.73" y2="643.67" gradientUnits="userSpaceOnUse">
            <stop offset=".07" stop-color="#FFE67F"/>
            <stop offset=".1" stop-color="#FFE993"/>
            <stop offset=".16" stop-color="#FFF0B4"/>
            <stop offset=".23" stop-color="#FFF5CF"/>
            <stop offset=".3" stop-color="#FFF9E4"/>
            <stop offset=".38" stop-color="#FFFCF3"/>
            <stop offset=".47" stop-color="#FFFEFC"/>
            <stop offset=".61" stop-color="#fff"/>
        </linearGradient>
        <linearGradient id="0i5p5vahcp" x1="447.706" y1="666.143" x2="607.965" y2="705.784" gradientUnits="userSpaceOnUse">
            <stop offset=".07" stop-color="#FFE67F"/>
            <stop offset=".1" stop-color="#FFE993"/>
            <stop offset=".16" stop-color="#FFF0B4"/>
            <stop offset=".23" stop-color="#FFF5CF"/>
            <stop offset=".3" stop-color="#FFF9E4"/>
            <stop offset=".38" stop-color="#FFFCF3"/>
            <stop offset=".47" stop-color="#FFFEFC"/>
            <stop offset=".61" stop-color="#fff"/>
        </linearGradient>
        <linearGradient id="2wejh3oqhs" x1="1" y1="214.146" x2="1107.47" y2="267.289" gradientUnits="userSpaceOnUse">
            <stop stop-color="#3C3"/>
            <stop offset=".5" stop-color="#33A26D"/>
            <stop offset=".81" stop-color="#3473AE"/>
            <stop offset="1" stop-color="#3438FF"/>
        </linearGradient>
        <linearGradient id="o4pgp334wt" x1="1" y1="214.146" x2="1107.47" y2="267.289" gradientUnits="userSpaceOnUse">
            <stop stop-color="#3C3"/>
            <stop offset=".5" stop-color="#33A26D"/>
            <stop offset=".81" stop-color="#3473AE"/>
            <stop offset="1" stop-color="#3438FF"/>
        </linearGradient>
        <linearGradient id="wgsl4o2tku" x1="1" y1="214.146" x2="1107.47" y2="267.289" gradientUnits="userSpaceOnUse">
            <stop stop-color="#3C3"/>
            <stop offset=".5" stop-color="#33A26D"/>
            <stop offset=".81" stop-color="#3473AE"/>
            <stop offset="1" stop-color="#3438FF"/>
        </linearGradient>
        <linearGradient id="a5dx3lyiuv" x1="1" y1="214.146" x2="1107.47" y2="267.289" gradientUnits="userSpaceOnUse">
            <stop stop-color="#3C3"/>
            <stop offset=".5" stop-color="#33A26D"/>
            <stop offset=".81" stop-color="#3473AE"/>
            <stop offset="1" stop-color="#3438FF"/>
        </linearGradient>
        <linearGradient id="q6pv0ipv0w" x1="1" y1="214.146" x2="1107.47" y2="267.289" gradientUnits="userSpaceOnUse">
            <stop stop-color="#3C3"/>
            <stop offset=".5" stop-color="#33A26D"/>
            <stop offset=".81" stop-color="#3473AE"/>
            <stop offset="1" stop-color="#3438FF"/>
        </linearGradient>
        <linearGradient id="bfien8ddzx" x1="1" y1="214.146" x2="1107.47" y2="267.289" gradientUnits="userSpaceOnUse">
            <stop stop-color="#3C3"/>
            <stop offset=".5" stop-color="#33A26D"/>
            <stop offset=".81" stop-color="#3473AE"/>
            <stop offset="1" stop-color="#3438FF"/>
        </linearGradient>
        <linearGradient id="x6m6szdcuy" x1="1" y1="214.146" x2="1107.47" y2="267.289" gradientUnits="userSpaceOnUse">
            <stop stop-color="#3C3"/>
            <stop offset=".5" stop-color="#33A26D"/>
            <stop offset=".81" stop-color="#3473AE"/>
            <stop offset="1" stop-color="#3438FF"/>
        </linearGradient>
        <linearGradient id="mor239p7xz" x1="1" y1="214.146" x2="1107.47" y2="267.289" gradientUnits="userSpaceOnUse">
            <stop stop-color="#3C3"/>
            <stop offset=".5" stop-color="#33A26D"/>
            <stop offset=".81" stop-color="#3473AE"/>
            <stop offset="1" stop-color="#3438FF"/>
        </linearGradient>
        <linearGradient id="77y4o2nvnA" x1="1" y1="214.146" x2="1107.47" y2="267.289" gradientUnits="userSpaceOnUse">
            <stop stop-color="#3C3"/>
            <stop offset=".5" stop-color="#33A26D"/>
            <stop offset=".81" stop-color="#3473AE"/>
            <stop offset="1" stop-color="#3438FF"/>
        </linearGradient>
        <linearGradient id="2kc4vdzepB" x1="1" y1="214.146" x2="1107.47" y2="267.289" gradientUnits="userSpaceOnUse">
            <stop stop-color="#3C3"/>
            <stop offset=".5" stop-color="#33A26D"/>
            <stop offset=".81" stop-color="#3473AE"/>
            <stop offset="1" stop-color="#3438FF"/>
        </linearGradient>
        <radialGradient id="zdfrjwzq9i" cx="0" cy="0" r="1" gradientUnits="userSpaceOnUse" gradientTransform="matrix(12.9916 0 0 13.0794 563.074 593.462)">
            <stop offset=".03" stop-color="#FFF0AF"/>
            <stop offset=".1" stop-color="#FFE99D"/>
            <stop offset=".23" stop-color="#FFDE82"/>
            <stop offset=".35" stop-color="#FFD872"/>
            <stop offset=".43" stop-color="#FFD66D"/>
            <stop offset=".49" stop-color="#FFCD67"/>
            <stop offset=".67" stop-color="#FFB456"/>
            <stop offset=".83" stop-color="#FFA54B"/>
            <stop offset=".97" stop-color="#FFA048"/>
        </radialGradient>
        <radialGradient id="o4rs46swhj" cx="0" cy="0" r="1" gradientUnits="userSpaceOnUse" gradientTransform="matrix(101.198 0 0 101.882 540.924 639.293)">
            <stop offset=".19" stop-color="#FFD66D"/>
            <stop offset=".39" stop-color="#FDD169"/>
            <stop offset=".62" stop-color="#F9C360"/>
            <stop offset=".85" stop-color="#F3AE53"/>
        </radialGradient>
        <radialGradient id="n3s4ag9f1l" cx="0" cy="0" r="1" gradientUnits="userSpaceOnUse" gradientTransform="matrix(95.1604 0 0 95.8035 555.992 683.96)">
            <stop offset=".06" stop-color="#FFE67F"/>
            <stop offset=".12" stop-color="#FFDD74"/>
            <stop offset=".24" stop-color="#FFD165"/>
            <stop offset=".39" stop-color="#FFCB5C"/>
            <stop offset=".61" stop-color="#FFC95A"/>
            <stop offset=".98" stop-color="#D97D4E"/>
        </radialGradient>
        <radialGradient id="w2ectt2pym" cx="0" cy="0" r="1" gradientUnits="userSpaceOnUse" gradientTransform="matrix(114.393 0 0 115.166 564.334 684.509)">
            <stop offset=".44" stop-color="#56120D"/>
            <stop offset=".45" stop-color="#59130C"/>
            <stop offset=".46" stop-color="#7A200C"/>
            <stop offset=".49" stop-color="#952A0C"/>
            <stop offset=".51" stop-color="#AA320C"/>
            <stop offset=".53" stop-color="#B9380C"/>
            <stop offset=".56" stop-color="#C23B0C"/>
            <stop offset=".61" stop-color="#C53D0C"/>
        </radialGradient>
        <radialGradient id="w4ampugkhn" cx="0" cy="0" r="1" gradientUnits="userSpaceOnUse" gradientTransform="matrix(35.236 0 0 35.4741 558.968 736.765)">
            <stop offset=".33" stop-color="#EF992D"/>
            <stop offset=".44" stop-color="#ED922A"/>
            <stop offset=".6" stop-color="#E87F25"/>
            <stop offset=".79" stop-color="#DF611B"/>
            <stop offset=".86" stop-color="#DC5417"/>
        </radialGradient>
        <radialGradient id="kfh4jwf57q" cx="0" cy="0" r="1" gradientUnits="userSpaceOnUse" gradientTransform="matrix(88.6282 0 0 89.2272 627.391 556.295)">
            <stop offset=".02" stop-color="#FFA988"/>
            <stop offset=".33" stop-color="#F64B2F"/>
            <stop offset=".49" stop-color="#ED462C"/>
            <stop offset=".73" stop-color="#D53926"/>
            <stop offset="1" stop-color="#B5271D"/>
        </radialGradient>
        <clipPath id="mr403iqnwa">
            <path fill="#fff" transform="translate(0 647)" d="M0 0h417v864H0z"/>
        </clipPath>
        <clipPath id="bxv46ay3tb">
            <path fill="#fff" transform="translate(183 647)" d="M0 0h714v636H0z"/>
        </clipPath>
        <clipPath id="u7dfap08ir">
            <path fill="#fff" transform="translate(705 647)" d="M0 0h411v849H0z"/>
        </clipPath>
    </defs>
</svg>
