<svg width="120" height="120" viewBox="0 0 120 120" fill="none" xmlns="http://www.w3.org/2000/svg">
    <path d="M60 120c33.137 0 60-26.863 60-60S93.137 0 60 0 0 26.863 0 60s26.863 60 60 60z" fill="#5CD65C"/>
    <mask id="auy1a2h1wa" style="mask-type:alpha" maskUnits="userSpaceOnUse" x="0" y="0" width="120" height="120">
        <path d="M60 120c33.137 0 60-26.863 60-60S93.137 0 60 0 0 26.863 0 60s26.863 60 60 60z" fill="#5CD65C"/>
    </mask>
    <g mask="url(#auy1a2h1wa)">
        <path d="M49.163 57.37a43 43 0 0 1-.811-4.708c-.3-2.664-.426-4.825 3.227-5.76 3.652-.935 4.434 4.482 5.415 7.188.413 1.151 2.29 11.395 3.534 11.066l.613-.157c-1.761-6.843-4.727-16.703-5.144-18.539-1.19-4.96-.97-12.398 4.452-12.396 2.605 0 3.708 1.395 4.387 3.715.41 1.404.739 4.453 1.028 5.88.584 2.902 1.602 5.673 2.277 8.543.815 3.308 1.56 6.516 2.929 9.658-.609-5.01-1.217-10.015-2.045-14.99-.588-3.582-1.51-7.504-.807-11.124.548-2.797 1.93-6.136 5.384-5.61 2.386.362 3.743 2.254 4.206 4.498.295 1.446.219 3.062.358 4.544.159 1.693.35 3.386.572 5.08.717 5.458 1.804 10.838 2.557 16.284.014.06.021.122.022.184.46-6.11.373-12.227.534-18.342.122-4.697 2.124-10.994 7.258-9.248 2.73.928 3.534 3.931 3.244 6.51-.96 8.61-1.36 17.414-1.544 26.062l-.007.212.411 2.94c3.187-4.864 7.663-7.65 12.41-8.616 3.18-.646 6.162-.06 7.037 2.754.102.32.158.655.166.992.026 2.18-2.211 3.353-2.211 3.353s-1.167.922-2.671 2.31c-1.887 1.737-4.308 4.203-5.651 6.51-3.514 6.043-3.01 13.842-6.522 20.14-1.129 3.294 4.975 10.324 7.36 13.597 1.804 2.482 1.184 3.553-2.158 5.648l-6.33 2.066c-6.002 1.382-10.78 7.318-16.045 2.59-5.46-6.869-6.136-16.362-11.284-21.098-.135-.124-1.833-.865-1.963-.981-4.049-2.733-6.207-10.429-7.719-14.882-2.86-8.378-4.54-17.274-6.469-25.873z" fill="#FDCCC3"/>
        <path d="m97.5 101-27 13.5 3 10 31-14-7-9.5z" fill="#5F95FF"/>
        <path d="m76.794 91.263-.032.004a.408.408 0 0 1-.428-.394c-.497-12.683 7.521-16.498 10.944-18.128a6.216 6.216 0 0 0 1.447-.804c.488-1.385 2.08-3.275 2.157-3.355a.41.41 0 1 1 .625.527s-1.572 1.843-2.014 3.135c-.158.432-.762.729-1.859 1.25-3.555 1.696-10.957 5.214-10.48 17.358a.41.41 0 0 1-.36.407zM83.31 61.5a.409.409 0 0 1-.193-.027 6.793 6.793 0 0 0-3.895-.24.41.41 0 0 1-.495-.308.412.412 0 0 1 .307-.496 7.595 7.595 0 0 1 4.37.275.41.41 0 0 1 .24.528.41.41 0 0 1-.334.267zM68.824 62.81a.41.41 0 1 1-.164-.806 17.634 17.634 0 0 1 4.13-.667.412.412 0 0 1 .19.784.41.41 0 0 1-.155.038 16.835 16.835 0 0 0-3.937.631l-.064.02zM59.244 66.3a.41.41 0 0 1-.31-.722 6.44 6.44 0 0 1 3.487-1.444.41.41 0 1 1 .074.817 5.497 5.497 0 0 0-3.039 1.257.41.41 0 0 1-.212.092z" fill="#DD8A78"/>
        <path d="M29.501 77.165 46.236 69c-.96-9.595-2.638-16.31-2.788-17.846-.248-2.507.66-4.126 5.868-3.056 1.486.305 4.267 7.413 4.267 7.413 2.885 8.92 4.808 12.02 5.289 23.078 2.854-4.584 2.27-10.6 5.415-14.158 3.268-3.703 6.757-2.201 8.047-.266.962 1.442.58 2.58.481 3.366-.18 1.103-1.042 3.235-1.923 4.808-.798 1.424-1.87 3.333-2.404 5.288-1.443 5.29-1.443 8.655-1.923 15.867-.128 1.919-.73 5.657-.962 6.25-.962-.48-2.404-.961-3.366-1.923-1.72-1.72-11.435 16.499-13.337 18.159-2.2 1.886-5.935 1.344-5.935 1.344-3.08 1.297-5.132 1.619-8.405 2.26-1.735.34-3.223-1.146-4.995-1.149-.624-.001-2.926 1.165-1.887-2.7 2.15-8.015 3.102-15.196-.45-22.954-3.142-6.833-.48-18.92 2.273-15.616z" fill="#E8B0A7"/>
        <path d="M12.445 74.552c-1.463-2.048-3.756-3.566-4.645-6.02-1.207-3.272 1.311-6.228 4.827-5.365 1.539.375 2.863 1.352 4.008 2.447 3.116 2.967 5.742 6.391 8.494 9.694l.56-.254c-2.858-6.305-8.302-16.273-9.06-17.953-1.037-2.302-5.352-7.406-.092-10.105 4.722-2.432 9.062 6.542 9.062 6.542L34.5 70.839c-1.772-6.259-5.625-17.315-6.157-19.192-.698-2.42-5.054-10.526.13-11.69 6.034-1.353 8.531 7.173 8.531 7.173l7.22 22.114c-.96-9.594-2.638-16.31-2.788-17.846-.248-2.506-3.537-10.657 1.768-10.958 6.36-.368 7.274 8.018 7.274 8.018 2.688 10.195 4.006 15.113 4.61 28.575 2.85-4.584 3.267-8.474 6.412-12.033 3.269-3.703 9.47-3.62 10.794-1.053.15.294.261.608.328.931.332 1.622-1.215 4.02-1.215 4.02S69 73.5 67.255 77.034c-4.342 7.552-2.053 11.395-3.43 19.177-.61 3.437-2.44 9.281-5.88 12.74-1.927 3.516-2.03 4.732-2.856 8.584-.522 2.366-.442 5.006-2.354 6.683-2.199 1.886-5.376 1.378-8.03 1.324l-5.201.479a48.39 48.39 0 0 1-9.533 3.003 27.158 27.158 0 0 1-5.28.573c-.623-.001-2.191.182-2.713-.18-1.123-.782-.577-.557-.24-1.97.945-3.853 4.36-7.481 5.399-11.354 2.15-8.015 3.553-12.917 0-20.675-3.117-6.864-9.616-16.347-14.692-20.865z" fill="#FFF0EC"/>
        <path d="M58 115.5 26.394 107 24 115.5 55.127 126 58 115.5z" fill="#333232"/>
        <path d="M38.464 29.621c-.442.086-.9.044-1.32-.122a2.338 2.338 0 0 1-1.04-.812l-5.358-7.471a2.277 2.277 0 0 1-.355-1.696 2.28 2.28 0 0 1 .944-1.453 2.35 2.35 0 0 1 1.708-.387c.6.095 1.14.417 1.504.898l5.357 7.471c.224.313.366.676.412 1.056a2.262 2.262 0 0 1-.82 2.032c-.297.244-.652.41-1.032.484zM61.467 25.875a2.56 2.56 0 0 1-1.186-.186 2.488 2.488 0 0 1-.96-.702 2.335 2.335 0 0 1-.502-1.05 2.24 2.24 0 0 1 .076-1.144l2.994-8.817c.098-.291.256-.56.465-.792.208-.231.462-.42.748-.556.286-.136.598-.217.918-.237a2.559 2.559 0 0 1 1.78.575c.245.202.447.448.593.724.146.276.235.575.26.882.026.307-.011.615-.11.906l-2.994 8.817c-.146.431-.42.81-.79 1.091-.37.28-.82.45-1.292.49zM49.965 13.32a2.356 2.356 0 1 0-4.639.825l1.64 9.222a2.356 2.356 0 1 0 4.638-.824l-1.64-9.223z" fill="#FCFF77"/>
    </g>
</svg>
