<svg width="1125" height="726" viewBox="0 0 1125 726" fill="none" xmlns="http://www.w3.org/2000/svg">
    <circle cx="561" cy="382" r="327" fill="#F7F9FA"/>
    <circle cx="186" cy="133" r="109" fill="#F7F9FA"/>
    <path d="M57 21v260.205c0 3.746 2.99 6.795 6.69 6.795h364.62c3.688 0 6.69-3.037 6.69-6.795V21H57z" fill="#FDFEFF"/>
    <path d="M435 6.181C435 2.774 432.01 0 428.31 0H63.69C60.002 0 57 2.762 57 6.181V21h378V6.181z" fill="#E7E7E7"/>
    <path d="M426 30H63v249h363V30z" fill="#F4F4F4"/>
    <path d="M254.425 63h-88.85c-1.974 0-3.575 1.728-3.575 3.859v64.282c0 2.131 1.601 3.859 3.575 3.859h88.85c1.974 0 3.575-1.728 3.575-3.859V66.859c0-2.131-1.601-3.859-3.575-3.859z" fill="#777"/>
    <path d="M248.464 66h-79.928c-1.953 0-3.536 1.72-3.536 3.84v55.32c0 2.121 1.583 3.84 3.536 3.84h79.928c1.953 0 3.536-1.719 3.536-3.84V69.84c0-2.12-1.583-3.84-3.536-3.84z" fill="#FDFEFF"/>
    <path d="M221.17 66.393c-3.136-5.416-10.297-6.725-15.647-6.327-2.042.154-4.036.514-5.921 1.117-.401-.052-.838 0-1.313.154-4.887 1.655-9.045 4.928-12.109 9.432-1.483 2.182-2.504 4.582-3.331 7.136-.316.975-.583 2.066-1.143 2.926-.632.963-1.799 1.348-2.759 1.745-4.706 1.951-10.76 6.02-10.942 12.295-.207 7.059 6.638 10.036 11.999 10.126 5.046.09 10.006-1.912 13.945-5.313a22.487 22.487 0 0 0 4.815-5.827c1.155-1.989 1.835-4.26 3.671-5.646 3.842-2.875 8.815-3.157 12.608-6.263 2.115-1.746 3.927-3.863 5.228-6.417 1.41-2.772 2.589-6.199.887-9.138h.012z" fill="#428DE4"/>
    <path d="M253.171 105.177c-.56-1.643-2.133-3.352-3.811-2.537-4.649 2.261-8.646 6.558-13.761 7.32-3.904.578-8.192-.88-10.406-4.928-2.272-4.153-1.13-9.12 1.562-12.616 3.321-4.298 8.063-6.387 12.584-8.398 2.004-.894 2.727-3.062 1.853-5.336-1.328-3.456-2.412-7.398-6.385-6.57-2.482.512-4.953 1.734-7.213 3.035-4.428 2.55-8.984 6.519-11.385 11.697-.326.71-.605 1.432-.85 2.168-2.307 5.086-3.065 11.118-1.632 17.032 1.55 6.361 5.361 11.762 10.511 14.495 5.628 2.984 11.978 3.115 17.863 1.144 3.332-1.117 6.548-2.839 9.555-4.876 1.748-1.183 3.344-2.602 3.344-5.204 0-2.155-1.165-4.442-1.829-6.413v-.013z" fill="#F58D6D"/>
    <path d="M200.918 125.336c-.447-3.778-1.423-7.556-3.982-10.378-1.791-1.982-3.96-2.879-6.29-3.148-2.341-.524-4.728-.757-7.139-.804-3.121-.058-6.45.291-9.101 2.192-4.648 3.323-8.849 11.939-4.728 17.268 1.813 2.355 4.625 3.02 7.345 3.334 3.236.374 6.496.56 9.733.828 3.385.28 7.012.945 10.191-.699 3.179-1.656 4.396-5.002 3.971-8.593z" fill="#E2DFD5"/>
    <path d="M213.278 90.516c-2.836-.978-5.971-.614-8.348 1.506-2.147 1.92-3.307 4.755-4.502 7.464-.608 1.393-1.24 2.811-2.09 4.027-.987 1.431-2.319 2.472-3.479 3.689-2.124 2.22-3.778 5.557-2.285 8.794 2.974 6.436 11.552 3.776 15.985 1.229 2.675-1.543 5.11-3.713 7.051-6.31 1.022-1.38 1.975-2.86 2.583-4.529.655-1.794.77-3.675.804-5.595.081-4.704-1.596-8.631-5.719-10.275-1.481-.59-2.124 2.096-.643 2.673 2.733 1.091 3.997 3.788 3.939 6.95-.046 2.722-.275 4.993-1.653 7.289a21.276 21.276 0 0 1-5.294 5.883c-2.021 1.531-4.249 2.66-6.603 3.312-2.32.64-5.443 1.167-7.43-.74-2.446-2.358-.356-5.382 1.47-7.176 1.826-1.794 3.422-3.5 4.616-5.921 1.183-2.396 2.021-5.106 3.572-7.239 1.871-2.584 4.604-3.312 7.395-2.358 1.504.514 2.147-2.158.643-2.672h-.012z" fill="#777"/>
    <path d="M221.945 200.847c-.291-3.694-1.747-7.03-3.845-9.736-1.911-2.483-4.264-4.497-5.965-7.203a12.791 12.791 0 0 1-1.806-4.757c-.327-1.989-.315-4.04-.595-6.042-.477-3.484-2.144-6.227-4.101-8.784-1.095-1.446-2.261-2.842-3.251-4.387a20.269 20.269 0 0 1-2.458-5.498c-1.166-4.126-1.294-8.537-1.072-12.837.035-.667-.711-.791-.979-.321-3.321 5.795-6.63 11.589-9.951 17.384-2.062 3.608-4.124 7.203-6.187 10.811-.512.889-1.013 1.779-1.526 2.656-.21.371-.256.655-.163 1.075 1.235 5.832 2.586 11.626 3.88 17.433 2.097 9.452 4.206 18.904 6.303 28.344 1.282 5.769 2.482 11.577 3.857 17.322v.061a.764.764 0 0 0 .093.272c.117.334.396.42.641.322.023 0 .035-.025.058-.025.035-.025.07-.037.105-.062.024-.012.035-.012.059-.037 5.942-5.56 11.989-10.996 17.815-16.729 4.812-4.745 9.717-11.293 9.088-19.287v.025z" fill="#333232"/>
    <path d="M197.988 140.072c.261 20.415-10.437 37.319-24.578 36.921-18.096-.507-32.142-15.866-32.403-36.27-.261-20.415 7.041-32.251 25.136-32.71 18.096-.47 31.596 11.644 31.857 32.059h-.012z" fill="#FCE6E0"/>
    <path d="m156.465 159-3.636 28.022L123 207.955 175.543 255 219 204.572l-31.653-17.412-1.212-27.486-29.67-.674z" fill="#FCE6E0"/>
    <path d="M185.888 163.59c.076.572-.376 1.068-.954 1.078l-18.801.312c-.601.01-1.067-.507-.952-1.097.595-3.041 2.909-11.218 10.574-10.873l.041.001c.437.009 8.733.309 10.092 10.579z" fill="#F4BFB3"/>
    <path d="M175.299 153.012h.487c.092 0 9.284.159 10.21 10.591.023.278-.058.556-.22.768a.802.802 0 0 1-.637.331l-19.263.291c-.255.04-.498-.119-.66-.331a1.105 1.105 0 0 1-.208-.794c.012-.106 1.401-10.869 10.291-10.869v.013zm8.833 9.731c-1.262-7.586-8.08-7.732-8.381-7.732h-.417c-5.904 0-7.826 5.547-8.393 8.01l17.191-.265v-.013zM162.003 143.902a2.957 2.957 0 0 0 2.864 3.097 3.044 3.044 0 0 0 3.13-2.901 2.957 2.957 0 0 0-2.864-3.097 3.044 3.044 0 0 0-3.13 2.901zM183.003 140.902a2.957 2.957 0 0 0 2.864 3.097 3.044 3.044 0 0 0 3.13-2.901 2.957 2.957 0 0 0-2.864-3.097 3.044 3.044 0 0 0-3.13 2.901zM178.984 150c-.497 0-.941-.349-.995-.822l-.981-7.125c-.068-.51.322-.984.874-1.046.564-.062 1.062.299 1.129.81l.981 7.124c.068.511-.322.984-.873 1.047h-.135V150zM160.045 134.99c-.225 0-.449-.051-.646-.163-.449-.255-.533-.735-.182-1.061.098-.102 2.567-2.367 7.925-1.612.576.081.94.479.842.898-.112.418-.659.693-1.234.612-4.026-.561-5.794.989-5.878 1.05-.21.184-.519.286-.827.286v-.01zM188.214 135a.593.593 0 0 1-.395-.144c-1.945-1.462-3.755-.679-3.775-.679-.406.183-.853-.091-.999-.6-.145-.509.073-1.071.479-1.254.104-.052 2.527-1.083 5.095.836.375.274.489.875.271 1.345-.146.313-.406.483-.666.483l-.01.013z" fill="#333232"/>
    <path d="M145.754 150.451s1.758-12.212 12.485-21.336c0 0 16.915-11.186 17.664-17.863 0 0 5.322 6.061 10.917 8.893 0 0 4.989 1.615 7.756 13.225 0 0 2.162 7.112 4.895 13.775 0 0 6.07-14.864-5.976-30.613 0 0-6.699-10.162-17.176-8.227 0 0-4.693-6.036-16.88-1.794 0 0-18.389 4.626-21.121 27.641 0 0-1.069 11.186.713 21.848l6.7-5.523.023-.026zM174.31 177c-10.591 0-18.061-5.295-18.161-5.364-.188-.137-.2-.372-.025-.519a.57.57 0 0 1 .664-.02c.126.088 12.897 9.119 28.539 3.108.225-.088.514-.009.626.167.113.186.013.402-.213.49A31.58 31.58 0 0 1 174.31 177z" fill="#333232"/>
    <path d="M138.608 196.265s29.514 22.631 62.688-1.265l16.972 9.19s15.834 6.29 18.049 28.098L240 279H96l6.816-42.006s1.603-17.102 19.517-29.487l16.275-11.254v.012z" fill="#5AE8A4"/>
    <path d="M158.821 177.347c-.203-1.749-.669-3.46-1.529-5.085-.777-1.451-1.817-2.791-2.916-4.106-2.223-2.641-4.744-5.246-5.569-8.409-.048-.198-.203-.31-.394-.36l-1.828-.93.107-21.52L158.594 108c-28.285 14.81-21.988 46.575-21.988 46.575.98 3.398 1.458 6.958.741 10.431-.681 3.299-2.688 6.177-4.409 9.191-.849 1.488-1.601 3.002-2.02 4.602-.442 1.649-.597 3.324-.657 5.011-.143 3.373.084 6.809-1.087 10.096-1.159 3.274-3.394 6.202-5.139 9.29-1.625 2.89-2.951 5.916-3.597 9.042-.645 3.089-.645 6.289.455 9.315 1.099 3.026 3.345 5.619 5.819 8.05 2.88 2.828 6.142 5.532 8.018 8.893 1.721 3.101 1.972 6.896-.741 9.7-.537.545.55 1.041 1.124.682 6.13-3.783 11.591-8.385 15.128-13.867 3.705-5.743 5.031-12.143 3.358-18.457-.872-3.299-2.223-6.561-2.091-9.959.131-3.325 1.518-6.512 2.94-9.625 1.434-3.151 2.844-6.277 3.62-9.576.777-3.287 1.171-6.723.777-10.071l-.024.024z" fill="#333232"/>
    <path d="M151.783 150.961c2.494 5.457 1.033 11.459-3.265 13.419-4.298 1.96-9.808-.883-12.301-6.341-2.494-5.457-1.033-11.459 3.265-13.419 4.298-1.96 9.808.883 12.301 6.341z" fill="#FCE6E0"/>
    <path d="M237.444 204 225 279h44.245L273 216.931 237.444 204z" fill="#3ADE8F"/>
    <path d="M276.012 117.466c-.261 21.291 10.437 38.942 24.578 38.527 18.096-.529 32.142-16.556 32.403-37.847.261-21.303-7.041-33.654-25.136-34.132-18.096-.491-31.596 12.15-31.857 33.452h.012z" fill="#FCE6E0"/>
    <path d="m326.881 135 3.244 23.773L366 170.95 310.491 228 273 169.535l22.641-9.142 1.143-24.74 30.097-.653z" fill="#FCE6E0"/>
    <path d="M311.979 122.748c.193 1.646-.977 3.107-2.629 3.24-1.641.145-3.136-1.08-3.329-2.736-.193-1.646.977-3.107 2.629-3.24 1.641-.145 3.136 1.08 3.329 2.736zM293.979 122.748c.193 1.646-.977 3.107-2.629 3.24-1.641.145-3.136-1.08-3.329-2.736-.193-1.656.977-3.107 2.629-3.24 1.641-.145 3.136 1.08 3.329 2.736zM298.217 132h-.081c-.664-.037-1.181-.472-1.133-.981l.583-7.141c.048-.522.647-.944 1.278-.869.664.037 1.181.471 1.133.981l-.583 7.141c-.032.496-.566.869-1.213.869h.016zM313.954 116.989c-.292 0-.569-.088-.777-.275-.097-.088-1.97-1.64-5.883-.837-.555.11-1.124-.154-1.263-.594-.138-.441.195-.892.75-1.002 5.23-1.068 7.853 1.244 7.964 1.343.374.341.333.87-.098 1.167a1.243 1.243 0 0 1-.679.209l-.014-.011zM285.788 116.988c-.252 0-.494-.133-.651-.399-.241-.411-.157-.979.199-1.256 2.487-1.97 4.985-1.185 5.09-1.148.419.133.661.64.545 1.123-.115.484-.545.762-.965.629-.074-.024-1.91-.568-3.767.906a.707.707 0 0 1-.441.157l-.01-.012zM301.031 138c4.445 0 7.349 1.196 7.54 1.279.446.189.56.569.267.858-.293.288-.878.363-1.324.181-.268-.107-6.648-2.706-15.067.594-.445.173-1.031.083-1.312-.206-.267-.289-.127-.677.319-.85 3.591-1.402 6.865-1.848 9.565-1.848l.012-.008z" fill="#333232"/>
    <path d="M277.774 119.286s1.331-6.696 6.887-11.865c0 0 12.248-8.813 17.779-17.532 0 0 1.84 6.057 9.151 9.346 0 0 5.519 1.597 9.005 7.57 0 0 3.401 11.487 13.507 16.195h5.192s5.277-8.718 1.09-23.943c0 0-4.551-16.821-25.405-17.98 0 0-6.379-.888-11.656 3.383 0 0-5.096-3.916-17.671 5.512 0 0-14.597 12.066-7.891 29.302l.012.012z" fill="#333232"/>
    <path d="M325.217 126.961c-2.494 5.457-1.033 11.459 3.265 13.419 4.298 1.96 9.808-.883 12.301-6.341 2.494-5.457 1.033-11.459-3.265-13.419-4.298-1.96-9.808.883-12.301 6.341z" fill="#FCE6E0"/>
    <path d="M303.306 159c-3.564 0-5.879-.858-6-.911-.243-.092-.364-.369-.279-.633.085-.264.351-.396.582-.303.133.052 13.781 4.988 25.587-9.977.169-.211.448-.237.642-.052a.517.517 0 0 1 .049.699c-6.376 8.089-13.248 10.451-17.891 11.019-.957.118-1.854.158-2.69.158z" fill="#333232"/>
    <path d="M292.593 160.437s4.32-2.664 5.348-2.013c0 0 13.279 9.463 31.318-1.436l1.15-.688s.869-.785 1.983.184l2.716 1.903 31.22 10.911s27.437 6.027 30.203 30.034L405 279H266.881l-5.335-76.158s-4.651-27.542 13.204-34.968l17.856-7.425-.013-.012z" fill="#5AE8A4"/>
    <path d="m228 162 22.087 75H300l-21.908-75H228z" fill="#F5F5F5"/>
    <path d="m240.081 218.112-3.032-16.642s-.629-7.402 2.62-9.958l9.254-5.512s3.009.08 1.876 5.925c0 0 3.684-.666 2.952 6.097 0 0 2.505.586 2.597 6.417 0 0 3.717.919 0 7.03L248.843 231s-6.063-2.157-8.751-12.901l-.011.013z" fill="#FCE6E0"/>
    <path d="M240.387 200.988h-.042c-.218-.024-.364-.254-.343-.496.25-2.61 1.8-4.06 1.873-4.12l6.544-4.314c.188-.121.427-.048.531.169.104.218.041.496-.146.617l-6.492 4.277s-1.322 1.269-1.53 3.48c-.02.23-.187.399-.385.399l-.01-.012zM243.402 210c-.222 0-.402-.215-.402-.481 0-5.425 1.409-6.715 1.567-6.854l6.842-4.604c.19-.127.434-.051.54.177.106.228.042.519-.148.645l-6.81 4.578s-1.197 1.164-1.197 6.046c0 .265-.18.48-.402.48l.01.013zM246.619 215.988a.43.43 0 0 1-.42-.372c-.888-6.182 1.478-7.648 1.581-7.707l6.585-3.853a.422.422 0 0 1 .58.163.442.442 0 0 1-.159.594l-6.586 3.853s-1.956 1.315-1.16 6.833a.436.436 0 0 1-.364.501h-.057v-.012z" fill="#333232"/>
    <path d="M69 10.5C69 8.01 71.024 6 73.5 6S78 8.024 78 10.5 75.976 15 73.5 15a4.512 4.512 0 0 1-4.5-4.5z" fill="#FF693C" stroke="#FF3E3E" stroke-width=".2"/>
    <path d="M84 10.5C84 8.01 86.024 6 88.5 6S93 8.024 93 10.5 90.976 15 88.5 15a4.512 4.512 0 0 1-4.5-4.5z" fill="#FFC83C" stroke="#FFB23E" stroke-width=".2"/>
    <path d="M99 10.5c0-2.49 2.024-4.5 4.5-4.5s4.5 2.024 4.5 4.5-2.024 4.5-4.5 4.5a4.512 4.512 0 0 1-4.5-4.5z" fill="#2BF57C" stroke="#23D76B" stroke-width=".2"/>
    <path d="M842.966 347.007c-.492-3.995-6.421-3.554-9.121-3.211-5.125.65-10.226 1.496-15.315 2.39-4.909.87-9.866 2.206-14.858 2.39-4.861.184-9.746-.919-14.595-1.176a95.559 95.559 0 0 0-7.957-.086c2.196-1.986 4.284-4.106 5.917-6.594 2.22-3.407 3.348-7.268 3.504-11.361.12-3.285.12-8.04-2.568-10.369-2.737-2.365-5.689-.049-7.43 2.304-2.58 3.506-5.317 6.815-8.533 9.732-3.037 2.757-6.493 4.988-9.386 7.905-1.32 1.323-2.472 2.831-3.312 4.522-1.02 2.071-1.429 4.376-1.945 6.618-.552 2.403-1.704 3.763-3.36 5.528-3.685 3.909-12.026 10.761-15.711 14.658-.6.637-.204 1.593.444 1.973 5.713 3.26 10.682 6.312 16.383 9.56l11.018 6.287c.972.552 1.932 1.152 2.928 1.667 1.597.846 2.965-.613 4.453-1.336 6.901-3.346 19.36-7.758 26.765-9.29 7.897-1.63 15.435-4.118 22.48-8.187a64.179 64.179 0 0 0 4.957-3.174c1.692-1.189 3.504-2.451 4.693-4.216 1.176-1.741 1.044-3.493 1.56-5.442.492-1.851 2.052-2.954 3.517-3.983 2.268-1.581 5.893-3.787 5.472-7.133v.024z" fill="#FCE6E0"/>
    <path d="M801.854 366a.84.84 0 0 1-.837-.664c-.092-.454.206-.885.665-.985l10.411-2.091 17.791-5.224a.871.871 0 0 1 1.078.554c.138.442-.114.896-.573 1.04l-17.872 5.234-10.479 2.114a.92.92 0 0 1-.172.022h-.012zM801.875 360a.877.877 0 0 1-.873-.795c-.035-.465.338-.874.815-.908.186-.011 18.982-1.203 31.098-4.267a.865.865 0 0 1 1.059.612.85.85 0 0 1-.629 1.033c-12.29 3.11-31.237 4.314-31.423 4.325h-.058.011zM800.35 353.987h-1.449c-.499 0-.913-.465-.901-1.009 0-.544.414-.982.913-.982.244 0 23.767.292 36.916-3.954.487-.159.986.146 1.132.677.146.531-.134 1.075-.621 1.234-11.651 3.768-30.596 4.047-36.002 4.047l.012-.013zM612 270h-36v51h36v-51zM563.079 303.191c-10.04-10.316-20.08-20.62-30.12-30.936-1.416-1.449-2.818-2.899-4.234-4.348-.78-.792-1.659-1.011-2.488-.865-1.171.025-2.269.707-2.611 2.278-.805 3.788-1.574 7.722-3.245 11.205-1.574 3.288-3.94 5.883-6.417 8.453-5.038 5.225-11.992 12.41-9.405 20.644 2.342 7.478 10.345 11.777 17.249 13.239 7.771 1.644 16.579 1.595 24.216-.719 7.893-2.399 14.676-7.795 17.836-15.857.39-1.011-.086-2.388-.781-3.106v.012z" fill="#333232"/>
    <path d="M516.823 261.084c-4.281 30.27 8.514 57.475 29.739 59.658 27.156 2.787 51.119-17.276 55.4-47.545 4.281-30.269-4.389-49.27-31.365-53.505-26.977-4.234-49.481 11.135-53.774 41.392z" fill="#FCE6E0"/>
    <path d="m585.05 295.113 5.201 33.837L633 347.165 560.571 429 507 340.88l36.226-10.084L545.004 291l40.046 4.113z" fill="#FCE6E0"/>
    <path d="M513.773 266.483s16.362-9.444 31.447-38.014c0 0-.895 12.513-14.978 26.01 0 0 16.267-6.896 24.311-27.195 0 0 5.287-4.23 10.323 10.25 0 0 10.037 26.01 29.025 34.482L624 273s-2.184-30.323-31.746-55.255c0 0-17.269-13.307-38.691-5.036 0 0-11.708-7.489-29.562 15.168 0 0-14.477 17.11-10.216 38.606h-.012z" fill="#333232"/>
    <path d="M632.941 306.19c-.391-3.774-2.126-6.933-3.628-10.154-1.625-3.479-2.333-7.056-2.81-11.002-1.087-8.95-2.822-17.641-5.485-26.075-.024-.073-.061-.122-.097-.184-.147-.565-.562-.971-1.124-.676-6.621 3.381-13.254 6.749-19.875 10.13-.953.479-1.906.971-2.847 1.45-.439.221-.684.59-.733 1.18-.342 5.151-2.369 9.774-4.8 13.879-1.051 1.783-2.517 3.492-2.541 5.852-.025 2.397 1.148 4.376 2.406 6.061 2.553 3.417 4.483 7.314 4.166 12.182-.354 5.262-3.738 8.323-7.098 10.843-.745.553-.574 1.93.233 2.25 6.107 2.36 12.545 2.298 18.861 1.782 5.631-.455 11.544-.799 16.809-3.54 4.568-2.385 9.259-7.192 8.551-13.99l.012.012z" fill="#333232"/>
    <path d="M581.892 275.382c-4.614 7.427-3.597 16.425 2.267 20.073 5.863 3.661 14.351.591 18.954-6.837 4.603-7.427 3.597-16.425-2.267-20.073-5.863-3.661-14.351-.591-18.954 6.837z" fill="#FCE6E0"/>
    <path d="M550.133 323.989c-5.727 0-9.402-1.018-9.497-1.041-.478-.138-.74-.618-.597-1.064.143-.458.644-.709 1.11-.572.059.011 6.049 1.704 14.592.686 7.863-.938 19.58-4.415 30.712-15.727a.918.918 0 0 1 1.265-.035c.358.321.381.87.035 1.213C574.104 321.323 559.404 324 550.121 324l.012-.011zM567.194 267.203c-1.378-1.139-2.834-2.333-4.634-2.481-.94-.078-1.909.074-2.86.168-1.088.101-2.158.191-3.245.292-.824.069-1.558-.507-1.593-1.492-.032-.905.629-1.935 1.453-2.004 1.198-.115 2.405-.211 3.603-.326 1.182-.104 2.377-.252 3.537-.107 2.241.283 4.085 1.739 5.818 3.162.641.531.6 1.765.061 2.481-.594.81-1.516.849-2.157.318l.017-.011zM527.412 262.05c1.297-.666 2.661-1.36 4.125-1.129.763.117 1.51.445 2.254.704l2.545.878c.64.225 1.329-.116 1.52-.922.183-.735-.171-1.717-.823-1.94-.941-.329-1.882-.658-2.819-.973-.926-.318-1.85-.678-2.805-.795-1.834-.208-3.554.631-5.179 1.464-.599.308-.78 1.335-.474 2.035.335.778 1.06.999 1.659.691l-.003-.013zM542.983 277.883c-.331 2.968-.653 5.949-.983 8.917-.087.801-.713 1.366-1.217 1.156-.557-.237-.861-.998-.766-1.839.331-2.968.653-5.949.983-8.917.087-.801.713-1.366 1.217-1.156.557.237.861.998.766 1.839z" fill="#333232"/>
    <path d="M561 292.608 531 291s1.408 14.998 14.892 14.998c0 0 13.269.482 15.108-13.39z" fill="#F4BFB3"/>
    <path d="M545.98 306h-.117c-13.301 0-14.833-13.61-14.857-13.747-.035-.33.082-.659.316-.898.234-.239.573-.375.901-.353l27.666 1.365c.327.011.631.17.842.409.21.25.304.569.257.887C559.269 305.659 547.302 306 545.98 306zm-.082-2.274c.479.023 10.399.193 12.54-9.153l-24.882-1.228c.691 3.07 3.287 10.381 12.33 10.381h.012z" fill="#333232"/>
    <path d="M522 357.012s24.447 21.816 90 5.153L556.609 456 522 357v.012z" fill="#FDFEFF"/>
    <path d="M564 274.5a4.501 4.501 0 0 1-9 0 4.501 4.501 0 0 1 9 0zM537 271.5a4.501 4.501 0 0 1-9 0 4.501 4.501 0 0 1 9 0z" fill="#333232"/>
    <path d="M516.54 336s23.244 59.78 39.96 105c0 0 29.154-57.713 55.933-103.441L642 348.511l-17.901 135.866L628.084 531H504l6.162-48.097-4.81-143.772L516.54 336z" fill="#4883F7"/>
    <path d="M556.919 393h-.083a.586.586 0 0 1-.487-.447l-16.329-61.717a.604.604 0 0 1 .416-.737.591.591 0 0 1 .724.423l15.961 60.338 35.772-60.568a.59.59 0 0 1 .82-.205.613.613 0 0 1 .202.834l-36.497 61.789a.587.587 0 0 1-.511.29h.012z" fill="#CEBB6E"/>
    <path d="M558 399c-1.654 0-3-2.015-3-4.5 0-2.484 1.346-4.5 3-4.5s3 2.016 3 4.5c0 2.485-1.346 4.5-3 4.5zm0-7.732c-1.026 0-1.897 1.483-1.897 3.232s.871 3.232 1.897 3.232 1.897-1.483 1.897-3.232-.871-3.232-1.897-3.232z" fill="#CEBB6E"/>
    <path d="M459.141 343.457c-2.59-8.807-.54-20.934-.54-20.934l1.902-14.401c2.037-15.075-5.854-14.534-5.854-14.534l2.859-32.412c.675-7.062-4.761-6.136-4.761-6.136-10.481.938-11.83 13.475-11.83 13.475l-2.173 14.786c-12.26-.505-14.824 6.954-14.824 6.954-9.659-.397-10.198 4.933-10.198 4.933-5.916 1.071-5.719 8.939-5.719 8.939-.197 17.469 10.333 13.066 10.333 13.066-.405 21.199 8.026 23.605 8.026 23.605L431.258 360 462 353.599l-2.859-10.13v-.012z" fill="#FCE6E0"/>
    <path d="M433.21 315c-1.874 0-3.529-.384-4.831-.84a3.528 3.528 0 0 1-1.874-5.162l5.111-8.439c3.176-5.558 9.419-5.63 9.687-5.63l10.709-.925c.487-.048.949.324.985.816a.904.904 0 0 1-.827.973l-10.794.936c-.304 0-5.525.084-8.19 4.73l-5.124 8.463a1.722 1.722 0 0 0-.146 1.501c.183.492.56.864 1.059 1.032 3.663 1.261 10.673 1.933 16.526-7.767a.92.92 0 0 1 1.254-.312.892.892 0 0 1 .316 1.237c-4.503 7.466-9.699 9.387-13.873 9.387h.012z" fill="#333232"/>
    <path d="M440.024 332.989c-.342 0-.67-.147-.854-.417-8.088-11.687-1.969-19.857-1.694-20.195.302-.383.906-.496 1.366-.237.446.259.578.778.276 1.172-.237.304-5.672 7.663 1.746 18.403.276.406.118.924-.342 1.161a1.115 1.115 0 0 1-.498.124v-.011zM429.906 305.987a4.892 4.892 0 0 1-2.848-.891c-4.096-2.912-4.082-12.125-4.054-13.167 0-.515.491-.941 1.067-.929.589 0 1.052.44 1.038.954-.043 2.573.477 9.69 3.268 11.661.659.477 1.403.603 2.315.402.561-.126 1.136.176 1.276.69.141.502-.196 1.017-.771 1.142-.435.101-.87.151-1.291.151v-.013zM423.616 315c-.898 0-1.459-.274-1.509-.299-6.023-4.079-8.006-16.103-8.094-16.615a.933.933 0 0 1 .774-1.073.932.932 0 0 1 1.072.774c.025.112 1.921 11.625 7.134 15.255.286.112 1.97.548 4.377-2.108a.93.93 0 0 1 1.322-.063.93.93 0 0 1 .062 1.322c-2.082 2.308-3.928 2.807-5.138 2.807z" fill="#333232"/>
    <path d="M420.761 317.973c-.222 0-.445-.137-.596-.383-.263-.451-.203-1.094.121-1.436.991-1.067 1.203-3.241 1.203-3.255.051-.56.425-.971.84-.889.414.069.708.575.667 1.135-.01.124-.273 3.036-1.77 4.636a.63.63 0 0 1-.465.219v-.027z" fill="#333232"/>
    <path d="M496.31 481.705 531 394.776 505.759 339s-26.83 3.815-43.319 62.353L441 489.421s7.908 15.842 21.158 14.498c0 0 20.609.424 34.152-22.214zM649.69 490.705 615 403.776 640.241 348s26.83 3.815 43.319 62.353L705 498.421s-7.908 15.842-21.158 14.498c0 0-20.609.424-34.152-22.214z" fill="#4883F7"/>
    <path d="M440.691 489S419.424 419.479 411 358.806L463.02 348 489 460.927 440.691 489zM700.138 504S744.986 446.962 777 388.867L733.505 360 663 452.611 700.138 504z" fill="#4883F7"/>
    <path d="M487.095 473.988s-.131 0-.197-.012c-.536-.096-.877-.574-.772-1.053 3.128-14.24-2.827-39.453-2.892-39.704l-12.211-51.133c-.117-.49.223-.957.746-1.065.524-.107 1.047.204 1.165.682l12.211 51.133c.248 1.053 6.111 25.835 2.892 40.446-.092.431-.497.718-.956.718l.014-.012zM666.863 483h-.012c-.483 0-.851-.422-.851-.917.449-26.972 16.224-55.343 16.385-55.633a.843.843 0 0 1 1.185-.325.93.93 0 0 1 .311 1.242c-.161.278-15.695 28.251-16.144 54.74 0 .495-.391.893-.862.893h-.012z" fill="#333232"/>
    <path d="M381 300c.062.062 0 .087 0 0z" fill="#FCE6E0"/>
    <path d="m515.027 337.775 2.014 47.81 13.576 3.225-7.789 18.683 34.108 35.72-35.88-107.11 2.7-.746s-.795-.83-2.929-.325l-4.341 1.396s-1.278.24-1.447 1.335l-.012.012z" fill="#006EDA"/>
    <path d="m555 442.582 55.69-105.642-1.567-.662s.651-.626 2.857 0l6.993 2.936s.952.312.94 1.215l-11.791 52.538-15.457-.999 6.233 18.407L555 442.582z" fill="#006EDA"/>
    <path d="M596.411 522H372.589c-1.982 0-3.589 1.489-3.589 3.325v2.35c0 1.836 1.607 3.325 3.589 3.325h223.822c1.982 0 3.589-1.489 3.589-3.325v-2.35c0-1.836-1.607-3.325-3.589-3.325z" fill="#666"/>
    <path d="M533.936 525H370.881c-1.997 0-3.908-1.636-4.247-3.637l-18.582-109.726c-.339-2.001 1.016-3.637 3.012-3.637h163.055c1.997 0 3.908 1.636 4.247 3.637l18.582 109.726c.339 2.001-1.016 3.637-3.012 3.637z" fill="#777"/>
    <path d="M811.995 531h-561.99c-3.869 0-7.005 3.416-7.005 7.63v8.74c0 4.214 3.136 7.63 7.005 7.63h561.99c3.869 0 7.005-3.416 7.005-7.63v-8.74c0-4.214-3.136-7.63-7.005-7.63z" fill="#FDFEFF"/>
    <path d="M0 378v224.399C0 606.038 2.617 609 5.833 609h318.334c3.228 0 5.833-2.95 5.833-6.601V378H0z" fill="#FDFEFF"/>
    <path d="M330 363.181c0-3.407-2.617-6.181-5.833-6.181H5.833C2.605 357 0 359.762 0 363.181V378h330v-14.819z" fill="#777"/>
    <path d="M16.5 372a4.5 4.5 0 1 0 0-9 4.5 4.5 0 0 0 0 9z" fill="#FF693C" stroke="#FF3E3E" stroke-width=".2"/>
    <path d="M31.5 372a4.5 4.5 0 1 0 0-9 4.5 4.5 0 0 0 0 9z" fill="#FFC83C" stroke="#FFB23E" stroke-width=".2"/>
    <path d="M46.5 372a4.5 4.5 0 1 0 0-9 4.5 4.5 0 0 0 0 9z" fill="#2BF57C" stroke="#23D76B" stroke-width=".2"/>
    <path d="M318 387H9v210h309V387z" fill="#F4F4F4"/>
    <path d="M114 387h-6v210h6V387zM108 417H9v6h99v-6zM108 465H9v6h99v-6zM108 513H9v6h99v-6zM105 561H9v6h96v-6zM105 426h-6v36h6v-36zM105 474h-6v36h6v-36zM105 522h-6v36h6v-36zM105 570h-6v27h6v-27zM105 387h-6v27h6v-27zM96 426h-6v36h6v-36zM96 474h-6v36h6v-36zM96 522h-6v36h6v-36zM96 570h-6v27h6v-27zM96 387h-6v27h6v-27zM87 426h-6v36h6v-36zM87 474h-6v36h6v-36zM87 522h-6v36h6v-36zM87 570h-6v27h6v-27zM87 387h-6v27h6v-27zM78 426h-6v36h6v-36zM78 474h-6v36h6v-36zM78 522h-6v36h6v-36zM78 570h-6v27h6v-27zM78 387h-6v27h6v-27zM69 426h-6v36h6v-36zM69 474h-6v36h6v-36zM69 522h-6v36h6v-36zM69 570h-6v27h6v-27zM69 387h-6v27h6v-27zM60 426h-6v36h6v-36zM60 474h-6v36h6v-36zM60 522h-6v36h6v-36zM60 570h-6v27h6v-27zM60 387h-6v27h6v-27zM51 426h-6v36h6v-36zM51 474h-6v36h6v-36zM51 522h-6v36h6v-36zM51 570h-6v27h6v-27zM51 387h-6v27h6v-27zM42 426h-6v36h6v-36zM42 474h-6v36h6v-36zM42 522h-6v36h6v-36zM42 570h-6v27h6v-27zM42 387h-6v27h6v-27zM33 426h-6v36h6v-36zM33 474h-6v36h6v-36zM33 522h-6v36h6v-36zM33 570h-6v27h6v-27zM33 387h-6v27h6v-27zM24 426h-6v36h6v-36zM24 474h-6v36h6v-36zM24 522h-6v36h6v-36zM24 570h-6v27h6v-27zM24 387h-6v27h6v-27zM15 426H9v36h6v-36zM15 474H9v36h6v-36zM15 522H9v36h6v-36zM15 570H9v27h6v-27zM15 387H9v27h6v-27z" fill="#CAD9E5"/>
    <path d="M203.013 439.982c3.886 19.531-3.997 37.593-18.439 39.662-18.475 2.644-35.491-9.66-39.377-29.179-3.886-19.531 1.434-32.141 19.75-35.713 18.303-3.573 34.179 5.711 38.078 25.242l-.012-.012z" fill="#FCE6E0"/>
    <path d="m156.77 462.325-3.132 23.693L123 508.663 172.655 555 213 498.407l-22.931-11.738L188.961 462l-32.191.325z" fill="#FCE6E0"/>
    <path d="M168.001 450.067a3.027 3.027 0 0 0 3.09 2.932 2.97 2.97 0 0 0 2.908-3.066 3.027 3.027 0 0 0-3.09-2.932 2.977 2.977 0 0 0-2.908 3.066zM189.001 447.067a3.027 3.027 0 0 0 3.09 2.932 2.977 2.977 0 0 0 2.908-3.066 3.027 3.027 0 0 0-3.09-2.932 2.977 2.977 0 0 0-2.908 3.066zM185.126 459c-.406 0-.777-.314-.858-.766l-1.252-7.111c-.092-.515.221-1.005.696-1.105.475-.101.927.238 1.02.753l1.252 7.111c.092.515-.221 1.005-.696 1.105-.058 0-.104.013-.162.013zM166.064 443.991a1.41 1.41 0 0 1-.598-.123c-.484-.218-.612-.653-.285-.975.1-.095 2.392-2.3 7.886-1.827.583.048.996.407.925.795-.071.388-.612.663-1.196.615-4.127-.35-5.778 1.155-5.85 1.221-.213.199-.541.303-.882.303v-.009zM194.218 440.986a.666.666 0 0 1-.352-.113c-1.978-1.386-3.718-.453-3.79-.41-.394.226-.85-.029-1.015-.566-.166-.537.02-1.159.414-1.386.103-.056 2.465-1.385 5.106.481.383.269.528.905.331 1.428-.134.368-.414.58-.694.58v-.014zM183.224 464.887c2.191-.587 4.802-.985 7.822-.94.503.007.804.295.675.648-.13.353-.636.631-1.139.624-9.36-.122-14.198 4.323-14.398 4.511-.337.316-.924.44-1.324.279-.397-.153-.448-.542-.121-.847.17-.154 3.022-2.803 8.475-4.264l.01-.011z" fill="#333232"/>
    <path d="M147.656 456a.636.636 0 0 1-.538-.301.685.685 0 0 1 .17-.944l10.689-7.632a.623.623 0 0 1 .905.178.685.685 0 0 1-.17.944l-10.689 7.632a.625.625 0 0 1-.367.123z" fill="#666"/>
    <path d="M148.63 457.656s2.641.238 5.806-15.385c0 0 1.583-4.946 7.39-6.135 0 0 18.206 2.378 15.695-15.813 0 0 21.719.595 26.479 29.677 0 0 6.137-19.392-14.461-35.205 0 0-12.673-8.87-19.61.511 0 0-2.582-5.778-15.374-1.034 0 0-16.885 6.396-19.253 25.669 0 0-3.427 18.797 12.792 28.059l.524-10.344h.012z" fill="#333232"/>
    <path d="M156.793 458.47c3.256 5.086 2.868 11.473-.891 14.247-3.748 2.775-9.438.9-12.695-4.187-3.256-5.086-2.868-11.473.891-14.247 3.748-2.775 9.438-.9 12.695 4.187z" fill="#FCE6E0"/>
    <path d="M168.221 462c-1.883 0-4.638-.406-7.098-2.336-2.896-2.272-4.614-6.067-5.12-11.271a.657.657 0 0 1 .341-.648c.459-.216 11.3-5.306 23.001-3.262a.599.599 0 0 1 .483.52c.023.14 2.166 14.471-9.347 16.781-.082.013-.965.216-2.271.216h.011zm-10.994-13.265c.518 4.583 2.06 7.908 4.579 9.901 3.72 2.932 8.405 1.93 8.452 1.904 9.417-1.878 8.746-12.503 8.475-14.877-9.982-1.574-19.482 2.184-21.506 3.06v.012zM196.771 459c-1.504 0-3.672-.343-5.698-1.895-2.879-2.212-4.585-6.18-5.07-11.787a.644.644 0 0 1 .32-.623c.402-.217 9.832-5.278 20.044-3.192a.618.618 0 0 1 .474.534c.023.14 1.931 14.483-8.115 16.76-.059.012-.829.203-1.955.203zm-9.548-13.352c.498 4.985 2.026 8.494 4.537 10.427 3.104 2.378 6.658 1.488 6.705 1.475 8.139-1.843 7.499-12.512 7.262-14.877-8.565-1.577-16.703 2.085-18.492 2.975h-.012z" fill="#666"/>
    <path d="M180.552 447c-.176 0-.353-.153-.452-.42-.177-.44-.111-1.013.132-1.319.066-.076 1.787-2.121 5.328-.841.298.115.486.612.43 1.128-.066.516-.353.86-.65.745-3.023-1.089-4.468.516-4.479.535a.385.385 0 0 1-.309.153V447z" fill="#666"/>
    <path d="M179.447 479.98c-5.551 0-12.944-1.062-20.249-5.3-.214-.121-.265-.364-.101-.526.151-.172.454-.202.656-.081 14.105 8.203 28.475 4.198 28.613 4.157.24-.071.518.03.606.233.088.202-.038.414-.29.485-.076.02-3.772 1.052-9.235 1.052v-.02z" fill="#333232"/>
    <path d="M145.953 492 165 597H96s5.323-56.057 5.6-56.848c.264-.792 1.213-17.24 20.584-30.888L145.953 492z" fill="#5AE8A4"/>
    <path d="M153.606 486s22.123 17.371 37.303.644l18.497 9.163L219 597h-67.354L144 492.86l9.594-6.86h.012z" fill="#fff"/>
    <path d="M198.527 490.781 210.488 597h53.508l-20.984-64.346S236.1 509.52 212.996 498l-14.469-7.219z" fill="#3EDA8F"/>
    <path d="m255 501-22.087 72H183l21.908-72H255z" fill="#F5F5F5"/>
    <path d="m242.919 554.972 3.032-15.533s.629-6.909-2.62-9.295L234.077 525s-3.02.062-1.876 5.53c0 0-3.684-.622-2.952 5.691 0 0-2.505.546-2.597 5.989 0 0-3.717.857 0 6.561L234.157 567s6.063-2.013 8.751-12.041l.011.013z" fill="#FCE6E0"/>
    <path d="M242.623 539.988c-.198 0-.364-.169-.385-.399-.209-2.223-1.563-3.504-1.584-3.516l-6.458-4.229c-.187-.121-.25-.399-.146-.617.104-.217.344-.29.531-.169l6.5 4.278c.115.096 1.667 1.546 1.917 4.169.021.253-.135.471-.344.495h-.041l.01-.012zM239.608 549c-.222 0-.402-.215-.402-.481 0-4.912-1.217-6.065-1.228-6.077l-6.774-4.558c-.191-.127-.265-.418-.148-.646.106-.228.349-.304.54-.177l6.806 4.583c.19.152 1.598 1.443 1.598 6.875 0 .266-.18.481-.402.481h.01zM236.392 555h-.057a.436.436 0 0 1-.364-.501c.796-5.518-1.149-6.821-1.171-6.833l-6.586-3.853a.442.442 0 0 1-.159-.594.422.422 0 0 1 .58-.163l6.585 3.853c.103.059 2.469 1.537 1.581 7.707a.43.43 0 0 1-.421.372l.012.012z" fill="#333232"/>
    <path d="M303 459v-72h-6v72h-78v-72h-6v78h111v-6h-21z" fill="#CAD9E5"/>
    <path d="M708 60v226.584c0 4.096 2.926 7.416 6.547 7.416h307.903c3.61 0 6.55-3.32 6.55-7.416V60H708z" fill="#FDFEFF"/>
    <path d="M1029 43.058c0-3.898-2.93-7.058-6.55-7.058H714.547c-3.609 0-6.547 3.16-6.547 7.058V60h320.99V43.058h.01z" fill="#777"/>
    <path d="M720 49.5c0-2.487 2.013-4.5 4.5-4.5s4.5 2.013 4.5 4.5-2.013 4.5-4.5 4.5a4.498 4.498 0 0 1-4.5-4.5z" fill="#FF693C" stroke="#FF3E3E" stroke-width=".2"/>
    <path d="M735 49.5c0-2.487 2.013-4.5 4.5-4.5s4.5 2.013 4.5 4.5-2.013 4.5-4.5 4.5a4.498 4.498 0 0 1-4.5-4.5z" fill="#FFC83C" stroke="#FFB23E" stroke-width=".2"/>
    <path d="M750 49.5c0-2.487 2.013-4.5 4.5-4.5s4.5 2.013 4.5 4.5-2.013 4.5-4.5 4.5a4.498 4.498 0 0 1-4.5-4.5z" fill="#2BF57C" stroke="#23D76B" stroke-width=".2"/>
    <path d="M1020 69H717v216h303V69z" fill="#F4F4F4"/>
    <path d="m747 285 20.81-89.703S777.832 135 836.395 135H1020v150H747zM789 69v48h-72v6h78V69h-6z" fill="#CAD9E5"/>
    <path d="M801 240.76 776.959 225 753 285h47.081l.919-44.24z" fill="#3ADE8F"/>
    <path d="M838.431 123s-8.647 43.269 16.569 45l-16.569-45z" fill="#333232"/>
    <path d="M840.012 132.251c-.306 23.064 12.091 42.191 28.458 41.741 20.947-.571 37.228-17.924 37.522-41 .306-23.064-8.146-36.455-29.107-36.978-20.947-.522-36.579 13.173-36.885 36.237h.012z" fill="#FCE6E0"/>
    <path d="m887.389 150 3.974 31.52L924 205.082 866.518 258 819 201.278l34.618-19.595 1.325-30.932 32.446-.751z" fill="#FCE6E0"/>
    <path d="M881.997 139.356c.075 2.485-1.216 4.559-2.863 4.641-1.657.083-3.056-1.867-3.131-4.353-.075-2.485 1.216-4.559 2.862-4.641 1.658-.083 3.057 1.867 3.132 4.353zM857.997 139.356c.075 2.485-1.216 4.559-2.862 4.641-1.658.083-3.057-1.867-3.132-4.353-.075-2.485 1.216-4.559 2.863-4.641 1.657-.083 3.056 1.867 3.131 4.353zM864.981 146.989h-.13c-.532-.057-.909-.489-.844-.954l1.052-7.291c.065-.465.545-.794 1.09-.738.532.057.909.489.844.954l-1.052 7.291c-.065.431-.48.749-.96.749v-.011z" fill="#333232"/>
    <path d="M838.503 137.539s.824-9.16 10.238-16.475c0 0 14.311-6.313 20.057-14.631 0 0 .037 6.548 10.854 15.559 0 0-4.886-5.929-5.648-14.173 0 0 3.064 10.324 12.403 19.248 0 0 11.481 9.011 11.555 11.239L914.34 144s6.436-27.491-20.894-46.665c0 0-11.592-7.847-23.54-2.426 0 0-9.303-4.963-22.74 8.541 0 0-14.816 14.321-8.675 34.076l.012.013z" fill="#333232"/>
    <path d="M895.45 153.751s-.946 6.226-7.45 10.91c0 0 6.018 1.897 13.762-3.285 0 0-.69 1.091-3.31 2.751 0 0 14.631-1.411 16.548-22.212L908.803 123l-13.353 30.762v-.011z" fill="#333232"/>
    <path d="M892.42 142.951c-2.914 6.237-1.198 13.101 3.816 15.344 5.014 2.231 11.447-1.01 14.349-7.246 2.902-6.237 1.198-13.101-3.815-15.344-5.014-2.231-11.448 1.01-14.35 7.246z" fill="#FCE6E0"/>
    <path d="M869.448 173.987c-6.955 0-11.189-3.272-11.262-3.325a.51.51 0 0 1-.097-.683.43.43 0 0 1 .634-.106c.098.079 10.542 8.083 25.575-1.8.207-.144.5-.066.634.158a.527.527 0 0 1-.146.683c-5.894 3.877-11.116 5.086-15.338 5.086v-.013z" fill="#333232"/>
    <path d="M835.139 204s20.967 18.577 70.861 1.224L901.665 285H819l16.139-81z" fill="#fff"/>
    <path d="M839.988 189.012 827.498 285H789l13.245-57.301s3.602-17.879 15.969-27.246L840 189l-.012.012zM902.619 189 891 285h69l-9.526-54.824s-3.996-20.389-24.974-28.721L902.619 189z" fill="#5AE8A4"/>
    <path d="M853.047 128.989a1.17 1.17 0 0 1-.746-.261c-.401-.329-.401-.861 0-1.19.11-.09 2.876-2.288 7.908-1.269.553.114.899.567.761 1.031-.139.465-.692.737-1.259.624-3.843-.771-5.876.77-5.959.838a1.165 1.165 0 0 1-.718.238l.013-.011zM881.271 129a.556.556 0 0 1-.358-.124c-2.169-1.593-3.873-.876-3.95-.839-.378.16-.794-.087-.92-.569-.135-.481.058-1 .436-1.173.097-.049 2.381-1.062 5.16.976.348.259.464.827.261 1.26-.136.296-.378.469-.629.469zM865.573 150c8.592 0 13.165 4.717 13.235 4.777.3.321.242.792-.127 1.052-.37.26-.913.22-1.225-.1-.334-.361-8.487-8.654-24.17-1.122-.415.2-.947.07-1.178-.29-.231-.361-.08-.822.335-1.022 5.07-2.434 9.458-3.295 13.119-3.295h.011z" fill="#333232"/>
    <path d="m774 180 24.839 81H855l-24.648-81H774z" fill="#F5F5F5"/>
    <path d="m786.518 239.099-3.461-16.637s-.723-7.399 2.995-9.96L796.636 207s3.45.071 2.144 5.917c0 0 4.22-.664 3.369 6.107 0 0 2.867.581 2.96 6.415 0 0 4.255.925 0 7.031l-8.59 19.53s-6.935-2.158-10.012-12.889l.011-.012z" fill="#FCE6E0"/>
    <path d="M786.464 222h-.05c-.262-.022-.437-.229-.412-.447.337-2.626 2.408-4.076 2.495-4.141l8.807-4.359c.224-.109.511-.044.636.152s.05.447-.175.556l-8.744 4.327s-1.796 1.296-2.083 3.552c-.025.207-.225.36-.462.36h-.012zM789.483 231c-.267 0-.483-.193-.483-.432 0-5.45 1.867-6.746 2.083-6.872l9.208-4.641c.229-.114.521-.046.648.159a.403.403 0 0 1-.178.58l-9.17 4.619s-1.638 1.172-1.638 6.143c0 .239-.216.433-.483.433l.013.011zM795.579 240c-.184 0-.348-.17-.379-.418-.89-7.75 1.474-9.579 1.576-9.658l6.653-4.861c.184-.131.419-.052.522.183.102.235.041.536-.144.666l-6.652 4.862s-1.996 1.659-1.198 8.664c.031.275-.112.523-.327.562h-.051z" fill="#333232"/>
    <path d="M801 417v251.434c0 3.62 2.928 6.566 6.551 6.566h310.899c3.61 0 6.55-2.934 6.55-6.566V417H801z" fill="#FDFEFF"/>
    <path d="M1125 402.181c0-3.407-2.93-6.181-6.55-6.181H807.551c-3.611 0-6.551 2.762-6.551 6.181V417h323.99v-14.819h.01z" fill="#E7E7E7"/>
    <path d="M1116 426H807v240h309V426z" fill="#F4F4F4"/>
    <path d="M813 406.5c0-2.49 2.024-4.5 4.5-4.5s4.5 2.024 4.5 4.5-2.024 4.5-4.5 4.5a4.512 4.512 0 0 1-4.5-4.5z" fill="#FF693C" stroke="#FF3E3E" stroke-width=".2"/>
    <path d="M828 406.5c0-2.49 2.024-4.5 4.5-4.5s4.5 2.024 4.5 4.5-2.024 4.5-4.5 4.5a4.512 4.512 0 0 1-4.5-4.5z" fill="#FFC83C" stroke="#FFB23E" stroke-width=".2"/>
    <path d="M843 406.5c0-2.49 2.024-4.5 4.5-4.5s4.5 2.024 4.5 4.5-2.024 4.5-4.5 4.5a4.512 4.512 0 0 1-4.5-4.5z" fill="#2BF57C" stroke="#23D76B" stroke-width=".2"/>
    <path d="M1088.49 450h-82.98c-1.94 0-3.51 1.613-3.51 3.603v124.794c0 1.99 1.57 3.603 3.51 3.603h82.98c1.94 0 3.51-1.613 3.51-3.603V453.603c0-1.99-1.57-3.603-3.51-3.603z" fill="#777"/>
    <path d="M1087.01 453h-80.02c-1.1 0-1.99.911-1.99 2.034v121.932c0 1.123.89 2.034 1.99 2.034h80.02c1.1 0 1.99-.911 1.99-2.034V455.034c0-1.123-.89-2.034-1.99-2.034z" fill="#FDFEFF"/>
    <path d="M1098.29 480.541c-7.81-1.29-15.52-.049-23.22 1.377-7.29 1.352-14.6 2.876-21.59 5.445-12.77 4.683-24.14 12.857-30.22 25.615-3.08 6.453-4.96 13.446-5.87 20.551-.91 7.104-.41 14.11 3.54 19.936 3.94 5.826 9.51 9.489 15.43 12.291 6.13 2.913 12.65 4.732 19.33 5.74 15.96 2.421 32.39 1.377 48.43.59 3.83-.184 3.85-6.33 0-6.145-13.56.663-27.3 1.45-40.85.307-11.61-.971-24.49-3.847-33.54-11.91-2.07-1.844-3.84-3.934-5.06-6.453-1.35-2.79-1.74-5.986-1.7-9.071.06-6.318 1.6-12.795 3.75-18.683 2.12-5.801 5.34-11.172 9.69-15.487 4.35-4.314 9.54-7.497 15.03-9.906 6.99-3.073 14.5-4.818 21.95-6.269 7.44-1.45 15.58-3.269 23.32-2.003 1.59.258 3.22-.418 3.68-2.151.4-1.463-.49-3.516-2.09-3.786l-.01.012z" fill="#E2DFD5"/>
    <path d="M1047.31 586.227c-.56-13.84-2.97-27.583-2.61-41.46.15-6.398.91-12.784 2.73-18.925.9-3.045 1.98-6.189 3.63-8.903 1.2-1.99 4.08-4.569 6.26-2.297 1.77 1.842 2.27 5.072 2.98 7.442.7 2.371 1.52 4.9 2.78 7.111 1.17 2.026 3.16 4.728 5.64 5.072 2.82.381 4.53-2.653 5.71-4.765 6.36-11.372 3.73-24.709 3.44-37.076-.16-6.545.4-13.41 3.54-19.281 1.48-2.787 3.62-5.686 6.55-7.024 2.3-1.044 5.71-.627 6.46 2.21.59 2.285 4.12 1.314 3.51-.982-1.58-6.005-8.85-6.595-13.28-3.549-4.92 3.389-7.82 9.272-9.2 14.97-3.24 13.362 1.47 27.091-1.21 40.465-.58 2.935-1.5 5.797-2.96 8.4-.37.651-1.43 2.948-2.23 2.923-.45-.012-1.35-1.154-1.62-1.474-.46-.54-.85-1.129-1.2-1.756-1.39-2.407-2.09-5.121-2.88-7.761-.79-2.641-1.53-5.539-3.47-7.541-2.08-2.161-5.15-2.394-7.77-1.129-2.77 1.338-4.37 4.175-5.59 6.889-2.74 6.128-4.25 12.649-4.98 19.318-1.8 16.395 1.45 32.753 2.11 49.123.1 2.358 3.75 2.37 3.65 0h.01z" fill="#428DE4"/>
    <path d="M992.105 467.976c6.191 1.722 13.105 1.371 18.955 4.245 4.7 2.316 8.64 6.367 10.57 11.388 2.24 5.809 1.89 12.467-.95 17.985-2.85 5.517-7.33 10.296-9.52 16.359-2.18 6.064-1.82 12.819 2.78 17.318 4.18 4.112 10.33 5.239 15.92 4.791 3.4-.267 6.73-.995 10.11-1.431 2.86-.364 6.38-.837 9.02.655 2.28 1.297 2.56 3.347 1.43 5.603-1.4 2.765-3.13 5.36-3.11 8.61.02 3.759 2.71 6.646 6.24 7.264 3.53.619 7.35-.133 10.92-.461l24.58-2.255c1.58-.146 2.95-1.286 2.95-3.032 0-1.528-1.36-3.178-2.95-3.032-7.22.655-14.44 1.322-21.66 1.977-3.52.327-7.06.8-10.59.946-1.49.06-3.9.194-3.56-1.977.46-2.959 2.85-5.263 3.55-8.198.77-3.25-.2-6.513-2.51-8.865-5.02-5.142-12.95-3.578-19.2-2.559-5.26.849-11.27 1.77-15.98-1.492-4.7-3.262-3.72-9.35-1.59-13.789 2.76-5.772 7.25-10.405 9.63-16.42 2.39-6.052 2.49-13.244.27-19.368-2.22-6.124-6.66-11.569-12.38-14.735-6.67-3.686-14.23-3.395-21.366-5.384-3.675-1.019-5.246 4.826-1.571 5.845l.012.012z" fill="#F58D6D"/>
    <path d="M1056.8 460.867c-5.15 2.04-10.4 4.499-14.18 8.899-3.39 3.946-6.21 10.215-3.6 15.427 2.34 4.671 7.67 5.47 12.13 5.924 2.33.246 5.02.48 6.87 2.176 1.64 1.5 2.37 3.909 3.34 5.888 2.5 5.175 7.33 7.744 12.74 7.818 5.41.073 9.81-3.086 11.38-8.482 1.47-5.101-.28-10.448-3.65-14.222-1.79-2.003-4-3.085-6.06-4.67-2.06-1.586-2.1-4.229-1.8-6.663.41-3.294 1.61-6.994.45-10.264-1.16-3.269-4.47-3.785-7.46-3.687-6.28.209-12.15 2.335-17.68 5.371-2.47 1.365-.28 5.348 2.19 3.983 4.06-2.225 8.4-4.019 12.97-4.56 1.06-.123 2.14-.185 3.21-.209.87 0 2.19-.295 2.68.664.46.872.19 2.409.09 3.343-.16 1.401-.47 2.79-.67 4.192-.69 4.941.19 9.415 4.41 12.193 3.43 2.262 6.83 4.88 7.43 9.49.54 4.056-1.69 7.94-5.54 8.739-3.86.799-8.54-.787-10.56-4.585-.96-1.807-1.62-3.773-2.72-5.494-1.23-1.918-2.84-3.319-4.85-4.204-3.89-1.696-8.23-.947-12.12-2.495-1.86-.738-3.29-2.115-3.43-4.315-.15-2.532 1.08-5.113 2.5-7.068 3.23-4.437 8.26-6.822 13.08-8.739 2.6-1.033 1.47-5.483-1.16-4.45h.01zM878.358 444h-55.71c-3.27 0-4.887 3.808-2.528 5.987l24.364 22.597c.287.264.443.619.443.998v2.03c0 .769.647 1.388 1.449 1.388h8.253c.803 0 1.449-.619 1.449-1.388v-2.03c0-.379.156-.734.444-.998l24.363-22.597c2.348-2.179.743-5.987-2.527-5.987zM852 477h-3v189h3V477z" fill="#777"/>
    <path d="M1039.41 550.447c-1.45-3.228-4.43-5.389-7.4-6.967-6.97-3.701-15.7-5.194-22.68-.716a3.63 3.63 0 0 0-.97.898c-2.93.935-5.06 3.326-5.95 6.542-1.01 3.702-.05 7.841 1.79 11.093 1.87 3.313 4.71 5.826 7.7 7.998 3.26 2.379 6.69 3.933 10.76 3.678 6.7-.425 16.25-2.282 17.96-10.389.78-3.738.36-8.666-1.2-12.137h-.01zM933.297 516s-3.659 30.086 14.703 36c0 0-14.714-34.74-14.703-36z" fill="#333232"/>
    <path d="M936.006 519.04c-.328 24.845 13.191 45.428 31.051 44.952 22.856-.619 40.603-19.31 40.933-44.155.33-24.845-8.898-39.25-31.742-39.821-22.857-.571-39.902 14.179-40.242 39.024z" fill="#FCE6E0"/>
    <path d="m991.122 540 2.979 21.243 25.899-2.037L972.904 639 933 563.136l20.343 6.038 1.294-28.383 36.485-.791z" fill="#FCE6E0"/>
    <path d="M937.14 529.781c4.733-14.617 6.741-4.278 7.86-19.905 0 0 .328-12.513 12.702-14.794 0 0 16.085-1.545 18.081-10.196 0 0 6.485-.606 8.736 9.625 0 0 1.752 31.075 18.711 36.933l6.92 8.556s24.19-10.22 6.19-43.29c0 0-9.48-18.894-32.199-19.619 0 0-6.12-.856-10.354 2.685 0 0-7.86-5.002-21.961 4.266 0 0-29.445 18.895-14.686 45.739z" fill="#333232"/>
    <path d="M994.62 521.945c-3.322 7.016-1.372 14.751 4.363 17.262 5.737 2.511 13.077-1.136 16.397-8.152 3.32-7.016 1.37-14.751-4.36-17.262-5.74-2.511-13.077 1.136-16.4 8.152z" fill="#FCE6E0"/>
    <path d="M926.462 666h119.988c27.88-8.337 20.73-37.786 20.73-37.786l-17.3-55.268c-10.71-31.186-37.99-18.314-37.99-18.314l-13.746 3.451-14.987 20.799c-20.926 11.051-29.034-11.003-29.034-11.003l-10.674-4.994c-28.167-11.208-25.372 23.091-25.372 23.091L926.462 666z" fill="#5AE8A4"/>
    <path d="M968.435 567c-8.92 0-14.142-3.827-14.229-3.897a.563.563 0 0 1-.124-.727c.136-.237.434-.307.645-.139.124.097 12.418 9.065 31.609-1.188.236-.125.509 0 .62.252a.563.563 0 0 1-.223.698c-7.096 3.786-13.274 5.001-18.298 5.001z" fill="#333232"/>
    <path d="M980.625 576.672c3.483 15.531 5.881 31.292 8.78 46.945 1.717 9.316 3.638 18.609 6.071 27.756.62 2.342 1.288 4.671 1.98 6.988.62 2.064 1.229 4.2 2.35 6.046.354.579.764 1.098 1.204 1.593H1038c-.64-4.163-1.74-8.255-2.61-12.382-1.22-5.817-2.39-11.658-4.11-17.354-1.82-6.07-4.42-11.742-7.08-17.462-2.73-5.89-5.13-11.912-7.34-18.006-2.16-5.974-4.15-12.008-6.1-18.042-.08-.253-.14-.495-.21-.748-.64-2.353-1.33-4.707-1.67-7.132-.71-5.129.91-9.981 2.41-14.796l2.39-7.615c.73-2.305 1.6-4.622 2.01-7.011.23-1.304.29-2.619.39-3.935.08-1.315.26-2.655.2-3.97-.08-1.81-.96-3.801-2.72-4.296.56-1.593.99-3.355.32-4.96-.49-1.159-1.49-2.124-2.71-2.317.28-1.388.39-2.812.25-4.224-.1-1.207-.37-2.547-1.77-2.716-2.65-.313-5.34 1.569-7.06 3.404-4.025 4.236-5.909 10.125-8.462 15.278-1.3 2.631-2.791 5.201-4.771 7.374-1.98 2.172-4.378 3.885-6.441 5.973-2.016 2.052-3.507 4.465-4.259 7.277-.751 2.824-.799 5.817-.441 8.713.406 3.319 1.36 6.481 2.386 9.643l.023-.024z" fill="#FCE6E0"/>
    <path d="M999.412 549s-.109 0-.163-.035a.446.446 0 0 1-.217-.568c4.428-11.045 8.138-22.983 8.178-23.099.08-.232.3-.348.51-.278.22.081.33.325.26.545-.03.116-3.75 12.089-8.199 23.168a.412.412 0 0 1-.369.267zM1005.45 557.988a.554.554 0 0 1-.19-.035.44.44 0 0 1-.22-.587c3.23-6.909 8.03-22.889 8.08-23.053a.443.443 0 0 1 .56-.294.44.44 0 0 1 .3.552c-.05.165-4.86 16.203-8.13 23.171a.43.43 0 0 1-.4.258v-.012zM1008.41 563.987s-.08 0-.11-.012c-.22-.076-.34-.342-.29-.583 1.32-5.17 5.15-22.858 5.18-23.036.05-.253.28-.405.5-.342.22.064.35.317.3.571-.05.177-3.87 17.891-5.19 23.073-.06.203-.22.342-.4.342l.01-.013zM980.298 578.988a.46.46 0 0 1-.468-.403l-1.215-8.781c-3.455-19.013 8.706-24.306 10.326-24.915l3.126-5.001c8.503-19.22 15.073-20.818 15.353-20.879.26-.048.5.098.57.354.06.256-.1.488-.36.549-.1.024-6.45 1.756-14.715 20.403l-3.24 5.196a.494.494 0 0 1-.253.195c-.038 0-3.392 1.11-6.277 4.598-3.809 4.609-5.049 11.317-3.581 19.379l1.215 8.805c.038.256-.152.475-.405.512h-.064l-.012-.012zM980.996 526.356a4.436 4.436 0 0 1-4.298 4.642c-2.479.075-4.577-1.877-4.694-4.354a4.436 4.436 0 0 1 4.298-4.642c2.479-.075 4.577 1.877 4.694 4.354zM956.996 526.356a4.436 4.436 0 0 1-4.298 4.642c-2.479.075-4.577-1.877-4.694-4.354a4.436 4.436 0 0 1 4.298-4.642c2.479-.075 4.577 1.877 4.694 4.354zM960.948 536.986h-.125c-.515-.07-.879-.603-.816-1.178l1.117-9.888c.062-.576.527-.982 1.053-.912.515.07.879.603.816 1.178l-1.117 9.888c-.062.533-.464.926-.928.926v-.014zM948.974 515.989a1.08 1.08 0 0 1-.694-.24c-.373-.316-.373-.828 0-1.145.115-.098 2.906-2.376 7.984-1.33.515.109.836.545.708.992-.129.447-.643.709-1.17.6-3.986-.828-6.095.829-6.185.905a1.062 1.062 0 0 1-.669.229l.026-.011zM982.983 516c-.175 0-.351-.036-.499-.119-3.415-1.734-6.101-.903-6.128-.903-.526.167-1.107-.071-1.296-.534-.189-.464.081-.975.608-1.141.148-.048 3.617-1.105 7.828 1.034.486.249.648.796.365 1.212a1.053 1.053 0 0 1-.878.451z" fill="#333232"/>
    <path d="M969 546a6 6 0 0 1-12 0 6 6 0 0 1 12 0z" fill="#F4BFB3"/>
    <path d="M963 552c-3.308 0-6-2.692-6-6s2.692-6 6-6 6 2.692 6 6-2.692 6-6 6zm0-10.289a4.291 4.291 0 0 0-4.289 4.289 4.299 4.299 0 0 0 4.289 4.289 4.299 4.299 0 0 0 4.289-4.289 4.299 4.299 0 0 0-4.289-4.289z" fill="#333232"/>
    <path d="m903 666-6.758-56.842-30.5-15.158L858 666h45z" fill="#3ADE8F"/>
    <path d="M918.466 666 942 590.987 919.406 567S902.087 582.778 888 666h30.466z" fill="#5AE8A4"/>
    <path d="m861 540 27.614 87H951l-27.372-87H861z" fill="#F5F5F5"/>
    <path d="m873.95 604.236-3.887-17.745s-.81-7.894 3.363-10.622L885.337 570s3.875.081 2.408 6.306c0 0 4.746-.713 3.792 6.514 0 0 3.219.621 3.338 6.847 0 0 4.781.978 0 7.503L885.218 618s-7.798-2.302-11.256-13.752l-.012-.012z" fill="#FCE6E0"/>
    <path d="M873.425 585h-.045c-.241-.02-.401-.21-.378-.41.332-2.631 2.414-4.091 2.494-4.151l8.865-4.391c.206-.1.47-.04.584.14.114.18.046.41-.16.51l-8.809 4.361s-1.83 1.32-2.116 3.611c-.023.19-.206.33-.423.33h-.012zM879.442 594c-.244 0-.442-.177-.442-.396 0-5.553 2.002-6.834 2.084-6.886l9.266-4.668c.21-.104.478-.041.594.146a.37.37 0 0 1-.163.531l-9.243 4.657s-1.665 1.188-1.665 6.22c0 .219-.198.396-.442.396h.011zM882.731 606a.464.464 0 0 1-.463-.383c-1.188-7.771 1.952-9.602 2.089-9.674l8.945-4.885a.48.48 0 0 1 .638.167.44.44 0 0 1-.175.611l-8.945 4.885s-2.715 1.688-1.626 8.764a.454.454 0 0 1-.401.515h-.062z" fill="#333232"/>
</svg>
