<svg width="768" height="660" viewBox="0 0 768 660" fill="none" xmlns="http://www.w3.org/2000/svg">
    <g clip-path="url(#3unasn38fa)">
        <path d="M145.818 25.465h-19.443V12.178c0-5.52 4.351-9.992 9.722-9.992 5.37 0 9.721 4.471 9.721 9.992V25.465zM641.615 25.465h-19.443V12.178c0-5.52 4.35-9.992 9.721-9.992s9.722 4.471 9.722 9.992V25.465z" fill="#C8C8C8"/>
        <path d="M673.207 315.364V21.916c0-.61-.517-1.104-1.154-1.104H95.931c-.638 0-1.154.494-1.154 1.104v293.448c0 .609.516 1.103 1.154 1.103h576.122c.637 0 1.154-.494 1.154-1.103z" fill="#555"/>
        <path d="M662.273 308.314V31.284H106.932v277.03h555.341z" fill="#46765F"/>
        <path fill-rule="evenodd" clip-rule="evenodd" d="M662.272 30.299c.57 0 1.033.443 1.033.99v277.03c0 .546-.463.989-1.033.989H106.93c-.57 0-1.033-.443-1.033-.989V31.289c0-.547.463-.99 1.033-.99h555.342zm-1.033 1.979H107.963V307.33h553.276V32.278z" fill="#085B34"/>
        <path d="M139.736 11.496c0 1.935-1.637 3.492-3.645 3.492s-3.646-1.569-3.646-3.492c0-1.924 1.638-3.492 3.646-3.492s3.645 1.568 3.645 3.492z" fill="#C8C8C8"/>
        <path fill-rule="evenodd" clip-rule="evenodd" d="M136.093 8.992c-1.438 0-2.613 1.126-2.613 2.503 0 1.377 1.175 2.503 2.613 2.503 1.439 0 2.612-1.117 2.612-2.503 0-1.377-1.175-2.503-2.612-2.503zm-4.679 2.503c0-2.47 2.1-4.481 4.679-4.481 2.578 0 4.678 2.011 4.678 4.481 0 2.484-2.102 4.481-4.678 4.481-2.579 0-4.679-2.011-4.679-4.48z" fill="#848484"/>
        <path d="M635.533 11.496c0 1.935-1.637 3.492-3.645 3.492s-3.646-1.569-3.646-3.492c0-1.924 1.638-3.492 3.646-3.492s3.645 1.568 3.645 3.492z" fill="#C8C8C8"/>
        <path fill-rule="evenodd" clip-rule="evenodd" d="M631.889 8.992c-1.437 0-2.612 1.126-2.612 2.503 0 1.377 1.175 2.503 2.612 2.503 1.44 0 2.613-1.117 2.613-2.503 0-1.377-1.175-2.503-2.613-2.503zm-4.678 2.503c0-2.47 2.1-4.481 4.678-4.481 2.579 0 4.679 2.011 4.679 4.481 0 2.484-2.102 4.481-4.679 4.481-2.578 0-4.678-2.011-4.678-4.48z" fill="#848484"/>
        <path d="M706.016 315.299H60.75v12.804h645.266v-12.804z" fill="#454545"/>
        <path d="M323.238 302.793v9.887c0 .806.625 1.459 1.395 1.459h3.286c.771 0 1.395-.653 1.395-1.459v-9.887c0-.805-.624-1.458-1.395-1.458h-3.286c-.77 0-1.395.653-1.395 1.458z" fill="#C6C6C6"/>
        <path d="M264.914 315.305v-16.296h58.117c.786 0 1.427.638 1.427 1.421v13.441c0 .783-.641 1.422-1.427 1.422h-58.117v.012z" fill="#D78B55"/>
        <path fill-rule="evenodd" clip-rule="evenodd" d="M264.904 316.289c-.57 0-1.033-.443-1.033-.989v-16.296c0-.547.463-.99 1.033-.99h58.117c1.394 0 2.46 1.118 2.46 2.411v13.441c0 1.294-1.066 2.411-2.46 2.411h-57.955a1.084 1.084 0 0 1-.162.012zm1.033-1.991h57.084a.417.417 0 0 0 .394-.432v-13.441a.417.417 0 0 0-.394-.432h-57.084v14.305z" fill="#D36A1D"/>
        <path d="M256.395 304.871v6.906l9.721 4.689V300.17l-9.721 4.701z" fill="#81C5F6"/>
        <path fill-rule="evenodd" clip-rule="evenodd" d="M266.659 299.326c.306.181.492.5.492.843v16.296a.981.981 0 0 1-.491.842c-.306.18-.687.196-1.007.042l-9.721-4.689a.986.986 0 0 1-.569-.884v-6.906c0-.374.22-.715.568-.883l9.721-4.701c.32-.155.702-.14 1.007.04zm-9.23 6.153v5.688l7.656 3.692v-13.082l-7.656 3.702z" fill="#D2EFFF"/>
        <path d="M255.186 307.249v.953c0 1.342-1.13 2.446-2.532 2.446h-2.961c-1.663 0-3.013-1.304-3.013-2.91 0-1.605 1.35-2.91 3.013-2.91h2.961c1.389 0 2.532 1.091 2.532 2.446v-.025z" fill="#81C5F6"/>
        <path fill-rule="evenodd" clip-rule="evenodd" d="M249.694 305.817c-1.084 0-1.98.853-1.98 1.92s.896 1.921 1.98 1.921h2.961c.821 0 1.5-.65 1.5-1.457v-.928c0-.812-.685-1.456-1.5-1.456h-2.961zm6.527 2.384c0 1.878-1.581 3.436-3.566 3.436h-2.961c-2.241 0-4.046-1.756-4.046-3.9s1.805-3.899 4.046-3.899h2.961c1.946 0 3.535 1.509 3.565 3.381l.001.029v.953z" fill="#D2EFFF"/>
        <path d="M252.75 303.663v6.983h3.646v-6.983h-3.646z" fill="#81C5F6"/>
        <path fill-rule="evenodd" clip-rule="evenodd" d="M252.752 311.637c-.571 0-1.033-.443-1.033-.99v-6.984c0-.546.462-.989 1.033-.989h3.645c.571 0 1.033.443 1.033.989v6.984c0 .547-.462.99-1.033.99h-3.645zm1.033-1.979h1.579v-5.005h-1.579v5.005z" fill="#D2EFFF"/>
        <path d="m236.079 316.111 28.825.357v-18.624l-28.825.357c-1.537.023-2.77 1.248-2.77 2.759v12.38c0 1.51 1.233 2.747 2.77 2.759v.012z" fill="#81C5F6"/>
        <path fill-rule="evenodd" clip-rule="evenodd" d="M265.631 297.139a.97.97 0 0 1 .307.704v18.624a.972.972 0 0 1-.307.704 1.055 1.055 0 0 1-.739.285l-28.825-.357a.994.994 0 0 1-.182-.017c-2.044-.112-3.608-1.78-3.608-3.743v-12.38c0-2.03 1.665-3.716 3.787-3.749h.003l28.825-.356c.276-.004.542.099.739.285zm-29.534 2.05h-.002c-.95.015-1.752.78-1.752 1.77v12.38c0 .998.808 1.763 1.746 1.77.056 0 .111.005.165.014l27.618.342v-16.62l-27.775.344z" fill="#D2EFFF"/>
        <path fill-rule="evenodd" clip-rule="evenodd" d="M245.648 302.501c0-.546.463-.989 1.033-.989h18.228c.571 0 1.033.443 1.033.989 0 .547-.462.99-1.033.99h-18.228c-.57 0-1.033-.443-1.033-.99zM245.648 312.972c0-.547.463-.99 1.033-.99h18.228c.571 0 1.033.443 1.033.99 0 .546-.462.989-1.033.989h-18.228c-.57 0-1.033-.443-1.033-.989zM245.648 307.153c0-.546.463-.989 1.033-.989h18.228c.571 0 1.033.443 1.033.989 0 .547-.462.99-1.033.99h-18.228c-.57 0-1.033-.443-1.033-.99z" fill="#D2EFFF"/>
        <path fill-rule="evenodd" clip-rule="evenodd" d="M168.911 67.371c.671 0 1.215.521 1.215 1.164v125.712c0 .642-.544 1.164-1.215 1.164-.672 0-1.216-.522-1.216-1.164V68.535c0-.643.544-1.164 1.216-1.164z" fill="#fff"/>
        <path fill-rule="evenodd" clip-rule="evenodd" d="M132.445 151.182c0-.643.544-1.164 1.216-1.164H292.85c.672 0 1.216.521 1.216 1.164 0 .642-.544 1.164-1.216 1.164H133.661c-.672 0-1.216-.522-1.216-1.164zM168.491 66.205c.4.005.772.198.994.517l6.502 9.312a1.134 1.134 0 0 1-.335 1.615c-.557.357-1.312.213-1.685-.32l-5.519-7.905-5.846 7.928a1.249 1.249 0 0 1-1.693.28 1.133 1.133 0 0 1-.292-1.622l6.866-9.312a1.233 1.233 0 0 1 1.008-.493z" fill="#fff"/>
        <path fill-rule="evenodd" clip-rule="evenodd" d="M282.092 144.739c.357-.545 1.107-.709 1.675-.368l10.937 6.571c.359.215.574.594.569 1a1.154 1.154 0 0 1-.593.986l-10.937 6.234c-.577.328-1.322.147-1.666-.405-.343-.553-.154-1.267.423-1.596l9.228-5.259-9.252-5.558a1.136 1.136 0 0 1-.384-1.605zM221.423 85.706c-5.44-2.828-12.586-1.286-17.65 2.38-5.067 3.668-8.422 9.068-11.579 14.499-17.414 30.002-30.8 62.104-39.721 95.295a.609.609 0 0 1-.739.418.58.58 0 0 1-.437-.709c8.946-33.287 22.371-65.481 39.835-95.57 3.149-5.416 6.612-11.027 11.908-14.861 5.299-3.836 12.964-5.593 18.963-2.475 4.86 2.528 7.538 7.594 8.983 12.49l.001.001c.59 2.016 1.023 4.073 1.451 6.105.092.435.183.869.276 1.301.528 2.462 1.098 4.876 1.985 7.196 2.551 6.658 7.787 12.352 14.387 15.642 6.6 3.29 14.511 4.144 21.735 2.345a.612.612 0 0 1 .741.417.581.581 0 0 1-.435.71c-7.514 1.871-15.734.984-22.602-2.439-6.867-3.424-12.311-9.343-14.966-16.274h-.001c-.92-2.407-1.505-4.894-2.034-7.362-.095-.441-.188-.881-.28-1.32-.428-2.03-.851-4.037-1.427-6.007-1.415-4.79-3.967-9.479-8.394-11.782z" fill="#fff"/>
        <path d="M236.959 109.855c0 1.607-1.361 2.91-3.038 2.91-1.677 0-3.038-1.303-3.038-2.91 0-1.606 1.361-2.91 3.038-2.91 1.677 0 3.038 1.304 3.038 2.91z" fill="#fff"/>
        <path fill-rule="evenodd" clip-rule="evenodd" d="M232.7 111.021h-63.798v-1.164h65.013v41.322H232.7v-40.158zM227.836 163.977c0-.322.272-.582.608-.582h41.316c.336 0 .608.26.608.582a.596.596 0 0 1-.608.582h-41.316a.596.596 0 0 1-.608-.582zM227.836 174.459c0-.321.272-.582.608-.582h75.341c.336 0 .608.261.608.582a.596.596 0 0 1-.608.582h-75.341a.596.596 0 0 1-.608-.582z" fill="#fff"/>
        <path d="M297.091 163.736s.07-.046.07-.091c-.023-.023-.046-.069-.07-.103a.192.192 0 0 1-.105-.125c-.046-.045-.046-.091 0-.17-.093 0-.128-.023-.175-.023-.07.023-.105.068-.105.125-.093-.023-.117-.068-.07-.125.023-.045.07-.102.105-.148.024-.045.024-.068.024-.102h-.269c.07-.239.198-.5.397-.773.047-.068.093-.102.152-.148a.338.338 0 0 0 .128-.125c.023-.023.023-.068.023-.102-.046-.046-.046-.069-.023-.091.047-.023.093-.023.128-.023.047.023.07 0 .07-.091s.047-.125.129-.125c.046.023.116 0 .175-.068.023-.023.046-.068.093-.125.024-.046.07-.103.105-.148 0 0 0-.046.047-.102 0-.046.023-.069.047-.091h.116s.07.022.082 0c.023-.046.047-.091.07-.148 0-.046 0-.091.047-.148 0-.023.046-.045.093-.045s.07 0 .105-.046c.023-.045.047-.102.093-.193.024-.068.07-.125.105-.171.07-.091.152-.193.292-.284.094-.091.199-.17.292-.295.023-.046.047-.091.047-.148 0-.046 0-.103.046-.148a1.61 1.61 0 0 1 .245-.171 1.09 1.09 0 0 0 .269-.216c.047-.045.07-.102.093-.193 0-.045.047-.102.105-.193.047-.068.094-.102.14-.148.047 0 .082-.045.152-.125.023-.091 0-.148-.047-.193-.093 0-.128-.046-.151-.091-.047-.046-.047-.091-.047-.148a.36.36 0 0 0-.047-.148 1.245 1.245 0 0 1-.151-.091c-.094-.022-.14-.068-.152-.102-.047-.045-.047-.091-.047-.148a.23.23 0 0 0-.047-.125 1.423 1.423 0 0 1-.128-.148.308.308 0 0 1-.175-.147c-.047-.023-.047-.046-.047-.091a.256.256 0 0 0-.046-.103.575.575 0 0 1-.199-.17.34.34 0 0 1-.105-.171c-.046-.045-.07-.091-.07-.125-.023-.068-.07-.125-.14-.216-.082-.068-.222-.091-.373-.068a1.42 1.42 0 0 0-.245-.603 2.814 2.814 0 0 1-.444-.454v-.478c-.023-.125-.023-.261-.023-.386a.495.495 0 0 1 .023-.319c0-.091.07-.17.199-.261h.688c.152.17.327.307.537.409.175.125.35.239.548.341.07.091.105.148.105.239 0 .102.024.193.094.261.047.091.117.126.198.148.094.046.152.091.199.125.023.069.046.103.046.148 0 .068 0 .102.047.148.023.045.07.091.117.102a.176.176 0 0 0 .093.091c.023.046.047.091.07.125 0 .068 0 .103.047.148.023.045.07.068.117.091a.351.351 0 0 0 .081.102c0 .046.047.068.094.091.046.046.07.091.116.103 0 .045.024.09.047.125 0 .068 0 .102.047.147.046.091.116.125.221.148.094.046.117.125.07.239.105.045.199 0 .269-.091.046-.068.093-.125.128-.216l.514-.455s.046-.045.07-.045c0 .022 0 0 .023-.068 0-.023.023-.091.105-.171.047-.091.117-.148.198-.216a.333.333 0 0 1 .199-.102c.047 0 .105-.023.198-.091.094-.068.199-.194.315-.364.094-.171.245-.262.467-.307-.046-.216.07-.318.292-.307.023-.068.023-.102-.023-.148a.587.587 0 0 1-.175-.045c.093-.103.175-.216.268-.319.082-.091.152-.216.245-.341a.38.38 0 0 0 .374.046c.093-.046.221-.023.396.068.024.046.024.125 0 .239-.046.125-.046.216 0 .239.047.045.07.09.07.147a5.602 5.602 0 0 0-.07.319c-.046.193-.046.307 0 .341a.385.385 0 0 1-.093.238l-.093.103s-.047.091-.047.125c-.023.068-.047.102-.07.148-.023.045-.047.045-.082.045-.07.023-.117.046-.117.068-.023.046-.023.069 0 .091v.103l-.093.091c-.047.045-.082.09-.105.102-.047.045-.07.091-.093.125-.047.068-.094.102-.105.125-.047.045-.07.091-.094.102-.046.046-.093.068-.116.091a.606.606 0 0 0-.152.262.87.87 0 0 1-.14.238c-.047.069-.105.125-.199.216-.093.091-.198.171-.291.262l-.315.307-.292.284c-.082.091-.129.148-.129.148-.046.023 0 .102.129.239.023.045.07.068.117.091.023.045.046.091.093.102.07.102.128.193.175.284.047.102.07.171.117.193a.457.457 0 0 0 .221.194c.07.091.129.147.175.193a.35.35 0 0 1 .047.148c0 .068 0 .102.047.147.023.046.07.069.105.091a.26.26 0 0 0 .093.103c.222.261.444.534.689.818.222.307.49.58.793.796 0 .171.047.307.105.387.047.102.117.193.199.284.07.091.128.17.222.261.07.091.14.194.175.319-.129 0-.175.022-.152.068 0 .068.047.125.093.17.024.069.047.103.047.125-.023.046-.105.023-.292-.068 0 .068 0 .103.024.125 0 .046.023.068.07.091 0 .046.023.068.046.091 0 .046-.023.102-.023.171-.175-.023-.292-.046-.339-.091-.07 0-.07.091.024.284a1.319 1.319 0 0 0-.292-.068c-.047 0-.152.022-.292.068-.046 0-.07-.046-.093-.091-.047-.045-.093-.068-.105-.102-.047 0-.094-.023-.152-.046-.093 0-.128 0-.152-.045-.046-.023-.046-.068-.046-.148 0-.068-.024-.102-.047-.148-.047 0-.07-.023-.105-.045-.047 0-.093 0-.093-.046-.047-.023-.047-.068 0-.102v-.091c-.07-.023-.117-.046-.117-.091-.023-.023-.047-.068-.082-.102a1.55 1.55 0 0 1-.151-.171.387.387 0 0 1-.152-.125 1.625 1.625 0 0 1-.269-.386c-.116-.148-.245-.285-.396-.364 0-.091-.024-.148-.07-.194-.047-.045-.07-.102-.047-.193a2.062 2.062 0 0 0-.245-.216.72.72 0 0 1-.245-.17.386.386 0 0 1-.105-.194.746.746 0 0 1-.094-.193c-.046-.023-.07-.045-.105-.068-.07 0-.093 0-.093-.046-.023-.022-.023-.068 0-.102v-.091s-.07 0-.117-.045c-.046 0-.07-.023-.081-.023-.024-.023-.024-.068 0-.102v-.091s-.07-.046-.117-.068c-.07 0-.094 0-.094-.046-.023-.023-.023-.068 0-.102v-.091h-.093c-.07.045-.105.045-.105 0-.047-.023-.047-.068-.023-.125 0-.046-.024-.068-.082-.068-.07-.023-.117-.023-.14-.023-.047.023-.07.045-.07.068-.023.045-.023.091-.023.125a.314.314 0 0 1-.07.125c-.082.091-.152.125-.199.148-.07.045-.128.125-.198.239-.094.125-.199.284-.315.432-.129.17-.245.341-.374.511-.081.091-.151.171-.245.262a.366.366 0 0 0-.152.318c-.128-.045-.221-.023-.221.068-.024.091-.094.125-.175.125-.082.023-.082.046-.024.091.047.046.047.103.024.194a1.78 1.78 0 0 0-.42.341c-.129.147-.246.307-.351.432l-.198.193-.198.193a.783.783 0 0 0-.199.193c-.046.046-.07.046-.07.023-.046 0-.046.023-.046.068 0 .103-.047.125-.117.069-.082-.046-.105-.069-.082-.069a.662.662 0 0 0-.292.216c-.093.125-.198.171-.315.091.024-.091.024-.148-.023-.17-.047 0-.07.022-.07.068-.07 0-.093-.023-.07-.068 0-.023 0-.046.047-.091.023 0 .07-.023.116-.023.047.023.07.046.105.091v-.011zM144.226 68.696s.07.13.07.223c-.047.13-.023.224.046.27.023.048.047.071.093.071.023.047.023.094 0 .13 0 .047-.023.094-.023.129a.239.239 0 0 0-.07.176c-.023.047-.046.153-.093.33a1.57 1.57 0 0 0-.104.446 1.934 1.934 0 0 0-.023.623c0 .224-.023.447-.093.694 0 .024-.023.047-.046.07-.023.024-.046.024-.046.024 0 .047.023.07.069.106.023.07.023.13.023.2 0 .047-.023.07-.023.106a.23.23 0 0 0-.069.153c-.047.129-.047.27-.047.4l-.069.399c-.023.153-.047.33-.047.53-.046.223-.046.446-.046.67-.023.246-.023.47 0 .693 0 .223.046.423.093.6.092.129.197.246.371.317.15.094.324.153.521.176.174.047.348.047.533.024.174 0 .301-.047.44-.106h.104s.07.024.093 0c.07-.07.128-.106.174-.153.023 0 .093-.047.22-.13l.174-.175a.98.98 0 0 1 .22-.224c.046-.023.093-.07.174-.106a.332.332 0 0 0 .127-.094 3.37 3.37 0 0 1 .093-.176c0-.07.046-.13.104-.223a.373.373 0 0 1 .151-.153c.046-.047.093-.094.127-.153.047-.07.105-.153.151-.27.023-.095.069-.2.127-.318l.29-.517s.07-.024.127-.047c.047 0 .07-.024.07-.047.023-.024.023-.071.023-.106-.046-.024-.046-.047-.023-.094.046-.047.093-.106.151-.153a.371.371 0 0 0 .15-.153c.023-.023.047-.047.047-.094 0-.024 0-.07.046-.106a.55.55 0 0 0 .104-.223c.023-.094.047-.224.093-.353a1.21 1.21 0 0 1 .151-.353c.046-.105.104-.223.15-.329.023-.07.046-.13.046-.2 0-.047 0-.106.047-.2 0-.023.023-.047.069-.047 0 .024.024 0 .047-.07 0-.047.023-.106.069-.247.047-.106.093-.224.128-.353 0 0 0-.023.046-.023.023 0 .046-.024.046-.07 0-.13 0-.248.024-.33 0-.094.069-.177.173-.27.174.046.325.093.441.129.092.047.22.047.44-.024.046.094.093.177.127.27 0 .106.105.153.29.106a.866.866 0 0 1-.023.424c-.047.13-.07.27-.07.376 0 .13 0 .2.047.223 0 .047.023.106.046.177v.247a.538.538 0 0 0 0 .27c0 .047-.023.07-.07.07-.046.048-.069.095-.023.13l.105.106c.046.094.092.176.092.27l-.104.4c-.046.223-.07.494-.046.823 0 .353 0 .717-.047 1.07-.023.094-.046.13-.069.153-.047.047-.047.094-.047.13 0 0 .024 0 .07.023.023.047.046.07.046.094 0 .247 0 .47.047.693 0 .247.023.518.046.776.093.047.151.047.197-.047a.24.24 0 0 1 .104-.129c.047-.023.105-.023.197 0 .07.047.128.047.197 0 0 0-.023-.047-.023-.106-.023-.047-.023-.07.023-.094.07-.047.128-.106.174-.153.046-.047.127-.047.29-.047-.047-.153.023-.27.173-.317.128-.047.29-.094.418-.177.023 0 .069-.047.104-.105.046-.047.069-.094.092-.094.128-.024.244-.047.371-.047.093.023.197.047.325.047.046-.095.104-.13.22-.177.093 0 .127.047.15.177.128-.024.174-.024.151.023-.046.07-.046.094-.046.07.023.095.046.154.092.2.024.071.024.13 0 .2-.023.07-.023.13-.023.2a.949.949 0 0 1-.069.2c-.023.047-.047.047-.093 0h-.104s-.047.07 0 .094v.106c-.105.106-.244.2-.371.27a.827.827 0 0 1-.417.106c.046.13.023.2-.07.177-.092 0-.173 0-.22.023-.046.047-.046.07 0 .106v.094s-.069.047-.092.023c-.047 0-.093-.023-.105-.023-.092.07-.15.13-.22.176a.79.79 0 0 1-.29.13c-.092.023-.127.07-.104.153 0 .094-.046.129-.174.129-.046 0-.092.047-.173.106a52.36 52.36 0 0 0-.197.2c-.093.047-.151.094-.221.129a.387.387 0 0 0-.173.153c-.047.094-.07.153-.047.223 0 .094-.069.153-.15.176 0 .247 0 .447.046.624 0 .176 0 .446-.046.776v.2s-.07.047-.093.07c-.093.07-.093.106-.023.13.046.046.069.046.046.046-.046.024-.046.071-.046.13 0 .059 0 .094.046.07.023 0 .047.024.07.024 0 .07-.023.106-.047.106-.046.023-.069.023-.069 0 .023.106.046.153.046.129 0 0-.023.07-.046.153a.45.45 0 0 0 0 .247v.27c-.023.094-.047.153-.047.2-.046.094-.046.153-.046.2.046.176.07.317.093.4 0 .106-.023.2-.047.294l-.127.27a1.477 1.477 0 0 0-.174.423c0 .047 0 .07.023.094 0 .047-.023.094-.023.106-.046.094-.069.153-.092.153-.047.023-.093.106-.105.247l-.046.094c-.023-.023-.046-.023-.046.023-.047.024-.047.071-.047.13-.023.047-.046.094-.069.153a3.314 3.314 0 0 1-.151.27c-.093.07-.104.176-.046.318a1.81 1.81 0 0 0-.441.4c-.15.129-.266.293-.347.517-.197.07-.348.176-.487.329-.127.13-.266.294-.37.47-.174 0-.302.047-.441.094-.127.024-.266.047-.347.094-.093.024-.128.047-.128.07l-.069-.07c-.093-.07-.151-.047-.197.07-.07.095-.105.13-.105.13-.046 0-.092-.047-.127-.106-.093-.094-.127-.106-.151-.094 0 0-.023.047-.069.094-.07.047-.104.047-.128.024-.046-.047-.069-.07-.092-.047-.047 0-.07.023-.093.07-.046 0-.07.024-.093.047a.16.16 0 0 1-.127-.07c-.046-.094-.07-.094-.07-.047a.182.182 0 0 1-.127.047h-.487a.98.98 0 0 0-.243-.318c-.104-.094-.151-.2-.151-.376 0-.094-.023-.106-.069-.094-.093 0-.128 0-.128-.023a.424.424 0 0 1-.046-.294c0-.13-.093-.2-.243-.2.046-.094.069-.13.069-.153 0-.047-.023-.094-.023-.106-.023-.047-.046-.07-.069-.094a.207.207 0 0 1-.07-.153c-.046-.094-.069-.2-.104-.294a.58.58 0 0 1-.093-.317c-.046-.07-.046-.13 0-.177 0-.047 0-.07.046-.094.024-.047.047-.047.047 0 0-.047-.023-.094-.047-.094-.046-.047-.069-.07-.046-.106.046-.376.197-.776.464-1.199.22-.4.509-.8.857-1.199.313-.4.66-.752 1.008-1.117.324-.317.637-.576.904-.8.243-.223.417-.352.544-.423.104-.047.093 0-.046.153l.104-.106a.184.184 0 0 0 .093-.094.37.37 0 0 0 .069-.153c0-.047 0-.094.047-.129.127-.153.266-.294.44-.4.127-.094.266-.223.348-.4v-.446c-.047-.106-.047-.27 0-.447 0 .023.023.023.069-.024.046-.023.046-.047.023-.094-.092-.07-.092-.176-.046-.329.023-.13.046-.27.046-.447-.023.024-.046.024-.046-.023-.046 0-.046-.024-.046-.07 0-.048 0-.095.046-.154.023-.047.046-.094.046-.152 0 0-.023-.047-.069-.094-.047-.024-.07-.071-.023-.106 0-.024.023-.047.069-.047 0 .023.023 0 .023-.047 0-.094-.023-.177-.023-.27a.442.442 0 0 1-.069-.248l.069-.07s.046-.07.023-.13c0 0-.023-.023-.046-.023-.046 0-.07 0-.07-.047l-.092.094-.093.094a.684.684 0 0 1-.104.094.502.502 0 0 0-.093.106c-.046.047-.069.047-.069.023-.047 0-.047.024-.047.071v.4c-.093.07-.15.106-.243.106-.093.023-.151.105-.151.293 0 .048 0 .071.023.106 0 .047 0 .07-.023.07 0 .048-.023.048-.069 0h-.128v.107s-.046.07-.092.094c-.093.106-.197.247-.313.376-.128.176-.22.353-.267.53-.046.046-.092.07-.127.046a.378.378 0 0 0-.174.047c-.046.047-.093.07-.093.106-.023.047-.069.094-.104.094-.127.047-.197.094-.22.176-.046.106-.093.177-.174.224h-.487s-.069.023-.092.07c-.047.047-.07.07-.104.047-.024 0-.024-.023-.024-.07 0-.024-.046-.047-.092-.047-.047 0-.07.023-.07.047-.046.047-.069.07-.104.07-.023 0-.093-.047-.22-.094a.649.649 0 0 1-.29-.106.351.351 0 0 1-.348.13c-.173 0-.301-.024-.44-.047v-.094s-.069-.024-.093 0c-.092.094-.173.094-.312 0l-.371-.2s-.093-.07-.093-.106a.268.268 0 0 1-.104-.094.325.325 0 0 1-.093-.07c-.046 0-.092 0-.104-.048-.023 0-.023-.047.023-.094 0-.047 0-.07-.023-.106-.023 0-.046-.023-.093-.046-.069 0-.104-.024-.104-.048-.046-.047-.046-.105-.046-.152 0-.024-.024-.071-.047-.153-.023 0-.069-.047-.104-.106-.069-.047-.093-.07-.093-.094-.046-.07-.023-.106.024-.153.046 0 .069-.047.069-.13-.127.024-.243-.046-.29-.176 0-.176-.046-.294-.104-.317.046-.318.046-.6.023-.894a3.966 3.966 0 0 1-.023-.917c0-.047.023-.176.104-.376.047-.176.047-.317 0-.4-.046-.023-.046-.07-.046-.106-.023-.047 0-.129.046-.294.024-.129.047-.4.093-.8 0 0 .023 0 .046-.023l.047-.047s.023 0 .023-.047h-.07c-.069 0-.092-.023-.046-.07 0 0 .023-.024.07-.047.023 0 .046-.024.046-.07 0-.048 0-.071.046-.107l.047-.094V71.6s-.024-.106 0-.176c0 0 .023-.024.069-.024.023 0 .046-.023.046-.07v-.106s.024-.094.047-.13c0-.023.023-.07.046-.152.023-.071.07-.247.104-.518.024-.247.047-.47.093-.694.023-.105.07-.223.151-.352.046-.094.046-.2-.047-.33.174-.094.325-.27.487-.517h.174s.093.047.127.047c.023.047.07.07.105.07.023.024.069.024.15 0l.081.048zm4.438 12.51c-.07.094-.128.153-.174.2-.093.07-.151.13-.22.2-.046.047-.046.105-.046.153 0 .07-.024.105-.047.152l-.046-.023s-.104.07-.151.106c-.069.047-.104.07-.15.105l-.07.071a4.36 4.36 0 0 0-1.101.952c-.312.4-.509.87-.567 1.447.127 0 .22.07.289.2.197.023.348.023.487-.024a.845.845 0 0 1 .394-.094c.069.023.093 0 .093-.047-.024-.07-.024-.106.023-.13.023-.047.069-.047.15-.047a.241.241 0 0 0 .128-.047l.313-.4a.736.736 0 0 0 .092-.27c0-.094.047-.153.105-.247 0 0 .023-.023.092-.047.047 0 .07 0 .105-.047l.092-.305s.023 0 .093-.106c.046-.094.093-.2.151-.33.046-.129.092-.246.127-.376a.49.49 0 0 0 .046-.176c.024-.024.024-.047-.023-.094h-.069c0-.106.046-.294.127-.517.07-.224.093-.377.07-.494 0-.094-.023-.106-.047-.106a.182.182 0 0 0-.092.094.463.463 0 0 0-.105.13c-.046.07-.069.093-.069.093v.024z" fill="#fff"/>
        <path fill-rule="evenodd" clip-rule="evenodd" d="M602.094 154.815c.387.205.627.595.627 1.019v94.284c0 .642-.544 1.164-1.215 1.164H444.747a1.21 1.21 0 0 1-1.168-.842 1.142 1.142 0 0 1 .521-1.308l156.76-94.284a1.261 1.261 0 0 1 1.234-.033zm-153.127 94.139h151.324v-91.015l-151.324 91.015z" fill="#fff"/>
        <path fill-rule="evenodd" clip-rule="evenodd" d="M608.744 236.791c-5.001-.423-10.162 1.305-13.897 4.662-3.736 3.359-6.008 8.298-6.101 13.328a.595.595 0 0 1-.618.571.594.594 0 0 1-.597-.592c.098-5.338 2.504-10.578 6.485-14.156 3.982-3.579 9.482-5.425 14.835-4.972a.589.589 0 0 1 .551.631.599.599 0 0 1-.658.528zM455.117 240.596a.616.616 0 0 1 .789-.326c2.764 1.049 5.104 3.2 6.422 5.882 1.317 2.681 1.612 5.88.807 8.776a.611.611 0 0 1-.744.413.58.58 0 0 1-.431-.712c.733-2.635.462-5.551-.731-7.981-1.194-2.429-3.309-4.362-5.771-5.296a.575.575 0 0 1-.341-.756zM589.251 156.423a.605.605 0 0 1 .695.484c.528 3.182 2.417 6.18 5.178 8.209 2.775 2.042 6.417 3.105 9.986 2.919a.6.6 0 0 1 .64.55.59.59 0 0 1-.574.612c-3.851.201-7.781-.943-10.791-3.157m-5.134-9.617a.586.586 0 0 0-.505.666zm-.505.666c.579 3.487 2.639 6.747 5.638 8.951z" fill="#fff"/>
        <path d="M621.716 154.585c-.284.102-.494.102-.605.057a4.175 4.175 0 0 0-.691-.057.53.53 0 0 0-.148-.215.65.65 0 0 1-.235-.261c-.024 0-.024-.057 0-.102v-.102a.232.232 0 0 0-.173-.159c-.111 0-.197-.023-.197-.08-.062-.079-.062-.181-.062-.34-.025-.136-.062-.261-.086-.374-.025-.08-.062-.182-.111-.341-.062-.102-.025-.181.111-.238.024-.079 0-.102-.062-.102-.111.023-.173.023-.198-.023-.061-.022-.061-.102-.061-.261a.964.964 0 0 0-.062-.317c-.062-.102-.086-.238-.111-.397a2.122 2.122 0 0 1-.148-.42c-.062-.261-.087-.499-.062-.737 0-.216-.025-.42-.086-.692 0-.023 0-.08.024-.136 0-.057-.024-.08-.024-.102h-.112s-.024-.08 0-.137v-.079c-.086-.057-.111-.159-.061-.261a.284.284 0 0 0-.087-.215h-.111a1.78 1.78 0 0 1-.086-.579.904.904 0 0 0-.173-.499c-.025.057-.086.057-.148.057h-.58c-.112.022-.173.056-.173.079v.102c-.087 0-.148-.023-.198-.079-.062-.023-.173 0-.321.079-.062.057-.062.08-.062.136a.465.465 0 0 1-.061.102c-.062.023-.087.023-.148 0h-.112v.136s-.086 0-.148-.022c-.061 0-.111 0-.111.022-.086.08-.173.103-.259.057-.111 0-.198 0-.259.057v.136a4.173 4.173 0 0 1-1.186.023c-.407-.023-.802-.023-1.148-.023-.062 0-.086.023-.086.057-.062.056-.111.079-.173.056 0-.056-.062-.102-.111-.102-.05 0-.087 0-.111-.022-.062 0-.111.022-.148.022-.037 0-.062.023-.087.057l-.062.057a.886.886 0 0 1-.407-.08.44.44 0 0 0-.346.08c-.173.159-.234.295-.173.42a.77.77 0 0 1-.086.397c-.111.419-.197.794-.259 1.134a8.117 8.117 0 0 0-.259 1.214.367.367 0 0 1-.087.181c-.062.057-.062.136-.025.182 0 .022.025.056.087.079.062.057.062.102.025.159 0 0-.025 0-.062.023-.025.022-.062.056-.062.079-.062.079-.062.136-.062.159-.024.057-.061.136-.086.215-.025.057-.062.08-.062.057-.062 0-.062.023-.062.057-.086.159-.148.295-.148.397a.866.866 0 0 1-.111.317c-.062.057-.111.103-.173.103-.111.056-.173.079-.234.136-.062.056-.111.102-.111.159-.062.079-.087.158-.149.215-.024 0-.061.057-.061.102-.025.08-.062.102-.062.102a.482.482 0 0 1-.284.08.424.424 0 0 0-.234.261c-.087.022-.112 0-.112-.103-.172.057-.284 0-.345-.136-.062-.102-.111-.215-.173-.317l-.062-.057s-.086-.023-.086-.079a2.093 2.093 0 0 1-.087-.613c-.024-.159 0-.397.087-.692v-.238h.148v-.136s-.062-.08 0-.102a.243.243 0 0 0 .111-.216c-.062-.057-.062-.181 0-.397 0 0 .025-.023.086-.023.025 0 .062-.022.062-.079 0-.079-.025-.159-.025-.238-.024-.057-.024-.136.025-.238 0 .022.025.022.062 0 .025 0 .062-.023.062-.103a4.58 4.58 0 0 1 .284-1.27c.148-.454.234-.851.234-1.214-.025-.136-.062-.159-.111-.057-.086.103-.173.182-.259.182 0 0 0-.023-.025-.079-.062-.023-.086-.057-.111-.057-.173 0-.321 0-.432.022-.173.057-.321.08-.457.103l-.025.056c-.061.08-.086.102-.111.057a.376.376 0 0 0-.259-.102c-.148-.023-.198-.079-.198-.136a.99.99 0 0 0-.172-.102c-.062.102-.087.102-.149.056-.086-.022-.172-.056-.234-.056-.235-.261-.321-.658-.259-1.191.148-.057.259-.102.37-.216.062-.057.197-.102.37-.159-.024.023-.024.057.025.08.025.056.062.056.111.056 0 0 .025 0 .062-.056 0-.023 0-.057.062-.08.321-.022.691-.079 1.123-.136.407-.023.803-.057 1.21-.079.062 0 .111-.023.111-.102-.025-.057-.025-.08 0-.136.025-.057.087-.137.148-.216.025-.057.062-.159.111-.261a.95.95 0 0 0 .087-.42c0-.136 0-.261.062-.419 0 0 0-.023.061-.023.025 0 .062-.023.062-.079 0-.023.062-.08.173-.182.086-.079.111-.136.086-.181-.061-.023-.061-.08-.061-.137-.025-.022 0-.136.061-.34a.904.904 0 0 0 .111-.215c.025-.102.087-.216.149-.341.024-.079.061-.181.111-.34a2.35 2.35 0 0 1 .148-.374c.024-.057.062-.08.086-.08 0 0 .025 0 .062-.056.025-.08.062-.159.062-.261-.025-.057 0-.137.061-.216.025-.023.087-.057.198-.057.086 0 .062 0-.062-.056-.062-.136-.024-.239.087-.295.086-.057.148-.136.172-.295 0-.08.025-.136.112-.182.061-.022.086-.079.148-.181.061-.216.111-.42.234-.579 0-.022.025-.056.087-.056 0 0 .024-.023.024-.08.025-.102.087-.215.149-.318.024-.056.061-.158.111-.26.024-.057.061-.103.086-.182 0-.057 0-.102.062-.181 0-.023.062-.08.111-.137.062-.022.086-.056.148-.102.025-.056.062-.102.062-.181 0-.057 0-.08.062-.136.024-.023.086-.023.148-.023.061.057.086.057.111.023.062-.08.111-.159.197-.238.062-.057.149-.08.321-.137a.326.326 0 0 1 .198-.079.418.418 0 0 0 .111.079c.025.057.086.08.173.102.062.057.148.08.284.023.259-.057.494-.079.716-.079.173.057.407.159.691.317.025.023.025.057.025.057-.025.023 0 .023.111.023.062.057.111.079.173.079.111.057.173.057.197.057a.27.27 0 0 1 .087.181c-.025.08 0 .137.062.159 0 .057.024.057.111.023.061 0 .086-.023.148-.023v.136s-.062.102 0 .102c.025.057.086.08.148.103a.322.322 0 0 0 .111.136c.062.102.111.181.173.261.025.102.086.215.173.34.025.057.086.079.148.102.062.057.086.102.111.136l.087.159c0 .079-.001.136.061.181.062.103.111.182.173.261a.65.65 0 0 0 .198.318c.024.057.086.079.172.102.062.057.087.102.087.136.062.102.086.238.148.34.025.159.062.261.111.375.062.102.087.238.148.34.025.136.062.261.111.374 0 .057.025.057.087.023.025 0 .062.057.062.102 0 .023-.025.057-.062.08-.062.056-.087.079-.087.022.025.057.087.08.173.08.062 0 .087.022.087.056.024.103.061.239.086.375 0 .159 0 .317.062.42 0 .056.062.079.111.079.062.057.086.102.148.159.025.159.025.295.025.397a.672.672 0 0 0 .086.454c0 .056.062.079.148.102.062.056.111.102.111.136.025.159.062.295.062.397 0 .159 0 .295.062.42 0 0 .025.022.086.022.025.023.062.057.062.08.025.102.062.215.062.26 0 .103 0 .216.062.341.061.215.086.397.148.578 0 .216.061.397.111.613.062 0 .111.057.148.102a.59.59 0 0 0 .062.261c0 .102 0 .215.061.318v.136s-.024.102 0 .102h.149c.024.159.061.34.061.499 0 .215 0 .397.062.556.025.159.062.317.086.476 0 .159 0 .318.062.477l.062.022s.062.023.062.08c0 .238.086.499.234.771.111.295.173.556.173.794 0 .08 0 .182.025.295 0 .159-.087.216-.284.182-.087.158-.087.26.024.317a.38.38 0 0 1 .087.238c-.025.102-.086.159-.148.182-.111.057-.148.159-.111.295l-.013.011zm-8.222-11.888c-.087.023-.148.079-.148.136a1.442 1.442 0 0 0-.111.216c-.062.079-.087.136-.111.158a.7.7 0 0 0-.149.216c-.061.102-.061.181-.061.238a.43.43 0 0 1-.062.238c-.062.08-.087.137-.111.137-.062.022-.087.056-.148.079-.025.023-.025.057 0 .102v.136c-.062.182-.112.34-.112.499-.061.182-.086.375-.148.556-.061.182-.111.374-.172.533a.678.678 0 0 0-.062.556c.086.136.173.159.284.08a.576.576 0 0 1 .321-.08l.061.023s.025.079.087.079c.234.057.37.057.432-.022.062-.057.111-.057.198.022.024.057.111.023.234-.022a.43.43 0 0 1 .173-.08c.025 0 .062.023.111.057v.057c.235 0 .494-.057.716-.137.235-.056.408-.102.58-.102.062 0 .087 0 .087-.056 0-.023 0-.057.024-.057.062-.023.112-.023.173.023.025.056.062.079.087.079.062 0 .148 0 .197-.057.025 0 .087-.022.198-.056.234-.023.457-.08.753-.137.235-.056.518-.079.802-.102 0-.158 0-.317-.061-.419a.515.515 0 0 1-.087-.295c-.024-.057-.061-.102-.061-.102l-.062-.023a1.187 1.187 0 0 1-.173-.613c-.062-.215-.111-.34-.235-.453-.024 0-.024-.057 0-.103v-.102l-.111-.102c-.061 0-.111-.056-.148-.136-.062-.102-.062-.238-.062-.374 0-.102-.024-.238-.061-.34-.025-.023-.062-.08-.111-.137-.087-.022-.149-.056-.149-.102a.592.592 0 0 1-.148-.397 1.536 1.536 0 0 0-.111-.317c-.062-.023-.086-.08-.148-.136-.062-.023-.111-.057-.111-.103a3.738 3.738 0 0 1-.346-.658c-.111-.215-.197-.419-.321-.635-.111-.022-.173-.079-.173-.136a.401.401 0 0 0-.197-.102c-.284.295-.494.613-.605.953a2.661 2.661 0 0 1-.692.93v.613l.05-.023z" fill="#fff"/>
        <path fill-rule="evenodd" clip-rule="evenodd" d="M493.969 261.758c0-.322.272-.582.607-.582h108.152c.336 0 .608.26.608.582a.596.596 0 0 1-.608.582H494.576a.595.595 0 0 1-.607-.582zM347.539 104.613c.672 0 1.216.521 1.216 1.164v116.4c0 .643-.544 1.164-1.216 1.164-.671 0-1.215-.521-1.215-1.164v-116.4c0-.643.544-1.164 1.215-1.164z" fill="#fff"/>
        <path fill-rule="evenodd" clip-rule="evenodd" d="M329.309 207.045c0-.643.544-1.164 1.215-1.164h139.747c.671 0 1.215.521 1.215 1.164 0 .643-.544 1.164-1.215 1.164H330.524c-.671 0-1.215-.521-1.215-1.164z" fill="#fff"/>
        <path fill-rule="evenodd" clip-rule="evenodd" d="M502.433 149.799a.573.573 0 0 1-.349.752l-179.848 66.348a.616.616 0 0 1-.785-.334.573.573 0 0 1 .349-.752l179.848-66.348a.616.616 0 0 1 .785.334z" fill="#fff"/>
        <path fill-rule="evenodd" clip-rule="evenodd" d="M362.119 123.82c.336 0 .608.261.608.582 0 40.832 36.123 73.914 80.81 73.914.336 0 .608.261.608.582a.596.596 0 0 1-.608.582c-45.305 0-82.025-33.553-82.025-75.078 0-.321.272-.582.607-.582z" fill="#fff"/>
        <path d="M498.774 140.063c.114.785.17 1.628.216 2.494.022.888.034 1.766.056 2.677 0 .093.034.116.08.035.022-.035.056-.058.102-.035v.116c-.023.081 0 .104.079.058.034.08.034.138 0 .173a.415.415 0 0 0-.079.104c0 .034.022.138.079.3.034.173.034.334 0 .496-.034.081-.034.138-.034.173 0 .058 0 .173.034.358 0 .081.023.138.057.173 0 .058.022.115.022.173.023.081.023.116-.022.116a.19.19 0 0 0-.057.138l.034.023s.034.058.034.081c.023.081.034.196.057.335a.936.936 0 0 1-.057.358c-.079-.024-.113-.024-.113.023-.034.057-.034.115-.034.161-.159.035-.216.023-.17-.104v-.254c-.08.035-.136.081-.136.093-.034.034-.034.104-.023.138 0 .058 0 .116.023.162 0 .081-.023.138-.034.219a.715.715 0 0 1-.159-.161c-.057-.035-.159-.035-.295-.024a.23.23 0 0 1-.022-.173.506.506 0 0 0-.057-.173.373.373 0 0 0-.159-.138.409.409 0 0 1-.192-.116c-.057-.415-.091-.831-.136-1.258a5.98 5.98 0 0 1-.034-1.373.238.238 0 0 0-.159.23c-.034.116-.079.22-.113.301-.023.034-.034.057-.057.08-.034.035-.08.081-.091.104-.057.081-.091.162-.136.231-.034.104-.113.196-.215.3-.114.116-.193.173-.25.219a.928.928 0 0 1-.351.139c-.057.023-.079.035-.057.035 0 .023 0 .034.023.034 0 .035 0 .058.023.081 0 .035-.034.058-.08.092a1.374 1.374 0 0 0-.464.173.592.592 0 0 0-.306.358c-.284 0-.544.023-.771.093-.193 0-.272.08-.272.23-.057 0-.091-.023-.114-.057a.121.121 0 0 1-.056-.104c-.034-.023-.057-.035-.091-.081h-.159a.39.39 0 0 1-.192-.161.437.437 0 0 0-.306-.024 21.043 21.043 0 0 1-.159-.161c-.057-.035-.091-.104-.113-.196-.136-.081-.25-.104-.329-.058-.091.035-.193.035-.272-.035.023-.115 0-.173-.034-.196-.079 0-.113-.035-.136-.162a.325.325 0 0 1-.023-.196c0-.034-.034-.115-.079-.231 0-.023-.023-.034-.034-.034-.034.023-.034 0-.034-.058 0-.023-.023-.035-.057-.081-.034 0-.056-.034-.034-.104 0 0 .023-.023.057-.023.023 0 .034-.023.034-.057-.023 0-.034 0-.034-.023-.023 0-.034-.024-.034-.024l-.023-.034s-.023-.139-.057-.254a1.131 1.131 0 0 1-.113-.277 3.212 3.212 0 0 1 0-.808c0-.058.023-.092.057-.139 0 0 .022-.034.034-.115v-.277a.395.395 0 0 1 0-.231 2.37 2.37 0 0 1 .113-.508c.034-.161.102-.311.136-.473.023-.081.034-.173.057-.277 0-.081 0-.162.034-.231 0-.034.057-.081.136-.138.079-.035.079-.162.034-.312.079-.023.136-.081.193-.162.034-.057.102-.115.158-.196.091-.138.193-.254.272-.358.057-.08.17-.196.329-.357.034-.035.091-.081.136-.139a.358.358 0 0 1 .113-.115.24.24 0 0 1 .136-.035c.034 0 .08 0 .114-.035.022-.023.034-.057.056-.104 0-.023 0-.034.034-.08s.091-.058.17-.104c.057-.023.114-.035.17-.081a.912.912 0 0 0 .091-.104l.08-.081a.957.957 0 0 1 .238-.138c.09-.035.192-.081.283-.116.079-.034.193-.057.306-.103.091-.024.193-.035.283-.081h.102s.057.023.08 0c.034-.058.056-.081.056-.058-.022.035-.022.058.023.058.272-.023.578-.023.907 0 .306.034.578.161.816.358.023 0 .057-.035.091-.116.022-.058.034-.081.079-.058.023.023.079.035.159.081.056.035.158.035.294 0 .034.116.136.173.25.173l-.012.023zm-3.105.785c-.114.093-.216.197-.306.277-.114.116-.216.22-.295.335a.52.52 0 0 0-.363.139c-.113.103-.193.173-.227.219-.09.104-.158.173-.158.254a1.313 1.313 0 0 1-.114.277l-.034.034-.034.058a1.193 1.193 0 0 0-.158.439.474.474 0 0 1-.272.358.736.736 0 0 1 0 .311c-.034.116-.057.219-.091.3-.034.116-.079.22-.102.3a1.15 1.15 0 0 0-.057.312c0 .035 0 .081.034.081 0 .034.023.058.034.104.023.115.034.219.057.277 0 .081 0 .138.034.161.023.116.034.173.057.173 0 .024.034.058.113.093v.081s-.034.08 0 .103c.023.035.057.104.136.139a.549.549 0 0 0 .102.115c.215.22.442.335.68.335.238.035.465.023.714-.058.023 0 .057-.034.102-.103.023-.035.034-.058.08-.081h.079c.079 0 .136-.058.17-.139a.42.42 0 0 1 .091-.138 1.63 1.63 0 0 1 .294-.173c.08-.035.136-.104.136-.174 0-.034.023-.057.034-.057 0 .023.023.023.057-.023a.886.886 0 0 0 .079-.231c0-.081.034-.173.091-.3 0-.023.023-.058.079-.104.034-.023.057-.035.091-.081v-.081s-.023-.034 0-.081c.023-.103.057-.196.113-.311.034-.104.091-.196.136-.312l.17-.438s0-.058.034-.058c.023 0 .034 0 .057-.035.023-.138.034-.3.034-.496 0-.162 0-.312.034-.473 0-.058.023-.104.057-.116l-.057-.057s-.023-.035.034-.081h.057v-.277a.567.567 0 0 1 .136-.508c.034-.081.023-.162-.079-.277a3.59 3.59 0 0 0-.964-.104c-.329.035-.635.081-.929.104l.034-.012zM448.522 201.21c0-.103 0-.172-.026-.217-.039-.023-.065-.057-.091-.137-.065.022-.091.057-.065.102 0 .058-.026.115-.026.16-.156 0-.246-.057-.246-.194a1.588 1.588 0 0 0-.156-.331c-.039-.023-.039-.034-.026-.057 0 0-.026 0-.091-.023-.052 0-.052-.023-.052-.057a.2.2 0 0 1-.039-.114c-.026-.035-.052-.08-.052-.115-.026-.034-.038-.08-.064-.137 0-.034-.026-.091-.026-.16-.026-.034-.039-.137-.039-.274v-.171c-.091-.035-.091-.092-.039-.172.026-.08.039-.194.039-.354l-.117-.777a.77.77 0 0 1-.039-.194c-.052-.034-.052-.08-.052-.16a.14.14 0 0 1 0-.171c0-.023 0-.035.052-.08.026-.023.039-.023.039-.023 0-.023-.026-.034-.039-.08-.052 0-.052-.034-.052-.103a.568.568 0 0 1 0-.297v-.308a1.99 1.99 0 0 1-.091-.366c-.052-.114-.065-.297-.026-.491 0-.08.026-.16.065-.194 0-.035.026-.08.039-.16 0-.08-.026-.137-.065-.172-.039-.023-.065-.08-.039-.171 0 0 .026 0 .039-.023.026-.023.052-.034.065-.08 0-.114-.026-.274-.026-.468a1.358 1.358 0 0 1 .026-.56c0-.091 0-.171.052-.217 0-.023.026-.057.039-.137 0-.08-.026-.114-.039-.16-.052 0-.065-.034-.052-.114 0-.08 0-.16.052-.252a.884.884 0 0 0 .039-.274c-.026-.16-.026-.308-.026-.434-.026-.103-.026-.229.026-.434v-.274a.417.417 0 0 1 0-.252c0-.034.026-.057.065-.08.026 0 .039-.034.039-.103 0 .023-.026.023-.039-.022-.052 0-.065-.023-.065-.058 0-.08 0-.171.052-.331 0-.137.026-.297.039-.468v-.503a1.132 1.132 0 0 0-.182-.445c0-.08.052-.16.091-.252.052-.08.065-.171.117-.251a.847.847 0 0 0 .039-.251c0-.08.052-.138.129-.172 0-.057.039-.091.104-.091.052.023.091 0 .091-.08.052.034.117.08.195.08 0 .023.038.023.116 0h.091s.065.057.117.08c.026.034.052.08.091.103v.102s-.039.08 0 .08h.09c.026.057.065.16.117.297.026.16.039.252.091.309l.117.354c.052.171.065.308.091.434.025.229.025.446 0 .64a1.462 1.462 0 0 0 0 .583c.064 0 .116-.035.116-.115-.026-.034-.026-.091 0-.16a.66.66 0 0 1 .13.297c0 .16-.026.297-.039.412-.052.08-.065.251-.091.491a1.675 1.675 0 0 0 0 .72 8.513 8.513 0 0 0 1.194-.137c.35-.058.752-.08 1.167-.035.091.035.195.057.35.08.13.035.247.057.338.103.039.034.091.034.129.034.026.023.065.035.156.057.052.023.13.058.273.103.116.08.22.115.337.16.065.035.13.103.194.137.052.08.117.115.195.137a.554.554 0 0 0 .285.092c.091.034.156.057.195.08a.98.98 0 0 1 .117.114c0 .08.039.114.09.137.026.034.065.034.156.034.065.023.104.035.156.058v.08s-.052.079 0 .091c0 .023.039.034.104.034.051.023.064.034.09.034.026.058.052.092.052.138 0 .045 0 .08.039.114.026.034.065.08.117.091.026.034.039.057.091.08.065.08.104.16.155.217.026.08.065.172.156.309 0 .034.026.103.091.171a.55.55 0 0 1 .039.217c-.026.114 0 .194.065.229.026.034.052.057.064.057 0 .023.001.057.026.114l.117.411c0 .16.026.252.039.309 0 .08 0 .217-.039.388-.026.034-.039.057-.065.08l-.052.023c-.025.08 0 .137.052.217.039.08.065.16.065.217-.026.023-.039.023-.065.023-.052.023-.052.034-.052.08-.025.103-.038.171-.09.228-.039.08-.091.172-.104.275a.454.454 0 0 0-.065.251c-.026.091-.065.16-.13.194v.172s-.091.034-.129-.023c-.052-.023-.065-.035-.065-.08-.091.034-.091.057-.026.103a.203.203 0 0 1 .026.171c-.026.023-.065.034-.13.034-.091.023-.104.057-.065.137a.597.597 0 0 0-.285.172c-.091.08-.195.171-.312.251-.051.034-.051.057-.026.057 0 .023-.025.034-.064.034-.091 0-.117.023-.091.057 0 .058 0 .103-.026.115-.026.011-.039.023-.091-.023-.039 0-.091 0-.091.023a2.04 2.04 0 0 0-.181.194c-.091.114-.156.194-.221.217-.091.034-.181.08-.272.091-.104.035-.221.058-.325.08a5.047 5.047 0 0 1-.285.08c-.117.035-.22.08-.311.103-.13.034-.221.057-.286.08-.09.034-.194.08-.285.092-.091.034-.156.034-.195 0h-.194c-.273.08-.558.114-.908.114a3.09 3.09 0 0 1-.882-.023c-.117.034-.182 0-.182-.08-.026-.057-.026-.114-.026-.194-.13.114-.272.114-.402 0-.065 0-.091.023-.091.057v.114c0 .057-.026.103-.026.114-.052.035-.091.023-.181-.022l.013.034zm3.45-1.908s.091-.034.156-.08c.052 0 .091-.023.129-.023.065 0 .091 0 .091-.034-.026-.023-.026-.034.026-.034.13-.058.273-.115.415-.172.13-.034.247-.103.377-.171.038-.023.09-.057.155-.114a1.02 1.02 0 0 0 .13-.16c.13-.115.22-.217.272-.297 0-.08.039-.172.13-.309l.091-.08c.181-.251.285-.548.285-.88-.026-.308-.039-.605-.091-.856a1.422 1.422 0 0 1-.064-.332c-.026-.034-.065-.103-.13-.194-.065-.103-.117-.171-.13-.251-.052-.057-.117-.114-.156-.194h-.09s-.091.034-.117 0c-.039 0-.039-.035-.039-.08-.026-.035-.052-.058-.052-.092a.274.274 0 0 0-.13-.034c-.064 0-.129 0-.181-.034-.052 0-.052-.035-.052-.08 0-.046-.026-.057-.039-.103a.382.382 0 0 0-.156-.034c-.065 0-.116 0-.155-.035a.275.275 0 0 1-.091-.057c-.039 0-.091 0-.117-.034-.026-.023-.026-.057.026-.103 0-.023 0-.034-.026-.08h-.091s-.09.023-.103 0a.913.913 0 0 0-.195-.034c-.065 0-.13 0-.195-.034-.129-.058-.194-.092-.194-.115a.71.71 0 0 0-.182.023c-.091.034-.13.034-.168 0-.052-.023-.091-.034-.117-.08-.052-.023-.065-.023-.091.023-.039.034-.039.057-.026.057-.091 0-.13-.023-.13-.057-.052-.023-.09 0-.155.057-.026.023-.065.023-.13 0h-.169s-.065.023-.065.034c0 .035-.026.058-.026.058-.051.022-.09.022-.129-.023-.065 0-.13 0-.169.023-.026 0-.052.022-.091.057-.052.057-.09.102-.116.114-.156.08-.286.114-.416.16l-.467.171c-.038.857-.025 1.657.065 2.399.052.766.091 1.543.13 2.32.506.08.999.08 1.479.022a8.386 8.386 0 0 0 1.284-.194v-.034z" fill="#fff"/>
        <path fill-rule="evenodd" clip-rule="evenodd" d="M359.685 179.693c-58.894 0-106.329 37.332-106.329 83.226a.596.596 0 0 1-.608.582.595.595 0 0 1-.607-.582c0-46.745 48.218-84.39 107.544-84.39.336 0 .608.261.608.582a.595.595 0 0 1-.608.582z" fill="#fff"/>
        <path fill-rule="evenodd" clip-rule="evenodd" d="M351.423 171.78a.626.626 0 0 1 .85-.121l10.204 7.248a.57.57 0 0 1 .242.534.587.587 0 0 1-.362.468l-13.367 5.556a.619.619 0 0 1-.799-.302.573.573 0 0 1 .316-.766l12.401-5.155-9.359-6.648a.566.566 0 0 1-.126-.814zM574.093 129.648a.602.602 0 0 1 .668.517c2.523 22.81-2.718 48.109-16.48 71.352a.624.624 0 0 1-.829.22.57.57 0 0 1-.228-.794c13.643-23.041 18.823-48.098 16.328-70.655a.59.59 0 0 1 .541-.64z" fill="#fff"/>
        <path fill-rule="evenodd" clip-rule="evenodd" d="M558.034 187.849a.588.588 0 0 1 .545.636l-1.327 12.964 9.979-4.336a.618.618 0 0 1 .804.29.572.572 0 0 1-.302.77l-10.937 4.753a.63.63 0 0 1-.605-.057.574.574 0 0 1-.251-.53l1.43-13.968a.6.6 0 0 1 .664-.522z" fill="#fff"/>
        <path d="M410.737 211.078c0 1.93-2.181 3.492-4.861 3.492-2.68 0-4.86-1.562-4.86-3.492s2.18-3.492 4.86-3.492 4.861 1.562 4.861 3.492z" fill="#CB9A1E"/>
        <path d="M415.505 211.085h-20.464c-.701 0-1.292-.514-1.329-1.164l-1.192-22.116h25.519l-1.193 22.116c-.037.65-.615 1.164-1.329 1.164h-.012z" fill="#EEB420"/>
        <path d="M418.112 198.275h-25.68c-1.298 0-2.35.945-2.35 2.111v1.599c0 1.166 1.052 2.11 2.35 2.11h25.68c1.298 0 2.35-.944 2.35-2.11v-1.599c0-1.166-1.052-2.111-2.35-2.111z" fill="#FFC93F"/>
        <path d="M427.755 163.755c0-12.306-10.963-22.176-24.131-21.294-11.062.753-19.994 9.247-20.774 19.753-.496 6.706 2.279 12.8 6.949 17.012 2.366 2.141 3.964 4.929 4.361 8.011l.074.565h22.062l.062-.494c.409-3.118 2.007-5.941 4.41-8.106 4.299-3.882 6.975-9.376 6.975-15.447h.012z" fill="#FEC"/>
        <path d="M418.112 185.473h-25.68c-1.298 0-2.35.944-2.35 2.11v1.599c0 1.166 1.052 2.111 2.35 2.111h25.68c1.298 0 2.35-.945 2.35-2.111v-1.599c0-1.166-1.052-2.11-2.35-2.11z" fill="#FFC93F"/>
        <path d="M398.316 168.95c.439-1.233 1.028-2.404 1.806-3.464.339-.469 1.142-1.468 1.769-.863.628.604.151 1.615-.125 2.231a8.645 8.645 0 0 1-.866 1.517c-.163.221-.451.665-.188.172.176-.345.339-.678.527-1.011.627-1.06 1.455-2.096 2.459-2.848 1.619-1.22 2.033 1.036 2.008 2.195-.013.616-.113 1.331-.402 1.886-.163.308-.728.863-.953.222-.113-.345.251-.838.426-1.11.678-1.011 1.631-2.058 2.723-2.65.364-.198.928-.37 1.292-.037.251.222.264.665.276.961 0 .715-.088 1.443-.263 2.133-.05.185-.264 1.122-.427.95-.188-.21.101-.753.201-.999a6.105 6.105 0 0 1 1.041-1.603 6.18 6.18 0 0 1 3.212-1.861c.59-.136.339-1.024-.251-.888-1.919.444-3.613 1.677-4.567 3.378-.414.727-1.003 1.886-.426 2.663.577.777 1.443.345 1.781-.358.477-1.011.665-2.391.628-3.513-.038-.9-.414-1.739-1.393-1.924-.979-.184-1.895.457-2.622 1.061-.879.715-1.719 1.627-2.259 2.613-.376.691-.514 1.64.201 2.183.715.542 1.694.098 2.12-.604.879-1.455 1.029-4.513-.464-5.672-1.756-1.356-3.902 1.504-4.755 2.737-.452.654-1.368 1.85-1.129 2.713.238.863 1.154.752 1.643.197.803-.912 1.519-2.244 1.719-3.44.163-.925-.175-2.059-1.204-2.33-1.104-.296-1.983.666-2.56 1.455a14.287 14.287 0 0 0-1.894 3.686c-.201.567.715.801.903.247l.013-.025z" fill="#FFB23E"/>
        <path fill-rule="evenodd" clip-rule="evenodd" d="M405.885 125.525c1.007 0 1.823.782 1.823 1.746v6.984c0 .965-.816 1.746-1.823 1.746-1.006 0-1.823-.781-1.823-1.746v-6.984c0-.964.817-1.746 1.823-1.746zM390.358 128.101c.863-.496 1.983-.228 2.501.599l3.645 5.819c.518.827.238 1.9-.625 2.396s-1.983.228-2.501-.599l-3.645-5.82c-.518-.827-.238-1.899.625-2.395zM378.67 137.1c.374-.895 1.435-1.331 2.369-.973l6.076 2.328c.935.358 1.39 1.375 1.016 2.27-.374.895-1.435 1.331-2.37.973l-6.076-2.328c-.934-.359-1.389-1.375-1.015-2.27zM421.403 128.101c.863.496 1.143 1.568.625 2.395l-3.646 5.82c-.518.827-1.637 1.095-2.501.599-.863-.496-1.143-1.569-.625-2.396l3.646-5.819c.518-.827 1.637-1.095 2.501-.599zM433.096 137.1c.373.895-.081 1.911-1.016 2.27l-6.076 2.328c-.935.358-1.995-.078-2.369-.973-.374-.895.081-1.912 1.015-2.27l6.076-2.328c.935-.358 1.996.078 2.37.973z" fill="#fff"/>
        <path d="m693 212.341-34.066-19.285-8.26-12.927-69.904 11.655-1.747 8.762-2.309-6.394-35.044 8.96c-9.775 2.497-17.741 9.252-21.505 18.212l-42.02 100.252c-7.405 17.663 9.347 35.863 28.641 31.126l16.104-3.955-1.368 101.816h182.622V289.317l8.736-29.575c5.401-18.27-2.749-37.73-19.856-47.413l-.024.012z" fill="#4883F7"/>
        <path d="m588.152 157.425 4.004 23.507-3.39 25.257 8.462 25.84 6.14-25.549 37.038-37.074-8.449-46.793-43.805 34.812z" fill="#FCDDD5"/>
        <path d="M591.764 188.962s29.376-.571 38.915-41.903l-40.101 24.335 1.186 17.568z" fill="#F3BCAD"/>
        <path d="m556.28 108.024 2.461 6.734a31.654 31.654 0 0 1 1.86 13.051 44.303 44.303 0 0 0 5.472 24.511c10.013 18.044 20.247 21.005 38.988 18.323 32.769-4.703 32.916-68.32 32.916-68.32l-27.591-37.91-57.472 20.632.881 22.642 2.473.337h.012z" fill="#FCDDD5"/>
        <path d="m544.406 246.505 11.891 135.681 96.261 9.311-7.736-146.663-100.416 1.671z" fill="#5BCCA0"/>
        <path d="m508.593 114.76 96.4 289.635c.611 1.843-.452 3.815-2.383 4.398-1.931.583-3.996-.432-4.607-2.275L504.402 116.02c-.355-1.108.293-2.286 1.454-2.625 1.148-.338 2.37.28 2.737 1.365z" fill="#fff"/>
        <path d="m556.669 315.838-41.419 26.694 127.42 36.006c17.863 5.046 36.601-4.825 41.663-21.962l8.335-28.217-135.987-12.521h-.012z" fill="#FCDDD5"/>
        <path d="M612.268 69.16s5.805 11.62 7.084 24.51c.362 3.668 3.101 6.836 6.854 7.523 1.122.209 2.269.186 3.318-.233 0 0 1.074 18.142 6.456 18.165 11.163.047 15.869-15.813 13.6-32.301-2.268-16.489-9.762-35.993-26.5-32.465-16.737 3.529-10.812 14.8-10.812 14.8z" fill="#1E1E1E"/>
        <path d="M647.703 108.645s-1.221 35.765-11.433 37.247l-1.934-13.076 13.367-24.171z" fill="#1E1E1E"/>
        <path d="m603.949 205.861 15.483 12.2 33.572-38.059a3.043 3.043 0 0 0-.144-4.192l-11.663-11.511-1.814-.945.793 5.405-36.227 37.102zM569.918 219.232l18.668-14.075 3.205-25.518-.968-5.803-11.326 6.829c-1.949 1.177-3.288 3.104-3.683 5.296l-5.896 33.259v.012z" fill="#24353F"/>
        <path d="m511.605 300.703 111.798 22.374-111.798 27.678v-50.052z" fill="#FCDDD5"/>
        <path d="M536.785 660h160.4L699 450H531l5.785 210z" fill="#126085"/>
        <path d="M597.208 136.638c1.337-.259 2.59.516 2.722 1.667.928 8.31.819 14.884-8.419 16.645-8.406 1.596-11.875-4.297-14.224-12.337-.325-1.116.542-2.289 1.879-2.548l18.042-3.439v.012z" fill="#EF808E"/>
        <path fill-rule="evenodd" clip-rule="evenodd" d="M579.166 140.065c-1.337.259-2.204 1.432-1.879 2.548 2.349 8.04 5.818 13.933 14.224 12.337 9.238-1.761 9.347-8.335 8.419-16.645-.097-.846-.8-1.489-1.696-1.667a2.673 2.673 0 0 0-1.023-.001l-.003.001v-.012l-18.042 3.439zm16.827-2.021-16.587 3.162-.001.001c-.801.155-1.042.769-.947 1.092 1.166 3.994 2.559 7.242 4.559 9.304.982 1.011 2.099 1.725 3.412 2.11 1.317.387 2.902.464 4.846.095m4.718-15.764v.016l1.455-.281c.783-.152 1.234.316 1.274.652.467 4.182.626 7.647-.336 10.266-.467 1.272-1.195 2.328-2.291 3.169-1.106.849-2.65 1.528-4.82 1.942" fill="#161616"/>
        <path d="M574.689 126.259c.359 2.24-.393 4.248-1.687 4.48-1.295.233-2.636-1.395-2.995-3.623-.358-2.24.393-4.248 1.688-4.481 1.295-.232 2.636 1.396 2.994 3.624zM601.432 120.44c.358 2.241-.393 4.248-1.688 4.481-1.295.232-2.636-1.396-2.995-3.624-.358-2.228.394-4.247 1.688-4.48 1.295-.233 2.636 1.396 2.995 3.623z" fill="#161616"/>
        <path d="M605.963 109.721c-.683-.633-1.999-1-3.315-1.062-1.315-.071-2.631.123-3.873.388-1.713.378-3.326.898-4.754 1.551-.422.194-.906.46-.993.786-.087.317.286.643.894.643.335 0 .645-.081.943-.163.584-.143 1.266-.204 1.9-.245.235-.041.484-.051.72-.041.732-.01 1.464 0 2.172.092.993.122 1.949.347 2.954.429 1.006.091 2.123.03 2.905-.337 1.005-.48 1.117-1.398.434-2.031l.013-.01zM564.02 116.851c.447-.871 1.531-1.566 2.686-1.945s2.38-.454 3.546-.442c1.615.025 3.182.253 4.619.657.424.126.919.316 1.084.644.153.341-.094.783-.636.922-.295.076-.601.051-.884.038-.554-.038-1.178.05-1.756.151a2.84 2.84 0 0 0-.648.114c-.659.152-1.296.328-1.908.594-.86.366-1.65.821-2.522 1.149-.871.328-1.885.518-2.662.278-1.014-.316-1.343-1.314-.896-2.172l-.023.012z" fill="#3A3A3A"/>
        <path fill-rule="evenodd" clip-rule="evenodd" d="M584.581 122.047c.328.07.534.381.461.695l-2.347 10.076c-.105.447.301.909.85.85l5.697-1.083a.607.607 0 0 1 .715.458.584.584 0 0 1-.478.684l-5.739 1.091-.02.002c-1.34.169-2.514-.965-2.211-2.257 0-.001 0 0 0 0l2.347-10.074a.609.609 0 0 1 .725-.442z" fill="#333232"/>
        <path d="M647.941 124.722c4.53-7.516 3.725-16.085-1.796-19.14-5.521-3.054-13.669.564-18.198 8.08s-3.725 16.085 1.796 19.139c5.521 3.055 13.669-.563 18.198-8.079zM540.159 290.231l-9.925-23.939c-1.15-2.791.226-5.964 3.071-7.088 2.858-1.135 6.107.22 7.257 3l9.924 23.938-10.339 4.089h.012z" fill="#FCDDD5"/>
        <path d="m528.932 292.547-15.137-21.64c-1.764-2.521-1.088-5.946 1.51-7.659 2.597-1.712 6.125-1.055 7.889 1.467l15.137 21.639-9.399 6.205v-.012z" fill="#FFCEC1"/>
        <path d="m522.862 301.858-15.138-21.64c-1.763-2.522-1.087-5.947 1.511-7.659 2.597-1.712 6.125-1.056 7.889 1.466l15.137 21.64-9.399 6.204v-.011z" fill="#FFCEC1"/>
        <path d="m516.469 308.854-13.7-19.145c-1.6-2.234-.982-5.262 1.358-6.781 2.352-1.52 5.541-.933 7.141 1.289l13.7 19.145-8.499 5.492z" fill="#FFCEC1"/>
        <path d="m543.298 269.291 11.198 18.011a53.167 53.167 0 0 1 5.507 11.893l3.846 11.988-47.392-9.463 12.883-17.283 7.449.329 6.496-15.487.013.012z" fill="#FCDDD5"/>
        <path fill-rule="evenodd" clip-rule="evenodd" d="M516.145 273.44a.624.624 0 0 1 .837.185l12.152 18.624a.567.567 0 0 1-.193.802.623.623 0 0 1-.837-.185l-12.152-18.624a.567.567 0 0 1 .193-.802zM511.266 283.919a.625.625 0 0 1 .839.179l8.506 12.804a.567.567 0 0 1-.186.803.623.623 0 0 1-.839-.178l-8.507-12.804a.569.569 0 0 1 .187-.804z" fill="#EF808E"/>
        <path fill-rule="evenodd" clip-rule="evenodd" d="M514.636 304.107a.606.606 0 0 1 .695-.485l46.178 6.984a.587.587 0 0 1 .505.666.605.605 0 0 1-.695.484l-46.177-6.984a.586.586 0 0 1-.506-.665z" fill="#333332"/>
        <path d="M611.25 76.583s-.061 28.038 18.74 24.824c18.813-3.225-16.117-34.663-16.117-34.663l-2.623 9.84z" fill="#1E1E1E"/>
        <path d="m625.727 65.051-1.965-10.586c-36.964-13.877-64.3 1.686-71.479 28.081-7.18 26.396 9.362 41.233 9.362 41.233l-.728-5.059-.739-2.202c-1.104-3.805-2.608-11.652 1.916-16.277 1.346.574 2.971 1.042 4.936 1.347 22.023 3.407 35.533-12.495 40.882-20.6 1.952 6.395 7.579 20.857 18.603 20.857.037 3.525.546 12.484 4.888 12.519 5.408.047 2.292-5.621 4.39-7.284 1.297-1.031-.425-4.837-1.916-7.589 9.677-8.174-8.15-34.428-8.15-34.428v-.012z" fill="#1E1E1E"/>
        <path d="M594.234 317.004h35.241l-1.797 5.02-28.126.8-5.318-5.82z" fill="#FCDDD5"/>
        <path fill-rule="evenodd" clip-rule="evenodd" d="M594.539 462.001a.57.57 0 0 1 .586.557L603 659.394a.575.575 0 0 1-.539.605.57.57 0 0 1-.586-.557L594 462.606a.575.575 0 0 1 .539-.605z" fill="#072A38"/>
        <path fill-rule="evenodd" clip-rule="evenodd" d="m589.663 126.073-9.722 2.328-.589-2.259 9.721-2.328.59 2.259zM632.446 108.386a.57.57 0 0 1-.271.781l-21.874 10.476a.62.62 0 0 1-.815-.26.571.571 0 0 1 .272-.781l21.873-10.476a.62.62 0 0 1 .815.26z" fill="#5B5B5B"/>
        <path fill-rule="evenodd" clip-rule="evenodd" d="M592.465 119.988c-1.3 1.587-1.793 3.385-1.345 5.047.448 1.662 1.788 3.006 3.727 3.791 1.941.786 4.428.983 6.99.35 2.561-.634 4.638-1.96 5.939-3.548 1.299-1.587 1.793-3.385 1.345-5.047-.448-1.662-1.788-3.006-3.728-3.792-1.94-.786-4.427-.983-6.989-.349-2.562.634-4.638 1.96-5.939 3.548zm-1.625-1.221c1.604-1.959 4.086-3.51 7.048-4.243 2.961-.733 5.916-.527 8.31.443 2.395.97 4.281 2.735 4.923 5.119.643 2.384-.115 4.803-1.72 6.763-1.604 1.959-4.086 3.51-7.048 4.243-2.962.732-5.917.527-8.31-.443-2.395-.97-4.281-2.735-4.924-5.119-.642-2.384.116-4.803 1.721-6.763zM563.858 123.288c-1.673 1.225-2.62 2.848-2.62 4.564 0 1.717.947 3.339 2.62 4.564 1.673 1.226 4.03 2.013 6.676 2.013s5.003-.787 6.676-2.013c1.673-1.225 2.62-2.847 2.62-4.564 0-1.716-.947-3.339-2.62-4.564-1.673-1.226-4.03-2.012-6.676-2.012s-5.003.786-6.676 2.012zm-1.255-1.572c2.064-1.512 4.872-2.419 7.931-2.419s5.866.907 7.931 2.419c2.066 1.513 3.431 3.674 3.431 6.136 0 2.463-1.365 4.623-3.431 6.136-2.065 1.513-4.872 2.42-7.931 2.42s-5.867-.907-7.931-2.42c-2.066-1.513-3.431-3.673-3.431-6.136 0-2.462 1.365-4.623 3.431-6.136z" fill="#5B5B5B"/>
        <path fill-rule="evenodd" clip-rule="evenodd" d="M622.765 322.666a.58.58 0 0 1-.427.714l-85.063 22.116a.612.612 0 0 1-.746-.409.58.58 0 0 1 .427-.714l85.064-22.116a.61.61 0 0 1 .745.409z" fill="#333332"/>
        <path fill-rule="evenodd" clip-rule="evenodd" d="M643.299 108.28a.564.564 0 0 1-.078.819l-7.291 5.82a.626.626 0 0 1-.856-.074.566.566 0 0 1 .078-.82l7.291-5.82a.626.626 0 0 1 .856.075z" fill="#333232"/>
        <path fill-rule="evenodd" clip-rule="evenodd" d="M641.016 109.799a.596.596 0 0 1 .621-.568c1.703.037 2.924.721 3.761 1.731.817.987 1.245 2.254 1.467 3.456.223 1.209.246 2.404.216 3.29a16.689 16.689 0 0 1-.114 1.464l-.003.023-.001.006v.002l-.602-.079.602.079a.604.604 0 0 1-.685.498.587.587 0 0 1-.519-.656l.001-.004.002-.017a10.75 10.75 0 0 0 .039-.348c.024-.242.051-.589.065-1.007.029-.839.005-1.947-.198-3.049-.205-1.109-.582-2.162-1.222-2.934-.62-.749-1.507-1.262-2.837-1.292a.593.593 0 0 1-.593-.595z" fill="#333232"/>
        <path fill-rule="evenodd" clip-rule="evenodd" d="M650.52 182.701c.254.21.283.577.064.821l-31.324 34.92a.627.627 0 0 1-.858.061l-11.207-9.262a.565.565 0 0 1-.063-.821.627.627 0 0 1 .857-.06l10.746 8.881 30.928-34.478a.627.627 0 0 1 .857-.062zM574.071 195.371a.585.585 0 0 1 .499.67l-3.781 21.736 13.881-10.661a.63.63 0 0 1 .557-.102c.192.056.343.2.403.383l7.967 24.459a.578.578 0 0 1-.399.729.613.613 0 0 1-.761-.382l-7.702-23.645-14.427 11.08a.629.629 0 0 1-.687.048.572.572 0 0 1-.292-.598l4.043-23.238a.605.605 0 0 1 .699-.479zM652.61 233.779a.59.59 0 0 1 .557.627l-2.43 29.1a.6.6 0 0 1-.654.533.59.59 0 0 1-.558-.626l2.431-29.1a.6.6 0 0 1 .654-.534zM666.182 231.501a.574.574 0 0 1 .308.769l-9.722 20.952a.618.618 0 0 1-.802.295.573.573 0 0 1-.308-.768l9.722-20.952a.619.619 0 0 1 .802-.296z" fill="#333332"/>
        <path d="m126.033 173.831-2.054-14.669c-.446-3.22 2.796-5.863 6.124-4.929 3.056.855 6.62 2.978 9.54 7.86 6.545 10.976-13.61 11.738-13.61 11.738z" fill="#FFCEC1"/>
        <path d="m167.228 199.261-11.616 5.395c-.718.334-1.033 1.12-.705 1.756l2.042 3.956c.329.636 1.177.882 1.894.549l11.616-5.396c.718-.333 1.033-1.119.705-1.756l-2.042-3.955c-.329-.637-1.177-.883-1.894-.549z" fill="#565656"/>
        <path d="m119.086 144.732 18.588-8.634 32.224 62.424c.348.674.048 1.495-.668 1.828l-15.977 7.421c-.716.333-1.584.054-1.932-.62l-32.224-62.424-.011.005z" fill="#2181F5"/>
        <path d="m127.051 128.438-7.724 3.725-.241 12.57 18.228-8.774-10.263-7.521z" fill="#E6E6E6"/>
        <path d="m123.505 128.83-1.032.483c-1.458.68-3.232.104-3.948-1.278l-1.519-2.938c-.85-1.659-.134-3.653 1.616-4.471 1.749-.806 3.851-.126 4.713 1.533l1.519 2.938c.716 1.382.109 3.064-1.349 3.744v-.011z" fill="#0056D1"/>
        <path d="m125.509 124.882-7.654 3.556 2.155 4.173 7.654-3.555-2.155-4.174z" fill="#fff"/>
        <path d="m121.22 236.679-3.192-31.251a30.452 30.452 0 0 1 .393-8.899l3.818-19.683 10.425-14.694 12.892-2.272c1.72-.105 3.414.433 4.716 1.499l18.086 14.87c1.633 1.347 2.198 3.513 1.412 5.433l-3.769 9.168c-.614 1.487-2.1 2.483-3.77 2.529l-4.138.118-2.91 10.596c-.675 2.459-2.333 4.555-4.629 5.843l5.636 16.498-34.958 10.257-.012-.012z" fill="#FCDDD5"/>
        <path fill-rule="evenodd" clip-rule="evenodd" d="M163.434 176.086a.587.587 0 0 1-.521.655l-13.515 1.743h-.001a3.706 3.706 0 0 0-2.653 1.686l-.002.002-2.835 4.444a.624.624 0 0 1-.835.193.57.57 0 0 1-.202-.8l2.834-4.442.001-.001a4.924 4.924 0 0 1 3.526-2.235h.002l13.518-1.744a.604.604 0 0 1 .683.499zM158.56 170.208a.581.581 0 0 1-.453.699l-12.891 2.877-.001.001a3.57 3.57 0 0 0-1.952 1.195l-4.265 5.038a.627.627 0 0 1-.855.086.565.565 0 0 1-.089-.819l4.265-5.038a4.79 4.79 0 0 1 2.622-1.596l12.89-2.878a.608.608 0 0 1 .729.435zM151.28 165.581a.584.584 0 0 1-.486.679l-11.616 2.068h-.002a3.758 3.758 0 0 0-2.147 1.198l-4.109 4.684a.626.626 0 0 1-.856.071.565.565 0 0 1-.074-.82l4.113-4.688a4.973 4.973 0 0 1 2.854-1.589l11.615-2.069c.33-.058.647.15.708.466zM159.282 187.227a.586.586 0 0 1 .5.67l-1.216 6.983a.605.605 0 0 1-.699.479.585.585 0 0 1-.499-.67l1.215-6.984a.605.605 0 0 1 .699-.478z" fill="#333232"/>
        <path fill-rule="evenodd" clip-rule="evenodd" d="M156.141 187.801c0-.322.272-.582.607-.582h7.291c.336 0 .608.26.608.582a.596.596 0 0 1-.608.582h-7.291a.595.595 0 0 1-.607-.582zM146.415 160.987a.59.59 0 0 1-.556.628l-7.45.592c-3.098.247-5.874 1.847-7.478 4.306l-6.479 9.962a.623.623 0 0 1-.837.186.569.569 0 0 1-.195-.802l6.48-9.962c1.813-2.779 4.94-4.573 8.408-4.85l7.451-.592a.602.602 0 0 1 .656.532zM152.407 209.612a.567.567 0 0 1-.193.801l-9.722 5.82a.622.622 0 0 1-.837-.185.568.568 0 0 1 .193-.802l9.722-5.82a.623.623 0 0 1 .837.186z" fill="#333232"/>
        <path d="m273.564 154.055 3.922 5.468c10.873 15.152.646 35.761-18.654 37.588l14.72-43.068.012.012z" fill="#1E1E1E"/>
        <path d="M341.191 348.772c11.634-42.848 4.683-86.115-.497-109.257-2.888-12.913-14.291-21.529-26.641-20.147l-11.525 1.289-34.333-1.429-71.843 11.369-6.077 2.821c-5.084 2.358-10.397 4.181-15.759 5.841-5.969 1.858-9.936 6.236-14.121 12.483l23.802 58.768-12.508-1.753-7.594 159.561 176.417-2.323-10.349-101.245c5.253-3.739 9.22-9.359 11.028-15.99v.012z" fill="#4883F7"/>
        <path d="m210.352 179.77 1.022 41.226-27.284 15.109s19.41 10.317 53.511 4.447c34.101-5.869 46.742-20.743 46.742-20.743l-30.264-4.414-2.336-16.628-44.178-34.247 2.787 15.239v.011z" fill="#FCDDD5"/>
        <path d="m252.533 204.446-32.594-18.973s-.853 26.756 34.024 29.1l-1.43-10.127z" fill="#F3BCAD"/>
        <path d="m273.448 160.742.254 1.32c1.784 9.38.656 19.147-3.7 27.721-4.453 8.785-11.721 17.395-26.913 16.589-29.448-1.542-38.937-54.579-38.937-54.579l21.356-37.674 33.258-3.142 8.979 7.64c4.198 3.574 6.88 8.504 7.535 13.854a76.218 76.218 0 0 1-1.832 28.259v.012z" fill="#FCDDD5"/>
        <path d="M256.105 117.895s-22.805-6.287-33.145 12.411c0 0-6.068 9.268-7.215 22.462 0 0 .988 8.952-5.409 8.952l-2.466-6.229 2.589 24.319.366 14.947c-17.409.748-32.071-12.446-32.193-29.123-.146-18.955 4.688-42.433 25.796-56.983 22.194-15.297 42.008-8.846 54.374-1.18 11.464 7.117 19.35 18.628 20.534 31.659.599 6.614-.439 14.07-5.188 21.187l.623-2.419c2.637-10.202 1.977-20.989-2.271-30.677-3.406-7.771-8.68-13.954-16.395-9.302v-.024z" fill="#1E1E1E"/>
        <path d="m155.543 660.383 7.749-192.598 187.858-5.281 9.76 197.879H155.543z" fill="#053977"/>
        <path d="m187.569 396.172 16.58-.058-8.321-30.225-11.926 4.97-28.225-2.897a6.945 6.945 0 0 0-3.277.475l-2.095-.359c-1.864-.324-3.74.475-4.739 2.004l-9.563 14.598c-1.717 2.618-1.437 5.989.682 8.318l3.57 3.915c1.352 1.495 3.472 1.993 5.335 1.437l.378.452c1.754 2.131 4.934 2.641 7.321 1.158 2.217-1.367 3.095-4.043 2.096-6.36l-1.84-4.263 16.348.776c4.946 3.916 11.195 6.082 17.664 6.059h.012z" fill="#FCDDD5"/>
        <path fill-rule="evenodd" clip-rule="evenodd" d="M147.533 368.211a.569.569 0 0 1 .189.804l-4.071 6.161c-2.47 3.738-4.678 7.081-5.546 8.386a4.896 4.896 0 0 0 .295 5.831l5.847 7.191c.791.972 2.384 2.046 4.087 2.691.844.319 1.685.521 2.436.561.755.04 1.372-.086 1.824-.369l.002-.001c1.967-1.227 2.746-3.631 1.859-5.712l-4.416-10.382 15.005 1.821 3.367 3.117c5.028 4.665 11.745 7.261 18.721 7.226a.595.595 0 0 1 .61.579.594.594 0 0 1-.604.585c-7.296.036-14.317-2.678-19.572-7.554l-3.076-2.847-12.541-1.522 3.631 8.537c1.107 2.596.136 5.594-2.32 7.127-.74.464-1.644.605-2.557.557-.916-.048-1.887-.289-2.816-.641-1.843-.697-3.638-1.878-4.598-3.057l-5.847-7.191c-1.689-2.077-1.838-4.952-.362-7.172.867-1.304 3.073-4.644 5.542-8.381l4.073-6.164a.623.623 0 0 1 .838-.181z" fill="#333232"/>
        <path fill-rule="evenodd" clip-rule="evenodd" d="M149.245 380.479a.617.617 0 0 1 .79.325l2.431 5.819a.575.575 0 0 1-.339.757.618.618 0 0 1-.79-.324l-2.43-5.82a.575.575 0 0 1 .338-.757zM154.478 378.129a.58.58 0 0 1 .442.706l-1.215 4.656a.61.61 0 0 1-.737.423.582.582 0 0 1-.442-.706l1.215-4.656a.61.61 0 0 1 .737-.423z" fill="#333232"/>
        <path d="M313.519 310.02 192 363.225l10.911 36.422 105.573-27.85 5.035-61.777z" fill="#407BEF"/>
        <path d="M263.053 172.664c1.077 0 1.934.744 1.849 1.625-.576 6.305-1.678 11.179-9.108 11.179-6.77 0-8.533-4.874-9.108-11.179-.086-.881.783-1.625 1.848-1.625h14.519z" fill="#EF808E"/>
        <path fill-rule="evenodd" clip-rule="evenodd" d="m263.691 174.187.001-.006c.002-.028 0-.09-.098-.176a.83.83 0 0 0-.541-.177h-14.519a.825.825 0 0 0-.538.179c-.103.089-.103.152-.101.174l.001.006c.285 3.123.854 5.67 2.04 7.422 1.113 1.644 2.843 2.695 5.858 2.695 1.722 0 2.986-.283 3.932-.737.934-.448 1.623-1.094 2.155-1.93 1.108-1.742 1.52-4.269 1.81-7.45zm-17.005.102c.575 6.305 2.338 11.179 9.108 11.179 7.43 0 8.532-4.874 9.108-11.179.085-.881-.772-1.625-1.849-1.625h-14.519c-1.065 0-1.934.744-1.848 1.625z" fill="#161616"/>
        <path d="M267.333 162.191c1.342 0 2.43-1.824 2.43-4.074s-1.088-4.074-2.43-4.074c-1.343 0-2.431 1.824-2.431 4.074s1.088 4.074 2.431 4.074z" fill="#161616"/>
        <path fill-rule="evenodd" clip-rule="evenodd" d="M272.777 152.738a.582.582 0 0 1-.442.706l-4.861 1.164a.61.61 0 0 1-.737-.424.582.582 0 0 1 .442-.706l4.861-1.164a.61.61 0 0 1 .737.424z" fill="#161616"/>
        <path fill-rule="evenodd" clip-rule="evenodd" d="M255.193 157.017a.62.62 0 0 1 .815.26l4.337 8.311s0-.001 0 0c.672 1.285.205 3.001-1.162 3.614l-.092.042-5.06.512a.601.601 0 0 1-.668-.518.589.589 0 0 1 .54-.64l4.845-.49c.6-.332.908-1.238.51-2l-4.337-8.311a.57.57 0 0 1 .272-.78z" fill="#333232"/>
        <path d="M245.918 145.83c-.518-.455-1.195-.711-1.886-.886-.788-.199-1.626-.304-2.403-.105-.751.186-1.405.641-1.922 1.189-.518.548-.924 1.178-1.306 1.82-.333.548-.407 1.492.505 1.539.604.035.924-.595 1.318-.921.395-.315.826-.595 1.319-.735.924-.28 1.972-.21 2.835.222.271.139.529.303.825.419.284.105.629.152.912.024.308-.14.493-.467.542-.793.111-.665-.234-1.342-.751-1.785l.012.012zM266.053 145.293c.634-.381 1.383-.507 2.133-.545.853-.051 1.732.012 2.494.392.724.355 1.292.976 1.706 1.661.413.684.685 1.445.93 2.205.22.646.091 1.673-.865 1.534-.621-.089-.815-.824-1.151-1.255-.336-.418-.723-.799-1.189-1.065a3.946 3.946 0 0 0-2.959-.342c-.31.089-.62.215-.931.279-.323.051-.672.038-.93-.165-.284-.215-.401-.596-.388-.95.026-.723.53-1.382 1.163-1.749h-.013z" fill="#161616"/>
        <path d="M217.234 155.729c2.851 5.311 1.479 11.469-3.076 13.758-4.544 2.278-10.543-.183-13.394-5.494-2.852-5.311-1.479-11.469 3.076-13.759 4.544-2.278 10.542.183 13.394 5.495z" fill="#FCDDD5"/>
        <path d="M274.778 159.866s4.101-31.083-8.327-42.296c-12.428-11.213 1.355-1.575 1.355-1.575l9.42 14.585 1.044 14.071-1.044 9.381-2.46 5.834h.012z" fill="#1E1E1E"/>
        <path d="m274.621 134.426-5.086-15.984-12.286-5.579-1.836 2.504-29.622-3.224s-14.292 24.993 1.788 29.623c12.431 3.579 22.446-8.609 27.882-17.47 3.395 4.322 9.665 10.038 19.16 10.13z" fill="#161616"/>
        <path d="M226.02 134.881s-3.952 18.316-10.586 17.994l-5.211-15.362 12.798-10.242 2.999 7.61z" fill="#161616"/>
        <path fill-rule="evenodd" clip-rule="evenodd" d="M207.309 150.204a.625.625 0 0 1 .851-.117l4.86 3.492a.566.566 0 0 1 .122.815.626.626 0 0 1-.851.116l-4.86-3.492a.565.565 0 0 1-.122-.814z" fill="#161616"/>
        <path fill-rule="evenodd" clip-rule="evenodd" d="m209.227 151.405-.21.519.21-.519a.574.574 0 0 1 .347.753.615.615 0 0 1-.783.333m-.001 0-.003-.001a.407.407 0 0 0-.027-.009c-.026-.009-.068-.021-.123-.037a4.29 4.29 0 0 0-.479-.098 4.012 4.012 0 0 0-1.526.062 3.351 3.351 0 0 0-1.717 1.049c-.551.612-1.064 1.564-1.389 3.038a.607.607 0 0 1-.719.449.583.583 0 0 1-.47-.689c.356-1.615.941-2.761 1.657-3.558a4.59 4.59 0 0 1 2.333-1.416 5.293 5.293 0 0 1 2.014-.086 5.172 5.172 0 0 1 .861.201l.016.006.006.002h.002l.001.001" fill="#161616"/>
        <path d="m115.454 235.056 44.063-13.501 41.773 107.383s12.41 34.691-30.939 45.199c-29.679 7.187-35.786-23.904-37.01-36.16-1.212-12.243-17.9-102.921-17.9-102.921h.013z" fill="#407BEF"/>
        <path fill-rule="evenodd" clip-rule="evenodd" d="M298.399 320.214a.62.62 0 0 1 .824-.233l13.367 6.984a.57.57 0 0 1 .242.79.62.62 0 0 1-.824.232l-13.367-6.984a.568.568 0 0 1-.242-.789zM314.071 309.781a.571.571 0 0 1-.302.77l-13.367 5.82a.618.618 0 0 1-.804-.289.572.572 0 0 1 .301-.77l13.367-5.82a.619.619 0 0 1 .805.289zM296.234 322.304a.621.621 0 0 1 .816.26l2.43 4.656a.571.571 0 0 1-.272.781.62.62 0 0 1-.815-.26l-2.43-4.656a.57.57 0 0 1 .271-.781z" fill="#333232"/>
        <path fill-rule="evenodd" clip-rule="evenodd" d="M133.807 240.767c1.004.074 1.755.913 1.677 1.875l-1.215 15.132c-.077.961-.953 1.681-1.957 1.607-1.004-.074-1.755-.914-1.678-1.875l1.216-15.132c.077-.962.953-1.681 1.957-1.607zM156.775 272.618a1.879 1.879 0 0 1 2.572.164l8.506 9.312a1.696 1.696 0 0 1-.171 2.464 1.879 1.879 0 0 1-2.572-.165l-8.507-9.312a1.694 1.694 0 0 1 .172-2.463zM157.431 313.057c.935.358 1.39 1.374 1.016 2.27l-4.861 11.639c-.374.896-1.435 1.331-2.369.973-.935-.358-1.39-1.374-1.016-2.269l4.861-11.64c.374-.896 1.435-1.331 2.369-.973zM175.933 349.739c.586-.785 1.724-.966 2.543-.406l8.506 5.82c.82.561 1.009 1.651.424 2.436-.585.784-1.723.966-2.542.406l-8.507-5.82c-.819-.561-1.009-1.651-.424-2.436zM201.077 255.981c.955.305 1.471 1.293 1.153 2.208l-4.861 13.968c-.318.915-1.351 1.409-2.306 1.104-.955-.305-1.471-1.293-1.153-2.208l4.861-13.968c.319-.915 1.351-1.409 2.306-1.104zM218.744 288.918a1.879 1.879 0 0 1 2.572.165l8.506 9.312a1.695 1.695 0 0 1-.171 2.463c-.758.635-1.91.562-2.573-.164l-8.506-9.312a1.695 1.695 0 0 1 .172-2.464zM256.705 300.153c.993.158 1.664 1.058 1.499 2.009l-2.431 13.968c-.165.951-1.104 1.594-2.097 1.435-.993-.158-1.664-1.058-1.499-2.009l2.431-13.968c.165-.951 1.104-1.594 2.097-1.435zM255.382 253.045a1.696 1.696 0 0 1-.257 2.457l-13.367 10.476c-.779.61-1.927.5-2.565-.246a1.697 1.697 0 0 1 .257-2.457l13.367-10.476c.779-.611 1.927-.501 2.565.246zM273.107 268.311c.559-.802 1.69-1.019 2.528-.484l10.937 6.984c.837.534 1.064 1.619.505 2.421-.558.802-1.69 1.019-2.528.484l-10.936-6.984c-.838-.535-1.064-1.619-.506-2.421zM220.619 331.678c.935.358 1.389 1.374 1.015 2.27l-4.861 11.64c-.373.895-1.434 1.33-2.369.972-.935-.358-1.389-1.374-1.015-2.269l4.86-11.64c.374-.896 1.435-1.331 2.37-.973zM208.724 366.053c.577-.789 1.714-.982 2.539-.429l12.152 8.148c.824.553 1.025 1.642.448 2.432-.578.79-1.714.982-2.539.429l-12.152-8.148c-.825-.553-1.025-1.642-.448-2.432zM249.463 354.86c.987.19 1.627 1.109 1.429 2.055l-2.43 11.64c-.197.945-1.158 1.559-2.145 1.37-.987-.19-1.627-1.109-1.43-2.055l2.431-11.64c.197-.945 1.157-1.559 2.145-1.37zM286.632 353.092a1.88 1.88 0 0 1 2.574-.145l10.936 9.312c.753.64.821 1.744.152 2.465a1.88 1.88 0 0 1-2.574.145l-10.936-9.312a1.695 1.695 0 0 1-.152-2.465zM335.801 331.352c.451.863.086 1.912-.815 2.343l-14.582 6.984c-.9.431-1.995.081-2.446-.781-.45-.863-.085-1.911.816-2.343l14.582-6.984c.9-.431 1.995-.081 2.445.781zM327.552 289.772c.935.358 1.39 1.374 1.016 2.269l-4.861 11.64c-.374.896-1.435 1.331-2.369.973-.935-.358-1.39-1.374-1.016-2.27l4.861-11.64c.374-.895 1.435-1.33 2.369-.972zM309.792 258.734a1.88 1.88 0 0 1 2.578 0l9.721 9.312a1.694 1.694 0 0 1 0 2.469 1.88 1.88 0 0 1-2.578 0l-9.721-9.312a1.694 1.694 0 0 1 0-2.469zM314.636 223.675c.794.592.938 1.688.32 2.45l-8.507 10.476c-.618.761-1.763.898-2.558.306-.794-.592-.938-1.689-.319-2.45l8.506-10.476c.618-.761 1.763-.899 2.558-.306zM182.287 402.989a1.879 1.879 0 0 1 2.572.164l8.506 9.312a1.696 1.696 0 0 1-.171 2.464 1.88 1.88 0 0 1-2.573-.165l-8.506-9.312a1.694 1.694 0 0 1 .172-2.463zM192.804 438.823c.901.432 1.266 1.48.815 2.343l-6.076 11.64c-.45.862-1.545 1.212-2.445.781-.901-.432-1.266-1.48-.815-2.343l6.076-11.64c.45-.862 1.545-1.212 2.445-.781zM250.918 422.796c.077.961-.674 1.801-1.677 1.875l-15.798 1.164c-1.004.073-1.88-.646-1.957-1.607-.077-.962.674-1.801 1.678-1.875l15.797-1.164c1.004-.074 1.88.645 1.957 1.607zM262.571 386.63c.795-.592 1.94-.455 2.558.306l8.506 10.476a1.697 1.697 0 0 1-.32 2.45c-.794.592-1.939.455-2.557-.306l-8.507-10.476a1.697 1.697 0 0 1 .32-2.45zM269.919 446.215a1.695 1.695 0 0 1-.152 2.465l-10.936 9.312a1.88 1.88 0 0 1-2.574-.145 1.695 1.695 0 0 1 .152-2.465l10.936-9.312a1.88 1.88 0 0 1 2.574.145zM297.869 420.343c.819-.561 1.958-.379 2.543.406l6.076 8.148c.585.785.395 1.875-.424 2.435-.819.561-1.958.379-2.543-.405l-6.076-8.148c-.585-.785-.395-1.876.424-2.436zM327.256 384.828c.488.843.171 1.906-.709 2.374l-10.936 5.82c-.88.469-1.99.165-2.479-.678-.489-.843-.172-1.906.708-2.374l10.937-5.82c.88-.469 1.99-.165 2.479.678zM328.447 444.491c.987.189 1.627 1.109 1.43 2.055l-2.431 11.64c-.197.945-1.157 1.559-2.144 1.369-.988-.189-1.628-1.109-1.43-2.054l2.43-11.64c.197-.946 1.158-1.559 2.145-1.37z" fill="#D7F1FA"/>
        <path fill-rule="evenodd" clip-rule="evenodd" d="M107.393 100.077c.917-.4 1.997-.011 2.414.867l6.076 12.804c.416.878.011 1.913-.905 2.312-.917.399-1.997.011-2.414-.867l-6.076-12.804c-.417-.878-.011-1.913.905-2.312zM121.452 98.755c1.006-.035 1.851.718 1.888 1.681l.399 10.476c.036.964-.749 1.774-1.755 1.809-1.006.035-1.852-.718-1.888-1.681l-.399-10.476c-.037-.964.749-1.774 1.755-1.809zM98.255 109.84a1.878 1.878 0 0 1 2.57-.189l8.507 6.984c.764.627.853 1.73.198 2.462a1.88 1.88 0 0 1-2.571.189l-8.506-6.984a1.695 1.695 0 0 1-.198-2.462z" fill="#fff"/>
        <path fill-rule="evenodd" clip-rule="evenodd" d="M238.781 154.045c0-.322.272-.582.608-.582 2.751 0 5.268.466 7.121 1.245.925.39 1.711.868 2.275 1.43.567.564.933 1.24.933 1.997a.592.592 0 0 1-.563.58l-7.97.566a.6.6 0 0 1-.651-.537.59.59 0 0 1 .561-.624l7.289-.517a2.21 2.21 0 0 0-.475-.658c-.419-.418-1.055-.82-1.888-1.171-1.665-.7-4.008-1.147-6.632-1.147a.596.596 0 0 1-.608-.582zM249.674 159.647a.575.575 0 0 1-.339.757l-6.076 2.328a.618.618 0 0 1-.79-.324.575.575 0 0 1 .339-.757l6.076-2.328a.618.618 0 0 1 .79.324z" fill="#161616"/>
        <path d="m334.224 519.854-1.271 59.046h161.62l-4.248-67.511-156.101 8.465z" fill="#fff"/>
        <path d="m268.522 398.471-8.085-26.672a26.772 26.772 0 0 1-2.744-7.224l-3.724-16.901 5.512-17.401 7.326-3.408a5.902 5.902 0 0 1 4.299-.267l19.625 6.223c1.764.558 2.976 2.117 3.001 3.896l.135 8.492c.024 1.384-.821 2.64-2.156 3.198l-3.283 1.384 1.323 9.364c.306 2.164-.307 4.362-1.703 6.107l8.452 18.657-27.978 14.563v-.011z" fill="#FFCEC1"/>
        <path d="m256.501 344.94-6.837-11.427c-1.499-2.505.173-5.696 3.183-5.98 2.763-.26 6.38.367 10.443 3.475 9.141 6.972-6.801 13.932-6.801 13.932h.012z" fill="#FFCEC1"/>
        <path fill-rule="evenodd" clip-rule="evenodd" d="M287.304 334.18a.568.568 0 0 1-.229.793l-10.641 5.779a3.092 3.092 0 0 0-1.597 2.153l-.83 4.468a.607.607 0 0 1-.705.471.585.585 0 0 1-.492-.675l.83-4.468c.233-1.252 1.034-2.338 2.199-2.964h.001l10.636-5.776a.62.62 0 0 1 .828.219zM281.218 330.656a.568.568 0 0 1-.186.804l-9.97 6.081-.001.001c-.587.361-1.012.867-1.228 1.434l-.001.002-1.924 4.996a.615.615 0 0 1-.78.345.576.576 0 0 1-.36-.748l1.923-4.994.001-.001c.312-.821.918-1.525 1.713-2.014l.002-.001 9.972-6.083a.623.623 0 0 1 .839.178zM273.917 329.491a.567.567 0 0 1-.177.805l-8.865 5.534a3.105 3.105 0 0 0-1.32 1.672l-.001.002-1.718 5.282a.612.612 0 0 1-.761.382.578.578 0 0 1-.399-.729l1.718-5.28s0 .001 0 0a4.282 4.282 0 0 1 1.817-2.304l8.865-5.534a.625.625 0 0 1 .841.17zM287.867 344.367c.33-.063.65.141.715.456l1.216 5.82a.584.584 0 0 1-.477.685.607.607 0 0 1-.715-.456l-1.215-5.82a.583.583 0 0 1 .476-.685z" fill="#333232"/>
        <path fill-rule="evenodd" clip-rule="evenodd" d="M292.201 343.561a.574.574 0 0 1-.339.757l-6.075 2.328a.617.617 0 0 1-.79-.324.574.574 0 0 1 .338-.757l6.076-2.328a.618.618 0 0 1 .79.324zM266.657 327.212a.57.57 0 0 1-.256.786l-5.751 2.885c-2.364 1.182-4.013 3.403-4.414 5.986l-.001.003-1.667 10.486a.605.605 0 0 1-.692.488.587.587 0 0 1-.51-.663l1.668-10.485s0 .001 0 0c.457-2.946 2.34-5.49 5.053-6.846 0 0-.001 0 0 0l5.75-2.885a.621.621 0 0 1 .82.245zM289.6 364.277a.566.566 0 0 1 .078.82l-6.076 6.984a.627.627 0 0 1-.856.075.565.565 0 0 1-.078-.82l6.076-6.984a.627.627 0 0 1 .856-.075z" fill="#333232"/>
        <path d="M485.61 206.22c-2.498-.176-4.654-1.914-5.156-4.379l-1.567-7.772c-.6-2.959 1.42-5.812 4.506-6.387a5.792 5.792 0 0 1 4.899 1.35 5.616 5.616 0 0 1 3.956-2.865c2.241-.411 4.433.505 5.682 2.184.551-1.949 2.192-3.534 4.396-3.945 2.523-.469 4.948.763 6.087 2.83.674-1.421 2.021-2.513 3.735-2.83 2.817-.516 5.536 1.245 6.087 3.945l1.432 7.103a4.844 4.844 0 0 1-.82 3.769l1.849 7.079a19.094 19.094 0 0 1-.698 11.776l-1.567 4.027 2.167 10.625-28.84 3.956-6.136-30.454-.012-.012z" fill="#FCDDD5"/>
        <path fill-rule="evenodd" clip-rule="evenodd" d="M509.363 197.723a.575.575 0 0 1 .371.742c-.453 1.232-1.343 2.285-2.52 2.988l-.001.001a6.462 6.462 0 0 1-2.127.791l-.008.001c-2.401.419-4.756-.516-6.123-2.252a.566.566 0 0 1 .119-.815.625.625 0 0 1 .851.114c1.092 1.387 2.987 2.147 4.932 1.809a5.226 5.226 0 0 0 1.714-.636c.949-.568 1.658-1.411 2.017-2.388a.615.615 0 0 1 .775-.355z" fill="#333232"/>
        <path fill-rule="evenodd" clip-rule="evenodd" d="M500.847 198.886a.576.576 0 0 1 .382.737c-.452 1.287-1.475 2.382-2.834 3.079l-.005.003a7.505 7.505 0 0 1-2.247.716c-2.063.311-4.099-.197-5.578-1.271a.566.566 0 0 1-.117-.816.625.625 0 0 1 .851-.112c1.207.877 2.906 1.313 4.655 1.049h.001a6.217 6.217 0 0 0 1.868-.596c1.122-.576 1.914-1.452 2.254-2.423a.615.615 0 0 1 .77-.366z" fill="#333232"/>
        <path fill-rule="evenodd" clip-rule="evenodd" d="M479.887 200.026a.607.607 0 0 1 .709.465c.546 2.809 3.314 4.618 6.143 4.088h.003a5.33 5.33 0 0 0 1.818-.709 5.236 5.236 0 0 0 1.834-1.965.62.62 0 0 1 .817-.255.57.57 0 0 1 .265.783 6.399 6.399 0 0 1-2.255 2.413l-.005.003a6.556 6.556 0 0 1-2.245.873c-3.51.657-6.904-1.591-7.57-5.018a.583.583 0 0 1 .486-.678z" fill="#F79FAD"/>
        <path fill-rule="evenodd" clip-rule="evenodd" d="M518.668 194.209a.606.606 0 0 1 .716.454c.487 2.291-.663 4.499-2.663 5.665l-.001.001a6.17 6.17 0 0 1-2.072.755c-2.353.408-4.65-.495-5.968-2.185a.566.566 0 0 1 .122-.814.626.626 0 0 1 .851.117c1.039 1.332 2.874 2.067 4.781 1.737l.003-.001a4.914 4.914 0 0 0 1.653-.605c1.601-.933 2.479-2.669 2.104-4.438a.582.582 0 0 1 .474-.686zM500.056 207.513a.602.602 0 0 1 .681-.502l-.079.577.08-.577h.003l.008.001.025.004.086.013c.073.012.178.03.31.057.265.055.641.143 1.1.283.918.28 2.171.767 3.532 1.594 2.731 1.66 5.866 4.68 7.59 10.095a.58.58 0 0 1-.405.727.614.614 0 0 1-.758-.387c-1.632-5.128-4.572-7.929-7.078-9.452a14.382 14.382 0 0 0-3.25-1.467 10.715 10.715 0 0 0-.985-.254 5.146 5.146 0 0 0-.26-.048l-.062-.01-.013-.002h-.002m-.523-.652a.588.588 0 0 0 .523.652z" fill="#333232"/>
        <path fill-rule="evenodd" clip-rule="evenodd" d="M509.023 188.393a.609.609 0 0 1 .725.442l2.43 10.476a.582.582 0 0 1-.461.694.608.608 0 0 1-.725-.442l-2.431-10.476a.583.583 0 0 1 .462-.694zM498.089 189.559a.608.608 0 0 1 .725.442l2.431 10.476a.583.583 0 0 1-.462.694.609.609 0 0 1-.725-.442l-2.43-10.476a.582.582 0 0 1 .461-.694zM488.374 191.891a.608.608 0 0 1 .725.442l2.431 10.476a.583.583 0 0 1-.462.694.609.609 0 0 1-.725-.442l-2.43-10.476a.582.582 0 0 1 .461-.694z" fill="#333232"/>
        <path d="m489.237 236.66-3.731-14.129-7.681-4.079c-2.273-1.206-3.269-3.814-2.346-6.132l3.938-9.921c.79-1.994 2.917-3.211 5.141-2.921l14.718 1.878c1.835.232 3.014 1.982 2.455 3.674-1.082 3.245-4.229 7.487-13.478 5.818l3.95 25.418-2.966.417v-.023z" fill="#FCDDD5"/>
        <path fill-rule="evenodd" clip-rule="evenodd" d="M484.476 200.056c-1.953-.249-3.808.799-4.494 2.494l-3.938 9.717c-.809 1.991.059 4.239 2.069 5.283a.57.57 0 0 1 .245.789.622.622 0 0 1-.824.234c-2.535-1.317-3.659-4.177-2.622-6.727 0-.001 0 0 0 0l3.937-9.717c.894-2.209 3.293-3.545 5.787-3.227l14.716 1.839c.001 0 0 0 0 0 2.193.271 3.638 2.333 2.956 4.354l-.001.002c-.569 1.672-1.696 3.642-3.934 4.968-2.242 1.329-5.506 1.957-10.232 1.122a.584.584 0 0 1-.487-.678.607.607 0 0 1 .708-.467c4.522.8 7.457.168 9.372-.966 1.917-1.137 2.905-2.833 3.418-4.339.436-1.293-.478-2.659-1.955-2.842l-14.719-1.839h-.002z" fill="#333232"/>
        <path d="M425.09 235.179c.121-1.315 2.371-3.399 3.181-4.331 2.6-3.004 5.769-5.636 9.445-7.347 10.002-4.646 23.644-.652 29.268 8.558 5.829 9.548 6.083 22.053 5.515 32.754-1.935 36.41-13.171 96.421-13.171 96.421l-44.953-12.901s10.691-112.956 10.703-113.154h.012z" fill="#1E1E1E"/>
        <path d="m433.002 281.256-.403 9.8c-.061 1.465 1.964 2.072 2.818.847l3.257-4.694v-7.453l-5.672 1.5z" fill="#1E1E1E"/>
        <path d="m547.388 350.72-26.195-126.839-34.583 10.04 2.279 113.22-36.862 10.04-11.661-3.707-75.214 12.981.557-2.65-10.448 5.381-19.94 5.566c-11.128 3.103-20.243 10.772-24.898 20.94l-5.54 12.097-11.988-35.443-31.637 10.238 13.479 115.242c.933 8.03 4.752 15.583 11.055 20.941 4.849 4.113 11.685 7.483 21.067 7.483 20.255 0 27.007-18.767 28.656-24.798l.315.86-2.122 43.995H495.58l-13.443-110.5 56.584-56.593c7.564-7.565 10.812-18.198 8.679-28.482l-.012-.012z" fill="#fff"/>
        <path d="m379.587 326.113-.45 28.515 27.724 18.242 20.577-23.378 1.522-32.494-49.373 9.115z" fill="#FCDDD5"/>
        <path d="M379.137 331.633s4.758 13.307 24.285 13.307c19.528 0 24.322-20.952 24.322-20.952l-48.607 7.657v-.012z" fill="#F3BCAD"/>
        <path d="M366.245 279.194s-8.188-51.693 43.147-48.155c57.389 3.959 34.499 59.037 34.499 59.037l-14.884 9.465-62.775-20.359.013.012z" fill="#1E1E1E"/>
        <path d="M373.048 284.541c2.608 6.152.924 12.648-3.77 14.504-4.695 1.856-10.61-1.627-13.219-7.779-2.608-6.152-.924-12.648 3.77-14.503 4.695-1.856 10.611 1.626 13.219 7.778zM446.968 305.828c4.846-4.9 5.62-11.745 1.729-15.289-3.891-3.543-10.975-2.443-15.821 2.457-4.846 4.901-5.62 11.746-1.729 15.289 3.892 3.544 10.975 2.443 15.821-2.457z" fill="#FCDDD5"/>
        <path d="M394.779 338.799c-18.393-2.469-31.243-18.888-28.69-36.683l8.183-50.304 65.62 8.927-7.197 50.304c-2.552 17.795-19.523 30.226-37.916 27.756z" fill="#FCDDD5"/>
        <path d="m370.629 272.133 66.982 9.949 7.144-25.859-70.25-7.897-3.876 23.807z" fill="#1E1E1E"/>
        <path d="M412.067 294.978c-.431 2.233.245 4.27 1.515 4.539 1.269.268 2.655-1.318 3.086-3.55.431-2.233-.244-4.271-1.514-4.539-1.269-.268-2.656 1.318-3.087 3.55z" fill="#161616"/>
        <path fill-rule="evenodd" clip-rule="evenodd" d="M419.802 291.211a.576.576 0 0 1-.384.736l-3.645 1.164a.615.615 0 0 1-.769-.368.577.577 0 0 1 .384-.736l3.646-1.164a.613.613 0 0 1 .768.368z" fill="#161616"/>
        <path d="M384.13 290.32c-.431 2.233.245 4.27 1.514 4.539 1.27.268 2.656-1.318 3.087-3.551.431-2.232-.245-4.27-1.514-4.538-1.27-.269-2.656 1.317-3.087 3.55z" fill="#161616"/>
        <path fill-rule="evenodd" clip-rule="evenodd" d="M391.865 286.552a.578.578 0 0 1-.384.737l-3.646 1.164a.614.614 0 0 1-.768-.369.576.576 0 0 1 .384-.736l3.645-1.164a.615.615 0 0 1 .769.368z" fill="#161616"/>
        <path fill-rule="evenodd" clip-rule="evenodd" d="M399.675 290.929a.566.566 0 0 1 .12.815l-3.94 5.019a1.537 1.537 0 0 0-.26 1.351c.124.458.429.794.817.914l.003.001 3.567 1.125c.319.1.492.429.388.734a.614.614 0 0 1-.768.371l-3.563-1.123-.002-.001c-.863-.267-1.413-.971-1.618-1.728a2.662 2.662 0 0 1 .465-2.344l3.94-5.018a.626.626 0 0 1 .851-.116zM409.946 304.953a.564.564 0 0 1-.003.823c-3.736 3.555-8.462 4.613-12.204 4.795a27.1 27.1 0 0 1-4.694-.187 23.049 23.049 0 0 1-1.768-.297l-.101-.023-.028-.007-.007-.002h-.004l.15-.564-.15.563a.58.58 0 0 1-.438-.708.61.61 0 0 1 .739-.419l.004.001.021.005.086.019c.077.017.194.042.346.071.305.058.751.135 1.311.207 1.12.143 2.687.265 4.471.178 3.576-.173 7.964-1.179 11.41-4.458a.627.627 0 0 1 .859.003z" fill="#333232"/>
        <path fill-rule="evenodd" clip-rule="evenodd" d="M409.848 301.312a.578.578 0 0 1 .417.717l-.001.004-.005.022a4.93 4.93 0 0 0-.094.497 5.372 5.372 0 0 0-.009 1.356c.13 1.062.627 2.343 2.122 3.299.279.179.354.54.168.807a.624.624 0 0 1-.843.161c-1.86-1.19-2.493-2.818-2.654-4.131a6.512 6.512 0 0 1 .097-2.133c.013-.059.025-.106.034-.14l.011-.04.003-.013.002-.004v-.002l.585.159-.585-.16a.612.612 0 0 1 .752-.399z" fill="#333232"/>
        <path d="m380.355 275.55 4.861-12.095-.747 12.804-4.114-.709zM399.797 279.06l4.861-12.107-.747 12.804-4.114-.697zM421.664 282.546l4.861-12.107-.747 12.804-4.114-.697z" fill="#FCDDD5"/>
        <path d="m374.276 273.228-2.104 9.978c-.318 1.483-2.536 1.638-3.084.214l-2.104-5.458 1.912-7.523 5.38 2.789z" fill="#1E1E1E"/>
        <path fill-rule="evenodd" clip-rule="evenodd" d="M361.74 279.303c.262-.2.644-.16.854.091l4.861 5.82a.566.566 0 0 1-.095.818.626.626 0 0 1-.854-.091l-4.861-5.82a.565.565 0 0 1 .095-.818z" fill="#333232"/>
        <path fill-rule="evenodd" clip-rule="evenodd" d="M359.082 286.744v-.013a9.836 9.836 0 0 1 .072-.966c.073-.595.217-1.361.498-2.083.283-.729.684-1.358 1.234-1.745.523-.37 1.247-.567 2.309-.325a.609.609 0 0 0 .732-.431.582.582 0 0 0-.451-.701c-1.368-.313-2.467-.076-3.311.519-.817.577-1.328 1.442-1.652 2.276-.327.842-.487 1.708-.566 2.355a11.314 11.314 0 0 0-.078 1.024l-.002.064v.025l.608.001h-.608c0 .321.272.582.608.582a.595.595 0 0 0 .607-.582zM446.524 291.134a.57.57 0 0 1-.271.781l-7.292 3.492a.62.62 0 0 1-.815-.26.571.571 0 0 1 .272-.781l7.291-3.492a.62.62 0 0 1 .815.26z" fill="#333232"/>
        <path fill-rule="evenodd" clip-rule="evenodd" d="M442.949 292.498a.601.601 0 0 1 .669-.516c1.452.15 2.474.629 3.15 1.327.672.693.94 1.54 1.014 2.317.075.775-.039 1.515-.165 2.051a7.68 7.68 0 0 1-.184.654l-.066.187-.02.052-.006.015-.002.005-.001.002s-.001.001-.553-.207l.552.208a.615.615 0 0 1-.787.329.574.574 0 0 1-.344-.753l.003-.008.014-.036.052-.149c.044-.132.102-.323.157-.554.11-.469.199-1.079.14-1.689-.058-.608-.259-1.182-.695-1.632-.431-.446-1.155-.834-2.389-.962a.588.588 0 0 1-.539-.641z" fill="#333232"/>
        <path d="M384.05 283.832a.745.745 0 0 0 .174.301c.423.436 1.232.302 1.754-.044.511-.346.871-.86 1.406-1.184.797-.491 1.929-.48 2.701.023.348.223.622.524.983.725.36.201.87.28 1.182.023.248-.19.311-.536.211-.815-.099-.279-.311-.514-.547-.726-1.195-1.027-2.987-1.452-4.592-1.094a3.388 3.388 0 0 0-.361.111c-.883.224-1.717.659-2.339 1.251-.249.234-.473.491-.572.804a.908.908 0 0 0-.038.446l.038.168v.011zM413.18 286.507c0 .11.038.22.1.319.313.496 1.151.507 1.738.265.588-.243 1.05-.672 1.65-.893.888-.33 2-.121 2.65.507.288.275.488.617.8.881.313.265.788.419 1.163.232a.736.736 0 0 0 .387-.75c-.025-.286-.187-.561-.375-.793-.937-1.2-2.612-1.938-4.275-1.861-.125 0-.25.022-.387.044a5.663 5.663 0 0 0-2.588.793c-.288.176-.575.396-.738.672a1.03 1.03 0 0 0-.137.418v.177l.012-.011z" fill="#3A3A3A"/>
        <path d="m373.237 351.039-11.116 13.665 34.04 25.626 10.922-18.473-27.615-18.049v-6.546l-4.558 2.415a5.285 5.285 0 0 0-1.673 1.373v-.011zM427.842 340.289l.302.046a6.841 6.841 0 0 1 3.378 1.582l12.02 10.579-20.599 35.505-15.857-16.299 20.382-23.496.362-7.929.012.012z" fill="#fff"/>
        <path fill-rule="evenodd" clip-rule="evenodd" d="M440.199 358.393a.57.57 0 0 1 .232.792l-17.04 29.1a.605.605 0 0 1-.456.293.62.62 0 0 1-.516-.179l-13.34-13.597a.565.565 0 0 1 .027-.823.626.626 0 0 1 .858.026l12.773 13.018 16.634-28.407a.623.623 0 0 1 .828-.223zM371.363 371.335a.626.626 0 0 1 .855-.083l23.272 18.181 6.19-10.873a.622.622 0 0 1 .825-.233.57.57 0 0 1 .242.79l-6.54 11.489a.607.607 0 0 1-.417.292.63.63 0 0 1-.501-.12l-23.839-18.624a.566.566 0 0 1-.087-.819z" fill="#ADADAD"/>
        <path fill-rule="evenodd" clip-rule="evenodd" d="M392.911 368.453c-1.471.241-2.528 1.216-2.645 2.118v.001c-.086.654.268 1.479 1.011 2.147.757.668 1.789 1.139 2.991 1.541 3.106 1.03 6.502 1.339 9.781.916-1.483-2.467-3.808-4.533-6.585-5.827l-.005-.002c-1.527-.719-3.116-1.118-4.548-.894zm15.292 6.301c2.361 1.052 4.557 1.672 6.874 1.349.906-.127 1.797-.386 2.505-.772.707-.385 1.153-.848 1.355-1.366v-.001c.363-.926-.177-2.295-1.429-2.992-1.243-.692-2.979-.749-4.581-.251h-.001c-2.112.655-3.867 2.166-4.705 3.995l-.018.038zm-2.242-1.709c1.252-2.274 3.487-4.059 6.104-4.871 2.125-.66 4.731-.694 6.847.483 2.107 1.173 3.603 3.789 2.643 6.245m-15.594-1.857c-1.768-2.588-4.309-4.721-7.271-6.102-1.782-.838-3.991-1.485-6.236-1.132l-.009.002c-2.205.36-4.629 1.945-4.953 4.425-.232 1.771.713 3.393 1.879 4.439l.007.006c1.18 1.044 2.647 1.662 3.969 2.105l.004.002c4.435 1.471 9.369 1.644 13.92.5 2.482 1.082 5.197 1.882 8.21 1.463l.001-.001c1.154-.162 2.397-.503 3.482-1.094 1.086-.592 2.093-1.481 2.591-2.755" fill="#0019A8"/>
        <path fill-rule="evenodd" clip-rule="evenodd" d="M404.906 376.211c.76.13 1.265.826 1.129 1.554-.618 3.296-2.736 6.282-5.659 7.895l-.003.002c-2.939 1.614-6.578 1.803-9.658.464-.703-.306-1.014-1.099-.695-1.772.319-.673 1.147-.972 1.85-.666 2.247.977 4.939.845 7.112-.348 2.165-1.196 3.821-3.481 4.302-6.048.136-.728.863-1.212 1.622-1.081z" fill="#0019A8"/>
        <path fill-rule="evenodd" clip-rule="evenodd" d="M406.869 376.205c.763-.111 1.475.392 1.59 1.123.266 1.689 1.511 3.281 3.255 4.088 1.739.805 3.943.789 5.679-.036.691-.329 1.53-.059 1.873.603.343.663.061 1.466-.63 1.795-2.504 1.19-5.616 1.217-8.139.048-2.519-1.166-4.389-3.479-4.801-6.098-.116-.731.41-1.413 1.173-1.523z" fill="#0019A8"/>
        <path d="M448.597 237.432c-.957 1.317-2.523 2.089-4.113 2.433-1.59.356-3.24.332-4.877.296-3.132-.059-6.265-.118-9.409-.166-.37 0-.753-.023-1.135-.023-.395-.404-.801-.795-1.208-1.187-2.223-2.183-4.447-4.378-6.683-6.561-1.159-1.139-2.331-2.29-3.179-3.666-.861-1.389-1.387-3.026-1.124-4.628.406-2.444 2.702-4.342 5.188-4.651 2.475-.308 5.009.819 6.731 2.622 1.721 1.804 2.701 4.201 3.132 6.645.215 1.174.287 2.361.263 3.559a18.598 18.598 0 0 1 2.594-2.136c2.08-1.4 4.483-2.384 6.993-2.408 2.499-.036 5.069.973 6.587 2.954 1.507 1.958 1.734 4.936.252 6.917h-.012z" fill="#F2A6D1"/>
        <path fill-rule="evenodd" clip-rule="evenodd" d="M307.223 414.238a.614.614 0 0 1 .784.336l25.519 64.019a.575.575 0 0 1-.35.752.617.617 0 0 1-.785-.336l-25.519-64.02a.575.575 0 0 1 .351-.751zM487.906 347.175a.606.606 0 0 1 .693-.487l15.797 2.328a.586.586 0 0 1 .508.664.604.604 0 0 1-.693.487l-15.797-2.328a.586.586 0 0 1-.508-.664zM491.645 351.599a.624.624 0 0 1 .843-.161l14.582 9.312a.566.566 0 0 1 .168.807.624.624 0 0 1-.842.161l-14.582-9.312a.566.566 0 0 1-.169-.807zM347.551 417.692c.336.009.6.276.59.598l-2.43 82.643a.597.597 0 0 1-.624.566.594.594 0 0 1-.591-.598l2.431-82.644a.596.596 0 0 1 .624-.565zM479.894 421.185a.604.604 0 0 1 .693.486l2.43 15.132a.585.585 0 0 1-.508.664.605.605 0 0 1-.693-.487l-2.43-15.132a.586.586 0 0 1 .508-.663zM373.786 350.413a.624.624 0 0 1 .85-.117l4.861 3.492a.567.567 0 0 1 .122.815.626.626 0 0 1-.851.116l-4.861-3.492a.565.565 0 0 1-.121-.814zM429.293 344.459c.279.178.355.54.169.807l-2.431 3.492a.623.623 0 0 1-.842.162.567.567 0 0 1-.169-.807l2.43-3.492a.625.625 0 0 1 .843-.162zM410.719 393.24a.597.597 0 0 1 .617.573l2.431 145.499a.596.596 0 0 1-.598.592.596.596 0 0 1-.617-.573l-2.431-145.499a.594.594 0 0 1 .598-.592zM401.003 401.389c-1.673 0-3.038 1.307-3.038 2.91 0 1.603 1.365 2.91 3.038 2.91 1.674 0 3.038-1.307 3.038-2.91 0-1.603-1.364-2.91-3.038-2.91zm-4.253 2.91c0-2.246 1.909-4.074 4.253-4.074 2.345 0 4.253 1.828 4.253 4.074 0 2.245-1.908 4.074-4.253 4.074-2.344 0-4.253-1.829-4.253-4.074zM402.222 438.637c-1.674 0-3.038 1.307-3.038 2.91 0 1.603 1.364 2.91 3.038 2.91 1.673 0 3.038-1.307 3.038-2.91 0-1.603-1.365-2.91-3.038-2.91zm-4.253 2.91c0-2.246 1.908-4.074 4.253-4.074 2.344 0 4.253 1.828 4.253 4.074 0 2.245-1.909 4.074-4.253 4.074-2.345 0-4.253-1.829-4.253-4.074zM403.441 474.725c-1.674 0-3.038 1.307-3.038 2.909 0 1.603 1.364 2.911 3.038 2.911 1.673 0 3.038-1.308 3.038-2.911 0-1.602-1.365-2.909-3.038-2.909zm-4.253 2.909c0-2.245 1.908-4.073 4.253-4.073 2.344 0 4.253 1.828 4.253 4.073 0 2.246-1.909 4.075-4.253 4.075-2.345 0-4.253-1.829-4.253-4.075zM404.648 511.967c-1.674 0-3.038 1.307-3.038 2.91 0 1.603 1.364 2.91 3.038 2.91 1.673 0 3.038-1.307 3.038-2.91 0-1.603-1.365-2.91-3.038-2.91zm-4.253 2.91c0-2.246 1.908-4.074 4.253-4.074 2.344 0 4.253 1.828 4.253 4.074 0 2.246-1.909 4.074-4.253 4.074-2.345 0-4.253-1.828-4.253-4.074zM524.337 247.02a.58.58 0 0 1-.448.702l-35.24 8.148a.61.61 0 0 1-.733-.429.58.58 0 0 1 .448-.702l35.24-8.148a.608.608 0 0 1 .733.429zM515.837 234.941c-1.339 0-2.43 1.045-2.43 2.328s1.091 2.328 2.43 2.328c1.339 0 2.43-1.045 2.43-2.328s-1.091-2.328-2.43-2.328zm-3.646 2.328c0-1.925 1.635-3.492 3.646-3.492 2.01 0 3.646 1.567 3.646 3.492 0 1.926-1.636 3.492-3.646 3.492-2.011 0-3.646-1.566-3.646-3.492zM299.51 395.995a.578.578 0 0 1-.417.719l-34.025 9.312a.612.612 0 0 1-.751-.4.577.577 0 0 1 .417-.719l34.025-9.312a.61.61 0 0 1 .751.4zM293.453 386.188c-.046-1.283-1.174-2.297-2.506-2.253-1.338.044-2.397 1.125-2.351 2.4.046 1.283 1.174 2.297 2.505 2.253 1.339-.044 2.398-1.124 2.352-2.4zm-2.547-3.416c2.009-.067 3.693 1.457 3.762 3.376.069 1.925-1.522 3.537-3.525 3.603-2.009.067-3.693-1.457-3.762-3.376-.069-1.925 1.522-3.537 3.525-3.603z" fill="#ADADAD"/>
        <path d="m303.785 660.379 14.25-102.578h175.976l16.356 102.578H303.785z" fill="#032649"/>
        <path fill-rule="evenodd" clip-rule="evenodd" d="M431.933 232.947a.572.572 0 0 1-.284.777c-.492.227-.795.548-.909.842a.616.616 0 0 1-.782.343.576.576 0 0 1-.357-.749c.25-.643.822-1.163 1.521-1.485a.62.62 0 0 1 .811.272z" fill="#D157A2"/>
        <path d="M176.467 439.225h56.546c6.198 0 11.237 6.513 11.237 14.55 0 8.036-5.027 14.549-11.237 14.549h-58.029l1.483-29.099z" fill="#457FE3"/>
        <path d="M82.629 442.717s7.77 11.3 0 23.28l97.436-1.788 5.855-9.846-4.159-9.56-11.174-2.086H82.629z" fill="#fff"/>
        <path d="M176.327 468.324h-96.71c-.353 0-.633-.365-.633-.813v-4.433c0-.449.28-.814.633-.814h96.71c4.028 0 7.302-3.808 7.302-8.489 0-4.681-3.274-8.49-7.302-8.49h-96.71c-.353 0-.633-.365-.633-.813v-4.434c0-.448.28-.813.633-.813h96.71c6.633 0 12.024 6.52 12.024 14.538s-5.391 14.538-12.024 14.538v.023z" fill="#69A0F2"/>
        <path fill-rule="evenodd" clip-rule="evenodd" d="M90.527 450.869c0-.321.272-.582.608-.582h83.848c.336 0 .608.261.608.582a.595.595 0 0 1-.608.582H91.135a.595.595 0 0 1-.608-.582zM86.883 457.848c0-.322.272-.582.607-.582h68.051c.336 0 .608.26.608.582a.596.596 0 0 1-.608.582h-68.05a.595.595 0 0 1-.608-.582zM113.613 454.355c0-.321.272-.582.608-.582h65.62c.336 0 .608.261.608.582a.595.595 0 0 1-.608.582h-65.62a.595.595 0 0 1-.608-.582z" fill="#A6A6A6"/>
        <path d="M147.998 468.322H91.452c-6.197 0-11.237 7.034-11.237 15.714 0 8.681 5.028 15.714 11.237 15.714h58.029l-1.483-31.428z" fill="#45AD82"/>
        <path d="M241.842 472.98s-7.77 11.301 0 23.28l-97.436-1.788-5.855-9.846 4.159-9.56 11.173-2.086h87.959z" fill="#fff"/>
        <path d="M147.985 499.75c-7.217 0-13.09-7.045-13.09-15.714s5.873-15.714 13.09-15.714h97.925c.428 0 .782.444.782.982v6.647c0 .538-.342.982-.782.982h-97.925c-3.468 0-6.289 3.189-6.289 7.103 0 3.914 2.821 7.104 6.289 7.104h97.925c.428 0 .782.444.782.981v6.648c0 .537-.342.981-.782.981h-97.925z" fill="#A0D9C6"/>
        <path fill-rule="evenodd" clip-rule="evenodd" d="M157.383 481.127c0-.322.272-.582.607-.582h71.697c.335 0 .607.26.607.582a.595.595 0 0 1-.607.582H157.99a.595.595 0 0 1-.607-.582zM164.672 486.945c0-.321.272-.582.607-.582h71.697c.335 0 .607.261.607.582a.595.595 0 0 1-.607.582h-71.697a.595.595 0 0 1-.607-.582z" fill="#A6A6A6"/>
        <path fill-rule="evenodd" clip-rule="evenodd" d="M85.676 491.603c0-.321.272-.582.607-.582h47.393c.335 0 .607.261.607.582a.595.595 0 0 1-.607.582H86.283a.595.595 0 0 1-.607-.582z" fill="#2A7F57"/>
        <path d="M246.687 503.244s-7.972 11.3 0 23.28l-115.516-1.788-6.003-9.846 4.264-9.56 11.462-2.086h105.793z" fill="#fff"/>
        <path d="M139.749 503.244s-5.983 11.3 0 23.28l-86.629-1.788-4.51-9.846 3.196-9.56 8.6-2.086h79.343z" fill="#CACBCC"/>
        <path d="M57.994 530.014c-7.183 0-13.03-7.045-13.03-15.714s5.847-15.714 13.03-15.714H170.58c.425 0 .766.432.766.97v6.671c0 .537-.341.969-.766.969H57.994c-3.452 0-6.26 3.19-6.26 7.104s2.808 7.103 6.26 7.103H170.58c.425 0 .766.433.766.97v6.671c0 .538-.341.97-.766.97H57.994z" fill="#466AC4"/>
        <path fill-rule="evenodd" clip-rule="evenodd" d="M62.59 511.391c0-.322.272-.582.607-.582h68.051c.336 0 .608.26.608.582a.596.596 0 0 1-.608.582h-68.05a.596.596 0 0 1-.608-.582zM57.715 518.375c0-.321.272-.582.607-.582h70.481c.336 0 .608.261.608.582a.596.596 0 0 1-.608.582h-70.48a.596.596 0 0 1-.608-.582zM72.305 516.049c0-.322.272-.582.607-.582h60.76c.335 0 .607.26.607.582a.595.595 0 0 1-.607.582h-60.76a.595.595 0 0 1-.607-.582z" fill="#A6A6A6"/>
        <path d="M251.539 498.586H142.172v8.148h109.367v-8.148zM251.539 521.865H142.172v8.148h109.367v-8.148z" fill="#879BED"/>
        <path fill-rule="evenodd" clip-rule="evenodd" d="M148.863 512.557c0-.322.272-.582.608-.582h85.063c.336 0 .608.26.608.582a.596.596 0 0 1-.608.582h-85.063a.596.596 0 0 1-.608-.582zM188.965 518.375c0-.321.272-.582.607-.582h49.823c.336 0 .608.261.608.582a.596.596 0 0 1-.608.582h-49.823a.595.595 0 0 1-.607-.582z" fill="#CCC"/>
        <path fill-rule="evenodd" clip-rule="evenodd" d="M188.965 461.34c0-.322.272-.582.607-.582h49.823c.336 0 .608.26.608.582a.596.596 0 0 1-.608.582h-49.823a.595.595 0 0 1-.607-.582z" fill="#2F65B0"/>
        <path d="M88.71 413.613s7.77 11.301 0 23.28l97.437-1.788 5.855-9.846-4.159-9.56-11.174-2.086H88.711z" fill="#CACBCC"/>
        <path d="M147.047 413.613s6.489 11.301 0 23.28l81.381-1.788 4.897-9.846-3.475-9.56-9.333-2.086h-73.47z" fill="#fff"/>
        <path d="M225.184 439.221h-84.887c-.306 0-.551-.366-.551-.802v-4.437c0-.449.245-.815.551-.815h84.9c3.528 0 6.408-3.811 6.408-8.496 0-4.685-2.88-8.496-6.408-8.496h-84.9c-.306 0-.551-.366-.551-.815v-4.436c0-.449.245-.803.551-.803h84.9c5.82 0 10.549 6.526 10.549 14.55 0 8.024-4.729 14.55-10.549 14.55h-.013z" fill="#5499ED"/>
        <path fill-rule="evenodd" clip-rule="evenodd" d="M192.609 420.594c0-.322.272-.582.608-.582h30.38c.335 0 .607.26.607.582a.595.595 0 0 1-.607.582h-30.38a.596.596 0 0 1-.608-.582zM153.727 428.744c0-.321.272-.582.607-.582H223.6c.336 0 .608.261.608.582a.595.595 0 0 1-.608.582h-69.266a.595.595 0 0 1-.607-.582zM161.016 425.252c0-.322.272-.582.607-.582h65.62c.336 0 .608.26.608.582a.596.596 0 0 1-.608.582h-65.62a.595.595 0 0 1-.607-.582z" fill="#A6A6A6"/>
        <path d="M87.033 410.133h53.924v5.808H87.033c-.422 0-.76-.319-.76-.719v-4.382c0-.399.338-.719.76-.719v.012zM140.246 433.4H86.985c-.393 0-.712.302-.712.675v4.471c0 .372.319.674.712.674h53.261c.393 0 .711-.302.711-.674v-4.471c0-.373-.318-.675-.711-.675z" fill="#2580CA"/>
        <path d="M768.009 529.828H38.894v27.976H768.01v-27.976zM31.59 557.801H14.579v102.578h17.013V557.801z" fill="#CECECE"/>
        <path d="M196.865 557.801h-19.443v102.578h19.443V557.801zM753.419 557.801h-17.013v102.578h17.013V557.801z" fill="#CECECE"/>
        <path d="M162.835 529.828H0v27.976h162.835v-27.976z" fill="#B5B5B5"/>
        <path d="M499.445 503.277c-92.553-.437-97.795 13.286-97.795 13.286s-1.682-14.159-108.775-13.286c2.167 7.139 2.433 13.947 0 20.295l96.863-1.557c2.373 0 4.721.46 6.912 1.357l4.831 1.982 4.891-1.852a22.802 22.802 0 0 1 8.099-1.475l84.986 1.545c-3.293-6.548-3.087-13.321 0-20.283l-.012-.012z" fill="#DEDEDE"/>
        <path fill-rule="evenodd" clip-rule="evenodd" d="M392.307 521.69a3.424 3.424 0 0 1 1.102 2.501v1.164h16.928v-.6c0-.939.395-1.84 1.096-2.496a3.736 3.736 0 0 1 2.631-.995l87.899 1.884c2.013.043 3.608 1.641 3.563 3.569-.045 1.928-1.713 3.456-3.726 3.413l-84.723-1.816c-1.026 2.329-3.386 4.025-6.269 4.025h-17.871c-3.104 0-5.603-1.967-6.481-4.573l-95.923 2.376c-2.013.05-3.687-1.473-3.739-3.401-.052-1.927 1.538-3.531 3.55-3.581l99.325-2.46a3.735 3.735 0 0 1 2.638.99z" fill="#004DC7"/>
        <path d="m402.234 516.042 96-50.052c-50.044 2.394-96 50.052-96 50.052z" fill="#DEDEDE"/>
        <path d="m402.234 516.045 98.431-31.428c-65.178 8.778-98.431 31.428-98.431 31.428z" fill="#DEDEDE"/>
        <path d="M403.465 518.358c7.877-5.358 17.483-7.442 26.654-9.129 16.721-2.84 33.901-2.89 50.779-1.959l11.264.893-11.288-.434c-21.669-.559-58.704-.571-77.421 10.641l.012-.012z" fill="#919191"/>
        <path d="M415.605 514.881c25.152-4.215 51.139-4.257 76.557-2.019-25.515-1.166-51.223-1.135-76.557 2.019zM420.469 517.789c23.13-.768 48.566-.784 71.696 0-23.13.784-48.566.768-71.696 0zM398.587 517.206c-7.738-2.988-16.349-4.656-24.572-6.111-20.946-3.448-42.292-4.008-63.529-3.56l-12.759.459 12.734-.873c12.651-.526 25.689-.604 38.327.291 16.87 1.321 34.178 3.481 49.799 9.794z" fill="#919191"/>
        <path d="M377.921 514.881c-26.217-3.057-52.674-3.131-78.987-1.652 26.241-2.723 52.914-2.625 78.987 1.652zM384.005 517.207c-27.62 1.369-58.635 2.213-86.278 2.328 27.619-1.369 58.634-2.2 86.278-2.328z" fill="#919191"/>
        <path d="m714.532 254.631-60.156-5.145-26.122 72.909 42.566 3.893 25.574 2.35-.244-.479 6.424.479 11.958-74.007z" fill="#4883F7"/>
        <path d="m563.848 310.711 18.826-1.66a51.66 51.66 0 0 1 13.062.517l34.947 5.908-2.364 5.017-52.311-.373-12.16-9.409z" fill="#FCDDD5"/>
        <path d="M236.961 158.113c-4.899.938-5.704 1.698-6.684 6.402-.98-4.693-1.773-5.464-6.683-6.402 4.899-.939 5.703-1.698 6.683-6.402.98 4.692 1.773 5.463 6.684 6.402z" fill="#fff"/>
    </g>
    <defs>
        <clipPath id="3unasn38fa">
            <path fill="#fff" d="M0 0h768v660H0z"/>
        </clipPath>
    </defs>
</svg>
