<svg width="144" height="144" viewBox="0 0 144 144" fill="none" xmlns="http://www.w3.org/2000/svg">
    <path d="M18 66c0-6.627 5.373-12 12-12h42c6.627 0 12 5.373 12 12v24c0 6.627-5.373 12-12 12H30l-12 12V66z" fill="#55EDA4"/>
    <path d="M36 67.5a1.5 1.5 0 0 1 1.5-1.5h15a1.5 1.5 0 0 1 0 3h-15a1.5 1.5 0 0 1-1.5-1.5zM36 76.5a1.5 1.5 0 0 1 1.5-1.5h15a1.5 1.5 0 0 1 0 3h-15a1.5 1.5 0 0 1-1.5-1.5zM36 85.5a1.5 1.5 0 0 1 1.5-1.5h27a1.5 1.5 0 0 1 0 3h-27a1.5 1.5 0 0 1-1.5-1.5z" fill="#fff"/>
    <path d="M126 42c0-6.627-5.373-12-12-12H72c-6.627 0-12 5.373-12 12v24c0 6.627 5.373 12 12 12h42l12 12V42z" fill="#55EDA4" style="mix-blend-mode:multiply"/>
    <path d="M78 43.5a1.5 1.5 0 0 1 1.5-1.5h27a1.5 1.5 0 0 1 0 3h-27a1.5 1.5 0 0 1-1.5-1.5zM78 52.5a1.5 1.5 0 0 1 1.5-1.5h27a1.5 1.5 0 0 1 0 3h-27a1.5 1.5 0 0 1-1.5-1.5zM90 61.5a1.5 1.5 0 0 1 1.5-1.5h15a1.5 1.5 0 0 1 0 3h-15a1.5 1.5 0 0 1-1.5-1.5z" fill="#fff"/>
</svg>
