<svg width="144" height="144" viewBox="0 0 144 144" fill="none" xmlns="http://www.w3.org/2000/svg">
    <path d="M132 57v57.465c0 8.029-7.926 14.535-17.709 14.535H29.697C19.927 129 12 122.494 12 114.465V57h120z" fill="#F7F7F7"/>
    <path d="M26.817 27h90.366C125.359 27 132 33.824 132 42.226V57H12V42.226C12 33.824 18.64 27 26.817 27z" fill="#FF5F4F"/>
    <path opacity=".5" d="M36 51a9 9 0 1 0 0-18 9 9 0 0 0 0 18z" fill="#D02110"/>
    <path d="M36.007 12h-.014C32.683 12 30 14.649 30 17.916v24.168C30 45.351 32.683 48 35.993 48h.014C39.317 48 42 45.352 42 42.084V17.916C42 14.648 39.317 12 36.007 12z" fill="#CDCDCD"/>
    <path opacity=".5" d="M108 51a9 9 0 0 0 9-9 9 9 0 0 0-9-9 9 9 0 0 0-9 9 9 9 0 0 0 9 9z" fill="#D02110"/>
    <path d="M108.007 12h-.014c-3.31 0-5.993 2.649-5.993 5.916v24.168c0 3.267 2.683 5.916 5.993 5.916h.014c3.31 0 5.993-2.648 5.993-5.916V17.916c0-3.268-2.683-5.916-5.993-5.916z" fill="#CDCDCD"/>
    <path d="M39 69h-6a3 3 0 0 0-3 3v6a3 3 0 0 0 3 3h6a3 3 0 0 0 3-3v-6a3 3 0 0 0-3-3zM57 69h-6a3 3 0 0 0-3 3v6a3 3 0 0 0 3 3h6a3 3 0 0 0 3-3v-6a3 3 0 0 0-3-3z" fill="#C1C1C1"/>
    <path d="M75 69h-6a3 3 0 0 0-3 3v6a3 3 0 0 0 3 3h6a3 3 0 0 0 3-3v-6a3 3 0 0 0-3-3z" fill="#EF412F"/>
    <path d="M93 69h-6a3 3 0 0 0-3 3v6a3 3 0 0 0 3 3h6a3 3 0 0 0 3-3v-6a3 3 0 0 0-3-3zM111 69h-6a3 3 0 0 0-3 3v6a3 3 0 0 0 3 3h6a3 3 0 0 0 3-3v-6a3 3 0 0 0-3-3z" fill="#C1C1C1"/>
    <path d="M39 87h-6a3 3 0 0 0-3 3v6a3 3 0 0 0 3 3h6a3 3 0 0 0 3-3v-6a3 3 0 0 0-3-3z" fill="#EF412F"/>
    <path d="M57 87h-6a3 3 0 0 0-3 3v6a3 3 0 0 0 3 3h6a3 3 0 0 0 3-3v-6a3 3 0 0 0-3-3zM75 87h-6a3 3 0 0 0-3 3v6a3 3 0 0 0 3 3h6a3 3 0 0 0 3-3v-6a3 3 0 0 0-3-3zM93 87h-6a3 3 0 0 0-3 3v6a3 3 0 0 0 3 3h6a3 3 0 0 0 3-3v-6a3 3 0 0 0-3-3zM111 87h-6a3 3 0 0 0-3 3v6a3 3 0 0 0 3 3h6a3 3 0 0 0 3-3v-6a3 3 0 0 0-3-3z" fill="#C1C1C1"/>
</svg>
