<svg width="144" height="144" viewBox="0 0 144 144" fill="none" xmlns="http://www.w3.org/2000/svg">
<path d="M18 33C18 26.3726 23.3726 21 30 21H45.1672C47.0301 21 48.8675 21.4337 50.5337 22.2669L57.4663 25.7331C59.1325 26.5663 60.9699 27 62.8328 27H114C120.627 27 126 32.3726 126 39V99C126 105.627 120.627 111 114 111H30C23.3726 111 18 105.627 18 99V33Z" fill="#F9CD5D"/>
<path d="M24 39C24 35.6863 26.6863 33 30 33H114C117.314 33 120 35.6863 120 39V99C120 102.314 117.314 105 114 105H30C26.6863 105 24 102.314 24 99V39Z" fill="white"/>
<path d="M18 51C18 44.3726 23.3726 39 30 39H114C120.627 39 126 44.3726 126 51V105C126 111.627 120.627 117 114 117H30C23.3726 117 18 111.627 18 105V51Z" fill="#FFDB7E"/>
<path fill-rule="evenodd" clip-rule="evenodd" d="M78 57H66V78H57L72 93L87 78H78V57Z" fill="#F7C23A"/>
<path fill-rule="evenodd" clip-rule="evenodd" d="M66 78H57L72 93L87 78H78V57H66V78ZM69 60V81H64.2426L72 88.7574L79.7574 81H75V60H69Z" fill="#F5BD2B"/>
<path d="M18 99H126V102H18V99Z" fill="#F9C94E"/>
<path d="M18 102H126V105H18V102Z" fill="#FFE7AA"/>
</svg>
