<svg width="144" height="144" viewBox="0 0 144 144" fill="none" xmlns="http://www.w3.org/2000/svg">
    <path d="M9 39c0-6.627 5.373-12 12-12h102c6.627 0 12 5.373 12 12v72c0 6.627-5.373 12-12 12H21c-6.627 0-12-5.373-12-12V39z" fill="#E6E6E6"/>
    <path d="M21 36c0-1.66 1.35-3 3-3s3 1.35 3 3-1.35 3-3 3-3-1.35-3-3z" fill="#FF693C"/>
    <path fill-rule="evenodd" clip-rule="evenodd" d="M24.003 33.3a2.702 2.702 0 0 0-2.7 2.7c0 1.484 1.215 2.7 2.7 2.7s2.7-1.216 2.7-2.7c0-1.486-1.215-2.7-2.7-2.7zm-3.3 2.7c0-1.827 1.484-3.3 3.3-3.3 1.817 0 3.3 1.483 3.3 3.3 0 1.816-1.483 3.3-3.3 3.3a3.308 3.308 0 0 1-3.3-3.3z" fill="#FF3E3E"/>
    <path d="M33 36c0-1.66 1.35-3 3-3s3 1.35 3 3-1.35 3-3 3-3-1.35-3-3z" fill="#FFC83C"/>
    <path fill-rule="evenodd" clip-rule="evenodd" d="M36.003 33.3a2.702 2.702 0 0 0-2.7 2.7c0 1.484 1.215 2.7 2.7 2.7s2.7-1.216 2.7-2.7c0-1.486-1.215-2.7-2.7-2.7zm-3.3 2.7c0-1.827 1.484-3.3 3.3-3.3 1.817 0 3.3 1.483 3.3 3.3 0 1.816-1.483 3.3-3.3 3.3a3.308 3.308 0 0 1-3.3-3.3z" fill="#FFB23E"/>
    <path d="M45 36c0-1.66 1.35-3 3-3s3 1.35 3 3-1.35 3-3 3-3-1.35-3-3z" fill="#2BF57C"/>
    <path fill-rule="evenodd" clip-rule="evenodd" d="M48.003 33.3a2.702 2.702 0 0 0-2.7 2.7c0 1.484 1.215 2.7 2.7 2.7s2.7-1.216 2.7-2.7c0-1.486-1.215-2.7-2.7-2.7zm-3.3 2.7c0-1.827 1.484-3.3 3.3-3.3 1.817 0 3.3 1.483 3.3 3.3 0 1.816-1.483 3.3-3.3 3.3a3.308 3.308 0 0 1-3.3-3.3z" fill="#23D76B"/>
    <path d="M21 57a6 6 0 0 1 6-6h90a6 6 0 0 1 6 6v48a6 6 0 0 1-6 6H27a6 6 0 0 1-6-6V57z" fill="#fff"/>
    <path d="M93 78a6 6 0 1 1 12 0v24H93V78z" fill="#35EC9F"/>
    <path d="M75 84a6 6 0 0 1 12 0v18H75V84z" fill="#ECB135"/>
    <path d="M57 72a6 6 0 0 1 12 0v30H57V72z" fill="#69BBF7"/>
    <path d="M39 90a6 6 0 0 1 12 0v12H39V90z" fill="#FF4258"/>
</svg>
