<svg width="144" height="144" viewBox="0 0 144 144" fill="none" xmlns="http://www.w3.org/2000/svg">
    <path d="M87 108H57v18h30v-18z" fill="#A7A7A7"/>
    <path d="M0 48c0-9.941 8.059-18 18-18h108c9.941 0 18 8.059 18 18v48c0 9.941-8.059 18-18 18H18c-9.941 0-18-8.059-18-18V48z" fill="#838383"/>
    <path d="M126 42H18a6 6 0 0 0-6 6v48a6 6 0 0 0 6 6h108a6 6 0 0 0 6-6V48a6 6 0 0 0-6-6z" fill="#FCFCFC"/>
    <path d="M111.018 126H32.982c-1.647 0-2.982 2.035-2.982 4.545v2.91c0 2.51 1.335 4.545 2.982 4.545h78.036c1.647 0 2.982-2.035 2.982-4.545v-2.91c0-2.51-1.335-4.545-2.982-4.545z" fill="#838383"/>
    <path d="M51 66h14.276C72.304 66 78 72.849 78 81.3V102H24V81.3C24 72.849 28.972 66 36 66h15z" fill="#28EB82"/>
    <path d="M33.016 39H66v3.984C66 45.75 63.158 48 59.664 48H39.336C35.842 48 33 45.75 33 42.984V39h.016z" fill="#7A6D6D"/>
    <path d="m57 66-5.993 6L45 66V54h12v12z" fill="#FFBDB7"/>
    <path d="M52.146 21h-2.292C40.546 21 33 27.633 33 35.815v12.37C33 56.367 40.546 63 49.854 63h2.292C61.454 63 69 56.367 69 48.185v-12.37C69 28.5 61.5 21 52.146 21z" fill="#FFD5D1"/>
    <path d="M69 36.847V39c-5.407 0-10.237-2.311-13.44-5.905C52.355 36.705 47.524 39 42.118 39c-3.34 0-6.458-.87-9.119-2.39C33 26.4 40.695 21 49.95 21h2.1C61.408 21 69 27 69 36.831v.016z" fill="#4B4B4B"/>
    <path d="M46.508 42h-.016c-.824 0-1.492.71-1.492 1.584v2.832c0 .875.668 1.584 1.492 1.584h.016c.824 0 1.492-.71 1.492-1.584v-2.832C48 42.71 47.332 42 46.508 42zM55.508 42h-.016c-.824 0-1.492.71-1.492 1.584v2.832c0 .875.668 1.584 1.492 1.584h.016c.824 0 1.492-.71 1.492-1.584v-2.832C57 42.71 56.332 42 55.508 42z" fill="#7A6D6D"/>
    <path d="M45 51h12c0 1.651-1.797 3-4.031 3H49.03C46.813 54 45 52.663 45 51z" fill="url(#ssi4h8stsa)"/>
    <path d="M30 40a3 3 0 0 1 3-3" fill="#FFBDB7"/>
    <path d="M78 63a3 3 0 0 1 3-3h18a3 3 0 0 1 3 3" fill="#FFD5D1"/>
    <path d="M93 66H78v36h15V66z" fill="#28EB82"/>
    <path d="M78 12c0-6.627 5.373-12 12-12h42c6.627 0 12 5.373 12 12v24c0 6.627-5.373 12-12 12H90L78 60V12z" fill="#F83737"/>
    <path d="M86.426 32.997h11.256v-3.6h-6.96v-14.28h-4.296v17.88zM100.77 32.997h4.296v-17.88h-4.296v17.88zM112.232 32.997h5.16l5.352-17.88h-4.368l-2.016 8.16c-.504 1.92-.864 3.744-1.392 5.712h-.12c-.504-1.968-.864-3.792-1.392-5.712l-2.04-8.16h-4.536l5.352 17.88zM124.582 32.997h11.592v-3.6h-7.296v-3.792h5.976v-3.6h-5.976v-3.312h7.032v-3.576h-11.328v17.88z" fill="#fff"/>
    <defs>
        <linearGradient id="ssi4h8stsa" x1="45" y1="52.5" x2="56.984" y2="52.5" gradientUnits="userSpaceOnUse">
            <stop stop-color="#D04337"/>
            <stop offset=".07" stop-color="#D24D3E"/>
            <stop offset=".31" stop-color="#D86A54"/>
            <stop offset=".54" stop-color="#DD7E63"/>
            <stop offset=".77" stop-color="#E08A6C"/>
            <stop offset="1" stop-color="#E18F70"/>
        </linearGradient>
    </defs>
</svg>
