<svg width="144" height="144" viewBox="0 0 144 144" fill="none" xmlns="http://www.w3.org/2000/svg">
    <path d="M108 114c0 4.971-16.118 9-36 9s-36-4.029-36-9 16.118-9 36-9 36 4.029 36 9z" fill="#FFCD5A"/>
    <path d="M81 108a9 9 0 0 1-9 9 9 9 0 0 1-9-9 9 9 0 0 1 9-9 9 9 0 0 1 9 9z" fill="#D89400"/>
    <path d="M66.285 29.993a5.721 5.721 0 1 1 11.43 0L76.18 62.19A4 4 0 0 1 72.186 66h-.372a4 4 0 0 1-3.995-3.81l-1.534-32.197z" fill="#F8E292"/>
    <path d="M42 78c0-16.569 13.431-30 30-30 16.569 0 30 13.431 30 30v11.298c0 4.439.716 8.849 2.119 13.06L108 114a113.847 113.847 0 0 0-72 0l3.88-11.642A41.3 41.3 0 0 0 42 89.298V78z" fill="#FFE170"/>
    <path d="M108 57a9 9 0 1 1-9-9 9 9 0 0 1 9 9z" fill="#FF2323"/>
</svg>
