<svg width="144" height="144" viewBox="0 0 144 144" fill="none" xmlns="http://www.w3.org/2000/svg">
    <path d="M12 45c0-6.627 5.373-12 12-12h96c6.627 0 12 5.373 12 12v54c0 6.627-5.373 12-12 12H24c-6.627 0-12-5.373-12-12V45z" fill="#51ABFF"/>
    <path d="M78 63c0-6.627 5.373-12 12-12h18c6.627 0 12 5.373 12 12s-5.373 12-12 12H90c-6.627 0-12-5.373-12-12z" fill="#62F3A5"/>
    <path d="M81 63a9 9 0 1 1 18 0 9 9 0 0 1-18 0zM27 90a3 3 0 0 1 3-3h12a3 3 0 1 1 0 6H30a3 3 0 0 1-3-3zM51 90a3 3 0 0 1 3-3h12a3 3 0 1 1 0 6H54a3 3 0 0 1-3-3zM75 90a3 3 0 0 1 3-3h12a3 3 0 1 1 0 6H78a3 3 0 0 1-3-3zM99 90a3 3 0 0 1 3-3h12a3 3 0 1 1 0 6h-12a3 3 0 0 1-3-3z" fill="#fff"/>
    <path d="M24 57a6 6 0 0 1 6-6h18a6 6 0 0 1 6 6v12a6 6 0 0 1-6 6H30a6 6 0 0 1-6-6V57z" fill="#FFCD1E"/>
    <path fill-rule="evenodd" clip-rule="evenodd" d="M54 60H24v-3h30v3z" fill="#DFAE00"/>
    <path fill-rule="evenodd" clip-rule="evenodd" d="M30 75V51h3v24h-3zM39 60v-9h3v9h-3zM45 69v-9h3v9h-3z" fill="#DFAE00"/>
    <path fill-rule="evenodd" clip-rule="evenodd" d="M54 69H24v-3h30v3z" fill="#DFAE00"/>
</svg>
