<svg width="144" height="144" viewBox="0 0 144 144" fill="none" xmlns="http://www.w3.org/2000/svg">
    <path d="M66 75h12v18H66V75z" fill="#A7A7A7"/>
    <path fill-rule="evenodd" clip-rule="evenodd" d="M12 39v24h120V39H12zM6 27a6 6 0 0 0-6 6v36a6 6 0 0 0 6 6h132a6 6 0 0 0 6-6V33a6 6 0 0 0-6-6H6z" fill="#28EB82"/>
    <path d="M12 39h120v24H12V39z" fill="url(#u30czi6i9a)"/>
    <path fill-rule="evenodd" clip-rule="evenodd" d="M72 72c11.598 0 21-9.402 21-21s-9.402-21-21-21-21 9.402-21 21 9.402 21 21 21zm0 12c18.225 0 33-14.775 33-33S90.225 18 72 18 39 32.775 39 51s14.775 33 33 33z" fill="#777"/>
    <path d="M63 96a6 6 0 0 1 6-6h6a6 6 0 0 1 6 6v24a6 6 0 0 1-6 6h-6a6 6 0 0 1-6-6V96z" fill="#777"/>
    <defs>
        <linearGradient id="u30czi6i9a" x1="12" y1="63" x2="132" y2="63" gradientUnits="userSpaceOnUse">
            <stop stop-color="#EEE"/>
            <stop offset="1" stop-color="#F0F0F0" stop-opacity="0"/>
        </linearGradient>
    </defs>
</svg>
