<svg width="480" height="432" viewBox="0 0 480 432" fill="none" xmlns="http://www.w3.org/2000/svg">
    <g clip-path="url(#gndqgb5c3a)">
        <circle cx="222" cy="216" r="180" fill="#fff"/>
        <path d="M155.65 108s3.101 11.384-1.788 31.533c0 0-12.849 38.368 8.326 46.467l91.207-2.716s19.368-3.04-3.713-53.683L155.65 108zM142.714 480H303c-4.115-94.077-18.667-133.605-18.667-133.605L162.361 342c-27.887 37.819-20.466 122.394-20.466 122.394l.819 15.596v.01z" fill="#333232"/>
        <path d="m193.75 112.569-3.8 42.354L144 177.104 227.43 276 261 157.94l-25.13-4.956L234.12 111l-40.37 1.569z" fill="#FCE6E0"/>
        <path d="M248.234 70.706c15.57 35.788 1.208 65.973-12.364 70.553-25.752 8.689-49.233-3.774-62.25-30.411-13.017-26.637-2.241-45.263 20.179-56.891 16.592-8.61 42.149-11.49 54.435 16.749z" fill="#FCE6E0"/>
        <path d="M191.433 120.469s1.527-29.505 18.124-40.408c0 0 13.992-9.928 10.614-21.898 0 0 15.284-7.308 27.866 22.097 0 0 3.231 8.235 6.501 12.138 0 0 5.62-22.275-22.353-41.085 0 0-10.555-6.941-19.074-3.615 0 0-16.009-8.663-35.082 5.058 0 0-45.207 32.313-14.11 79.244l24.714-10.356 2.81-1.175h-.01z" fill="#333232"/>
        <path d="M223.877 89.99c-.111 0-.223-.018-.335-.045-.051-.019-5.538-1.568-9.115-.618-.589.157-1.209-.148-1.382-.682-.172-.535.163-1.097.752-1.254 4.238-1.134 10.172.553 10.426.627.589.166.914.737.721 1.272-.152.433-.589.71-1.067.71v-.01zM241.136 87c-.37 0-.74-.121-.956-.343-.339-.343-.185-.8.339-1.022.165-.067 4.092-1.681 7.381-1.634.627.013 1.11.35 1.1.753-.01.404-.545.746-1.151.72h-.114c-2.6 0-5.961 1.391-5.992 1.405-.185.08-.401.114-.607.114V87zM239.134 105c-.404 0-.769-.317-.856-.774l-1.261-7.072c-.095-.52.214-1.03.682-1.135.468-.106.928.238 1.023.757l1.261 7.072c.095.519-.214 1.029-.682 1.134-.056.009-.111.018-.167.018zM225 100.447a4.486 4.486 0 0 1-4.434 4.553c-2.481.032-4.529-1.967-4.566-4.447A4.486 4.486 0 0 1 220.434 96a4.52 4.52 0 0 1 4.566 4.447zM251.999 97.452a4.471 4.471 0 0 1-4.42 4.548c-2.48.032-4.526-1.965-4.578-4.452a4.47 4.47 0 0 1 4.42-4.548 4.548 4.548 0 0 1 4.578 4.452z" fill="#333232"/>
        <path d="M219.009 117.227c-.003-.004-.001-.01.004-.011l28.871-3.096c.594-.064 1.103.404 1.051 1-.334 3.793-2.367 15.974-14.705 16.875h-.011c-.181.01-12.489.58-15.208-14.764l-.002-.004z" fill="#EDB79F"/>
        <path d="M234.078 132c-1.629 0-12.564-.517-15.062-13.923-.05-.287.02-.584.2-.814.18-.229.459-.383.759-.411l27.816-2.844c.309-.039.619.067.849.268.23.201.36.488.36.785 0 .163-.31 15.953-14.722 16.939h-.2zm-12.664-13.185c2.709 11.414 12.314 11.098 12.734 11.078 5.167-.354 8.875-2.93 10.994-7.66 1.049-2.346 1.449-4.663 1.589-6.013l-25.317 2.595zM225.939 147c-6.673 0-16.606-1.237-24.609-7.436-.34-.257-.43-.794-.21-1.179.22-.397.68-.502 1.01-.245 12.595 9.747 30.841 6.654 31.031 6.619.401-.07.771.245.831.712.06.467-.21.899-.611.969-.3.058-3.221.548-7.442.548V147z" fill="#333232"/>
        <path d="M183 180.128s7.788 16.907 45.823 13.151c0 0 15.744-1.489 18.234-13.279 0 0 8.799 57.127-11.052 84 0 0-34.672-20.534-53.005-83.872z" fill="#fff"/>
        <path d="m152.958 351.133 17.172-68.41L144 175.497l32.052-13.488c5.763-3.473 9.89-7.657 9.89-7.657 2.936-4.729 4.176-3.968 4.176-3.968l-.535 5.936s-23.987 18.718 27.27 26.266c0 0 3.968 36.317 15.158 46.388 0 0 9.384-25.148 3.859-50.513 0 0 7.777-8.788 0-23.964v-4.499s.05-.306 2.768 2.513c0 0 3.303 1.168 20.862 4.987l13.987 48.871-1.498 78.273 16.011 63.8s-8.263 4.937-22.112 4.224c0 0-11.626.901-15.019-9.705 0 0 .913 10.774-14.86 12.94 0 0-25.415 4.522-83.071-4.798l.02.03z" fill="#5AE8A4"/>
        <path d="M247.197 154.851s3.298.483 5.943-.581c0 0 16.663-7.16 31.084 12.519L330 226.111 290.62 270 246 216.282l1.197-61.431z" fill="#5AE8A4"/>
        <path d="m170.912 340.772 15.004-1.483s11.467-2.646 18.984 8.083L222 370.04s-7.477 5.926-12.979-1.552l8.021 10.377s-6.267 6.658-14.198-1.806l2.973 4.93s-6.499 6.179-14.41-3.72c0 0-6.821-8.688-12.736-13.55 0 0 5.542 6.404 13.512 21.653 0 0-7.749 3.427-14.198-5.73L166.8 368.898s-15.205-1.221-19.8-6.18l23.922-21.946h-.01z" fill="#FFE8DC"/>
        <path d="M203.475 378c-.535 0-1.322-.919-17.309-19.825a.695.695 0 0 1 .126-1.018.8.8 0 0 1 1.081.118c6.351 7.511 16.018 18.887 16.627 19.46l-.514.484.084.771h-.084l-.011.01zM206.326 366a.682.682 0 0 1-.524-.246l-13.653-16.665a.66.66 0 0 1 .102-.937.67.67 0 0 1 .947.1l13.653 16.665a.66.66 0 0 1-.102.937.675.675 0 0 1-.423.146z" fill="#333232"/>
        <path d="M165 166.502s-3.866 1.561-13.397 1.831c0 0-27.176-11.176-45.849 31.535L78 275.165l53.303 12.836L168 216.796 169.5 165l-4.5 1.502z" fill="#5AE8A4"/>
        <path d="m407.094 169.061 17.627-4.027c6.81-.342 6.691 2.039 6.691 2.039 8.4.391 8.49 3.144 8.49 3.144 8.938-.231 10.339 3.646 10.339 3.646l-3.768 2.009c9.117-2.039 12.527 4.329 12.527 4.329l-16.434 10.014c-12.626 6.298-35.899 7.675-35.899 7.675L394.081 207 372 183.465l15.459-11.37s4.882-4.169 19.625-3.024l.01-.01z" fill="#FFE8DC"/>
        <path d="M405.908 171.167s10.818-5.109.919-9.167l-8.8 5.307s-8.185 1.193-10.761 4.997c-2.577 3.804 14.436 4.696 14.436 4.696" fill="#FFE8DC"/>
        <path d="M411.712 183a.776.776 0 0 1-.582-.254c-.222-.27-.155-.647.165-.835 6.737-4.046 22.652-1.515 24.843-1.139l9.858-3.718c.358-.139.775 0 .94.303.165.303 0 .655-.359.795l-10.061 3.792a.872.872 0 0 1-.436.04c-.175-.032-17.379-3.046-23.961.901a.82.82 0 0 1-.407.115zM426.804 177c-.318 0-.614-.16-.746-.434-.165-.358.033-.754.45-.896l13.391-4.62c.406-.142.878.028 1.043.386.165.359-.033.755-.45.896l-13.391 4.621a.81.81 0 0 1-.297.047zM417.798 174a.798.798 0 0 1-.755-.518.768.768 0 0 1 .493-.982l13.403-4.458c.416-.137.875.074 1.018.475a.769.769 0 0 1-.493.983l-13.403 4.458a.778.778 0 0 1-.263.042z" fill="#333232"/>
        <path d="M431.31 183h-.093c-.271-.042-.402-.223-.56-.435-1.672-2.268-6.873-7.769-19.086-10.027-.374-.064-.626-.466-.561-.89.056-.424.411-.71.785-.636 12.661 2.342 18.143 8.161 19.917 10.557l.065.085a.82.82 0 0 1 .215.678c-.047.392-.336.668-.673.668h-.009z" fill="#333232"/>
        <path d="M402.7 182.99c-.308 0-.587-.221-.674-.557-.105-.409.116-.829.481-.945.241-.073 5.818-1.91 7.097-9.857.068-.42.433-.693.818-.619.384.073.634.472.567.892-1.433 8.923-7.828 10.981-8.097 11.065a.612.612 0 0 1-.192.031v-.01z" fill="#333232"/>
        <path d="M132.081 285.918 183 337.166 142.503 372 88.42 316.762S66.01 297.758 79.109 273l52.962 12.928.01-.01zM315.029 214.173s12.125-6.379 66.9-37.173L411 216.634s-50.262 25.893-76.643 48.424c0 0-27.019 22.946-46.357 2.381l27.029-53.256v-.01z" fill="#5AE8A4"/>
        <path d="M159 236.773s5.653-21.646 4.232-47.773c0 0 5.284 29.135-2.417 57L159 236.773zM272.723 248.92S278.242 214.595 267 183c0 0 15.396 21.661 11.31 72l-5.587-6.071v-.009zM189.972 117.01s19.963 34.474-19.668 47.99L168 135.392 189.972 117v.01z" fill="#333232"/>
        <path d="M202.447 104.642c5.58 6.062 6.107 14.496 1.161 18.835-4.937 4.338-13.474 2.944-19.055-3.119-5.58-6.062-6.107-14.496-1.161-18.835 4.947-4.338 13.474-2.944 19.055 3.119z" fill="#FFE8DC"/>
    </g>
    <defs>
        <clipPath id="gndqgb5c3a">
            <path fill="#fff" d="M0 0h480v432H0z"/>
        </clipPath>
    </defs>
</svg>
