<svg width="1125" height="726" viewBox="0 0 1125 726" fill="none" xmlns="http://www.w3.org/2000/svg">
<circle cx="186" cy="133" r="109" fill="#F7F9FA"/>
<path d="M57 21V281.205C57 284.951 59.9897 288 63.6901 288H428.31C431.998 288 435 284.963 435 281.205V21H57Z" fill="#FDFEFF"/>
<path d="M435 6.18113C435 2.77359 432.01 0 428.31 0H63.69C60.0019 0 57 2.76226 57 6.18113V21H435V6.18113Z" fill="#E7E7E7"/>
<path d="M426 30H63V279H426V30Z" fill="#F4F4F4"/>
<path d="M254.425 63H165.575C163.601 63 162 64.7275 162 66.8585V131.141C162 133.272 163.601 135 165.575 135H254.425C256.399 135 258 133.272 258 131.141V66.8585C258 64.7275 256.399 63 254.425 63Z" fill="#777777"/>
<path d="M248.464 66H168.536C166.583 66 165 67.7192 165 69.8399V125.16C165 127.281 166.583 129 168.536 129H248.464C250.417 129 252 127.281 252 125.16V69.8399C252 67.7192 250.417 66 248.464 66Z" fill="#FDFEFF"/>
<path d="M221.17 66.3932C218.034 60.9773 210.873 59.6683 205.523 60.0662C203.481 60.2202 201.487 60.5795 199.602 61.1827C199.201 61.1314 198.764 61.1827 198.289 61.3367C193.402 62.9922 189.244 66.2649 186.18 70.7695C184.697 72.9512 183.676 75.3511 182.849 77.9051C182.533 78.8804 182.266 79.9713 181.706 80.8312C181.074 81.7937 179.907 82.1787 178.947 82.5765C174.241 84.5273 168.187 88.5956 168.005 94.8713C167.798 101.93 174.643 104.907 180.004 104.997C185.05 105.087 190.01 103.085 193.949 99.6839C195.846 98.054 197.475 96.0905 198.764 93.8574C199.919 91.8682 200.599 89.5966 202.435 88.2106C206.277 85.3358 211.25 85.0535 215.043 81.9477C217.158 80.2023 218.97 78.0847 220.271 75.5308C221.681 72.7587 222.86 69.3321 221.158 66.3932H221.17Z" fill="#428DE4"/>
<path d="M253.171 105.177C252.611 103.534 251.038 101.825 249.36 102.64C244.711 104.901 240.714 109.198 235.599 109.96C231.695 110.538 227.407 109.08 225.193 105.032C222.921 100.879 224.063 95.9115 226.755 92.4157C230.076 88.1183 234.818 86.0288 239.339 84.0181C241.343 83.1244 242.066 80.956 241.192 78.6824C239.864 75.2261 238.78 71.2835 234.807 72.1115C232.325 72.624 229.854 73.8462 227.594 75.1473C223.166 77.6968 218.61 81.6656 216.209 86.8436C215.883 87.5532 215.604 88.276 215.359 89.012C213.052 94.0979 212.294 100.13 213.727 106.044C215.277 112.405 219.088 117.806 224.238 120.539C229.866 123.523 236.216 123.654 242.101 121.683C245.433 120.566 248.649 118.844 251.656 116.807C253.404 115.624 255 114.205 255 111.603C255 109.448 253.835 107.161 253.171 105.19V105.177Z" fill="#F58D6D"/>
<path d="M200.918 125.336C200.471 121.558 199.495 117.78 196.936 114.958C195.145 112.976 192.976 112.079 190.646 111.81C188.305 111.286 185.918 111.053 183.507 111.006C180.386 110.948 177.057 111.297 174.406 113.198C169.758 116.521 165.557 125.137 169.678 130.466C171.491 132.821 174.303 133.486 177.023 133.8C180.259 134.174 183.519 134.36 186.756 134.628C190.141 134.908 193.768 135.573 196.947 133.929C200.126 132.273 201.343 128.927 200.918 125.336Z" fill="#E2DFD5"/>
<path d="M213.278 90.5165C210.442 89.5379 207.307 89.9018 204.93 92.0219C202.783 93.9414 201.623 96.7766 200.428 99.4864C199.82 100.879 199.188 102.297 198.338 103.513C197.351 104.944 196.019 105.985 194.859 107.202C192.735 109.422 191.081 112.759 192.574 115.996C195.548 122.432 204.126 119.772 208.559 117.225C211.234 115.682 213.669 113.512 215.61 110.915C216.632 109.535 217.585 108.055 218.193 106.386C218.848 104.592 218.963 102.711 218.997 100.791C219.078 96.0866 217.401 92.1599 213.278 90.5165C211.797 89.9268 211.154 92.6115 212.635 93.1886C215.368 94.2801 216.632 96.9773 216.574 100.139C216.528 102.861 216.299 105.132 214.921 107.428C213.531 109.736 211.671 111.756 209.627 113.311C207.606 114.842 205.378 115.971 203.024 116.623C200.704 117.263 197.581 117.79 195.594 115.883C193.148 113.525 195.238 110.501 197.064 108.707C198.89 106.913 200.486 105.207 201.68 102.786C202.863 100.39 203.701 97.6799 205.252 95.5472C207.123 92.9628 209.856 92.2352 212.647 93.1886C214.151 93.703 214.794 91.0308 213.29 90.5165H213.278Z" fill="#777777"/>
<path d="M221.945 200.847C221.654 197.153 220.198 193.817 218.1 191.111C216.189 188.628 213.836 186.614 212.135 183.908C211.237 182.475 210.62 180.905 210.329 179.151C210.002 177.162 210.014 175.111 209.734 173.109C209.257 169.625 207.59 166.882 205.633 164.325C204.538 162.879 203.372 161.483 202.382 159.938C201.31 158.27 200.483 156.43 199.924 154.44C198.758 150.314 198.63 145.903 198.852 141.603C198.887 140.936 198.141 140.812 197.873 141.282C194.552 147.077 191.243 152.871 187.922 158.666C185.86 162.274 183.798 165.869 181.735 169.477C181.223 170.366 180.722 171.256 180.209 172.133C179.999 172.504 179.953 172.788 180.046 173.208C181.281 179.04 182.632 184.834 183.926 190.641C186.023 200.093 188.132 209.545 190.229 218.985C191.511 224.755 192.711 230.562 194.086 236.307V236.368C194.098 236.467 194.133 236.554 194.179 236.64C194.296 236.974 194.575 237.06 194.82 236.962C194.843 236.962 194.855 236.937 194.878 236.937C194.913 236.912 194.948 236.9 194.983 236.875C195.007 236.863 195.018 236.863 195.042 236.838C200.984 231.278 207.031 225.842 212.857 220.109C217.669 215.364 222.574 208.816 221.945 200.822V200.847Z" fill="#333232"/>
<path d="M197.988 140.072C198.249 160.487 187.551 177.391 173.41 176.993C155.314 176.486 141.268 161.127 141.007 140.723C140.746 120.308 148.048 108.472 166.143 108.013C184.239 107.543 197.739 119.657 198 140.072H197.988Z" fill="#FCE6E0"/>
<path d="M156.465 159L152.829 187.022L123 207.955L175.543 255L219 204.572L187.347 187.16L186.135 159.674L156.465 159Z" fill="#FCE6E0"/>
<path d="M185.888 163.59C185.964 164.162 185.512 164.658 184.934 164.668L166.133 164.98C165.532 164.99 165.066 164.473 165.181 163.883C165.776 160.842 168.09 152.665 175.755 153.01C175.77 153.011 175.781 153.011 175.796 153.011C176.233 153.02 184.529 153.32 185.888 163.59Z" fill="#F4BFB3"/>
<path d="M175.299 153.012C175.462 153.012 175.624 153.012 175.786 153.012C175.878 153.012 185.07 153.171 185.996 163.603C186.019 163.881 185.938 164.159 185.776 164.371C185.614 164.583 185.383 164.702 185.139 164.702L165.876 164.993C165.621 165.033 165.378 164.874 165.216 164.662C165.054 164.45 164.973 164.159 165.008 163.868C165.02 163.762 166.409 152.999 175.299 152.999L175.299 153.012ZM184.132 162.743C182.87 155.157 176.052 155.011 175.751 155.011C175.612 155.011 175.473 155.011 175.334 155.011C169.43 155.011 167.508 160.558 166.941 163.021L184.132 162.756L184.132 162.743Z" fill="#333232"/>
<path d="M162.003 143.902C161.93 145.558 163.211 146.947 164.867 146.999C166.523 147.05 167.925 145.754 167.997 144.098C168.07 142.442 166.789 141.053 165.133 141.001C163.477 140.95 162.075 142.246 162.003 143.902Z" fill="#333232"/>
<path d="M183.003 140.902C182.93 142.558 184.211 143.947 185.867 143.999C187.523 144.05 188.925 142.754 188.997 141.098C189.07 139.442 187.789 138.053 186.133 138.001C184.477 137.95 183.075 139.246 183.003 140.902Z" fill="#333232"/>
<path d="M178.984 150C178.487 150 178.043 149.651 177.989 149.178L177.008 142.053C176.94 141.543 177.33 141.069 177.882 141.007C178.446 140.945 178.944 141.306 179.011 141.817L179.992 148.941C180.06 149.452 179.67 149.925 179.119 149.988C179.078 149.988 179.038 149.988 178.984 149.988V150Z" fill="#333232"/>
<path d="M160.045 134.99C159.82 134.99 159.596 134.939 159.399 134.827C158.95 134.572 158.866 134.092 159.217 133.766C159.315 133.664 161.784 131.399 167.142 132.154C167.718 132.235 168.082 132.633 167.984 133.052C167.872 133.47 167.325 133.745 166.75 133.664C162.724 133.103 160.956 134.653 160.872 134.714C160.662 134.898 160.353 135 160.045 135V134.99Z" fill="#333232"/>
<path d="M188.214 135C188.079 135 187.943 134.961 187.819 134.856C185.874 133.394 184.064 134.177 184.044 134.177C183.638 134.36 183.191 134.086 183.045 133.577C182.9 133.068 183.118 132.506 183.524 132.323C183.628 132.271 186.051 131.24 188.619 133.159C188.994 133.433 189.108 134.034 188.89 134.504C188.744 134.817 188.484 134.987 188.224 134.987L188.214 135Z" fill="#333232"/>
<path d="M145.754 150.451C145.754 150.451 147.512 138.239 158.239 129.115C158.239 129.115 175.154 117.929 175.903 111.252C175.903 111.252 181.225 117.313 186.82 120.145C186.82 120.145 191.809 121.76 194.576 133.37C194.576 133.37 196.738 140.482 199.471 147.145C199.471 147.145 205.541 132.281 193.495 116.532C193.495 116.532 186.796 106.37 176.319 108.305C176.319 108.305 171.626 102.269 159.439 106.511C159.439 106.511 141.05 111.137 138.318 134.152C138.318 134.152 137.249 145.338 139.031 156L145.731 150.477L145.754 150.451Z" fill="#333232"/>
<path d="M174.31 177C163.719 177 156.249 171.705 156.149 171.636C155.961 171.499 155.949 171.264 156.124 171.117C156.3 170.97 156.6 170.96 156.788 171.097C156.914 171.185 169.685 180.216 185.327 174.205C185.552 174.117 185.841 174.196 185.953 174.372C186.066 174.558 185.966 174.774 185.74 174.862C181.692 176.421 177.832 177 174.31 177Z" fill="#333232"/>
<path d="M138.608 196.265C138.608 196.265 168.122 218.896 201.296 195L218.268 204.19C218.268 204.19 234.102 210.48 236.317 232.288L240 279H96L102.816 236.994C102.816 236.994 104.419 219.892 122.333 207.507L138.608 196.253V196.265Z" fill="#5AE8A4"/>
<path d="M158.821 177.347C158.618 175.598 158.152 173.887 157.292 172.262C156.515 170.811 155.475 169.471 154.376 168.156C152.153 165.515 149.632 162.91 148.807 159.747C148.759 159.549 148.604 159.437 148.413 159.387C147.803 159.077 147.194 158.767 146.585 158.457L146.692 136.937L158.594 108C130.309 122.81 136.606 154.575 136.606 154.575C137.586 157.973 138.064 161.533 137.347 165.006C136.666 168.305 134.659 171.183 132.938 174.197C132.089 175.685 131.337 177.199 130.918 178.799C130.476 180.448 130.321 182.123 130.261 183.81C130.118 187.183 130.345 190.619 129.174 193.906C128.015 197.18 125.78 200.108 124.035 203.196C122.41 206.086 121.084 209.112 120.438 212.238C119.793 215.327 119.793 218.527 120.893 221.553C121.992 224.579 124.238 227.172 126.712 229.603C129.592 232.431 132.854 235.135 134.73 238.496C136.451 241.597 136.702 245.392 133.989 248.196C133.452 248.741 134.539 249.237 135.113 248.878C141.243 245.095 146.704 240.493 150.241 235.011C153.946 229.268 155.272 222.868 153.599 216.554C152.727 213.255 151.376 209.993 151.508 206.595C151.639 203.27 153.026 200.083 154.448 196.97C155.882 193.819 157.292 190.693 158.068 187.394C158.845 184.107 159.239 180.671 158.845 177.323L158.821 177.347Z" fill="#333232"/>
<path d="M151.783 150.961C154.277 156.418 152.816 162.42 148.518 164.38C144.22 166.34 138.71 163.497 136.217 158.039C133.723 152.582 135.184 146.58 139.482 144.62C143.78 142.66 149.29 145.503 151.783 150.961Z" fill="#FCE6E0"/>
<path d="M237.444 204L225 279H269.245L273 216.931L237.444 204Z" fill="#3ADE8F"/>
<path d="M276.012 117.466C275.751 138.757 286.449 156.408 300.59 155.993C318.686 155.464 332.732 139.437 332.993 118.146C333.254 96.8434 325.952 84.4922 307.857 84.0138C289.761 83.5228 276.261 96.1635 276 117.466H276.012Z" fill="#FCE6E0"/>
<path d="M326.881 135L330.125 158.773L366 170.95L310.491 228L273 169.535L295.641 160.393L296.784 135.653L326.881 135Z" fill="#FCE6E0"/>
<path d="M311.979 122.748C312.172 124.394 311.002 125.855 309.35 125.988C307.709 126.133 306.214 124.908 306.021 123.252C305.828 121.606 306.998 120.145 308.65 120.012C310.291 119.867 311.786 121.092 311.979 122.748Z" fill="#333232"/>
<path d="M293.979 122.748C294.172 124.394 293.002 125.855 291.35 125.988C289.709 126.133 288.214 124.908 288.021 123.252C287.828 121.596 288.998 120.145 290.65 120.012C292.291 119.867 293.786 121.092 293.979 122.748Z" fill="#333232"/>
<path d="M298.217 132C298.217 132 298.168 132 298.136 132C297.472 131.963 296.955 131.528 297.003 131.019L297.586 123.878C297.634 123.356 298.233 122.934 298.864 123.009C299.528 123.046 300.045 123.48 299.997 123.99L299.414 131.131C299.382 131.627 298.848 132 298.201 132H298.217Z" fill="#333232"/>
<path d="M313.954 116.989C313.662 116.989 313.385 116.901 313.177 116.714C313.08 116.626 311.207 115.074 307.294 115.877C306.739 115.987 306.17 115.723 306.031 115.283C305.893 114.842 306.226 114.391 306.781 114.281C312.011 113.213 314.634 115.525 314.745 115.624C315.119 115.965 315.078 116.494 314.647 116.791C314.453 116.923 314.203 117 313.968 117L313.954 116.989Z" fill="#333232"/>
<path d="M285.788 116.988C285.536 116.988 285.294 116.855 285.137 116.589C284.896 116.178 284.98 115.61 285.336 115.333C287.823 113.363 290.321 114.148 290.426 114.185C290.845 114.318 291.087 114.825 290.971 115.308C290.856 115.792 290.426 116.07 290.006 115.937C289.932 115.913 288.096 115.369 286.239 116.843C286.102 116.952 285.945 117 285.798 117L285.788 116.988Z" fill="#333232"/>
<path d="M301.031 138C305.476 138 308.38 139.196 308.571 139.279C309.017 139.468 309.131 139.848 308.838 140.137C308.545 140.425 307.96 140.5 307.514 140.318C307.246 140.211 300.866 137.612 292.447 140.912C292.002 141.085 291.416 140.995 291.135 140.706C290.868 140.417 291.008 140.029 291.454 139.856C295.045 138.454 298.319 138.008 301.019 138.008L301.031 138Z" fill="#333232"/>
<path d="M277.774 119.286C277.774 119.286 279.105 112.59 284.661 107.421C284.661 107.421 296.909 98.6077 302.44 89.8894C302.44 89.8894 304.28 95.9461 311.591 99.2346C311.591 99.2346 317.11 100.832 320.596 106.805C320.596 106.805 323.997 118.292 334.103 123H339.295C339.295 123 344.572 114.282 340.385 99.0572C340.385 99.0572 335.834 82.2357 314.98 81.0764C314.98 81.0764 308.601 80.1892 303.324 84.4597C303.324 84.4597 298.228 80.5441 285.653 89.9722C285.653 89.9722 271.056 102.038 277.762 119.274L277.774 119.286Z" fill="#333232"/>
<path d="M325.217 126.961C322.723 132.418 324.184 138.42 328.482 140.38C332.78 142.34 338.29 139.497 340.783 134.039C343.277 128.582 341.816 122.58 337.518 120.62C333.22 118.66 327.71 121.503 325.217 126.961Z" fill="#FCE6E0"/>
<path d="M303.306 159C299.742 159 297.427 158.142 297.306 158.089C297.063 157.997 296.942 157.72 297.027 157.456C297.112 157.192 297.378 157.06 297.609 157.153C297.742 157.205 311.39 162.141 323.196 147.176C323.365 146.965 323.644 146.939 323.838 147.124C324.032 147.295 324.056 147.612 323.887 147.823C317.511 155.912 310.639 158.274 305.996 158.842C305.039 158.96 304.142 159 303.306 159Z" fill="#333232"/>
<path d="M292.593 160.437C292.593 160.437 296.913 157.773 297.941 158.424C297.941 158.424 311.22 167.887 329.259 156.988L330.409 156.3C330.409 156.3 331.278 155.515 332.392 156.484L335.108 158.387L366.328 169.298C366.328 169.298 393.765 175.325 396.531 199.332L405 279H266.881L261.546 202.842C261.546 202.842 256.895 175.3 274.75 167.874L292.606 160.449L292.593 160.437Z" fill="#5AE8A4"/>
<path d="M228 162L250.087 237H300L278.092 162H228Z" fill="#F5F5F5"/>
<path d="M240.081 218.112L237.049 201.47C237.049 201.47 236.42 194.068 239.669 191.512L248.923 186C248.923 186 251.932 186.08 250.799 191.925C250.799 191.925 254.483 191.259 253.751 198.022C253.751 198.022 256.256 198.608 256.348 204.439C256.348 204.439 260.065 205.358 256.348 211.469L248.843 231C248.843 231 242.78 228.843 240.092 218.099L240.081 218.112Z" fill="#FCE6E0"/>
<path d="M240.387 200.988C240.387 200.988 240.356 200.988 240.345 200.988C240.127 200.964 239.981 200.734 240.002 200.492C240.252 197.882 241.802 196.432 241.875 196.372L248.419 192.058C248.607 191.937 248.846 192.01 248.95 192.227C249.054 192.445 248.991 192.723 248.804 192.844L242.312 197.121C242.312 197.121 240.99 198.39 240.782 200.601C240.762 200.831 240.595 201 240.397 201L240.387 200.988Z" fill="#333232"/>
<path d="M243.402 210C243.18 210 243 209.785 243 209.519C243 204.094 244.409 202.804 244.567 202.665L251.409 198.061C251.599 197.934 251.843 198.01 251.949 198.238C252.055 198.466 251.991 198.757 251.801 198.883L244.991 203.461C244.991 203.461 243.794 204.625 243.794 209.507C243.794 209.772 243.614 209.987 243.392 209.987L243.402 210Z" fill="#333232"/>
<path d="M246.619 215.988C246.415 215.988 246.233 215.837 246.199 215.616C245.311 209.434 247.677 207.968 247.78 207.909L254.365 204.056C254.57 203.94 254.831 204.01 254.945 204.219C255.059 204.429 254.991 204.696 254.786 204.813L248.2 208.666C248.2 208.666 246.244 209.981 247.04 215.499C247.074 215.744 246.915 215.965 246.676 216C246.654 216 246.631 216 246.619 216V215.988Z" fill="#333232"/>
<path d="M69 10.5C69 8.01036 71.0237 6 73.5 6C75.9763 6 78 8.02367 78 10.5C78 12.9763 75.9763 15 73.5 15C71.0237 15 69 12.9763 69 10.5Z" fill="#FF693C" stroke="#FF3E3E" stroke-width="0.2"/>
<path d="M84 10.5C84 8.01036 86.0237 6 88.5 6C90.9763 6 93 8.02367 93 10.5C93 12.9763 90.9763 15 88.5 15C86.0237 15 84 12.9763 84 10.5Z" fill="#FFC83C" stroke="#FFB23E" stroke-width="0.2"/>
<path d="M99 10.5C99 8.01036 101.024 6 103.5 6C105.976 6 108 8.02367 108 10.5C108 12.9763 105.976 15 103.5 15C101.024 15 99 12.9763 99 10.5Z" fill="#2BF57C" stroke="#23D76B" stroke-width="0.2"/>
<path d="M842.966 347.007C842.474 343.012 836.545 343.453 833.845 343.796C828.72 344.446 823.619 345.292 818.53 346.186C813.621 347.056 808.664 348.392 803.672 348.576C798.811 348.76 793.926 347.657 789.077 347.4C786.424 347.253 783.772 347.24 781.12 347.314C783.316 345.328 785.404 343.208 787.037 340.72C789.257 337.313 790.385 333.452 790.541 329.359C790.661 326.074 790.661 321.319 787.973 318.99C785.236 316.625 782.284 318.941 780.543 321.294C777.963 324.8 775.226 328.109 772.01 331.026C768.973 333.783 765.517 336.014 762.624 338.931C761.304 340.254 760.152 341.762 759.312 343.453C758.292 345.524 757.883 347.829 757.367 350.071C756.815 352.474 755.663 353.834 754.007 355.599C750.322 359.508 741.981 366.36 738.296 370.257C737.696 370.894 738.092 371.85 738.74 372.23C744.453 375.49 749.422 378.542 755.123 381.79C758.796 383.886 762.468 385.981 766.141 388.077C767.113 388.629 768.073 389.229 769.069 389.744C770.666 390.59 772.034 389.131 773.522 388.408C780.423 385.062 792.882 380.65 800.287 379.118C808.184 377.488 815.722 375 822.767 370.931C824.459 369.951 826.116 368.897 827.724 367.757C829.416 366.568 831.228 365.306 832.417 363.541C833.593 361.8 833.461 360.048 833.977 358.099C834.469 356.248 836.029 355.145 837.494 354.116C839.762 352.535 843.387 350.329 842.966 346.983V347.007Z" fill="#FCE6E0"/>
<path d="M801.854 366C801.453 366 801.097 365.734 801.017 365.336C800.925 364.882 801.223 364.451 801.682 364.351L812.093 362.26L829.884 357.036C830.343 356.903 830.813 357.147 830.962 357.59C831.1 358.032 830.848 358.486 830.389 358.63L812.517 363.864L802.038 365.978C801.981 365.989 801.923 366 801.866 366H801.854Z" fill="#333232"/>
<path d="M801.875 360C801.421 360 801.037 359.648 801.002 359.205C800.967 358.74 801.34 358.331 801.817 358.297C802.003 358.286 820.799 357.094 832.915 354.03C833.38 353.905 833.857 354.188 833.974 354.642C834.09 355.096 833.811 355.562 833.345 355.675C821.055 358.785 802.108 359.989 801.922 360C801.898 360 801.887 360 801.864 360H801.875Z" fill="#333232"/>
<path d="M800.35 353.987C799.534 353.987 799.023 353.987 798.901 353.987C798.402 353.987 797.988 353.522 798 352.978C798 352.434 798.414 351.996 798.913 351.996C799.157 351.996 822.68 352.288 835.829 348.042C836.316 347.883 836.815 348.188 836.961 348.719C837.107 349.25 836.827 349.794 836.34 349.953C824.689 353.721 805.744 354 800.338 354L800.35 353.987Z" fill="#333232"/>
<path d="M612 270H576V321H612V270Z" fill="#333232"/>
<path d="M563.079 303.191C553.039 292.875 542.999 282.571 532.959 272.255C531.543 270.806 530.141 269.356 528.725 267.907C527.945 267.115 527.066 266.896 526.237 267.042C525.066 267.067 523.968 267.749 523.626 269.32C522.821 273.108 522.052 277.042 520.381 280.525C518.807 283.813 516.441 286.408 513.964 288.978C508.926 294.203 501.972 301.388 504.559 309.622C506.901 317.1 514.904 321.399 521.808 322.861C529.579 324.505 538.387 324.456 546.024 322.142C553.917 319.743 560.7 314.347 563.86 306.285C564.25 305.274 563.774 303.897 563.079 303.179V303.191Z" fill="#333232"/>
<path d="M516.823 261.084C512.542 291.354 525.337 318.559 546.562 320.742C573.718 323.529 597.681 303.466 601.962 273.197C606.243 242.928 597.573 223.927 570.597 219.692C543.62 215.458 521.116 230.827 516.823 261.084Z" fill="#FCE6E0"/>
<path d="M585.05 295.113L590.251 328.95L633 347.165L560.571 429L507 340.88L543.226 330.796L545.004 291L585.05 295.113Z" fill="#FCE6E0"/>
<path d="M513.773 266.483C513.773 266.483 530.135 257.039 545.22 228.469C545.22 228.469 544.325 240.982 530.242 254.479C530.242 254.479 546.509 247.583 554.553 227.284C554.553 227.284 559.84 223.054 564.876 237.534C564.876 237.534 574.913 263.544 593.901 272.016L624 273C624 273 621.816 242.677 592.254 217.745C592.254 217.745 574.985 204.438 553.563 212.709C553.563 212.709 541.855 205.22 524.001 227.877C524.001 227.877 509.524 244.987 513.785 266.483H513.773Z" fill="#333232"/>
<path d="M632.941 306.19C632.55 302.416 630.815 299.257 629.313 296.036C627.688 292.557 626.98 288.98 626.503 285.034C625.416 276.084 623.681 267.393 621.018 258.959C620.994 258.886 620.957 258.837 620.921 258.775C620.774 258.21 620.359 257.804 619.797 258.099C613.176 261.48 606.543 264.848 599.922 268.229C598.969 268.708 598.016 269.2 597.075 269.679C596.636 269.9 596.391 270.269 596.342 270.859C596 276.01 593.973 280.633 591.542 284.738C590.491 286.521 589.025 288.23 589.001 290.59C588.976 292.987 590.149 294.966 591.407 296.651C593.96 300.068 595.89 303.965 595.573 308.833C595.219 314.095 591.835 317.156 588.475 319.676C587.73 320.229 587.901 321.606 588.708 321.926C594.815 324.286 601.253 324.224 607.569 323.708C613.2 323.253 619.113 322.909 624.378 320.168C628.946 317.783 633.637 312.976 632.929 306.178L632.941 306.19Z" fill="#333232"/>
<path d="M581.892 275.382C577.278 282.809 578.295 291.807 584.159 295.455C590.022 299.116 598.51 296.046 603.113 288.618C607.716 281.191 606.71 272.193 600.846 268.545C594.983 264.884 586.495 267.954 581.892 275.382Z" fill="#FCE6E0"/>
<path d="M550.133 323.989C544.406 323.989 540.731 322.971 540.636 322.948C540.158 322.81 539.896 322.33 540.039 321.884C540.182 321.426 540.683 321.175 541.149 321.312C541.208 321.323 547.198 323.016 555.741 321.998C563.604 321.06 575.321 317.583 586.453 306.271C586.787 305.928 587.36 305.905 587.718 306.236C588.076 306.557 588.099 307.106 587.753 307.449C574.104 321.323 559.404 324 550.121 324L550.133 323.989Z" fill="#333232"/>
<path d="M567.194 267.203C565.816 266.064 564.36 264.87 562.56 264.722C561.62 264.644 560.651 264.796 559.7 264.89C558.612 264.991 557.542 265.081 556.455 265.182C555.631 265.251 554.897 264.675 554.862 263.69C554.83 262.785 555.491 261.755 556.315 261.686C557.513 261.571 558.72 261.475 559.918 261.36C561.1 261.256 562.295 261.108 563.455 261.253C565.696 261.536 567.54 262.992 569.273 264.415C569.914 264.946 569.873 266.18 569.334 266.896C568.74 267.706 567.818 267.745 567.177 267.214L567.194 267.203Z" fill="#333232"/>
<path d="M527.412 262.05C528.709 261.384 530.073 260.69 531.537 260.921C532.3 261.038 533.047 261.366 533.791 261.625C534.639 261.917 535.487 262.21 536.336 262.503C536.976 262.728 537.665 262.387 537.856 261.581C538.039 260.846 537.685 259.864 537.033 259.641C536.092 259.312 535.151 258.983 534.214 258.668C533.288 258.35 532.364 257.99 531.409 257.873C529.575 257.665 527.855 258.504 526.23 259.337C525.631 259.645 525.45 260.672 525.756 261.372C526.091 262.15 526.816 262.371 527.415 262.063L527.412 262.05Z" fill="#333232"/>
<path d="M542.983 277.883C542.652 280.851 542.33 283.832 542 286.8C541.913 287.601 541.287 288.166 540.783 287.956C540.226 287.719 539.922 286.958 540.017 286.117C540.348 283.149 540.67 280.168 541 277.2C541.087 276.399 541.713 275.834 542.217 276.044C542.774 276.281 543.078 277.042 542.983 277.883Z" fill="#333232"/>
<path d="M561 292.608L531 291C531 291 532.408 305.998 545.892 305.998C545.892 305.998 559.161 306.48 561 292.608Z" fill="#F4BFB3"/>
<path d="M545.98 306C545.909 306 545.863 306 545.863 306C532.562 306 531.03 292.39 531.006 292.253C530.971 291.923 531.088 291.594 531.322 291.355C531.556 291.116 531.895 290.98 532.223 291.002L559.889 292.367C560.216 292.378 560.52 292.537 560.731 292.776C560.941 293.026 561.035 293.345 560.988 293.663C559.269 305.659 547.302 306 545.98 306ZM545.898 303.726C546.377 303.749 556.297 303.919 558.438 294.573L533.556 293.345C534.247 296.415 536.843 303.726 545.886 303.726H545.898Z" fill="#333232"/>
<path d="M522 357.012C522 357.012 546.447 378.828 612 362.165L556.609 456L522 357V357.012Z" fill="#FDFEFF"/>
<path d="M564 274.5C564 276.983 561.986 279 559.5 279C557.014 279 555 276.983 555 274.5C555 272.017 557.014 270 559.5 270C561.986 270 564 272.017 564 274.5Z" fill="#333232"/>
<path d="M537 271.5C537 273.983 534.986 276 532.5 276C530.014 276 528 273.983 528 271.5C528 269.017 530.014 267 532.5 267C534.986 267 537 269.017 537 271.5Z" fill="#333232"/>
<path d="M516.54 336C516.54 336 539.784 395.78 556.5 441C556.5 441 585.654 383.287 612.433 337.559L642 348.511L624.099 484.377L628.084 531H504L510.162 482.903L505.352 339.131L516.54 336Z" fill="#4883F7"/>
<path d="M556.919 393C556.919 393 556.86 393 556.836 393C556.598 392.964 556.408 392.794 556.349 392.553L540.02 330.836C539.936 330.51 540.127 330.183 540.436 330.099C540.756 330.014 541.077 330.207 541.16 330.522L557.121 390.86L592.893 330.292C593.059 330.002 593.428 329.917 593.713 330.087C593.998 330.256 594.081 330.631 593.915 330.921L557.418 392.71C557.311 392.891 557.121 393 556.907 393H556.919Z" fill="#CEBB6E"/>
<path d="M558 399C556.346 399 555 396.985 555 394.5C555 392.016 556.346 390 558 390C559.654 390 561 392.016 561 394.5C561 396.985 559.654 399 558 399ZM558 391.268C556.974 391.268 556.103 392.751 556.103 394.5C556.103 396.249 556.974 397.732 558 397.732C559.026 397.732 559.897 396.249 559.897 394.5C559.897 392.751 559.026 391.268 558 391.268Z" fill="#CEBB6E"/>
<path d="M459.141 343.457C456.551 334.65 458.601 322.523 458.601 322.523L460.503 308.122C462.54 293.047 454.649 293.588 454.649 293.588L457.508 261.176C458.183 254.114 452.747 255.04 452.747 255.04C442.266 255.978 440.917 268.515 440.917 268.515L438.744 283.301C426.484 282.796 423.92 290.255 423.92 290.255C414.261 289.858 413.722 295.188 413.722 295.188C407.806 296.259 408.003 304.127 408.003 304.127C407.806 321.596 418.336 317.193 418.336 317.193C417.931 338.392 426.362 340.798 426.362 340.798L431.258 360L462 353.599L459.141 343.469V343.457Z" fill="#FCE6E0"/>
<path d="M433.21 315C431.336 315 429.681 314.616 428.379 314.16C427.369 313.812 426.578 313.031 426.213 312.035C425.848 311.027 425.957 309.922 426.505 308.998L431.616 300.559C434.792 295.001 441.035 294.929 441.303 294.929L452.012 294.004C452.499 293.956 452.961 294.328 452.997 294.82C453.034 295.313 452.669 295.757 452.17 295.793L441.376 296.729C441.072 296.729 435.851 296.813 433.186 301.459L428.062 309.922C427.783 310.378 427.734 310.918 427.916 311.423C428.099 311.915 428.476 312.287 428.975 312.455C432.638 313.716 439.648 314.388 445.501 304.688C445.757 304.256 446.317 304.124 446.755 304.376C447.193 304.628 447.327 305.18 447.071 305.613C442.568 313.079 437.372 315 433.198 315H433.21Z" fill="#333232"/>
<path d="M440.024 332.989C439.682 332.989 439.354 332.842 439.17 332.572C431.082 320.885 437.201 312.715 437.476 312.377C437.778 311.994 438.382 311.881 438.842 312.14C439.288 312.399 439.42 312.918 439.118 313.312C438.881 313.616 433.446 320.975 440.864 331.715C441.14 332.121 440.982 332.639 440.522 332.876C440.365 332.955 440.194 333 440.024 333V332.989Z" fill="#333232"/>
<path d="M429.906 305.987C428.868 305.987 427.9 305.686 427.058 305.096C422.962 302.184 422.976 292.971 423.004 291.929C423.004 291.414 423.495 290.988 424.071 291C424.66 291 425.123 291.44 425.109 291.954C425.066 294.527 425.586 301.644 428.377 303.615C429.036 304.092 429.78 304.218 430.692 304.017C431.253 303.891 431.828 304.193 431.968 304.707C432.109 305.209 431.772 305.724 431.197 305.849C430.762 305.95 430.327 306 429.906 306V305.987Z" fill="#333232"/>
<path d="M423.616 315C422.718 315 422.157 314.726 422.107 314.701C416.084 310.622 414.101 298.598 414.013 298.086C413.926 297.575 414.275 297.101 414.787 297.013C415.298 296.926 415.772 297.275 415.859 297.787C415.884 297.899 417.78 309.412 422.993 313.042C423.279 313.154 424.963 313.59 427.37 310.934C427.719 310.547 428.305 310.522 428.692 310.871C429.079 311.221 429.103 311.807 428.754 312.193C426.672 314.501 424.826 315 423.616 315Z" fill="#333232"/>
<path d="M420.761 317.973C420.539 317.973 420.316 317.836 420.165 317.59C419.902 317.139 419.962 316.496 420.286 316.154C421.277 315.087 421.489 312.913 421.489 312.899C421.54 312.339 421.914 311.928 422.329 312.01C422.743 312.079 423.037 312.585 422.996 313.145C422.986 313.269 422.723 316.181 421.226 317.781C421.085 317.932 420.923 318 420.761 318V317.973Z" fill="#333232"/>
<path d="M496.31 481.705L531 394.776L505.759 339C505.759 339 478.929 342.815 462.44 401.353L441 489.421C441 489.421 448.908 505.263 462.158 503.919C462.158 503.919 482.767 504.343 496.31 481.705Z" fill="#4883F7"/>
<path d="M649.69 490.705L615 403.776L640.241 348C640.241 348 667.071 351.815 683.56 410.353L705 498.421C705 498.421 697.092 514.263 683.842 512.919C683.842 512.919 663.233 513.343 649.69 490.705Z" fill="#4883F7"/>
<path d="M440.691 489C440.691 489 419.424 419.479 411 358.806L463.02 348L489 460.927L440.691 489Z" fill="#4883F7"/>
<path d="M700.138 504C700.138 504 744.986 446.962 777 388.867L733.505 360L663 452.611L700.138 504Z" fill="#4883F7"/>
<path d="M487.095 473.988C487.095 473.988 486.964 473.988 486.898 473.976C486.362 473.88 486.021 473.402 486.126 472.923C489.254 458.683 483.299 433.47 483.234 433.219L471.023 382.086C470.906 381.596 471.246 381.129 471.769 381.021C472.293 380.914 472.816 381.225 472.934 381.703L485.145 432.836C485.393 433.889 491.256 458.671 488.037 473.282C487.945 473.713 487.54 474 487.081 474L487.095 473.988Z" fill="#333232"/>
<path d="M666.863 483H666.851C666.368 483 666 482.578 666 482.083C666.449 455.111 682.224 426.74 682.385 426.45C682.627 426.016 683.156 425.871 683.57 426.125C683.985 426.378 684.123 426.933 683.881 427.367C683.72 427.645 668.186 455.618 667.737 482.107C667.737 482.602 667.346 483 666.875 483H666.863Z" fill="#333232"/>
<path d="M381 300C381.062 300.062 381 300.087 381 300V300Z" fill="#FCE6E0"/>
<path d="M515.027 337.775L517.041 385.585L530.617 388.81L522.828 407.493L556.936 443.213L521.056 336.103L523.756 335.357C523.756 335.357 522.961 334.527 520.827 335.032L516.486 336.428C516.486 336.428 515.208 336.668 515.039 337.763L515.027 337.775Z" fill="#006EDA"/>
<path d="M555 442.582L610.69 336.94L609.123 336.278C609.123 336.278 609.774 335.652 611.98 336.278L618.973 339.214C618.973 339.214 619.925 339.526 619.913 340.429L608.122 392.967L592.665 391.968L598.898 410.375L555 442.582Z" fill="#006EDA"/>
<path d="M596.411 522H372.589C370.607 522 369 523.489 369 525.325V527.675C369 529.511 370.607 531 372.589 531H596.411C598.393 531 600 529.511 600 527.675V525.325C600 523.489 598.393 522 596.411 522Z" fill="#666666"/>
<path d="M533.936 525H370.881C368.884 525 366.973 523.364 366.634 521.363L348.052 411.637C347.713 409.636 349.068 408 351.064 408H514.119C516.116 408 518.027 409.636 518.366 411.637L536.948 521.363C537.287 523.364 535.932 525 533.936 525Z" fill="#777777"/>
<path d="M811.995 531H250.005C246.136 531 243 534.416 243 538.63V547.37C243 551.584 246.136 555 250.005 555H811.995C815.864 555 819 551.584 819 547.37V538.63C819 534.416 815.864 531 811.995 531Z" fill="#FDFEFF"/>
<path d="M0 378V602.399C0 606.038 2.61657 609 5.83327 609H324.167C327.395 609 330 606.05 330 602.399V378H0Z" fill="#FDFEFF"/>
<path d="M330 363.181C330 359.774 327.383 357 324.167 357H5.83327C2.60457 357 0 359.762 0 363.181V378H330V363.181Z" fill="#777777"/>
<path d="M16.5 372C18.9853 372 21 369.985 21 367.5C21 365.015 18.9853 363 16.5 363C14.0147 363 12 365.015 12 367.5C12 369.985 14.0147 372 16.5 372Z" fill="#FF693C" stroke="#FF3E3E" stroke-width="0.2"/>
<path d="M31.5 372C33.9853 372 36 369.985 36 367.5C36 365.015 33.9853 363 31.5 363C29.0147 363 27 365.015 27 367.5C27 369.985 29.0147 372 31.5 372Z" fill="#FFC83C" stroke="#FFB23E" stroke-width="0.2"/>
<path d="M46.5 372C48.9853 372 51 369.985 51 367.5C51 365.015 48.9853 363 46.5 363C44.0147 363 42 365.015 42 367.5C42 369.985 44.0147 372 46.5 372Z" fill="#2BF57C" stroke="#23D76B" stroke-width="0.2"/>
<path d="M318 387H9V597H318V387Z" fill="#F4F4F4"/>
<path d="M114 387H108V597H114V387Z" fill="#CAD9E5"/>
<path d="M108 417H9V423H108V417Z" fill="#CAD9E5"/>
<path d="M108 465H9V471H108V465Z" fill="#CAD9E5"/>
<path d="M108 513H9V519H108V513Z" fill="#CAD9E5"/>
<path d="M105 561H9V567H105V561Z" fill="#CAD9E5"/>
<path d="M105 426H99V462H105V426Z" fill="#CAD9E5"/>
<path d="M105 474H99V510H105V474Z" fill="#CAD9E5"/>
<path d="M105 522H99V558H105V522Z" fill="#CAD9E5"/>
<path d="M105 570H99V597H105V570Z" fill="#CAD9E5"/>
<path d="M105 387H99V414H105V387Z" fill="#CAD9E5"/>
<path d="M96 426H90V462H96V426Z" fill="#CAD9E5"/>
<path d="M96 474H90V510H96V474Z" fill="#CAD9E5"/>
<path d="M96 522H90V558H96V522Z" fill="#CAD9E5"/>
<path d="M96 570H90V597H96V570Z" fill="#CAD9E5"/>
<path d="M96 387H90V414H96V387Z" fill="#CAD9E5"/>
<path d="M87 426H81V462H87V426Z" fill="#CAD9E5"/>
<path d="M87 474H81V510H87V474Z" fill="#CAD9E5"/>
<path d="M87 522H81V558H87V522Z" fill="#CAD9E5"/>
<path d="M87 570H81V597H87V570Z" fill="#CAD9E5"/>
<path d="M87 387H81V414H87V387Z" fill="#CAD9E5"/>
<path d="M78 426H72V462H78V426Z" fill="#CAD9E5"/>
<path d="M78 474H72V510H78V474Z" fill="#CAD9E5"/>
<path d="M78 522H72V558H78V522Z" fill="#CAD9E5"/>
<path d="M78 570H72V597H78V570Z" fill="#CAD9E5"/>
<path d="M78 387H72V414H78V387Z" fill="#CAD9E5"/>
<path d="M69 426H63V462H69V426Z" fill="#CAD9E5"/>
<path d="M69 474H63V510H69V474Z" fill="#CAD9E5"/>
<path d="M69 522H63V558H69V522Z" fill="#CAD9E5"/>
<path d="M69 570H63V597H69V570Z" fill="#CAD9E5"/>
<path d="M69 387H63V414H69V387Z" fill="#CAD9E5"/>
<path d="M60 426H54V462H60V426Z" fill="#CAD9E5"/>
<path d="M60 474H54V510H60V474Z" fill="#CAD9E5"/>
<path d="M60 522H54V558H60V522Z" fill="#CAD9E5"/>
<path d="M60 570H54V597H60V570Z" fill="#CAD9E5"/>
<path d="M60 387H54V414H60V387Z" fill="#CAD9E5"/>
<path d="M51 426H45V462H51V426Z" fill="#CAD9E5"/>
<path d="M51 474H45V510H51V474Z" fill="#CAD9E5"/>
<path d="M51 522H45V558H51V522Z" fill="#CAD9E5"/>
<path d="M51 570H45V597H51V570Z" fill="#CAD9E5"/>
<path d="M51 387H45V414H51V387Z" fill="#CAD9E5"/>
<path d="M42 426H36V462H42V426Z" fill="#CAD9E5"/>
<path d="M42 474H36V510H42V474Z" fill="#CAD9E5"/>
<path d="M42 522H36V558H42V522Z" fill="#CAD9E5"/>
<path d="M42 570H36V597H42V570Z" fill="#CAD9E5"/>
<path d="M42 387H36V414H42V387Z" fill="#CAD9E5"/>
<path d="M33 426H27V462H33V426Z" fill="#CAD9E5"/>
<path d="M33 474H27V510H33V474Z" fill="#CAD9E5"/>
<path d="M33 522H27V558H33V522Z" fill="#CAD9E5"/>
<path d="M33 570H27V597H33V570Z" fill="#CAD9E5"/>
<path d="M33 387H27V414H33V387Z" fill="#CAD9E5"/>
<path d="M24 426H18V462H24V426Z" fill="#CAD9E5"/>
<path d="M24 474H18V510H24V474Z" fill="#CAD9E5"/>
<path d="M24 522H18V558H24V522Z" fill="#CAD9E5"/>
<path d="M24 570H18V597H24V570Z" fill="#CAD9E5"/>
<path d="M24 387H18V414H24V387Z" fill="#CAD9E5"/>
<path d="M15 426H9V462H15V426Z" fill="#CAD9E5"/>
<path d="M15 474H9V510H15V474Z" fill="#CAD9E5"/>
<path d="M15 522H9V558H15V522Z" fill="#CAD9E5"/>
<path d="M15 570H9V597H15V570Z" fill="#CAD9E5"/>
<path d="M15 387H9V414H15V387Z" fill="#CAD9E5"/>
<path d="M203.013 439.982C206.899 459.513 199.016 477.575 184.574 479.644C166.099 482.288 149.083 469.984 145.197 450.465C141.311 430.934 146.631 418.324 164.947 414.752C183.25 411.179 199.126 420.463 203.025 439.994L203.013 439.982Z" fill="#FCE6E0"/>
<path d="M156.77 462.325L153.638 486.018L123 508.663L172.655 555L213 498.407L190.069 486.669L188.961 462L156.77 462.325Z" fill="#FCE6E0"/>
<path d="M168.001 450.067C168.05 451.723 169.437 453.04 171.091 452.999C172.744 452.968 174.047 451.59 173.999 449.933C173.95 448.277 172.563 446.96 170.909 447.001C169.256 447.042 167.953 448.41 168.001 450.067Z" fill="#333232"/>
<path d="M189.001 447.067C189.05 448.723 190.437 450.04 192.091 449.999C193.744 449.958 195.047 448.59 194.999 446.933C194.95 445.277 193.563 443.96 191.909 444.001C190.256 444.042 188.953 445.41 189.001 447.067Z" fill="#333232"/>
<path d="M185.126 459C184.72 459 184.349 458.686 184.268 458.234L183.016 451.123C182.924 450.608 183.237 450.118 183.712 450.018C184.187 449.917 184.639 450.256 184.732 450.771L185.984 457.882C186.076 458.397 185.763 458.887 185.288 458.987C185.23 458.987 185.184 459 185.126 459Z" fill="#333232"/>
<path d="M166.064 443.991C165.85 443.991 165.651 443.953 165.466 443.868C164.982 443.65 164.854 443.215 165.181 442.893C165.281 442.798 167.573 440.593 173.067 441.066C173.65 441.114 174.063 441.473 173.992 441.861C173.921 442.249 173.38 442.524 172.796 442.476C168.669 442.126 167.018 443.631 166.946 443.697C166.733 443.896 166.405 444 166.064 444V443.991Z" fill="#333232"/>
<path d="M194.218 440.986C194.094 440.986 193.98 440.943 193.866 440.873C191.888 439.487 190.148 440.42 190.076 440.463C189.682 440.689 189.226 440.434 189.061 439.897C188.895 439.36 189.081 438.738 189.475 438.511C189.578 438.455 191.94 437.126 194.581 438.992C194.964 439.261 195.109 439.897 194.912 440.42C194.778 440.788 194.498 441 194.218 441V440.986Z" fill="#333232"/>
<path d="M183.224 464.887C185.415 464.3 188.026 463.902 191.046 463.947C191.549 463.954 191.85 464.242 191.721 464.595C191.591 464.948 191.085 465.226 190.582 465.219C181.222 465.097 176.384 469.542 176.184 469.73C175.847 470.046 175.26 470.17 174.86 470.009C174.463 469.856 174.412 469.467 174.739 469.162C174.909 469.008 177.761 466.359 183.214 464.898L183.224 464.887Z" fill="#333232"/>
<path d="M147.656 456C147.446 456 147.236 455.891 147.118 455.699C146.908 455.384 146.987 454.96 147.288 454.755L157.977 447.123C158.279 446.904 158.685 446.986 158.882 447.301C159.092 447.615 159.013 448.039 158.712 448.245L148.023 455.877C147.905 455.959 147.787 456 147.656 456Z" fill="#666666"/>
<path d="M148.63 457.656C148.63 457.656 151.271 457.894 154.436 442.271C154.436 442.271 156.019 437.325 161.826 436.136C161.826 436.136 180.032 438.514 177.521 420.323C177.521 420.323 199.24 420.918 204 450C204 450 210.137 430.608 189.539 414.795C189.539 414.795 176.866 405.925 169.929 415.306C169.929 415.306 167.347 409.528 154.555 414.272C154.555 414.272 137.67 420.668 135.302 439.941C135.302 439.941 131.875 458.738 148.094 468L148.618 457.656H148.63Z" fill="#333232"/>
<path d="M156.793 458.47C160.049 463.556 159.661 469.943 155.902 472.717C152.154 475.492 146.464 473.617 143.207 468.53C139.951 463.444 140.339 457.057 144.098 454.283C147.846 451.508 153.536 453.383 156.793 458.47Z" fill="#FCE6E0"/>
<path d="M168.221 462C166.338 462 163.583 461.594 161.123 459.664C158.227 457.392 156.509 453.597 156.003 448.393C155.979 448.113 156.12 447.859 156.344 447.745C156.803 447.529 167.644 442.439 179.345 444.483C179.592 444.521 179.793 444.737 179.828 445.003C179.851 445.143 181.994 459.474 170.481 461.784C170.399 461.797 169.516 462 168.21 462H168.221ZM157.227 448.735C157.745 453.318 159.287 456.643 161.806 458.636C165.526 461.568 170.211 460.566 170.258 460.54C179.675 458.662 179.004 448.037 178.733 445.663C168.751 444.089 159.251 447.847 157.227 448.723V448.735Z" fill="#666666"/>
<path d="M196.771 459C195.267 459 193.099 458.657 191.073 457.105C188.194 454.893 186.488 450.925 186.003 445.318C185.979 445.063 186.109 444.809 186.323 444.695C186.725 444.478 196.155 439.417 206.367 441.503C206.616 441.554 206.805 441.77 206.841 442.037C206.865 442.177 208.772 456.52 198.726 458.797C198.667 458.809 197.897 459 196.771 459ZM187.223 445.648C187.721 450.633 189.249 454.142 191.76 456.075C194.864 458.453 198.418 457.563 198.465 457.55C206.604 455.707 205.964 445.038 205.727 442.673C197.162 441.096 189.024 444.758 187.235 445.648H187.223Z" fill="#666666"/>
<path d="M180.552 447C180.376 447 180.199 446.847 180.1 446.58C179.923 446.14 179.989 445.567 180.232 445.261C180.298 445.185 182.019 443.14 185.56 444.42C185.858 444.535 186.046 445.032 185.99 445.548C185.924 446.064 185.637 446.408 185.34 446.293C182.317 445.204 180.872 446.809 180.861 446.828C180.762 446.943 180.662 446.981 180.552 446.981V447Z" fill="#666666"/>
<path d="M179.447 479.98C173.896 479.98 166.503 478.918 159.198 474.68C158.984 474.559 158.933 474.316 159.097 474.154C159.248 473.982 159.551 473.952 159.753 474.073C173.858 482.276 188.228 478.271 188.366 478.23C188.606 478.159 188.884 478.26 188.972 478.463C189.06 478.665 188.934 478.877 188.682 478.948C188.606 478.968 184.91 480 179.447 480V479.98Z" fill="#333232"/>
<path d="M145.953 492L165 597H96C96 597 101.323 540.943 101.6 540.152C101.864 539.36 102.813 522.912 122.184 509.264L145.953 492Z" fill="#5AE8A4"/>
<path d="M153.606 486C153.606 486 175.729 503.371 190.909 486.644L209.406 495.807L219 597H151.646L144 492.86L153.594 486H153.606Z" fill="white"/>
<path d="M198.527 490.781L210.488 597H263.996L243.012 532.654C243.012 532.654 236.1 509.52 212.996 498L198.527 490.781Z" fill="#3EDA8F"/>
<path d="M255 501L232.913 573H183L204.908 501H255Z" fill="#F5F5F5"/>
<path d="M242.919 554.972L245.951 539.439C245.951 539.439 246.58 532.53 243.331 530.144L234.077 525C234.077 525 231.057 525.062 232.201 530.53C232.201 530.53 228.517 529.908 229.249 536.221C229.249 536.221 226.744 536.767 226.652 542.21C226.652 542.21 222.935 543.067 226.652 548.771L234.157 567C234.157 567 240.22 564.987 242.908 554.959L242.919 554.972Z" fill="#FCE6E0"/>
<path d="M242.623 539.988C242.425 539.988 242.259 539.819 242.238 539.589C242.029 537.366 240.675 536.085 240.654 536.073L234.196 531.844C234.009 531.723 233.946 531.445 234.05 531.227C234.154 531.01 234.394 530.937 234.581 531.058L241.081 535.336C241.196 535.432 242.748 536.882 242.998 539.505C243.019 539.758 242.863 539.976 242.654 540C242.644 540 242.623 540 242.613 540L242.623 539.988Z" fill="#333232"/>
<path d="M239.608 549C239.386 549 239.206 548.785 239.206 548.519C239.206 543.607 237.989 542.454 237.978 542.442L231.204 537.884C231.013 537.757 230.939 537.466 231.056 537.238C231.162 537.01 231.405 536.934 231.596 537.061L238.402 541.644C238.592 541.796 240 543.087 240 548.519C240 548.785 239.82 549 239.598 549H239.608Z" fill="#333232"/>
<path d="M236.392 555C236.392 555 236.346 555 236.335 555C236.096 554.965 235.937 554.744 235.971 554.499C236.767 548.981 234.822 547.678 234.8 547.666L228.214 543.813C228.009 543.696 227.941 543.429 228.055 543.219C228.169 543.01 228.43 542.94 228.635 543.056L235.22 546.909C235.323 546.968 237.689 548.446 236.801 554.616C236.767 554.837 236.585 554.988 236.38 554.988L236.392 555Z" fill="#333232"/>
<path d="M303 459V387L297 387V459L219 459V387L213 387V454.557V465H224.066H324V459L303 459Z" fill="#CAD9E5"/>
<path d="M708 60V286.584C708 290.68 710.926 294 714.547 294H1022.45C1026.06 294 1029 290.68 1029 286.584V60H708.012H708Z" fill="#FDFEFF"/>
<path d="M1029 43.0581C1029 39.16 1026.07 36 1022.45 36H714.547C710.938 36 708 39.16 708 43.0581V60H1028.99V43.0581H1029Z" fill="#777777"/>
<path d="M720 49.5C720 47.0132 722.013 45 724.5 45C726.987 45 729 47.0132 729 49.5C729 51.9868 726.987 54 724.5 54C722.013 54 720 51.9868 720 49.5Z" fill="#FF693C" stroke="#FF3E3E" stroke-width="0.2"/>
<path d="M735 49.5C735 47.0132 737.013 45 739.5 45C741.987 45 744 47.0132 744 49.5C744 51.9868 741.987 54 739.5 54C737.013 54 735 51.9868 735 49.5Z" fill="#FFC83C" stroke="#FFB23E" stroke-width="0.2"/>
<path d="M750 49.5C750 47.0132 752.013 45 754.5 45C756.987 45 759 47.0132 759 49.5C759 51.9868 756.987 54 754.5 54C752.013 54 750 51.9868 750 49.5Z" fill="#2BF57C" stroke="#23D76B" stroke-width="0.2"/>
<path d="M1020 69H717V285H1020V69Z" fill="#F4F4F4"/>
<path d="M747 285L767.81 195.297C767.81 195.297 777.832 135 836.395 135H1020V285H747Z" fill="#CAD9E5"/>
<path d="M789 69V117H717V123H795V121.873V116.834V69H789Z" fill="#CAD9E5"/>
<path d="M801 240.76L776.959 225L753 285H800.081L801 240.76Z" fill="#3ADE8F"/>
<path d="M838.431 123C838.431 123 829.784 166.269 855 168L838.431 123Z" fill="#333232"/>
<path d="M840.012 132.251C839.706 155.315 852.103 174.442 868.47 173.992C889.417 173.421 905.698 156.068 905.992 132.992C906.298 109.928 897.846 96.537 876.885 96.0144C855.938 95.4919 840.306 109.187 840 132.251H840.012Z" fill="#FCE6E0"/>
<path d="M887.389 150L891.363 181.52L924 205.082L866.518 258L819 201.278L853.618 181.683L854.943 150.751L887.389 150Z" fill="#FCE6E0"/>
<path d="M881.997 139.356C882.072 141.841 880.781 143.915 879.134 143.997C877.477 144.08 876.078 142.13 876.003 139.644C875.928 137.159 877.219 135.085 878.865 135.003C880.523 134.92 881.922 136.87 881.997 139.356Z" fill="#333232"/>
<path d="M857.997 139.356C858.072 141.841 856.781 143.915 855.135 143.997C853.477 144.08 852.078 142.13 852.003 139.644C851.928 137.159 853.219 135.085 854.866 135.003C856.523 134.92 857.922 136.87 857.997 139.356Z" fill="#333232"/>
<path d="M864.981 146.989C864.981 146.989 864.903 146.989 864.851 146.989C864.319 146.932 863.942 146.5 864.007 146.035L865.059 138.744C865.124 138.279 865.604 137.95 866.149 138.006C866.681 138.063 867.058 138.495 866.993 138.96L865.941 146.251C865.876 146.682 865.461 147 864.981 147V146.989Z" fill="#333232"/>
<path d="M838.503 137.539C838.503 137.539 839.327 128.379 848.741 121.064C848.741 121.064 863.052 114.751 868.798 106.433C868.798 106.433 868.835 112.981 879.652 121.992C879.652 121.992 874.766 116.063 874.004 107.819C874.004 107.819 877.068 118.143 886.407 127.067C886.407 127.067 897.888 136.078 897.962 138.306L914.34 144C914.34 144 920.776 116.509 893.446 97.3353C893.446 97.3353 881.854 89.4877 869.906 94.9092C869.906 94.9092 860.603 89.9457 847.166 103.45C847.166 103.45 832.35 117.771 838.491 137.526L838.503 137.539Z" fill="#333232"/>
<path d="M895.45 153.751C895.45 153.751 894.504 159.977 888 164.661C888 164.661 894.018 166.558 901.762 161.376C901.762 161.376 901.072 162.467 898.452 164.127C898.452 164.127 913.083 162.716 915 141.915L908.803 123L895.45 153.762V153.751Z" fill="#333232"/>
<path d="M892.42 142.951C889.506 149.188 891.222 156.052 896.236 158.295C901.25 160.526 907.683 157.285 910.585 151.049C913.487 144.812 911.783 137.948 906.77 135.705C901.756 133.474 895.322 136.715 892.42 142.951Z" fill="#FCE6E0"/>
<path d="M869.448 173.987C862.493 173.987 858.259 170.715 858.186 170.662C857.979 170.504 857.942 170.189 858.089 169.979C858.235 169.755 858.528 169.716 858.723 169.873C858.821 169.952 869.265 177.956 884.298 168.073C884.505 167.929 884.798 168.007 884.932 168.231C885.066 168.467 884.993 168.77 884.786 168.914C878.892 172.791 873.67 174 869.448 174V173.987Z" fill="#333232"/>
<path d="M835.139 204C835.139 204 856.106 222.577 906 205.224L901.665 285H819L835.139 204Z" fill="white"/>
<path d="M839.988 189.012L827.498 285H789L802.245 227.699C802.245 227.699 805.847 209.82 818.214 200.453L840 189L839.988 189.012Z" fill="#5AE8A4"/>
<path d="M902.619 189L891 285H960L950.474 230.176C950.474 230.176 946.478 209.787 925.5 201.455L902.619 189Z" fill="#5AE8A4"/>
<path d="M853.047 128.989C852.771 128.989 852.508 128.898 852.301 128.728C851.9 128.399 851.9 127.867 852.301 127.538C852.411 127.448 855.177 125.25 860.209 126.269C860.762 126.383 861.108 126.836 860.97 127.3C860.831 127.765 860.278 128.037 859.711 127.924C855.868 127.153 853.835 128.694 853.752 128.762C853.545 128.921 853.296 129 853.034 129L853.047 128.989Z" fill="#333232"/>
<path d="M881.271 129C881.145 129 881.019 128.963 880.913 128.876C878.744 127.283 877.04 128 876.963 128.037C876.585 128.197 876.169 127.95 876.043 127.468C875.908 126.987 876.101 126.468 876.479 126.295C876.576 126.246 878.86 125.233 881.639 127.271C881.987 127.53 882.103 128.098 881.9 128.531C881.764 128.827 881.522 129 881.271 129Z" fill="#333232"/>
<path d="M865.573 150C874.165 150 878.738 154.717 878.808 154.777C879.108 155.098 879.05 155.569 878.681 155.829C878.311 156.089 877.768 156.049 877.456 155.729C877.122 155.368 868.969 147.075 853.286 154.607C852.871 154.807 852.339 154.677 852.108 154.317C851.877 153.956 852.028 153.495 852.443 153.295C857.513 150.861 861.901 150 865.562 150L865.573 150Z" fill="#333232"/>
<path d="M774 180L798.839 261H855L830.352 180H774Z" fill="#F5F5F5"/>
<path d="M786.518 239.099L783.057 222.462C783.057 222.462 782.334 215.063 786.052 212.502L796.636 207C796.636 207 800.086 207.071 798.78 212.917C798.78 212.917 803 212.253 802.149 219.024C802.149 219.024 805.016 219.605 805.109 225.439C805.109 225.439 809.364 226.364 805.109 232.47L796.519 252C796.519 252 789.584 249.842 786.507 239.111L786.518 239.099Z" fill="#FCE6E0"/>
<path d="M786.464 222C786.464 222 786.426 222 786.414 222C786.152 221.978 785.977 221.771 786.002 221.553C786.339 218.927 788.41 217.477 788.497 217.412L797.304 213.053C797.528 212.944 797.815 213.009 797.94 213.205C798.065 213.401 797.99 213.652 797.765 213.761L789.021 218.088C789.021 218.088 787.225 219.384 786.938 221.64C786.913 221.847 786.713 222 786.476 222H786.464Z" fill="#333232"/>
<path d="M789.483 231C789.216 231 789 230.807 789 230.568C789 225.118 790.867 223.822 791.083 223.696L800.291 219.055C800.52 218.941 800.812 219.009 800.939 219.214C801.066 219.419 800.99 219.681 800.761 219.794L791.591 224.413C791.591 224.413 789.953 225.585 789.953 230.556C789.953 230.795 789.737 230.989 789.47 230.989L789.483 231Z" fill="#333232"/>
<path d="M795.579 240C795.395 240 795.231 239.83 795.2 239.582C794.31 231.832 796.674 230.003 796.776 229.924L803.429 225.063C803.613 224.932 803.848 225.011 803.951 225.246C804.053 225.481 803.992 225.782 803.807 225.912L797.155 230.774C797.155 230.774 795.159 232.433 795.957 239.438C795.988 239.713 795.845 239.961 795.63 240C795.609 240 795.589 240 795.579 240Z" fill="#333232"/>
<path d="M801 417V668.434C801 672.054 803.928 675 807.551 675H1118.45C1122.06 675 1125 672.066 1125 668.434V417H801.012H801Z" fill="#FDFEFF"/>
<path d="M1125 402.181C1125 398.774 1122.07 396 1118.45 396H807.551C803.94 396 801 398.762 801 402.181V417H1124.99V402.181H1125Z" fill="#E7E7E7"/>
<path d="M1116 426H807V666H1116V426Z" fill="#F4F4F4"/>
<path d="M813 406.5C813 404.01 815.024 402 817.5 402C819.976 402 822 404.024 822 406.5C822 408.976 819.976 411 817.5 411C815.024 411 813 408.976 813 406.5Z" fill="#FF693C" stroke="#FF3E3E" stroke-width="0.2"/>
<path d="M828 406.5C828 404.01 830.024 402 832.5 402C834.976 402 837 404.024 837 406.5C837 408.976 834.976 411 832.5 411C830.024 411 828 408.976 828 406.5Z" fill="#FFC83C" stroke="#FFB23E" stroke-width="0.2"/>
<path d="M843 406.5C843 404.01 845.024 402 847.5 402C849.976 402 852 404.024 852 406.5C852 408.976 849.976 411 847.5 411C845.024 411 843 408.976 843 406.5Z" fill="#2BF57C" stroke="#23D76B" stroke-width="0.2"/>
<path d="M1088.49 450H1005.51C1003.57 450 1002 451.613 1002 453.603V578.397C1002 580.387 1003.57 582 1005.51 582H1088.49C1090.43 582 1092 580.387 1092 578.397V453.603C1092 451.613 1090.43 450 1088.49 450Z" fill="#777777"/>
<path d="M1087.01 453H1006.99C1005.89 453 1005 453.911 1005 455.034V576.966C1005 578.089 1005.89 579 1006.99 579H1087.01C1088.11 579 1089 578.089 1089 576.966V455.034C1089 453.911 1088.11 453 1087.01 453Z" fill="#FDFEFF"/>
<path d="M1098.29 480.541C1090.48 479.251 1082.77 480.492 1075.07 481.918C1067.78 483.27 1060.47 484.794 1053.48 487.363C1040.71 492.046 1029.34 500.22 1023.26 512.978C1020.18 519.431 1018.3 526.424 1017.39 533.529C1016.48 540.633 1016.98 547.639 1020.93 553.465C1024.87 559.291 1030.44 562.954 1036.36 565.756C1042.49 568.669 1049.01 570.488 1055.69 571.496C1071.65 573.917 1088.08 572.873 1104.12 572.086C1107.95 571.902 1107.97 565.756 1104.12 565.941C1090.56 566.604 1076.82 567.391 1063.27 566.248C1051.66 565.277 1038.78 562.401 1029.73 554.338C1027.66 552.494 1025.89 550.404 1024.67 547.885C1023.32 545.095 1022.93 541.899 1022.97 538.814C1023.03 532.496 1024.57 526.019 1026.72 520.131C1028.84 514.33 1032.06 508.959 1036.41 504.644C1040.76 500.33 1045.95 497.147 1051.44 494.738C1058.43 491.665 1065.94 489.92 1073.39 488.469C1080.83 487.019 1088.97 485.2 1096.71 486.466C1098.3 486.724 1099.93 486.048 1100.39 484.315C1100.79 482.852 1099.9 480.799 1098.3 480.529L1098.29 480.541Z" fill="#E2DFD5"/>
<path d="M1047.31 586.227C1046.75 572.386 1044.34 558.644 1044.7 544.767C1044.85 538.369 1045.61 531.983 1047.43 525.842C1048.33 522.797 1049.41 519.653 1051.06 516.939C1052.26 514.949 1055.14 512.37 1057.32 514.642C1059.09 516.484 1059.59 519.714 1060.3 522.084C1061 524.455 1061.82 526.984 1063.08 529.195C1064.25 531.221 1066.24 533.923 1068.72 534.267C1071.54 534.648 1073.25 531.614 1074.43 529.502C1080.79 518.13 1078.16 504.793 1077.87 492.426C1077.71 485.881 1078.27 479.016 1081.41 473.145C1082.89 470.358 1085.03 467.459 1087.96 466.121C1090.26 465.077 1093.67 465.494 1094.42 468.331C1095.01 470.616 1098.54 469.645 1097.93 467.349C1096.35 461.344 1089.08 460.754 1084.65 463.8C1079.73 467.189 1076.83 473.072 1075.45 478.77C1072.21 492.132 1076.92 505.861 1074.24 519.235C1073.66 522.17 1072.74 525.032 1071.28 527.635C1070.91 528.286 1069.85 530.583 1069.05 530.558C1068.6 530.546 1067.7 529.404 1067.43 529.084C1066.97 528.544 1066.58 527.955 1066.23 527.328C1064.84 524.921 1064.14 522.207 1063.35 519.567C1062.56 516.926 1061.82 514.028 1059.88 512.026C1057.8 509.865 1054.73 509.632 1052.11 510.897C1049.34 512.235 1047.74 515.072 1046.52 517.786C1043.78 523.914 1042.27 530.435 1041.54 537.104C1039.74 553.499 1042.99 569.857 1043.65 586.227C1043.75 588.585 1047.4 588.597 1047.3 586.227H1047.31Z" fill="#428DE4"/>
<path d="M992.105 467.976C998.296 469.698 1005.21 469.347 1011.06 472.221C1015.76 474.537 1019.7 478.588 1021.63 483.609C1023.87 489.418 1023.52 496.076 1020.68 501.594C1017.83 507.111 1013.35 511.89 1011.16 517.953C1008.98 524.017 1009.34 530.772 1013.94 535.271C1018.12 539.383 1024.27 540.51 1029.86 540.062C1033.26 539.795 1036.59 539.067 1039.97 538.631C1042.83 538.267 1046.35 537.794 1048.99 539.286C1051.27 540.583 1051.55 542.633 1050.42 544.889C1049.02 547.654 1047.29 550.249 1047.31 553.499C1047.33 557.258 1050.02 560.145 1053.55 560.763C1057.08 561.382 1060.9 560.63 1064.47 560.302C1072.66 559.551 1080.86 558.799 1089.05 558.047C1090.63 557.901 1092 556.761 1092 555.015C1092 553.487 1090.64 551.838 1089.05 551.983C1081.83 552.638 1074.61 553.305 1067.39 553.96C1063.87 554.287 1060.33 554.76 1056.8 554.906C1055.31 554.966 1052.9 555.1 1053.24 552.929C1053.7 549.97 1056.09 547.666 1056.79 544.731C1057.56 541.481 1056.59 538.218 1054.28 535.866C1049.26 530.724 1041.33 532.288 1035.08 533.307C1029.82 534.156 1023.81 535.077 1019.1 531.815C1014.4 528.553 1015.38 522.465 1017.51 518.026C1020.27 512.254 1024.76 507.621 1027.14 501.606C1029.53 495.554 1029.63 488.362 1027.41 482.238C1025.19 476.114 1020.75 470.669 1015.03 467.503C1008.36 463.817 1000.8 464.108 993.664 462.119C989.989 461.1 988.418 466.945 992.093 467.964L992.105 467.976Z" fill="#F58D6D"/>
<path d="M1056.8 460.867C1051.65 462.907 1046.4 465.366 1042.62 469.766C1039.23 473.712 1036.41 479.981 1039.02 485.193C1041.36 489.864 1046.69 490.663 1051.15 491.118C1053.48 491.363 1056.17 491.597 1058.02 493.293C1059.66 494.793 1060.39 497.202 1061.36 499.181C1063.86 504.356 1068.69 506.925 1074.1 506.999C1079.51 507.072 1083.91 503.913 1085.48 498.517C1086.95 493.416 1085.2 488.069 1081.83 484.295C1080.04 482.292 1077.83 481.21 1075.77 479.625C1073.71 478.039 1073.67 475.396 1073.97 472.962C1074.38 469.668 1075.58 465.968 1074.42 462.698C1073.26 459.429 1069.95 458.913 1066.96 459.011C1060.68 459.22 1054.81 461.346 1049.28 464.382C1046.81 465.747 1049 469.73 1051.47 468.365C1055.53 466.14 1059.87 464.346 1064.44 463.805C1065.5 463.682 1066.58 463.62 1067.65 463.596C1068.52 463.596 1069.84 463.301 1070.33 464.26C1070.79 465.132 1070.52 466.669 1070.42 467.603C1070.26 469.004 1069.95 470.393 1069.75 471.795C1069.06 476.736 1069.94 481.21 1074.16 483.988C1077.59 486.25 1080.99 488.868 1081.59 493.478C1082.13 497.534 1079.9 501.418 1076.05 502.217C1072.19 503.016 1067.51 501.43 1065.49 497.632C1064.53 495.825 1063.87 493.859 1062.77 492.138C1061.54 490.22 1059.93 488.819 1057.92 487.934C1054.03 486.238 1049.69 486.987 1045.8 485.439C1043.94 484.701 1042.51 483.324 1042.37 481.124C1042.22 478.592 1043.45 476.011 1044.87 474.056C1048.1 469.619 1053.13 467.234 1057.95 465.317C1060.55 464.284 1059.42 459.834 1056.79 460.867H1056.8Z" fill="#777777"/>
<path d="M878.358 444H822.648C819.378 444 817.761 447.808 820.12 449.987L844.484 472.584C844.771 472.848 844.927 473.203 844.927 473.582V475.612C844.927 476.381 845.574 477 846.376 477H854.629C855.432 477 856.078 476.381 856.078 475.612V473.582C856.078 473.203 856.234 472.848 856.522 472.584L880.885 449.987C883.233 447.808 881.628 444 878.358 444Z" fill="#777777"/>
<path d="M852 477H849V666H852V477Z" fill="#777777"/>
<path d="M1039.41 550.447C1037.96 547.219 1034.98 545.058 1032.01 543.48C1025.04 539.779 1016.31 538.286 1009.33 542.764C1008.92 543.019 1008.61 543.335 1008.36 543.662C1005.43 544.597 1003.3 546.988 1002.41 550.204C1001.4 553.906 1002.36 558.045 1004.2 561.297C1006.07 564.61 1008.91 567.123 1011.9 569.295C1015.16 571.674 1018.59 573.228 1022.66 572.973C1029.36 572.548 1038.91 570.691 1040.62 562.584C1041.4 558.846 1040.98 553.918 1039.42 550.447H1039.41Z" fill="#333232"/>
<path d="M933.297 516C933.297 516 929.638 546.086 948 552C948 552 933.286 517.26 933.297 516Z" fill="#333232"/>
<path d="M936.006 519.04C935.678 543.885 949.197 564.468 967.057 563.992C989.913 563.373 1007.66 544.682 1007.99 519.837C1008.32 494.992 999.092 480.587 976.248 480.016C953.391 479.445 936.346 494.195 936.006 519.04Z" fill="#FCE6E0"/>
<path d="M991.122 540L994.101 561.243L1020 559.206L972.904 639L933 563.136L953.343 569.174L954.637 540.791L991.122 540Z" fill="#FCE6E0"/>
<path d="M937.14 529.781C941.873 515.164 943.881 525.503 945 509.876C945 509.876 945.328 497.363 957.702 495.082C957.702 495.082 973.787 493.537 975.783 484.886C975.783 484.886 982.268 484.28 984.519 494.511C984.519 494.511 986.271 525.586 1003.23 531.444L1010.15 540C1010.15 540 1034.34 529.78 1016.34 496.71C1016.34 496.71 1006.86 477.816 984.141 477.091C984.141 477.091 978.021 476.235 973.787 479.776C973.787 479.776 965.927 474.774 951.826 484.042C951.826 484.042 922.381 502.937 937.14 529.781Z" fill="#333232"/>
<path d="M994.62 521.945C991.298 528.961 993.248 536.696 998.983 539.207C1004.72 541.718 1012.06 538.071 1015.38 531.055C1018.7 524.039 1016.75 516.304 1011.02 513.793C1005.28 511.282 997.943 514.929 994.62 521.945Z" fill="#FCE6E0"/>
<path d="M926.462 666H1046.45C1074.33 657.663 1067.18 628.214 1067.18 628.214L1049.88 572.946C1039.17 541.76 1011.89 554.632 1011.89 554.632L998.144 558.083L983.157 578.882C962.231 589.933 954.123 567.879 954.123 567.879L943.449 562.885C915.282 551.677 918.077 585.976 918.077 585.976L926.462 666Z" fill="#5AE8A4"/>
<path d="M968.435 567C959.515 567 954.293 563.173 954.206 563.103C953.995 562.935 953.933 562.614 954.082 562.376C954.218 562.139 954.516 562.069 954.727 562.237C954.851 562.334 967.145 571.302 986.336 561.049C986.572 560.924 986.845 561.049 986.956 561.301C987.068 561.566 986.956 561.873 986.733 561.999C979.637 565.785 973.459 567 968.435 567Z" fill="#333232"/>
<path d="M980.625 576.672C984.108 592.203 986.506 607.964 989.405 623.617C991.122 632.933 993.043 642.226 995.476 651.373C996.096 653.715 996.764 656.044 997.456 658.361C998.076 660.425 998.685 662.561 999.806 664.407C1000.16 664.986 1000.57 665.505 1001.01 666H1038C1037.36 661.837 1036.26 657.745 1035.39 653.618C1034.17 647.801 1033 641.96 1031.28 636.264C1029.46 630.194 1026.86 624.522 1024.2 618.802C1021.47 612.912 1019.07 606.89 1016.86 600.796C1014.7 594.822 1012.71 588.788 1010.76 582.754C1010.68 582.501 1010.62 582.259 1010.55 582.006C1009.91 579.653 1009.22 577.299 1008.88 574.874C1008.17 569.745 1009.79 564.893 1011.29 560.078L1013.68 552.463C1014.41 550.158 1015.28 547.841 1015.69 545.452C1015.92 544.148 1015.98 542.833 1016.08 541.517C1016.16 540.202 1016.34 538.862 1016.28 537.547C1016.2 535.737 1015.32 533.746 1013.56 533.251C1014.12 531.658 1014.55 529.896 1013.88 528.291C1013.39 527.132 1012.39 526.167 1011.17 525.974C1011.45 524.586 1011.56 523.162 1011.42 521.75C1011.32 520.543 1011.05 519.203 1009.65 519.034C1007 518.721 1004.31 520.603 1002.59 522.438C998.565 526.674 996.681 532.563 994.128 537.716C992.828 540.347 991.337 542.917 989.357 545.09C987.377 547.262 984.979 548.975 982.916 551.063C980.9 553.115 979.409 555.528 978.657 558.34C977.906 561.164 977.858 564.157 978.216 567.053C978.622 570.372 979.576 573.534 980.602 576.696L980.625 576.672Z" fill="#FCE6E0"/>
<path d="M999.412 549C999.412 549 999.303 549 999.249 548.965C999.043 548.872 998.945 548.617 999.032 548.397C1003.46 537.352 1007.17 525.414 1007.21 525.298C1007.29 525.066 1007.51 524.95 1007.72 525.02C1007.94 525.101 1008.05 525.345 1007.98 525.565C1007.95 525.681 1004.23 537.654 999.781 548.733C999.716 548.896 999.564 549 999.412 549Z" fill="#333232"/>
<path d="M1005.45 557.988C1005.39 557.988 1005.32 557.976 1005.26 557.953C1005.03 557.847 1004.94 557.589 1005.04 557.366C1008.27 550.457 1013.07 534.477 1013.12 534.313C1013.19 534.078 1013.43 533.949 1013.68 534.019C1013.92 534.09 1014.05 534.336 1013.98 534.571C1013.93 534.736 1009.12 550.774 1005.85 557.742C1005.78 557.906 1005.62 558 1005.45 558V557.988Z" fill="#333232"/>
<path d="M1008.41 563.987C1008.41 563.987 1008.33 563.987 1008.3 563.975C1008.08 563.899 1007.96 563.633 1008.01 563.392C1009.33 558.222 1013.16 540.534 1013.19 540.356C1013.24 540.103 1013.47 539.951 1013.69 540.014C1013.91 540.078 1014.04 540.331 1013.99 540.585C1013.94 540.762 1010.12 558.476 1008.8 563.658C1008.74 563.861 1008.58 564 1008.4 564L1008.41 563.987Z" fill="#333232"/>
<path d="M980.298 578.988C980.057 578.988 979.855 578.817 979.83 578.585L978.615 569.804C975.16 550.791 987.321 545.498 988.941 544.889L992.067 539.888C1000.57 520.668 1007.14 519.07 1007.42 519.009C1007.68 518.961 1007.92 519.107 1007.99 519.363C1008.05 519.619 1007.89 519.851 1007.63 519.912C1007.53 519.936 1001.18 521.668 992.915 540.315L989.675 545.511C989.612 545.608 989.523 545.669 989.422 545.706C989.384 545.706 986.03 546.816 983.145 550.304C979.336 554.913 978.096 561.621 979.564 569.682L980.779 578.488C980.817 578.744 980.627 578.963 980.374 579C980.348 579 980.336 579 980.31 579L980.298 578.988Z" fill="#333232"/>
<path d="M980.996 526.356C981.099 528.846 979.177 530.923 976.698 530.998C974.219 531.073 972.121 529.121 972.004 526.644C971.901 524.154 973.823 522.077 976.302 522.002C978.781 521.927 980.879 523.879 980.996 526.356Z" fill="#333232"/>
<path d="M956.996 526.356C957.099 528.846 955.177 530.923 952.698 530.998C950.219 531.073 948.121 529.121 948.004 526.644C947.901 524.154 949.823 522.077 952.302 522.002C954.781 521.927 956.879 523.879 956.996 526.356Z" fill="#333232"/>
<path d="M960.948 536.986C960.948 536.986 960.873 536.986 960.823 536.986C960.308 536.916 959.944 536.383 960.007 535.808L961.124 525.92C961.186 525.344 961.651 524.938 962.177 525.008C962.692 525.078 963.056 525.611 962.993 526.186L961.876 536.074C961.814 536.607 961.412 537 960.948 537V536.986Z" fill="#333232"/>
<path d="M948.974 515.989C948.73 515.989 948.473 515.913 948.28 515.749C947.907 515.433 947.907 514.921 948.28 514.604C948.395 514.506 951.186 512.228 956.264 513.274C956.779 513.383 957.1 513.819 956.972 514.266C956.843 514.713 956.329 514.975 955.802 514.866C951.816 514.038 949.707 515.695 949.617 515.771C949.424 515.924 949.193 516 948.948 516L948.974 515.989Z" fill="#333232"/>
<path d="M982.983 516C982.808 516 982.632 515.964 982.484 515.881C979.069 514.147 976.383 514.978 976.356 514.978C975.83 515.145 975.249 514.907 975.06 514.444C974.871 513.98 975.141 513.469 975.668 513.303C975.816 513.255 979.285 512.198 983.496 514.337C983.982 514.586 984.144 515.133 983.861 515.549C983.672 515.834 983.334 516 982.983 516Z" fill="#333232"/>
<path d="M969 546C969 549.313 966.313 552 963 552C959.687 552 957 549.313 957 546C957 542.687 959.687 540 963 540C966.313 540 969 542.687 969 546Z" fill="#F4BFB3"/>
<path d="M963 552C959.692 552 957 549.308 957 546C957 542.692 959.692 540 963 540C966.308 540 969 542.692 969 546C969 549.308 966.308 552 963 552ZM963 541.711C960.627 541.711 958.711 543.639 958.711 546C958.711 548.361 960.639 550.289 963 550.289C965.361 550.289 967.289 548.361 967.289 546C967.289 543.639 965.361 541.711 963 541.711Z" fill="#333232"/>
<path d="M903 666L896.242 609.158L865.742 594L858 666H903Z" fill="#3ADE8F"/>
<path d="M918.466 666L942 590.987L919.406 567C919.406 567 902.087 582.778 888 666H918.466Z" fill="#5AE8A4"/>
<path d="M861 540L888.614 627H951L923.628 540H861Z" fill="#F5F5F5"/>
<path d="M873.95 604.236L870.063 586.491C870.063 586.491 869.253 578.597 873.426 575.869L885.337 570C885.337 570 889.212 570.081 887.745 576.306C887.745 576.306 892.491 575.593 891.537 582.82C891.537 582.82 894.756 583.441 894.875 589.667C894.875 589.667 899.656 590.645 894.875 597.17L885.218 618C885.218 618 877.42 615.698 873.962 604.248L873.95 604.236Z" fill="#FCE6E0"/>
<path d="M873.425 585C873.425 585 873.391 585 873.38 585C873.139 584.98 872.979 584.79 873.002 584.59C873.334 581.959 875.416 580.499 875.496 580.439L884.361 576.048C884.567 575.948 884.831 576.008 884.945 576.188C885.059 576.368 884.991 576.598 884.785 576.698L875.976 581.059C875.976 581.059 874.146 582.379 873.86 584.67C873.837 584.86 873.654 585 873.437 585H873.425Z" fill="#333232"/>
<path d="M879.442 594C879.198 594 879 593.823 879 593.604C879 588.051 881.002 586.77 881.084 586.718L890.35 582.05C890.56 581.946 890.828 582.009 890.944 582.196C891.06 582.384 890.99 582.623 890.781 582.727L881.538 587.384C881.538 587.384 879.873 588.572 879.873 593.604C879.873 593.823 879.675 594 879.431 594H879.442Z" fill="#333232"/>
<path d="M882.731 606C882.506 606 882.306 605.844 882.268 605.617C881.08 597.846 884.22 596.015 884.357 595.943L893.302 591.058C893.527 590.938 893.815 591.01 893.94 591.225C894.065 591.441 893.99 591.716 893.765 591.836L884.82 596.721C884.82 596.721 882.105 598.409 883.194 605.485C883.231 605.737 883.056 605.964 882.793 606C882.768 606 882.743 606 882.731 606Z" fill="#333232"/>
</svg>
