<svg width="572" height="388" viewBox="0 0 572 388" fill="none" xmlns="http://www.w3.org/2000/svg">
    <path d="M569.917 164.027c-.563-4.965-7.346-4.417-10.436-4.006-5.863.807-11.698 1.859-17.52 3.047-5.602 1.081-11.287 2.741-16.999 2.97-5.711.228-11.149-1.143-16.696-1.523-3.03-.163-6.064-.193-9.103-.092a41.376 41.376 0 0 0 6.755-8.21c2.507-4.195 3.896-9.089 4.009-14.12.138-4.067.138-9.977-2.938-12.887-3.076-2.909-6.508 0-8.499 2.864a78.707 78.707 0 0 1-9.763 12.094c-3.46 3.428-7.428 6.2-10.737 9.825a21.962 21.962 0 0 0-3.776 5.636 37.894 37.894 0 0 0-2.224 8.225c-.637 2.664-1.976 5.056-3.845 6.87-4.215 4.859-13.731 13.359-17.973 18.279a1.58 1.58 0 0 0-.314.637 1.688 1.688 0 0 0-.012.725c.049.239.148.462.291.649s.324.333.529.426c6.536 4.052 12.22 7.845 18.756 11.897l12.605 7.814c1.112.685 2.21 1.432 3.35 2.071 1.826 1.051 3.378-.746 5.094-1.645a153.521 153.521 0 0 1 30.619-11.546c9.006-1.854 17.687-5.289 25.718-10.175a74.998 74.998 0 0 0 5.671-3.945 20.674 20.674 0 0 0 5.368-5.24c1.373-2.163 1.195-4.341 1.785-6.763.591-2.422 2.348-3.671 4.023-4.935 2.596-2.042 6.742-4.783 6.262-8.942z" fill="#FCE6E0"/>
    <path d="m519.251 194.034-.333-1.395 12.646-3.258 21.56-7.704.473 1.376-21.629 7.721-12.717 3.26zM517.792 184.116l-.152-1.446c.225-.009 22.895-2.442 37.423-6.95l.405 1.437c-14.613 4.497-37.409 6.934-37.676 6.959zM518.386 176.499l-1.265.05-.054-1.45c.281-.011 27.504-.765 42.553-6.034l.461 1.434c-13.371 4.593-36.101 5.78-41.695 6z" fill="#575B65"/>
    <path d="M307.837 71.63h-42.056v62.608h42.056V71.629zM250.903 111.719l-34.727-36.854-4.881-5.223a3.164 3.164 0 0 0-1.279-.887 3.075 3.075 0 0 0-1.534-.158 2.996 2.996 0 0 0-1.995.778 3.181 3.181 0 0 0-1.015 1.935 61.05 61.05 0 0 1-3.741 13.364 38.94 38.94 0 0 1-7.399 10.069c-5.809 6.225-13.826 14.785-10.844 24.666 2.7 8.909 11.927 14.045 19.888 15.786a55.943 55.943 0 0 0 27.92-.856 31.007 31.007 0 0 0 12.4-6.973 32.27 32.27 0 0 0 8.164-11.889 3.998 3.998 0 0 0 .011-2.012 3.91 3.91 0 0 0-.968-1.746z" fill="#383E44"/>
    <path d="M194.905 60.936c-5.035 36.404 10.015 69.123 34.981 71.749 31.943 3.352 60.13-20.792 65.165-57.181 5.036-36.39-5.162-59.272-36.893-64.35-31.732-5.078-58.217 13.349-63.253 49.782z" fill="#FCE6E0"/>
    <path d="m275.758 102.593 6.104 40.699 50.045 21.909-84.814 98.432-62.718-105.992 42.407-12.129 2.096-47.867 46.88 4.948z" fill="#FCE6E0"/>
    <path d="M195.617 68.822s18.945-11.55 36.384-46.313c0 0-1.035 15.245-17.329 31.674 0 0 18.82-8.388 28.127-33.117 0 0 6.103-5.169 11.93 12.487 0 0 11.612 31.674 33.595 41.996l34.823 1.198S320.62 39.82 286.418 9.43c0 0-19.98-16.213-44.765-6.122 0 0-13.546-9.123-34.216 18.48.028 0-16.721 20.846-11.82 47.034z" fill="#383E44"/>
    <path d="M333.629 115.564c-.464-4.469-2.447-8.183-4.219-11.985a42.39 42.39 0 0 1-3.235-12.986 173.735 173.735 0 0 0-6.316-30.774c0-.087-.084-.13-.112-.203-.169-.668-.647-1.147-1.294-.798a10402.55 10402.55 0 0 0-22.885 11.956l-3.249 1.77a1.426 1.426 0 0 0-.64.588c-.148.26-.215.562-.19.862a37.938 37.938 0 0 1-5.527 16.382c-1.21 2.103-2.898 4.12-2.926 6.906a11.942 11.942 0 0 0 2.813 7.153c2.94 4.034 5.176 8.706 4.797 14.379-.408 6.196-4.305 9.809-8.187 12.783-.195.17-.347.387-.441.632a1.644 1.644 0 0 0 .159 1.504c.144.218.337.397.564.519 7.032 2.786 14.431 2.713 21.717 2.104 6.484-.537 13.292-.929 19.354-4.179 5.246-2.931 10.633-8.604 9.817-16.613z" fill="#383E44"/>
    <path d="M273.706 80.292c-5.626 9.14-4.374 20.182 2.814 24.666 7.187 4.483 17.455.725 23.053-8.401 5.598-9.127 4.374-20.183-2.813-24.666-7.188-4.484-17.441-.726-23.054 8.4z" fill="#FCE6E0"/>
    <path d="M236.03 135.271a42.446 42.446 0 0 1-11.182-1.321 1.063 1.063 0 0 1-.627-.526 1.123 1.123 0 0 1-.083-.83c.08-.278.264-.51.51-.648a1.03 1.03 0 0 1 .805-.085c.281.087 28.314 8.373 53.449-19.083a1.04 1.04 0 0 1 .745-.318c.28 0 .548.115.746.318a1.11 1.11 0 0 1 0 1.539c-16.021 17.573-33.42 20.954-44.363 20.954zM257.58 65.29a11.027 11.027 0 0 0-5.626-.973c-1.004.239-1.991.55-2.954.929l-3.319 1.16a1.628 1.628 0 0 1-1.256-.007 1.698 1.698 0 0 1-.896-.906 1.767 1.767 0 0 1 .002-1.297c.166-.416.483-.747.884-.924l3.699-1.291a20.607 20.607 0 0 1 3.685-1.074c2.441-.17 4.885.262 7.131 1.263.206.082.394.206.553.365a1.713 1.713 0 0 1 .499 1.223 1.75 1.75 0 0 1-.133.663c-.087.21-.214.399-.373.557-.16.157-.348.28-.555.362a1.594 1.594 0 0 1-1.285-.05h-.056zM210.357 62.199a9.068 9.068 0 0 1 5.078-.261c.847.335 1.666.743 2.447 1.219l2.813 1.45a1.383 1.383 0 0 0 1.133.146 1.4 1.4 0 0 0 .512-.29c.148-.132.269-.296.353-.48.204-.36.27-.787.184-1.195a1.674 1.674 0 0 0-.649-1.01l-3.052-1.64a17.36 17.36 0 0 0-3.052-1.45 12.287 12.287 0 0 0-6.4.377 1.69 1.69 0 0 0-.898.801c-.195.372-.25.804-.157 1.215.041.194.12.377.232.538a1.38 1.38 0 0 0 1.527.55l-.071.03zM228.041 83.63c-.521 3.279-1.056 6.573-1.577 9.852-.1.44-.365.82-.737 1.06-.371.24-.82.317-1.247.217a1.695 1.695 0 0 1-1.01-.77 1.782 1.782 0 0 1-.214-1.276c.52-3.28 1.055-6.559 1.576-9.853.049-.217.139-.422.265-.604.126-.181.285-.335.468-.453a1.62 1.62 0 0 1 1.244-.213c.211.05.41.144.586.273a1.713 1.713 0 0 1 .666 1.103c.036.22.029.446-.02.663z" fill="#575B65"/>
    <path d="m248.365 102.593-33.209-1.741s1.547 16.238 16.499 16.238c-.042 0 14.684.522 16.71-14.497z" fill="#F4BFB3"/>
    <path d="M231.636 118.541h-.141c-15.992 0-17.849-17.414-17.863-17.544a1.495 1.495 0 0 1 .38-1.147 1.4 1.4 0 0 1 .501-.349c.189-.078.393-.112.596-.1l33.251 1.741c.194.01.385.061.559.151.175.09.329.217.453.371a1.482 1.482 0 0 1 .31 1.132c-2.068 15.31-16.457 15.745-18.046 15.745zm-.099-2.902c.577 0 12.519.246 15.093-11.682l-29.917-1.567c.829 3.918 3.952 13.249 14.824 13.249z" fill="#575B65"/>
    <path d="M200.938 178.796s28.538 26.538 105.012 6.268L241.319 299.21l-40.381-120.414z" fill="#FDFEFF"/>
    <path d="M254.382 79.9c0 3.338-2.223 6.037-4.965 6.037-2.743 0-4.979-2.699-4.979-6.036 0-3.338 2.236-6.022 4.979-6.022 2.742 0 4.965 2.699 4.965 6.022zM222.069 79.465c0 3.323-2.222 6.022-4.965 6.022s-4.979-2.699-4.979-6.022c0-3.323 2.222-6.036 4.979-6.036s4.965 2.699 4.965 6.036z" fill="#575B65"/>
    <path d="M196 154s25.073 75.259 44.909 129.074c0 0 39.277-72.669 71.091-127.074l32 12-21.161 164.531L327.571 388H180.25l7.318-57.223L182 158l14-4z" fill="#5CD65C"/>
    <path d="M114.628 170.738c-2.954-10.621-.619-25.261-.619-25.261l2.18-17.411c2.335-18.166-6.709-17.528-6.709-17.528l3.347-39.103c.788-8.517-5.457-7.385-5.457-7.385-11.998 1.117-13.56 16.236-13.56 16.236l-2.559 17.905c-14.065-.61-17.005 8.386-17.005 8.386-11.07-.479-11.688 5.949-11.688 5.949-6.78 1.291-6.555 10.781-6.555 10.781-.225 21.067 11.857 15.757 11.857 15.757-.464 25.565 9.199 28.467 9.199 28.467l5.626 23.215 35.234-7.719-3.291-12.289z" fill="#FCE6E0"/>
    <path d="M85.475 134.467a16.317 16.317 0 0 1-5.457-.986 3.768 3.768 0 0 1-1.408-.917 3.927 3.927 0 0 1-.89-1.452 4.017 4.017 0 0 1 .329-3.334l5.907-10.158a13.341 13.341 0 0 1 4.62-4.75 12.825 12.825 0 0 1 6.267-1.867l12.419-1.132.127 1.451-12.476 1.132a11.675 11.675 0 0 0-5.594 1.687 12.129 12.129 0 0 0-4.153 4.219l-5.922 10.158a2.581 2.581 0 0 0-.197 2.118c.118.334.304.636.547.887.243.251.537.444.86.565 4.346 1.567 12.659 2.409 19.537-9.549l1.209.74c-5.091 8.954-10.999 11.188-15.725 11.188z" fill="#575B65"/>
    <path d="M90.63 158.423c-8.542-14.86-2.096-25.192-1.829-25.627l1.182.798c0 .101-6.22 10.042 1.872 24.089l-1.224.74zM80.086 124.716a4.058 4.058 0 0 1-2.616-.958c-4.051-3.323-3.938-14.511-3.938-14.932h1.406c0 3.018.492 11.391 3.404 13.771a2.858 2.858 0 0 0 2.63.537l.338 1.451a5.197 5.197 0 0 1-1.224.131zM73.448 134.757a3.416 3.416 0 0 1-1.534-.319c-6.639-4.644-8.847-18.473-8.945-19.054l1.406-.232c0 .131 2.209 13.8 8.27 18.038 0 0 2.18 1.001 5.318-2.569l1.04.973c-2.306 2.597-4.29 3.163-5.555 3.163z" fill="#575B65"/>
    <path d="m70.043 138.121-.887-1.132a6.427 6.427 0 0 0 1.816-3.7l1.407.174a7.771 7.771 0 0 1-2.336 4.658z" fill="#575B65"/>
    <path d="m173.584 328.606 39.917-104.134L182 158s-28.403 4.212-47.392 74.336l-24.67 105.513s9.1 18.978 24.347 17.411c0-.043 23.714.45 39.299-26.654zM343.997 339.517l-39.903-104.134L343.997 168s20.001 5.21 38.99 75.334L410 346s-12 22-32 22c-11.37 0-18.418-1.306-34.003-28.483z" fill="#5CD65C"/>
    <path d="M101.895 345.849s-24.502-83.937-34.207-157.326l59.932-13.059 29.931 136.462-55.656 33.923zM408 348s48.32-60.425 85.931-130.564l-51.1-34.823L360 294.423 408 348z" fill="#5CD65C"/>
    <path d="m154.34 327.654-1.407-.29c3.376-17.411-3.052-47.983-3.108-48.288l-13.137-61.998 1.406-.305 13.123 61.984c.07.319 6.555 31.254 3.123 48.897zM366.125 327.78h-1.406c.548-32.356 19.79-66.395 19.987-66.743l1.209.725c-.197.334-19.241 34.054-19.79 66.018z" fill="#209220"/>
    <path d="m193.938 154.914 2.348 57.66 15.838 3.889-9.086 22.533L241 283l-40.044-130.045 3.151-.914s-.914-.987-3.418-.392l-5.064 1.683s-1.491.261-1.687 1.582zM241 283l66.812-128.318-1.829-.798s.76-.755 3.334 0l8.158 3.54c.302.101.569.293.764.552.196.258.312.572.333.899l-13.756 63.363-18.032-1.205 7.272 22.2L241 283z" fill="#85E085"/>
    <path d="M291.959 376H28.568c-2.333 0-4.224 1.985-4.224 4.434v3.133c0 2.448 1.89 4.433 4.224 4.433h263.391c2.333 0 4.224-1.985 4.224-4.433v-3.133c0-2.449-1.891-4.434-4.224-4.434z" fill="#7E8086"/>
    <path d="M216.628 379.998H27.034a5.147 5.147 0 0 1-3.204-1.29 5.432 5.432 0 0 1-1.735-3.061L.425 244.353a3.69 3.69 0 0 1 .017-1.615 3.63 3.63 0 0 1 .703-1.444 3.496 3.496 0 0 1 1.247-.978 3.389 3.389 0 0 1 1.537-.314H193.58a5.128 5.128 0 0 1 3.197 1.291 5.42 5.42 0 0 1 1.728 3.06l21.627 131.294a3.683 3.683 0 0 1-.017 1.615 3.62 3.62 0 0 1-.703 1.444 3.492 3.492 0 0 1-1.247.978 3.387 3.387 0 0 1-1.537.314z" fill="#7E8086"/>
</svg>
