<svg width="150" height="150" viewBox="0 0 150 150" fill="none" xmlns="http://www.w3.org/2000/svg">
    <path d="M91.668 33.537c0-8.263-7.415-14.325-15.066-12.317L34.178 32.351C28.784 33.766 25 38.844 25 44.668V112.5h66.667V33.537z" fill="#3EC57C"/>
    <path d="M75 75.004c0-7.92 7.273-13.844 15.03-12.24l24.999 5.165A12.5 12.5 0 0 1 125 80.17v35.738H75V75.004z" fill="#3D5AE9"/>
    <path fill-rule="evenodd" clip-rule="evenodd" d="M41.668 48.833a3 3 0 0 1 3-3h10.667a3 3 0 0 1 3 3v6.5a3 3 0 0 1-3 3H44.668a3 3 0 0 1-3-3v-6.5zm0 20.834a3 3 0 0 1 3-3h10.667a3 3 0 0 1 3 3v6.5a3 3 0 0 1-3 3H44.668a3 3 0 0 1-3-3v-6.5zm3 17.833a3 3 0 0 0-3 3V97a3 3 0 0 0 3 3h10.667a3 3 0 0 0 3-3v-6.5a3 3 0 0 0-3-3H44.668z" fill="#fff"/>
    <path d="M18.75 118.75A6.25 6.25 0 0 1 25 112.5h100a6.25 6.25 0 1 1 0 12.5H25a6.25 6.25 0 0 1-6.25-6.25z" fill="#B4C9FF"/>
</svg>
