<svg width="150" height="150" viewBox="0 0 150 150" fill="none" xmlns="http://www.w3.org/2000/svg">
    <path fill-rule="evenodd" clip-rule="evenodd" d="M70.693 75c7.597-4.797 12.643-13.268 12.643-22.917C83.336 37.126 71.21 25 56.253 25c-14.958 0-27.084 12.126-27.084 27.083 0 9.65 5.046 18.12 12.643 22.917H39.5c-14.912 0-27 12.088-27 27v4.667c0 5.523 4.477 10 10 10H90c5.523 0 10-4.478 10-10V102c0-14.912-12.088-27-27-27h-2.307z" fill="#3EC57C"/>
    <path fill-rule="evenodd" clip-rule="evenodd" d="M116.616 101.043C121.669 97.684 125 91.94 125 85.417c0-10.356-8.395-18.75-18.75-18.75S87.5 75.06 87.5 85.417c0 6.523 3.33 12.267 8.385 15.626h-.361c-11.335 0-20.524 9.189-20.524 20.524a7.601 7.601 0 0 0 7.601 7.601H129.9a7.6 7.6 0 0 0 7.601-7.601c0-11.335-9.189-20.524-20.524-20.524h-.36z" fill="#3D5AE9"/>
    <path fill-rule="evenodd" clip-rule="evenodd" d="M45.844 43.75a2.083 2.083 0 1 1 4.166 0v4.167a2.083 2.083 0 1 1-4.166 0V43.75zm16.67 0a2.083 2.083 0 1 1 4.166 0v4.167a2.083 2.083 0 1 1-4.167 0V43.75zm1.112 16.31c1.954-1.564 3.051-3.683 3.051-5.893H45.844c0 2.21 1.097 4.33 3.05 5.892 1.954 1.563 4.604 2.441 7.366 2.441 2.763 0 5.413-.878 7.366-2.44z" fill="#fff"/>
</svg>
