<svg width="150" height="150" viewBox="0 0 150 150" fill="none" xmlns="http://www.w3.org/2000/svg">
    <path d="M46.791 92.932a8.333 8.333 0 0 1 7.812-5.432h65.792a8.333 8.333 0 0 1 7.812 5.432l9.286 25c2.022 5.444-2.005 11.235-7.812 11.235H45.317c-5.807 0-9.834-5.791-7.812-11.235l9.286-25z" fill="#3EC57C"/>
    <path fill-rule="evenodd" clip-rule="evenodd" d="M62.498 100c20.71 0 37.5-16.79 37.5-37.5S83.208 25 62.498 25c-20.711 0-37.5 16.79-37.5 37.5a37.326 37.326 0 0 0 6.434 21.01l-16.717 16.718a7.541 7.541 0 1 0 10.666 10.665l16.841-16.841A37.325 37.325 0 0 0 62.498 100z" fill="#3D5AE9"/>
    <circle cx="62.497" cy="62.5" r="20.833" fill="#fff"/>
</svg>
