<svg width="150" height="150" viewBox="0 0 150 150" fill="none" xmlns="http://www.w3.org/2000/svg">
    <path d="M20.832 48.958c0-8.63 6.84-15.625 15.278-15.625h61.11c8.439 0 15.279 6.996 15.279 15.625v46.875H20.832V48.958z" fill="#3EC57C"/>
    <path d="M12.5 102.083c0-3.451 2.853-6.25 6.372-6.25h95.589c3.519 0 6.372 2.799 6.372 6.25 0 3.452-2.853 6.25-6.372 6.25H18.873c-3.52 0-6.373-2.798-6.373-6.25z" fill="#B4C9FF"/>
    <path d="M33.332 54.167c0-2.302 2.099-4.167 4.688-4.167h40.624c2.59 0 4.688 1.865 4.688 4.167 0 2.3-2.099 4.166-4.688 4.166H38.02c-2.588 0-4.687-1.865-4.687-4.166zM33.332 75c0-2.301 1.4-4.167 3.125-4.167H63.54c1.726 0 3.125 1.866 3.125 4.167 0 2.301-1.399 4.167-3.125 4.167H36.457c-1.726 0-3.125-1.866-3.125-4.167z" fill="#fff"/>
    <path fill-rule="evenodd" clip-rule="evenodd" d="M116.616 96.877c5.053-3.36 8.384-9.104 8.384-15.627 0-10.355-8.395-18.75-18.75-18.75S87.5 70.895 87.5 81.25c0 6.523 3.33 12.268 8.385 15.627h-.361C84.189 96.877 75 106.065 75 117.4a7.602 7.602 0 0 0 7.601 7.602H129.9a7.602 7.602 0 0 0 7.601-7.602c0-11.335-9.189-20.523-20.524-20.523h-.36z" fill="#3D5AE9"/>
</svg>
