<svg width="155" height="124" viewBox="0 0 155 124" fill="none" xmlns="http://www.w3.org/2000/svg">
    <path fill-rule="evenodd" clip-rule="evenodd" d="M92.858 2.942a41.56 41.56 0 0 0-30.716 0L3.132 26.464c-4.176 1.665-4.176 7.407 0 9.072l59.01 23.522a41.559 41.559 0 0 0 30.716 0l59.009-23.522c4.177-1.665 4.177-7.407 0-9.072L92.857 2.942zm61.601 53.828c1.541 3.953-.324 8.442-4.166 10.028L95.306 89.49a46.23 46.23 0 0 1-35.438-.041L4.69 66.529C.853 64.937-1.003 60.443.547 56.494c1.55-3.949 5.917-5.858 9.755-4.264l55.177 22.92a31.63 31.63 0 0 0 24.247.028l54.988-22.693c3.841-1.585 8.205.334 9.745 4.286zm0 31c1.541 3.953-.324 8.442-4.166 10.028L95.306 120.49a46.233 46.233 0 0 1-35.438-.041L4.69 97.529C.853 95.937-1.003 91.443.547 87.494c1.55-3.949 5.917-5.858 9.755-4.264l55.177 22.919a31.634 31.634 0 0 0 24.247.029l54.988-22.693c3.841-1.585 8.205.334 9.745 4.287z" fill="#000"/>
</svg>
